<svg width="38" height="38" viewBox="0 0 38 38" fill="none" xmlns="http://www.w3.org/2000/svg">
<path d="M32.0625 16.8149V12.2458C32.0625 12.2444 32.0625 12.2426 32.0625 12.2409V6.67969C32.0625 5.45189 31.0637 4.45312 29.8359 4.45312H22.7109V2.22656C22.7109 0.998764 21.7122 0 20.4844 0H11.5781C10.3503 0 9.35156 0.998764 9.35156 2.22656V4.45312H2.22656C0.998764 4.45312 0 5.45189 0 6.67969V12.2409V12.2458V26.4219C0 28.4681 1.6647 30.1328 3.71094 30.1328H26.8672V37.2578C26.8672 37.5431 27.0307 37.8031 27.2879 37.9267C27.545 38.0504 27.8503 38.0157 28.073 37.8374L31.3203 35.2397L34.5677 37.8374C34.79 38.0154 35.095 38.0507 35.3528 37.9267C35.6099 37.8031 35.7734 37.5431 35.7734 37.2578V28.4316C37.1929 27.1635 38 25.3692 38 23.4531C38 20.0208 35.3977 17.1854 32.0625 16.8149ZM10.8359 2.22656C10.8359 1.8172 11.1688 1.48438 11.5781 1.48438H20.4844C20.8937 1.48438 21.2266 1.8172 21.2266 2.22656V4.45312H10.8359V2.22656ZM2.22656 5.9375H29.8359C30.2453 5.9375 30.5781 6.27032 30.5781 6.67969V11.7677L19.0386 16.8271C18.3488 15.8753 17.233 15.2891 16.0312 15.2891C14.8295 15.2891 13.7137 15.8753 13.0239 16.8271L1.48438 11.7677V6.67969C1.48438 6.27032 1.8172 5.9375 2.22656 5.9375ZM14.0036 18.0786C14.3648 17.2857 15.1606 16.7734 16.0312 16.7734C16.9019 16.7734 17.6977 17.2857 18.0589 18.0786C18.1908 18.3686 18.2578 18.6785 18.2578 19C18.2578 20.2278 17.259 21.2266 16.0312 21.2266C14.8035 21.2266 13.8047 20.2278 13.8047 19C13.8047 18.6785 13.8717 18.3683 14.0036 18.0786ZM3.71094 28.6484C2.48314 28.6484 1.48438 27.6497 1.48438 26.4219V13.3887L12.4119 18.1795C12.3516 18.4468 12.3203 18.7208 12.3203 19C12.3203 21.0462 13.985 22.7109 16.0312 22.7109C18.0775 22.7109 19.7422 21.0462 19.7422 19C19.7422 18.7208 19.7112 18.4468 19.6506 18.1795L30.5781 13.3887V16.8149C27.2429 17.1854 24.6406 20.0208 24.6406 23.4531C24.6406 25.3692 25.4478 27.1635 26.8672 28.4316V28.6484H3.71094ZM31.7839 33.7095C31.5128 33.4927 31.1278 33.4927 30.8567 33.7095L28.3516 35.7134V29.4356C29.2689 29.8899 30.2873 30.1328 31.3203 30.1328C32.3536 30.1328 33.3718 29.8899 34.2891 29.4356V35.7134L31.7839 33.7095ZM31.3203 28.6484C28.4554 28.6484 26.125 26.3303 26.125 23.4531C26.125 20.5885 28.4556 18.2578 31.3203 18.2578C34.185 18.2578 36.5156 20.5885 36.5156 23.4531C36.5156 26.3297 34.1856 28.6484 31.3203 28.6484Z" fill="#E3C06C"/>
</svg>
