<svg width="38" height="38" viewBox="0 0 38 38" fill="none" xmlns="http://www.w3.org/2000/svg">
<path d="M35.1611 20.2572V16.8546C35.1611 16.2621 34.6808 15.7819 34.0884 15.7819C31.8723 15.7819 29.8063 15.9689 27.8543 16.3508C26.7165 15.2519 25.3293 14.4547 23.8271 14.019C25.4651 12.6404 26.5079 10.5763 26.5079 8.27288C26.5079 4.09295 23.1394 0.692383 18.9989 0.692383C14.8585 0.692383 11.49 4.09295 11.49 8.27288C11.49 10.5763 12.5328 12.6404 14.1708 14.0189C12.6687 14.4547 11.2815 15.2519 10.1436 16.3507C8.19166 15.9689 6.12562 15.7818 3.90954 15.7818C3.31712 15.7818 2.83683 16.2621 2.83683 16.8545V20.2571C1.58826 20.7 0.691406 21.8923 0.691406 23.2908V25.4362C0.691406 26.8346 1.58826 28.027 2.83683 28.4698V31.8725C2.83683 32.4649 3.31712 32.9452 3.90954 32.9452C9.51832 32.9452 14.124 34.2741 18.404 37.1274C18.7627 37.3664 19.2351 37.367 19.5941 37.1274C23.8741 34.2741 28.4797 32.9452 34.0886 32.9452C34.681 32.9452 35.1613 32.4649 35.1613 31.8725V28.4698C36.4098 28.027 37.3067 26.8346 37.3067 25.4362V23.2908C37.3065 21.8924 36.4097 20.7 35.1611 20.2572ZM13.6354 8.27288C13.6354 5.27594 16.0415 2.83781 18.9989 2.83781C21.9564 2.83781 24.3625 5.27594 24.3625 8.27288C24.3625 11.2303 21.9564 13.6364 18.9989 13.6364C16.0415 13.6364 13.6354 11.2303 13.6354 8.27288ZM3.90947 26.509C3.31798 26.509 2.83676 26.0278 2.83676 25.4363V23.2908C2.83676 22.6993 3.31798 22.2181 3.90947 22.2181C4.50096 22.2181 4.98218 22.6993 4.98218 23.2908V25.4363C4.98218 26.0278 4.50096 26.509 3.90947 26.509ZM17.9262 34.3101C14.0321 32.0831 9.85329 30.9575 4.98218 30.8153V28.4699C6.23074 28.0271 7.1276 26.8347 7.1276 25.4363V23.2908C7.1276 21.8924 6.23074 20.7 4.98218 20.2572V17.9424C10.0226 18.0871 14.0741 19.274 17.9262 21.7267V34.3101ZM18.9989 19.8681C17.019 18.6188 14.9581 17.6676 12.758 16.9992C13.9669 16.2135 15.39 15.7819 16.8535 15.7819H21.1444C22.6079 15.7819 24.031 16.2135 25.2398 16.9992C23.0398 17.6676 20.9788 18.6188 18.9989 19.8681ZM33.0157 30.8153C28.1447 30.9575 23.9657 32.0833 20.0717 34.3102V21.7275C23.9239 19.2747 27.9751 18.087 33.0157 17.9424V20.2572C31.7671 20.7 30.8703 21.8924 30.8703 23.2908V25.4363C30.8703 26.8347 31.7671 28.0271 33.0157 28.4699V30.8153ZM35.1611 25.4363C35.1611 26.0278 34.6799 26.509 34.0884 26.509C33.4969 26.509 33.0157 26.0278 33.0157 25.4363V23.2908C33.0157 22.6993 33.4969 22.2181 34.0884 22.2181C34.6799 22.2181 35.1611 22.6993 35.1611 23.2908V25.4363Z" fill="#E3C06C" stroke="white" stroke-width="0.5"/>
</svg>
