<svg width="37" height="37" viewBox="0 0 37 37" fill="none" xmlns="http://www.w3.org/2000/svg">
<path d="M8.35484 6.14379C7.97648 6.0304 7.57605 5.96774 7.16129 5.96774C4.85834 5.96774 2.98387 7.84161 2.98387 10.1452C2.98387 11.4801 3.61526 12.6671 4.59277 13.4328C1.93355 14.2719 0 16.761 0 19.6936V23.871C0 25.1875 1.07061 26.2581 2.3871 26.2581H2.98387V34.6129C2.98387 35.9294 4.05448 37 5.37097 37C6.08769 37 6.72326 36.6766 7.16129 36.1753C7.59932 36.6766 8.23489 37 8.95161 37C10.2681 37 11.3387 35.9294 11.3387 34.6129V19.8517C11.3387 19.5933 11.3721 19.3403 11.4354 19.0968H37V0H8.35484V6.14379ZM4.17742 10.1452C4.17742 8.49986 5.51598 7.16129 7.16129 7.16129C8.8066 7.16129 10.1452 8.49986 10.1452 10.1452C10.1452 11.7905 8.8066 13.129 7.16129 13.129C5.51598 13.129 4.17742 11.7905 4.17742 10.1452ZM7.73718 18.8706L7.16129 19.4465L6.5854 18.8706L6.96435 14.3226H7.16129H7.35823L7.73718 18.8706ZM10.1452 19.8517V34.6129C10.1452 35.2711 9.60986 35.8065 8.95161 35.8065C8.29337 35.8065 7.75806 35.2711 7.75806 34.6129V23.871H6.56452V34.6129C6.56452 35.2711 6.02921 35.8065 5.37097 35.8065C4.71273 35.8065 4.17742 35.2711 4.17742 34.6129V18.5H2.98387V25.0645H2.3871C1.72885 25.0645 1.19355 24.5292 1.19355 23.871V19.6936C1.19355 17.0057 3.18021 14.7791 5.76126 14.3894L5.34948 19.323L7.16129 21.1342L8.9725 19.323L8.55536 14.3226H10.3248C11.0988 14.3226 11.8555 14.1083 12.5144 13.7025L19.0729 9.66655C19.1994 9.58897 19.3438 9.54839 19.4918 9.54839C19.9317 9.54839 20.2903 9.90705 20.2903 10.3469V10.5796C20.2903 10.8517 20.1537 11.1018 19.9257 11.2504L12.053 16.3445C10.8583 17.1173 10.1452 18.4284 10.1452 19.8517ZM16.7097 9.54839C16.7097 6.45889 19.0693 3.91126 22.0806 3.61108V9.79545L26.4514 14.1662C25.422 15.0089 24.1079 15.5161 22.6774 15.5161C21.0291 15.5161 19.493 14.8519 18.3711 13.6775L20.5738 12.2524C21.1437 11.8836 21.4839 11.2581 21.4839 10.5796V10.3469C21.4839 9.24881 20.5905 8.35484 19.4918 8.35484C19.123 8.35484 18.7614 8.45689 18.4475 8.65024L16.7168 9.71489C16.7156 9.65939 16.7097 9.60389 16.7097 9.54839ZM27.2953 13.3224L24.118 10.1452H28.6147C28.4954 11.3435 28.0191 12.4386 27.2953 13.3224ZM23.2742 8.95161V3.61108C26.0892 3.89216 28.3342 6.13663 28.6147 8.95161H23.2742ZM35.8065 1.19355V17.9032H12.0668C12.2494 17.692 12.46 17.5022 12.7011 17.3458L17.3602 14.3309C18.7184 15.8444 20.6227 16.7097 22.6774 16.7097C26.6263 16.7097 29.8387 13.4972 29.8387 9.54839C29.8387 5.59953 26.6263 2.3871 22.6774 2.3871C18.7286 2.3871 15.5161 5.59953 15.5161 9.54839C15.5161 9.83902 15.54 10.1296 15.5752 10.4179L11.8889 12.6862C11.4187 12.9763 10.878 13.129 10.3254 13.129H10.0795C10.8553 12.3699 11.3387 11.3136 11.3387 10.1452C11.3387 8.72902 10.6291 7.47758 9.54839 6.72206V1.19355H35.8065ZM32.8077 27.9022C33.8968 27.1473 34.6129 25.8899 34.6129 24.4677C34.6129 22.1648 32.7384 20.2903 30.4355 20.2903C28.1325 20.2903 26.2581 22.1648 26.2581 24.4677C26.2581 25.8899 26.9742 27.1473 28.0633 27.9022C26.4681 28.5234 25.1767 29.748 24.4677 31.2972C23.7588 29.748 22.4674 28.5228 20.8722 27.9022C21.9613 27.1473 22.6774 25.8899 22.6774 24.4677C22.6774 22.1648 20.803 20.2903 18.5 20.2903C16.197 20.2903 14.3226 22.1648 14.3226 24.4677C14.3226 25.8899 15.0387 27.1473 16.1278 27.9022C13.6787 28.8558 11.9355 31.2334 11.9355 34.0161V37H23.871H25.0645H37V34.0161C37 31.2334 35.2568 28.8558 32.8077 27.9022ZM27.4516 24.4677C27.4516 22.8224 28.7902 21.4839 30.4355 21.4839C32.0808 21.4839 33.4194 22.8224 33.4194 24.4677C33.4194 26.1131 32.0808 27.4516 30.4355 27.4516C28.7902 27.4516 27.4516 26.1131 27.4516 24.4677ZM15.5161 24.4677C15.5161 22.8224 16.8547 21.4839 18.5 21.4839C20.1453 21.4839 21.4839 22.8224 21.4839 24.4677C21.4839 26.1131 20.1453 27.4516 18.5 27.4516C16.8547 27.4516 15.5161 26.1131 15.5161 24.4677ZM23.871 35.8065H22.0806V31.0323H20.8871V35.8065H16.1129V31.0323H14.9194V35.8065H13.129V34.0161C13.129 31.0543 15.5382 28.6452 18.5 28.6452C21.4618 28.6452 23.871 31.0543 23.871 34.0161V35.8065ZM35.8065 35.8065H34.0161V31.0323H32.8226V35.8065H28.0484V31.0323H26.8548V35.8065H25.0645V34.0161C25.0645 31.0543 27.4737 28.6452 30.4355 28.6452C33.3973 28.6452 35.8065 31.0543 35.8065 34.0161V35.8065ZM32.8226 13.129H29.8387V14.9194C29.8387 15.9064 30.642 16.7097 31.629 16.7097H32.8226C33.8096 16.7097 34.6129 15.9064 34.6129 14.9194C34.6129 13.9323 33.8096 13.129 32.8226 13.129ZM32.8226 15.5161H31.629C31.2996 15.5161 31.0323 15.2482 31.0323 14.9194V14.3226H32.8226C33.152 14.3226 33.4194 14.5905 33.4194 14.9194C33.4194 15.2482 33.152 15.5161 32.8226 15.5161ZM12.5323 5.96774H15.5161V4.17742C15.5161 3.19036 14.7129 2.3871 13.7258 2.3871H12.5323C11.5452 2.3871 10.7419 3.19036 10.7419 4.17742C10.7419 5.16448 11.5452 5.96774 12.5323 5.96774ZM12.5323 3.58065H13.7258C14.0552 3.58065 14.3226 3.8486 14.3226 4.17742V4.77419H12.5323C12.2028 4.77419 11.9355 4.50624 11.9355 4.17742C11.9355 3.8486 12.2028 3.58065 12.5323 3.58065ZM34.6129 3.58065H31.0323V2.3871H34.6129V3.58065ZM34.6129 5.96774H31.0323V4.77419H34.6129V5.96774ZM34.6129 8.35484H31.0323V7.16129H34.6129V8.35484ZM34.6129 10.7419H31.0323V9.54839H34.6129V10.7419Z" fill="#E3C06C"/>
</svg>
