<svg width="661" height="118" viewBox="0 0 661 118" fill="none" xmlns="http://www.w3.org/2000/svg">
<path d="M498.171 25.6254H550.804C550.804 29.0597 547.988 31.7896 544.643 31.7896H492.01C492.01 28.4433 494.738 25.6254 498.171 25.6254Z" fill="#DBDBDB"/>
<path d="M562.95 48.8731H544.907C544.907 45.4388 547.724 42.709 551.068 42.709H569.112C569.2 46.0552 566.383 48.8731 562.95 48.8731Z" fill="#DBDBDB"/>
<path d="M596.308 48.8731H578.265C578.265 45.4388 581.081 42.709 584.426 42.709H602.469C602.469 46.0552 599.741 48.8731 596.308 48.8731Z" fill="#DBDBDB"/>
<path d="M31.6858 32.9343H0V25.009H39.6072C39.6072 29.4119 36.0865 32.9343 31.6858 32.9343Z" fill="#DBDBDB"/>
<path d="M140.561 106.112H88.0156C88.0156 102.678 90.8321 99.9478 94.1767 99.9478H146.81C146.81 103.382 143.994 106.112 140.561 106.112Z" fill="#DBDBDB"/>
<path d="M77.8943 36.809H19.8037C19.8037 32.494 23.3243 28.8836 27.7251 28.8836H85.8157C85.8157 33.2866 82.2951 36.809 77.8943 36.809Z" fill="#DBDBDB"/>
<path d="M661 89.2925H578.881C578.881 86.7388 580.905 84.7134 583.458 84.7134H661V89.2925Z" fill="#DBDBDB"/>
<path d="M555.381 100.828H575.096C575.096 103.382 573.072 105.407 570.519 105.407H550.804C550.804 102.854 552.828 100.828 555.381 100.828Z" fill="#DBDBDB"/>
<path d="M100.602 97.8343H82.5586C82.5586 94.4 85.3751 91.6702 88.7197 91.6702H106.763C106.763 95.1045 103.946 97.8343 100.602 97.8343Z" fill="#DBDBDB"/>
<path d="M267.216 13.4731H161.157C161.157 11.2716 162.918 9.51045 165.118 9.51045H271.177C271.177 11.7119 269.417 13.4731 267.216 13.4731Z" fill="#DBDBDB"/>
<path d="M494.122 17.9642H388.062C388.062 15.7627 389.823 14.0015 392.023 14.0015H498.082C498.082 16.203 496.322 17.9642 494.122 17.9642Z" fill="#DBDBDB"/>
<path d="M148.219 13.4731H103.771C103.771 11.2716 105.531 9.51045 107.731 9.51045H152.179C152.179 11.7119 150.419 13.4731 148.219 13.4731Z" fill="#DBDBDB"/>
<path d="M251.373 35.7522H225.232V34.6075C225.232 32.2299 227.169 30.2925 229.545 30.2925H255.686V31.4373C255.686 33.8149 253.75 35.7522 251.373 35.7522Z" fill="#333570"/>
<path d="M230.866 77.9328V61.0254L185.097 91.9343H177.088V97.394H211.062V118H230.866V97.394H243.276V77.9328H230.866Z" fill="#FF2250"/>
<path d="M194.691 5.81194L160.189 53.188H177.088C177.088 55.3015 176.208 57.3268 174.8 58.7358C173.391 60.1448 171.455 61.0254 169.343 61.0254H154.556L146.811 71.5925L148.659 92.0224H185.009L213.791 72.5612L225.233 64.8119V5.81194H194.691ZM169.431 72.4731L205.429 23.1597V72.4731H169.431Z" fill="#FF2250"/>
<path d="M239.139 77.9328V64.5478L190.643 97.394H219.424L219.336 118H239.139V97.394H251.638V77.9328H239.139Z" fill="#FF6340"/>
<path d="M229.722 42.5328H233.594V5.81194H203.053L168.55 53.188H177.088C177.088 55.3015 176.208 57.3268 174.8 58.7358C173.391 60.1448 171.455 61.0254 169.343 61.0254H162.829L155.084 71.5925L156.932 92.0224H185.097L213.879 72.5612H177.792L205.517 34.6955L213.879 23.2478V72.5612L225.321 64.8119L233.682 59.1761V47.0239H225.321C225.233 44.5582 227.257 42.5328 229.722 42.5328Z" fill="#FF6340"/>
<path d="M259.911 77.9328H251.638V97.394H259.911V77.9328Z" fill="#333570"/>
<path d="M241.868 5.81194H233.595V42.5328H241.868V5.81194Z" fill="#333570"/>
<path d="M233.595 47.0239H241.868V53.5403L233.595 59.0881V47.0239Z" fill="#333570"/>
<path d="M239.14 64.5478L247.413 58.3836V77.9328H239.14V64.5478Z" fill="#333570"/>
<path d="M140.825 61.0254H128.415V59.4403C128.415 56.006 131.232 53.2761 134.576 53.2761H146.986V54.8612C147.074 58.2075 144.258 61.0254 140.825 61.0254Z" fill="#FF2250"/>
<path d="M242.66 32.9343H218.455V31.3493C218.455 27.9149 221.272 25.1851 224.616 25.1851H248.821V26.7701C248.821 30.2045 246.004 32.9343 242.66 32.9343Z" fill="white"/>
<path d="M169.166 42.5328H157.988V41.6522C157.988 39.7149 159.573 38.1299 161.509 38.1299H172.687V39.0104C172.687 40.9478 171.103 42.5328 169.166 42.5328Z" fill="#FF2250"/>
<path d="M266.865 91.7582H244.685V90.8776C244.685 88.9403 246.269 87.3552 248.205 87.3552H270.385V88.2358C270.385 90.1731 268.801 91.7582 266.865 91.7582Z" fill="white"/>
<path d="M187.562 68.9507H176.384V68.0701C176.384 66.1328 177.968 64.5478 179.904 64.5478H191.082V65.4284C191.082 67.3657 189.498 68.9507 187.562 68.9507Z" fill="white"/>
<path d="M196.276 61.2895H190.643V60.409C190.643 58.4716 192.227 56.8866 194.163 56.8866H199.796V57.7672C199.796 59.7045 198.212 61.2895 196.276 61.2895Z" fill="#FF2250"/>
<path d="M248.469 106.2H242.836V105.319C242.836 103.382 244.42 101.797 246.357 101.797H251.99V102.678C251.99 104.615 250.405 106.2 248.469 106.2Z" fill="#333570"/>
<path d="M214.054 110.691H194.339V109.81C194.339 107.873 195.923 106.288 197.86 106.288H214.054V110.691Z" fill="#FF2250"/>
<path d="M253.222 73.794H241.164V69.7433H256.391V70.5358C256.391 72.3851 254.983 73.794 253.222 73.794Z" fill="#333570"/>
<path d="M213.878 78.197H197.155V72.5612H218.367V73.706C218.367 76.1716 216.343 78.197 213.878 78.197Z" fill="white"/>
<path d="M208.685 14.3537H195.219V10.4791H211.766V11.2716C211.766 12.9448 210.357 14.3537 208.685 14.3537Z" fill="#FF2250"/>
<path d="M165.381 81.6313H144.697C143.113 81.6313 141.793 80.3104 141.793 78.7254V77.9328H165.381V81.6313Z" fill="white"/>
<path d="M270.385 95.3687H266.336V99.4194H270.385V95.3687Z" fill="#333570"/>
<path d="M190.114 0H186.065V4.05075H190.114V0Z" fill="#FF2250"/>
<path d="M286.756 69.1269H259.911V68.1582C259.911 66.1328 261.583 64.5478 263.52 64.5478H290.365V65.5164C290.365 67.4537 288.78 69.1269 286.756 69.1269Z" fill="#FF2250"/>
<path d="M373.803 9.15821H329.443V8.27761C329.443 6.3403 331.028 4.75522 332.964 4.75522H377.324V5.63582C377.324 7.57313 375.74 9.15821 373.803 9.15821Z" fill="#333570"/>
<path d="M299.695 108.401H288.517V107.521C288.517 105.584 290.101 103.998 292.037 103.998H303.215V104.879C303.215 106.904 301.631 108.401 299.695 108.401Z" fill="#FF2250"/>
<path d="M360.601 87.5313H336.396V85.9463C336.396 82.5119 339.213 79.7821 342.558 79.7821H366.762V81.3672C366.85 84.8015 364.034 87.5313 360.601 87.5313Z" fill="#FF2250"/>
<path d="M374.069 54.4209V69.8313C374.069 99.6836 353.385 115.534 331.557 117.296C312.722 118.881 293.006 109.987 284.732 90.7015L301.808 79.1657C302.248 80.7507 302.776 82.2478 303.392 83.6567C308.673 95.2806 320.555 100.212 331.557 98.5388C342.823 96.8657 353.121 88.1478 354.089 72.297H365.443C367.555 72.297 369.316 70.5358 369.316 68.4224V67.4537H354.177V54.4209C354.177 50.8104 353.649 47.4642 352.769 44.5582L369.756 33.0224C370.372 34.4313 370.988 35.9284 371.428 37.5134C373.189 42.4448 374.069 48.0806 374.069 54.4209Z" fill="#FF2250"/>
<path d="M364.386 30.8212L353.913 37.866C353.737 37.4257 353.472 37.0735 353.208 36.6332C352.856 36.0167 352.504 35.4884 352.152 34.872C351.888 34.4317 351.624 34.0794 351.36 33.7272C351.008 33.2869 350.744 32.9347 350.392 32.4944C350.128 32.1421 349.776 31.7899 349.424 31.4376C349.248 31.2615 349.16 31.1735 348.984 30.9973C348.896 30.9093 348.72 30.7332 348.632 30.6451C348.368 30.3809 348.104 30.1167 347.839 29.8526C347.575 29.5884 347.311 29.3242 346.959 29.1481C346.695 28.8839 346.343 28.7078 346.079 28.4436L345.991 28.3556C345.815 28.1794 345.639 28.0914 345.463 28.0033C345.111 27.7391 344.759 27.475 344.319 27.2988C343.967 27.1227 343.703 26.9466 343.351 26.7705C343.263 26.6824 343.087 26.6824 342.999 26.5944C342.647 26.4182 342.206 26.2421 341.854 26.066C341.854 26.066 341.854 26.066 341.766 26.066C341.326 25.8899 340.886 25.6257 340.446 25.4496C340.006 25.2735 339.478 25.0973 339.038 24.9212C338.598 24.7451 338.07 24.569 337.63 24.4809C336.661 24.2167 335.693 23.9526 334.725 23.8645C334.373 23.7764 334.021 23.7764 333.669 23.6884C333.581 23.6884 333.581 23.6884 333.581 23.6884C333.229 23.6003 332.877 23.6003 332.613 23.6003C332.173 23.5123 331.733 23.5123 331.292 23.5123C330.94 23.5123 330.588 23.5123 330.236 23.5123C328.828 23.5123 327.42 23.6003 326.1 23.8645C311.841 21.7511 295.91 30.7332 295.382 50.9869H294.942C293.798 50.9869 292.742 51.4272 291.949 52.1317C291.861 52.2197 291.861 52.2197 291.773 52.3078C290.981 53.1003 290.453 54.2451 290.453 55.4779H295.294V67.6302C295.294 70.8884 297.758 78.1093 298.639 81.1033C298.639 81.1914 298.727 81.2794 298.727 81.3675L288.253 88.4123L281.651 92.9033C279.099 86.9153 275.402 75.6436 275.402 67.7182V52.2197C275.402 18.5809 301.543 2.81824 326.188 4.75555C341.942 5.98839 357.169 14.7063 364.386 30.8212Z" fill="#FF2250"/>
<path d="M385.599 70.7119C384.63 71.6806 384.014 73.0896 384.014 74.5866H390.528C388.151 104.879 363.331 119.145 339.83 117.296C323.723 115.975 308.321 107.081 301.279 90.7015L311.665 83.6567C316.946 95.2806 328.828 100.212 339.83 98.5388C354.441 100.74 370.724 91.1418 370.724 69.8313V54.4209C370.724 50.8104 368.524 42.797 367.643 39.891L378.117 33.0224L384.718 28.7075C387.447 34.7836 390.704 46.2313 390.704 54.509V69.2149H389.471C387.887 69.1269 386.567 69.6552 385.599 70.7119Z" fill="#333570"/>
<path d="M311.753 67.5418C311.753 70.8881 312.193 74.0582 312.897 76.7881L295.822 88.3239C295.206 86.9149 294.678 85.4179 294.15 83.8328C292.654 78.9896 291.773 73.5299 291.773 67.4537V55.3896H311.665V67.5418H311.753Z" fill="#333570"/>
<path d="M380.934 31.0851L363.859 42.6209C363.33 40.9478 362.714 39.4507 362.01 38.0418C356.641 27.3866 345.287 22.6313 334.725 23.9522C323.019 25.3612 312.281 34.3433 311.753 50.9866H294.766C293.622 50.9866 292.566 51.4269 291.773 52.1313C291.861 21.8388 313.073 6.16418 335.341 4.84328C353.649 3.78657 372.66 12.5925 380.934 31.0851Z" fill="#333570"/>
<path d="M382.342 54.4209V69.8313C382.342 99.6836 361.658 115.534 339.742 117.296C337.014 117.56 334.285 117.56 331.469 117.296C315.362 116.063 299.959 107.169 292.918 90.7015L303.304 83.6567L309.993 79.1657C310.433 80.7507 310.961 82.2477 311.577 83.6567C315.538 92.3746 323.195 97.306 331.469 98.5388C334.197 98.9791 337.014 98.9791 339.742 98.5388C351.009 96.8657 361.306 88.0597 362.275 72.297H365.267C367.379 72.297 369.14 70.5358 369.14 68.4224V67.4537H362.363V54.4209C362.363 50.8104 361.834 47.4642 360.954 44.5582L371.428 37.5134L378.029 33.0224C378.646 34.4313 379.262 35.9284 379.702 37.4254C381.462 42.4448 382.342 48.0806 382.342 54.4209Z" fill="#FF6340"/>
<path d="M372.66 30.8209L362.01 38.0418L355.585 42.2687C355.145 40.6836 354.529 39.1866 353.825 37.8657C353.649 37.4254 353.385 37.0731 353.121 36.6328C352.769 36.0164 352.417 35.4881 352.064 34.8716C351.8 34.4313 351.536 34.0791 351.272 33.7269C350.92 33.2866 350.656 32.9343 350.304 32.494C350.04 32.1418 349.688 31.7896 349.336 31.4373C349.16 31.2612 349.072 31.1731 348.896 30.997C348.808 30.909 348.632 30.7328 348.544 30.6448C348.28 30.3806 348.016 30.1164 347.752 29.8522C347.488 29.5881 347.224 29.3239 346.872 29.1478C346.607 28.8836 346.255 28.7075 345.991 28.4433L345.903 28.3552C345.727 28.1791 345.551 28.091 345.375 28.003C345.023 27.7388 344.671 27.4746 344.231 27.2985C343.879 27.1224 343.615 26.9463 343.263 26.7702C343.175 26.6821 342.999 26.6821 342.911 26.594C342.559 26.4179 342.119 26.2418 341.767 26.0657C341.767 26.0657 341.767 26.0657 341.679 26.0657C341.238 25.8896 340.798 25.6254 340.358 25.4493C339.918 25.2731 339.39 25.097 338.95 24.9209C338.51 24.7448 337.982 24.5687 337.542 24.4806C336.574 24.2164 335.605 24.0403 334.637 23.8642C334.285 23.7761 333.933 23.7761 333.581 23.6881C333.493 23.6881 333.493 23.6881 333.493 23.6881C333.141 23.6881 332.877 23.6 332.525 23.6C332.085 23.5119 331.645 23.5119 331.205 23.5119C330.853 23.5119 330.501 23.5119 330.148 23.5119C328.74 23.5119 327.332 23.6 326.012 23.8642C314.482 25.6254 304.008 34.6075 303.568 50.9866H294.854C293.71 50.9866 292.654 51.4269 291.862 52.1313C291.774 52.2194 291.773 52.2194 291.685 52.3075C290.893 53.1 290.365 54.2448 290.365 55.4776H303.48V67.6299C303.48 70.9761 303.92 74.0582 304.624 76.8761L298.463 81.0149L294.15 83.9209L287.549 88.4119C286.933 87.003 286.405 85.506 285.876 83.9209C284.38 78.9896 283.5 73.6179 283.5 67.5418V52.2194C283.5 22.3672 304.096 6.51642 325.924 4.75522C329.004 4.49104 332.173 4.49104 335.253 4.84328C350.832 6.42836 365.619 15.0582 372.66 30.8209Z" fill="#FF6340"/>
<path d="M354.968 36.9851H330.764V35.4C330.764 31.9657 333.58 29.2358 336.925 29.2358H361.129V30.8209C361.217 34.1672 358.401 36.9851 354.968 36.9851Z" fill="white"/>
<path d="M287.372 35.3119H272.938V34.4313C272.938 32.494 274.522 30.909 276.458 30.909H290.893V31.7895C290.893 33.7269 289.308 35.3119 287.372 35.3119Z" fill="white"/>
<path d="M393.519 94.0478H381.549V89.997H396.776V90.7895C396.776 92.5507 395.279 94.0478 393.519 94.0478Z" fill="#333570"/>
<path d="M384.63 102.237H367.907V96.6015H389.119V97.7463C389.119 100.212 387.095 102.237 384.63 102.237Z" fill="white"/>
<path d="M291.773 19.8134H267.217V19.0209C267.217 17.3478 268.625 15.9388 270.297 15.9388H294.854V16.7313C294.854 18.4925 293.446 19.8134 291.773 19.8134Z" fill="#FF2250"/>
<path d="M293.621 116.151H272.938V115.358C272.938 113.773 274.258 112.452 275.842 112.452H296.526V113.245C296.526 114.83 295.205 116.151 293.621 116.151Z" fill="#FF2250"/>
<path d="M279.362 99.7716H275.313V103.822H279.362V99.7716Z" fill="white"/>
<path d="M401.265 59H397.216V63.0507H401.265V59Z" fill="#333570"/>
<path d="M323.899 44.4702H319.851V48.5209H323.899V44.4702Z" fill="#333570"/>
<path d="M336.045 91.494H301.455V89.9089C301.455 86.4746 304.272 83.7448 307.616 83.7448H342.206V85.3298C342.206 88.7642 339.478 91.494 336.045 91.494Z" fill="white"/>
<path d="M422.212 73.706H398.008V72.1209C398.008 68.6866 400.824 65.9567 404.169 65.9567H428.373V67.5418C428.461 70.8881 425.645 73.706 422.212 73.706Z" fill="#FF2250"/>
<path d="M516.829 72.4731H495.177V71.3284C495.177 68.9507 497.113 67.0134 499.49 67.0134H521.141V68.1582C521.141 70.5358 519.205 72.4731 516.829 72.4731Z" fill="#333570"/>
<path d="M429.341 111.131H413.234V110.075C413.234 107.697 415.171 105.76 417.547 105.76H433.654V106.904C433.654 109.194 431.718 111.131 429.341 111.131Z" fill="#FF2250"/>
<path d="M506.355 77.9328V97.394H493.857V118H474.053V103.03H484.175C485.759 103.03 487.168 102.413 488.224 101.357C489.28 100.3 489.896 98.891 489.896 97.306H440.167V91.9343H448.176L493.945 60.9373V77.8448H506.355V77.9328Z" fill="#FF2250"/>
<path d="M457.77 5.81194L444.656 23.7761L441.399 28.1791L434.182 38.0418L430.926 42.4448L413.938 65.7806L409.802 71.5045L409.978 73.6179L410.33 77.8448L410.682 81.5433L411.65 91.9343H448.001L453.986 87.8836L476.782 72.4731L487.168 65.4284L488.224 64.7239V5.81194H457.77ZM432.51 72.4731L468.596 23.1597V72.4731H432.51Z" fill="#FF2250"/>
<path d="M514.718 77.9328V97.394H502.219V118H482.416V103.03H484.176C485.76 103.03 487.169 102.413 488.225 101.357C489.281 100.3 489.897 98.891 489.897 97.306H453.723L493.946 70.0955L502.308 64.4597V77.8448H514.718V77.9328Z" fill="#FF6340"/>
<path d="M466.133 5.81194L462.788 10.391L459.971 14.2657L453.018 23.7761L449.762 28.1791L422.389 65.7806L418.252 71.5045L418.428 73.6179L418.78 77.8448L419.132 81.5433L420.1 91.9343H448.265L454.25 87.8836L477.047 72.4731H440.96L443.601 68.9507L446.857 64.5478L468.685 34.6075L477.047 23.2478V72.5612L487.432 65.5164L488.489 64.8119L494.034 61.0254L496.85 59.1761V47.0239H488.489C488.489 44.5582 490.513 42.6209 492.889 42.6209H496.762V5.81194H466.133Z" fill="#FF6340"/>
<path d="M522.99 77.9328H514.717V97.394H522.99V77.9328Z" fill="#333570"/>
<path d="M504.947 5.81194H496.674V42.5328H504.947V5.81194Z" fill="#333570"/>
<path d="M496.674 47.0239H504.947V53.5403L496.674 59.0881V47.0239Z" fill="#333570"/>
<path d="M502.219 64.5478L510.492 58.3836V77.9328H502.219V64.5478Z" fill="#333570"/>
<path d="M514.981 13.6493H480.391V12.0642C480.391 8.62985 483.207 5.9 486.552 5.9H521.142V7.48507C521.142 10.8313 518.414 13.6493 514.981 13.6493Z" fill="white"/>
<path d="M432.245 42.5328H421.067V41.6522C421.067 39.7149 422.652 38.1299 424.588 38.1299H435.766V39.0104C435.766 40.9478 434.182 42.5328 432.245 42.5328Z" fill="#FF2250"/>
<path d="M529.856 91.7582H507.676V90.8776C507.676 88.9403 509.26 87.3552 511.196 87.3552H533.376V88.2358C533.376 90.1731 531.88 91.7582 529.856 91.7582Z" fill="white"/>
<path d="M450.642 68.9507H439.464V68.0701C439.464 66.1328 441.048 64.5478 442.985 64.5478H454.163V65.4284C454.163 67.3657 452.578 68.9507 450.642 68.9507Z" fill="white"/>
<path d="M459.267 61.2895H453.634V60.409C453.634 58.4716 455.218 56.8866 457.154 56.8866H462.787V57.7672C462.787 59.7045 461.203 61.2895 459.267 61.2895Z" fill="#FF2250"/>
<path d="M511.548 106.2H505.915V105.319C505.915 103.382 507.499 101.797 509.436 101.797H515.069V102.678C515.069 104.615 513.484 106.2 511.548 106.2Z" fill="#333570"/>
<path d="M493.153 114.39H476.958V113.509C476.958 111.572 478.542 109.987 480.479 109.987H496.674V110.867C496.674 112.804 495.089 114.39 493.153 114.39Z" fill="#FF2250"/>
<path d="M455.042 91.9343H443.072V87.8836H458.299V88.6761C458.299 90.5254 456.803 91.9343 455.042 91.9343Z" fill="white"/>
<path d="M471.765 14.3537H458.299V10.4791H474.846V11.2716C474.846 12.9448 473.438 14.3537 471.765 14.3537Z" fill="#FF2250"/>
<path d="M428.461 81.6313H407.778C406.193 81.6313 404.873 80.3104 404.873 78.7254V77.9328H428.461V81.6313Z" fill="white"/>
<path d="M533.465 95.3687H529.416V99.4194H533.465V95.3687Z" fill="#333570"/>
<path d="M470.709 99.7717H466.66V103.822H470.709V99.7717Z" fill="white"/>
<path d="M408.834 57.0627H404.785V61.1134H408.834V57.0627Z" fill="#FF2250"/>
<path d="M454.426 28.2672H417.812V27.3866C417.812 25.4493 419.396 23.8642 421.332 23.8642H457.947V24.7448C457.947 26.6821 456.362 28.2672 454.426 28.2672Z" fill="white"/>
</svg>
