<svg width="41" height="41" viewBox="0 0 41 41" fill="none" xmlns="http://www.w3.org/2000/svg">
<g clip-path="url(#clip0)">
<path d="M8.47378 34.0527H3.05264C2.67841 34.0527 2.375 34.3561 2.375 34.7304V40.1515C2.375 40.5257 2.67841 40.8292 3.05264 40.8292H8.47378C8.84801 40.8292 9.15143 40.5257 9.15143 40.1515V34.7304C9.15143 34.3561 8.8481 34.0527 8.47378 34.0527ZM7.79614 39.4739H3.73029V35.408H7.79614V39.4739Z" fill="#E3C06C"/>
<path d="M18.6378 32.0195H13.2167C12.8425 32.0195 12.5391 32.3229 12.5391 32.6972V40.1512C12.5391 40.5255 12.8425 40.8289 13.2167 40.8289H18.6378C19.0121 40.8289 19.3155 40.5255 19.3155 40.1512V32.6972C19.3155 32.3229 19.0122 32.0195 18.6378 32.0195ZM17.9602 39.4736H13.8943V33.3748H17.9602V39.4736Z" fill="#E3C06C"/>
<path d="M28.8019 29.3096H23.3808C23.0065 29.3096 22.7031 29.613 22.7031 29.9872V40.1518C22.7031 40.5261 23.0065 40.8295 23.3808 40.8295H28.8019C29.1761 40.8295 29.4795 40.5261 29.4795 40.1518V29.9872C29.4795 29.6129 29.1762 29.3096 28.8019 29.3096ZM28.1243 39.4742H24.0584V30.6649H28.1243V39.4742Z" fill="#E3C06C"/>
<path d="M38.966 23.2109H33.5448C33.1706 23.2109 32.8672 23.5144 32.8672 23.8886V40.152C32.8672 40.5262 33.1706 40.8296 33.5448 40.8296H38.966C39.3402 40.8296 39.6436 40.5262 39.6436 40.152V23.8886C39.6436 23.5143 39.3403 23.2109 38.966 23.2109ZM38.2883 39.4744H34.2225V24.5662H38.2883V39.4744Z" fill="#E3C06C"/>
<path d="M36.2582 6.26969H34.644L34.7252 6.10722C35.2398 5.07805 34.8226 3.82662 33.7934 3.31203C32.8197 2.82523 31.6354 3.17007 31.0752 4.10343L30.1808 5.59425L29.2864 4.10343C28.6942 3.11687 27.4143 2.79728 26.4278 3.38954C25.4947 3.94969 25.15 5.13371 25.6365 6.10722L25.7176 6.26969H24.0605C23.6862 6.26969 23.3828 6.5731 23.3828 6.94733V10.3355C23.3828 10.7098 23.6862 11.0132 24.0605 11.0132H24.7381V17.112C24.7381 17.4862 25.0415 17.7896 25.4157 17.7896H34.9027C35.277 17.7896 35.5804 17.4862 35.5804 17.112V11.0132H36.258C36.6322 11.0132 36.9357 10.7098 36.9357 10.3355V6.94733C36.9358 6.57302 36.6325 6.26969 36.2582 6.26969ZM28.1265 16.4343H26.0936V11.0132H28.1265V16.4343ZM28.1265 9.6579H24.7383V7.62497H28.1265V9.6579ZM27.2332 6.26969L26.849 5.50107C26.669 5.1415 26.8147 4.70408 27.1743 4.52417C27.5147 4.35391 27.9288 4.47444 28.1244 4.8009L29.0056 6.26969H27.2332ZM30.8371 16.4343H29.4818V11.0132H30.8371V16.4343ZM30.8371 9.6579H29.4818V7.62497H30.8371V9.6579ZM32.2374 4.8009C32.4441 4.45598 32.8912 4.34391 33.2362 4.55068C33.5627 4.74635 33.6834 5.16064 33.513 5.50107L33.1288 6.26969H31.3562L32.2374 4.8009ZM34.2253 16.4343H32.1923V11.0132H34.2253V16.4343ZM35.5805 9.6579H32.1923V7.62497H35.5805V9.6579Z" fill="#E3C06C"/>
<path d="M22.4718 3.36523C21.8039 4.03635 21.2264 4.79176 20.7539 5.61221L21.9285 6.2885C22.3421 5.57011 22.8477 4.90882 23.4327 4.32139L22.4718 3.36523Z" fill="#E3C06C"/>
<path d="M30.1572 20.4996C29.3318 20.5002 28.5099 20.3933 27.712 20.1816L27.3633 21.4913C28.2749 21.7331 29.2141 21.8553 30.1572 21.8549H30.1675L30.1572 20.4996Z" fill="#E3C06C"/>
<path d="M30.1597 0.170901H30.1289L30.1597 1.52619C30.9787 1.52559 31.7943 1.6308 32.5863 1.83917L32.9324 0.528865C32.0274 0.290674 31.0955 0.170308 30.1597 0.170901Z" fill="#E3C06C"/>
<path d="M23.4608 17.7314L22.5039 18.691C23.1743 19.3597 23.9291 19.938 24.7493 20.4113L25.4262 19.2373C24.7084 18.823 24.0477 18.3167 23.4608 17.7314Z" fill="#E3C06C"/>
<path d="M19.6774 8.22949C19.4395 9.12669 19.3186 10.0509 19.3178 10.9791L19.3164 11.0334L20.672 11.0129C20.6714 10.1907 20.7776 9.37191 20.9877 8.57695L19.6774 8.22949Z" fill="#E3C06C"/>
<path d="M20.9965 13.4873L19.6875 13.8393C19.9339 14.7542 20.2998 15.6325 20.7758 16.4517L21.9478 15.7707C21.5315 15.0548 21.2117 14.287 20.9965 13.4873Z" fill="#E3C06C"/>
<path d="M34.9059 19.2275C34.1892 19.6429 33.4211 19.9621 32.6211 20.1768L32.9725 21.4858C33.8873 21.2401 34.7658 20.8751 35.5854 20.4001L34.9059 19.2275Z" fill="#E3C06C"/>
<path d="M38.3753 15.7539C37.9602 16.4715 37.4533 17.1318 36.8672 17.7181L37.8261 18.6762C38.4954 18.0063 39.0744 17.2519 39.5486 16.4322L38.3753 15.7539Z" fill="#E3C06C"/>
<path d="M27.3222 0.545898C26.4077 0.793153 25.5296 1.16001 24.7109 1.63682L25.3926 2.80812C26.1083 2.3912 26.876 2.07043 27.6756 1.85417L27.3222 0.545898Z" fill="#E3C06C"/>
<path d="M39.53 5.55664L38.3594 6.23953C38.777 6.95496 39.0984 7.72222 39.3156 8.52158L40.6232 8.16624C40.375 7.2521 40.0075 6.37472 39.53 5.55664Z" fill="#E3C06C"/>
<path d="M39.6448 11.0127C39.6453 11.8414 39.5375 12.6666 39.3242 13.4674L40.6338 13.8168C40.8774 12.902 41.0005 11.9593 41.0001 11.0127V10.9717L39.6448 11.0127Z" fill="#E3C06C"/>
<path d="M35.5493 1.60352L34.875 2.7788C35.5938 3.19157 36.2557 3.6965 36.8437 4.28063L37.7986 3.31905C37.1268 2.65174 36.3706 2.07499 35.5493 1.60352Z" fill="#E3C06C"/>
<path d="M20.7822 21.1874L16.7163 20.5098L16.4933 21.8465L18.9974 22.2638L15.0236 25.2439H8.47316C8.35313 25.2439 8.23531 25.2757 8.13171 25.3363L0 30.0798L0.682979 31.2504L8.65655 26.5992H15.2497C15.3963 26.5991 15.539 26.5515 15.6563 26.4635L19.7243 23.4126L19.3248 25.8101L20.6616 26.0331L21.3392 21.9673C21.4005 21.5982 21.1513 21.2491 20.7822 21.1874Z" fill="#E3C06C"/>
</g>
<defs>
<clipPath id="clip0">
<rect width="41" height="41" fill="white"/>
</clipPath>
</defs>
</svg>
