<svg width="40" height="44" viewBox="0 0 40 44" fill="none" xmlns="http://www.w3.org/2000/svg">
<path d="M29.5575 22.6894C29.6826 22.8543 29.8723 22.941 30.0645 22.941C30.1982 22.941 30.3331 22.8989 30.448 22.8119C30.7278 22.5998 30.7826 22.2011 30.5705 21.9213C29.7941 20.8973 28.8755 19.9924 27.8401 19.2318C27.5571 19.024 27.1594 19.0848 26.9516 19.3677C26.7437 19.6507 26.8046 20.0486 27.0875 20.2564C28.0241 20.9445 28.8552 21.7631 29.5575 22.6894Z" fill="#E3C06C"/>
<path d="M25.7129 40.4642C23.9709 41.4105 21.9953 41.9106 19.9995 41.9106C17.9893 41.9106 16.001 41.4036 14.2497 40.4444C13.9419 40.2759 13.5556 40.3886 13.3868 40.6966C13.2182 41.0045 13.3311 41.3909 13.639 41.5595C15.577 42.621 17.7764 43.182 19.9995 43.182C22.2066 43.182 24.3922 42.6285 26.3197 41.5814C26.6282 41.4138 26.7424 41.0279 26.5749 40.7194C26.4072 40.4108 26.0215 40.2967 25.7129 40.4642Z" fill="#E3C06C"/>
<path d="M12.1577 19.2318C11.1308 19.9863 10.2186 20.8827 9.44649 21.8963C9.23367 22.1756 9.28766 22.5745 9.56692 22.7872C9.68193 22.8748 9.81737 22.9172 9.95162 22.9172C10.1432 22.9172 10.3327 22.8308 10.4578 22.6667C11.1562 21.7497 11.9815 20.9387 12.9104 20.2563C13.1934 20.0484 13.2543 19.6506 13.0464 19.3676C12.8385 19.0849 12.4408 19.024 12.1577 19.2318Z" fill="#E3C06C"/>
<path d="M7.75514 35.168H6.7103H5.82734H4.78241C2.39313 35.168 0.449219 37.1119 0.449219 39.5013V43.3649C0.449219 43.716 0.733736 44.0006 1.08487 44.0006C1.436 44.0006 1.72052 43.716 1.72052 43.3649V39.5013C1.72052 37.8129 3.09404 36.4393 4.78241 36.4393H4.97777L3.99709 39.7727C3.93217 39.9933 3.99149 40.2317 4.1521 40.3962L5.81403 42.0984C5.93362 42.2208 6.09762 42.2899 6.26882 42.2899C6.44002 42.2899 6.60402 42.2208 6.72361 42.0984L8.38554 40.3962C8.54623 40.2317 8.60548 39.9933 8.54056 39.7727L7.55987 36.4393H7.75514C9.44352 36.4393 10.8171 37.8129 10.8171 39.5013V43.3649C10.8171 43.716 11.1016 44.0006 11.4528 44.0006C11.8039 44.0006 12.0884 43.716 12.0884 43.3649V39.5013C12.0884 37.1119 10.1445 35.168 7.75514 35.168ZM6.26882 40.7443L5.3217 39.7743L6.26882 36.5551L7.21594 39.7743L6.26882 40.7443Z" fill="#E3C06C"/>
<path d="M6.27019 34.8328C8.94814 34.8328 11.1267 32.6541 11.1267 29.9763V28.738V27.9413C11.1267 27.8547 11.1243 27.7687 11.1198 27.6833C11.1188 27.6639 11.1166 27.6446 11.1154 27.6253C11.1111 27.5586 11.1062 27.4921 11.0992 27.4261C11.097 27.4059 11.0938 27.3859 11.0915 27.3656C11.0838 27.3005 11.0754 27.2357 11.0651 27.1714C11.0619 27.1514 11.0579 27.1316 11.0544 27.1116C11.0433 27.0476 11.0316 26.9838 11.018 26.9207C11.0136 26.8999 11.0084 26.8794 11.0037 26.8587C10.9896 26.7971 10.9748 26.7358 10.9583 26.6751C10.9523 26.6527 10.9457 26.6306 10.9393 26.6083C10.9227 26.5504 10.9054 26.4928 10.8868 26.4357C10.8787 26.4109 10.8702 26.3863 10.8617 26.3616C10.8433 26.3083 10.8242 26.2554 10.804 26.203C10.7934 26.1753 10.7825 26.1477 10.7713 26.1202C10.7519 26.0725 10.7318 26.0252 10.7109 25.9784C10.6971 25.9472 10.6832 25.9161 10.6687 25.8852C10.6493 25.8439 10.6291 25.803 10.6086 25.7623C10.5909 25.7272 10.5733 25.6921 10.5547 25.6575C10.5366 25.6235 10.5175 25.5901 10.4985 25.5566C10.4761 25.5169 10.4539 25.4771 10.4303 25.4381C10.4159 25.4142 10.4006 25.3908 10.3857 25.3673C10.2388 25.1327 10.0716 24.9101 9.88484 24.7021C9.87611 24.6924 9.8678 24.6824 9.85907 24.6728C9.81966 24.6296 9.7789 24.5876 9.73779 24.5457C9.72093 24.5285 9.70423 24.511 9.68703 24.494C9.64948 24.4568 9.61092 24.4204 9.57201 24.3843C9.54947 24.3634 9.52693 24.3425 9.50404 24.3221C9.48591 24.3059 9.4687 24.2889 9.45031 24.273C9.44378 24.2668 9.43709 24.2608 9.43022 24.255C9.40853 24.2364 9.38598 24.219 9.36403 24.2007C9.35886 24.1965 9.35369 24.1923 9.34852 24.188C9.29665 24.1455 9.24402 24.104 9.19054 24.0638C9.1791 24.0551 9.16757 24.0466 9.15604 24.038C9.10926 24.0034 9.0618 23.9697 9.01391 23.9368C8.99561 23.9243 8.9773 23.9117 8.95891 23.8994C8.91823 23.8724 8.87712 23.8461 8.83568 23.8204C8.80974 23.8042 8.78389 23.7879 8.75762 23.7722C8.7249 23.7527 8.69176 23.7339 8.65863 23.7153C8.62362 23.6954 8.5887 23.6754 8.55311 23.6565C8.53234 23.6453 8.51116 23.635 8.49022 23.6242C8.19392 23.4712 7.88025 23.3478 7.55251 23.2579C7.5498 23.2572 7.54708 23.2563 7.54429 23.2557C7.48428 23.2393 7.42377 23.2245 7.36291 23.2104C7.34961 23.2073 7.3363 23.2041 7.32291 23.2012C7.26867 23.1891 7.21409 23.1781 7.15917 23.1679C7.13755 23.1639 7.11594 23.1601 7.09425 23.1563C7.04526 23.1479 6.9961 23.1401 6.94669 23.1331C6.91669 23.1289 6.88651 23.1253 6.85634 23.1216C6.81354 23.1164 6.77074 23.1111 6.7276 23.1072C6.68565 23.1032 6.64344 23.1005 6.60132 23.0975C6.56818 23.0953 6.5353 23.0924 6.50207 23.0908C6.42495 23.0871 6.34774 23.085 6.27027 23.085C5.49859 23.085 4.7303 23.2707 4.04846 23.622C3.73639 23.7827 3.61376 24.1661 3.77462 24.4782C3.93548 24.7904 4.31882 24.9128 4.63088 24.7521C5.14059 24.4894 5.69217 24.3563 6.27036 24.3563C6.32756 24.3563 6.38435 24.358 6.44088 24.3606C6.46512 24.3618 6.48927 24.3638 6.51343 24.3654C6.54445 24.3675 6.57547 24.3697 6.60623 24.3725C6.63802 24.3755 6.66963 24.3791 6.70116 24.383C6.72294 24.3857 6.74472 24.3884 6.76642 24.3914C6.8032 24.3965 6.8399 24.4022 6.87651 24.4086C6.89118 24.4111 6.90584 24.4137 6.92042 24.4164C6.96211 24.4242 7.00364 24.4324 7.045 24.4415C7.0517 24.443 7.05823 24.4446 7.06492 24.4461C7.35885 24.5131 7.64328 24.6173 7.91152 24.7555C7.92127 24.7606 7.93119 24.7655 7.94093 24.7706C7.9739 24.788 8.00636 24.8062 8.03882 24.8247C8.05611 24.8345 8.07349 24.8444 8.09069 24.8545C8.11731 24.8702 8.14366 24.8865 8.16994 24.9029C8.19299 24.9174 8.21596 24.9321 8.23867 24.947C8.25952 24.9607 8.28029 24.9746 8.30088 24.9889C8.32927 25.0085 8.35741 25.0285 8.3853 25.049C8.4003 25.0599 8.41521 25.0708 8.43005 25.082C8.46429 25.1079 8.49793 25.1345 8.53116 25.1615C8.53963 25.1685 8.54828 25.1752 8.55675 25.1822C8.5837 25.2046 8.60989 25.2279 8.63617 25.251C8.66295 25.2746 8.68931 25.2985 8.71533 25.3227C8.73584 25.3419 8.75626 25.3612 8.77635 25.3808C8.79932 25.4033 8.82178 25.4262 8.84407 25.4492C8.86509 25.4709 8.88619 25.4926 8.9067 25.5148C8.92696 25.5368 8.94645 25.5593 8.96611 25.5817C8.98688 25.6054 9.0079 25.629 9.02807 25.6532C9.0468 25.6757 9.0646 25.6988 9.08265 25.7218C9.10223 25.7466 9.12223 25.7709 9.14113 25.7961C9.17478 25.8411 9.20732 25.8868 9.23885 25.9333C9.25283 25.9538 9.2658 25.975 9.27936 25.9958C9.30055 26.0285 9.32191 26.0612 9.34199 26.0946C9.35369 26.1139 9.36454 26.1338 9.3759 26.1534C9.39564 26.1877 9.41539 26.2219 9.43404 26.2569C9.44395 26.2754 9.45328 26.2944 9.46285 26.3131C9.48175 26.3502 9.5004 26.3874 9.51803 26.425C9.52616 26.4424 9.53396 26.4599 9.54176 26.4775C9.55973 26.5175 9.5771 26.5578 9.59363 26.5984C9.60015 26.6145 9.60643 26.6306 9.61278 26.6468C9.62939 26.6896 9.64524 26.7328 9.66024 26.7762C9.66541 26.7912 9.67058 26.8062 9.6755 26.8213C9.69033 26.8664 9.70423 26.9119 9.71728 26.9576C9.72135 26.9718 9.72559 26.9861 9.72949 27.0004C9.7422 27.0472 9.75381 27.0944 9.76466 27.1417C9.76788 27.1557 9.77127 27.1695 9.77432 27.1836C9.78466 27.2314 9.79365 27.2797 9.80204 27.328C9.80449 27.342 9.80729 27.3559 9.80958 27.37C9.81738 27.4183 9.82365 27.467 9.8295 27.5156C9.83128 27.5302 9.83348 27.5446 9.83509 27.5592C9.84035 27.6083 9.8439 27.6576 9.84721 27.707C9.84814 27.7214 9.84975 27.7356 9.85052 27.7501C9.8539 27.8135 9.85577 27.8773 9.85577 27.9412V27.9442C9.2458 27.7239 8.71872 27.3087 8.35495 26.7483C8.2474 26.5826 8.069 26.4763 7.87211 26.4606C7.67506 26.4449 7.48225 26.5217 7.34986 26.6684C6.51546 27.5931 5.324 28.1234 4.081 28.1234C3.60214 28.1234 3.13464 28.0474 2.68621 27.8971C2.6863 27.8887 2.68655 27.8803 2.68672 27.872C2.68791 27.8115 2.6902 27.7509 2.69443 27.6906C2.69469 27.6872 2.69477 27.6839 2.69503 27.6805C2.70003 27.612 2.70706 27.5437 2.71596 27.4756C2.71647 27.4718 2.71698 27.468 2.71749 27.4642C2.77402 27.0426 2.90462 26.6327 3.10379 26.2587C3.26872 25.9489 3.15143 25.5639 2.84148 25.3989C2.53171 25.234 2.14659 25.3514 1.98157 25.6612C1.84868 25.9107 1.73926 26.1724 1.65222 26.4413C1.64747 26.4536 1.64247 26.4656 1.63841 26.4783C1.54908 26.7613 1.48678 27.0518 1.45076 27.3466C1.45068 27.3472 1.45059 27.3478 1.45051 27.3484C1.43932 27.44 1.43101 27.5321 1.425 27.6245C1.42398 27.6395 1.4233 27.6545 1.42245 27.6696C1.41745 27.7599 1.41406 27.8503 1.41406 27.9412V28.3314V29.9762C1.41364 32.6542 3.59223 34.8328 6.27019 34.8328ZM2.68494 29.2201C3.13863 29.3355 3.60511 29.3949 4.08058 29.3949C5.4324 29.3949 6.73684 28.9085 7.75719 28.0408C8.32309 28.6467 9.04959 29.0734 9.85543 29.2709V29.9764C9.85543 31.9532 8.24706 33.5616 6.27019 33.5616C4.29331 33.5616 2.68494 31.9532 2.68494 29.9764V29.2201Z" fill="#E3C06C"/>
<path d="M14.8153 21.5212C15.1665 21.5212 15.451 21.2366 15.451 20.8855V17.0218C15.451 15.3334 16.8245 13.9598 18.5129 13.9598H18.7082L17.7276 17.2932C17.6626 17.5138 17.722 17.7522 17.8826 17.9167L19.5445 19.6189C19.6641 19.7413 19.8281 19.8104 19.9993 19.8104C20.1705 19.8104 20.3345 19.7413 20.4541 19.6189L22.116 17.9167C22.2767 17.7522 22.3359 17.5138 22.271 17.2932L21.2903 13.9598H21.4857C23.1741 13.9598 24.5476 15.3334 24.5476 17.0218V20.8855C24.5476 21.2366 24.8321 21.5212 25.1832 21.5212C25.5344 21.5212 25.8189 21.2366 25.8189 20.8855V17.0218C25.8189 14.6324 23.875 12.6885 21.4857 12.6885H20.4408H19.5578H18.5129C16.1236 12.6885 14.1797 14.6324 14.1797 17.0218V20.8855C14.1797 21.2366 14.4642 21.5212 14.8153 21.5212ZM19.9993 18.2648L19.0522 17.2948L19.9993 14.0757L20.9464 17.2949L19.9993 18.2648Z" fill="#E3C06C"/>
<path d="M19.9972 12.3545C22.6751 12.3545 24.8537 10.1758 24.8537 7.49793V6.25968V5.46291C24.8537 5.37638 24.8513 5.29035 24.8468 5.20492C24.8458 5.18551 24.8436 5.16636 24.8424 5.14703C24.838 5.08033 24.8331 5.01371 24.8262 4.94778C24.8241 4.92761 24.8209 4.9076 24.8185 4.88743C24.8107 4.82226 24.8024 4.75734 24.792 4.69301C24.7888 4.67309 24.7848 4.65343 24.7814 4.63351C24.7703 4.56935 24.7585 4.50545 24.7449 4.44214C24.7405 4.42163 24.7354 4.40129 24.7307 4.38078C24.7166 4.31899 24.7017 4.25746 24.6852 4.19652C24.6792 4.17432 24.6727 4.15236 24.6664 4.13024C24.6498 4.0721 24.6324 4.0143 24.6137 3.95709C24.6056 3.93243 24.5972 3.90802 24.5888 3.88353C24.5704 3.83013 24.5511 3.77708 24.531 3.72453C24.5204 3.6969 24.5095 3.66935 24.4983 3.64189C24.4789 3.59409 24.4588 3.5468 24.4379 3.49976C24.4242 3.46866 24.4103 3.43764 24.3958 3.40679C24.3764 3.36534 24.356 3.32449 24.3355 3.28364C24.3179 3.24864 24.3003 3.21355 24.2818 3.17897C24.2636 3.14498 24.2445 3.11151 24.2255 3.07803C24.2031 3.03828 24.1809 2.99853 24.1573 2.95946C24.143 2.93573 24.1277 2.91259 24.113 2.88903C23.9655 2.65358 23.7976 2.43017 23.61 2.22142C23.6021 2.21261 23.5945 2.20346 23.5865 2.19464C23.5466 2.15082 23.5052 2.10811 23.4635 2.06565C23.4472 2.04904 23.4312 2.03225 23.4148 2.01598C23.3766 1.97818 23.3374 1.94123 23.2979 1.90453C23.2761 1.88427 23.2543 1.86419 23.2321 1.84436C23.2137 1.82783 23.1961 1.81045 23.1774 1.79418C23.1709 1.78808 23.1642 1.78215 23.1574 1.7763C23.1354 1.75748 23.1126 1.73985 23.0903 1.72146C23.0858 1.71773 23.0813 1.71409 23.0768 1.71036C23.0243 1.66731 22.971 1.62535 22.9169 1.58467C22.906 1.57645 22.895 1.56823 22.884 1.56009C22.8367 1.52509 22.7887 1.49102 22.7402 1.45779C22.7224 1.44551 22.7045 1.4333 22.6865 1.42127C22.6454 1.39389 22.6038 1.36736 22.562 1.34134C22.5364 1.32541 22.511 1.30939 22.4851 1.29388C22.452 1.27405 22.4184 1.25515 22.3848 1.23616C22.3502 1.2165 22.3157 1.19675 22.2805 1.17802C22.2592 1.16667 22.2375 1.15599 22.2161 1.14497C21.9201 0.992243 21.6069 0.869097 21.2797 0.779343C21.2769 0.77858 21.2742 0.777732 21.2714 0.777054C21.2114 0.760697 21.1509 0.745865 21.0901 0.731796C21.0768 0.72866 21.0635 0.725524 21.0501 0.722558C20.9958 0.710523 20.9412 0.699505 20.8863 0.689334C20.8647 0.685266 20.8431 0.681452 20.8214 0.677723C20.7724 0.669332 20.7233 0.66145 20.6738 0.654501C20.6438 0.650263 20.6137 0.646703 20.5835 0.642974C20.5407 0.637804 20.4979 0.632549 20.4548 0.628566C20.4128 0.624583 20.3706 0.62187 20.3285 0.618904C20.2953 0.6167 20.2625 0.613819 20.2292 0.612209C20.1519 0.608649 20.0746 0.606445 19.9972 0.606445C19.2256 0.606445 18.4572 0.79214 17.7754 1.14344C17.4633 1.30422 17.3407 1.68756 17.5015 1.99962C17.6624 2.31169 18.0455 2.43441 18.3578 2.27355C18.8674 2.0109 19.4191 1.87775 19.9972 1.87775C20.0544 1.87775 20.1112 1.87944 20.1677 1.88207C20.1919 1.88326 20.216 1.88529 20.2401 1.8869C20.2712 1.88902 20.3022 1.89114 20.3331 1.89402C20.3648 1.89699 20.3964 1.90072 20.428 1.90453C20.4498 1.90716 20.4715 1.90987 20.4933 1.91284C20.5301 1.91801 20.5667 1.92368 20.6032 1.92996C20.618 1.9325 20.6327 1.93513 20.6474 1.93784C20.689 1.94555 20.7305 1.95369 20.7717 1.96284C20.7785 1.96437 20.7852 1.96598 20.792 1.9675C21.0854 2.03446 21.3693 2.13837 21.6371 2.27626C21.6475 2.28168 21.658 2.28685 21.6683 2.29228C21.7007 2.3094 21.7328 2.32737 21.7646 2.34542C21.7825 2.35559 21.8005 2.36576 21.8182 2.37627C21.8442 2.39161 21.87 2.40754 21.8957 2.42356C21.9195 2.43848 21.9432 2.45365 21.9666 2.46907C21.9867 2.4823 22.0066 2.49569 22.0264 2.50933C22.0559 2.52967 22.0851 2.55044 22.114 2.57163C22.1279 2.5818 22.1419 2.59197 22.1556 2.60239C22.1912 2.62926 22.2262 2.65689 22.2607 2.68503C22.2678 2.69087 22.2751 2.69655 22.2822 2.70249C22.3103 2.72571 22.3375 2.74995 22.3648 2.77402C22.3904 2.79648 22.4155 2.81928 22.4404 2.84241C22.4618 2.8625 22.4832 2.88267 22.5041 2.90327C22.5261 2.92488 22.5477 2.94683 22.5691 2.96887C22.5909 2.99133 22.6127 3.01379 22.6339 3.03675C22.6533 3.05786 22.6721 3.07947 22.691 3.101C22.7125 3.12549 22.7342 3.1499 22.7551 3.17499C22.7728 3.19634 22.7896 3.21821 22.8068 3.23991C22.8273 3.26576 22.8482 3.29127 22.868 3.31771C22.8962 3.35526 22.9229 3.39357 22.9496 3.43213C22.9693 3.46078 22.9884 3.48993 23.0074 3.51917C23.028 3.55112 23.0489 3.58299 23.0686 3.61554C23.0804 3.6352 23.0915 3.65545 23.103 3.67537C23.1225 3.70936 23.1421 3.74334 23.1605 3.77792C23.1705 3.79665 23.1799 3.81581 23.1897 3.83471C23.2085 3.87158 23.227 3.90861 23.2446 3.94607C23.2528 3.96353 23.2606 3.98125 23.2685 3.99888C23.2864 4.03879 23.3037 4.07897 23.3202 4.11956C23.3267 4.13575 23.3331 4.15194 23.3394 4.16821C23.356 4.21101 23.3718 4.25407 23.3868 4.29746C23.392 4.31246 23.3971 4.32755 23.4021 4.34264C23.417 4.38772 23.4309 4.43315 23.4439 4.47892C23.448 4.49316 23.4522 4.5074 23.4561 4.52181C23.4688 4.56859 23.4805 4.6158 23.4913 4.66309C23.4945 4.67707 23.4979 4.69089 23.501 4.70496C23.5113 4.75284 23.5203 4.80098 23.5287 4.84938C23.5311 4.86345 23.5339 4.87735 23.5362 4.89142C23.544 4.93972 23.5503 4.98837 23.5561 5.03702C23.5579 5.0516 23.5601 5.06601 23.5617 5.08059C23.567 5.12966 23.5705 5.17898 23.5739 5.2284C23.5748 5.2428 23.5764 5.25704 23.5772 5.27145C23.5806 5.33493 23.5824 5.39867 23.5824 5.46257V5.46562C22.9724 5.24518 22.4454 4.83005 22.0816 4.26966C21.974 4.10397 21.7956 3.99769 21.5988 3.98201C21.4027 3.96633 21.2089 4.04312 21.0766 4.18983C20.242 5.11449 19.0506 5.64479 17.8076 5.64479C17.3288 5.64479 16.8613 5.56877 16.4129 5.41841C16.4129 5.41002 16.4132 5.40163 16.4134 5.39324C16.4146 5.3329 16.4168 5.27264 16.4211 5.21246C16.4213 5.2089 16.4214 5.20526 16.4217 5.20161C16.4267 5.13339 16.4337 5.0655 16.4425 4.99778C16.4431 4.99346 16.4437 4.98914 16.4443 4.98473C16.5008 4.56342 16.6314 4.15381 16.8304 3.78021C16.9954 3.47035 16.8781 3.0854 16.5681 2.92039C16.2583 2.75529 15.8734 2.87276 15.7082 3.18261C15.5751 3.43272 15.4654 3.69486 15.3782 3.96447C15.3737 3.97625 15.3689 3.98769 15.3651 3.99989C15.276 4.28238 15.2138 4.57215 15.1777 4.86616C15.1775 4.86768 15.1772 4.86921 15.1771 4.87065C15.166 4.96193 15.1577 5.05363 15.1516 5.14559C15.1506 5.16085 15.1499 5.17602 15.149 5.19127C15.144 5.28145 15.1406 5.3718 15.1406 5.46248V5.85269V7.4975C15.1406 10.1759 17.3192 12.3545 19.9972 12.3545ZM16.4119 6.74176C16.8656 6.8571 17.3321 6.91652 17.8076 6.91652C19.1594 6.91652 20.4638 6.43003 21.4842 5.56249C22.0501 6.1684 22.7766 6.59505 23.5824 6.79252V7.49801C23.5824 9.47489 21.974 11.0833 19.9972 11.0833C18.0203 11.0833 16.4119 9.47489 16.4119 7.49801V6.74176Z" fill="#E3C06C"/>
<path d="M35.2162 35.168H34.1712H33.2883H32.2434C29.8541 35.168 27.9102 37.1119 27.9102 39.5013V43.3649C27.9102 43.716 28.1947 44.0006 28.5458 44.0006C28.8969 44.0006 29.1815 43.716 29.1815 43.3649V39.5013C29.1815 37.8129 30.5551 36.4393 32.2434 36.4393H32.4387L31.458 39.7727C31.3931 39.9933 31.4524 40.2317 31.613 40.3962L33.275 42.0984C33.3946 42.2208 33.5586 42.2899 33.7298 42.2899C33.901 42.2899 34.065 42.2208 34.1845 42.0984L35.8465 40.3962C36.0072 40.2317 36.0664 39.9933 36.0015 39.7727L35.0208 36.4393H35.2162C36.9045 36.4393 38.2781 37.8129 38.2781 39.5013V43.3649C38.2781 43.716 38.5626 44.0006 38.9137 44.0006C39.2648 44.0006 39.5494 43.716 39.5494 43.3649V39.5013C39.5494 37.1119 37.6055 35.168 35.2162 35.168ZM33.7298 40.7443L32.7826 39.7743L33.7298 36.5551L34.6769 39.7743L33.7298 40.7443Z" fill="#E3C06C"/>
<path d="M32.0884 24.7519C32.5982 24.4892 33.1497 24.3561 33.7279 24.3561C33.7851 24.3561 33.8419 24.3578 33.8984 24.3604C33.9227 24.3616 33.9469 24.3636 33.9711 24.3652C34.0022 24.3674 34.0331 24.3695 34.0639 24.3723C34.0956 24.3753 34.1273 24.379 34.1589 24.3829C34.1807 24.3855 34.2024 24.3882 34.224 24.3912C34.2609 24.3964 34.2976 24.402 34.3342 24.4084C34.349 24.4109 34.3635 24.4136 34.3782 24.4163C34.4198 24.424 34.4614 24.4322 34.5026 24.4414C34.5095 24.4429 34.5164 24.4446 34.5231 24.4461C34.8171 24.5132 35.1016 24.6175 35.3698 24.7559C35.3795 24.7609 35.3893 24.7657 35.399 24.7708C35.432 24.7882 35.4645 24.8065 35.497 24.8249C35.5142 24.8347 35.5315 24.8444 35.5486 24.8546C35.5752 24.8703 35.6015 24.8866 35.6277 24.903C35.6509 24.9175 35.6738 24.9322 35.6965 24.9472C35.7174 24.9608 35.738 24.9747 35.7586 24.9889C35.7871 25.0085 35.8152 25.0285 35.8431 25.049C35.8581 25.0599 35.873 25.0708 35.8878 25.082C35.9218 25.1078 35.9554 25.1341 35.9884 25.1611C35.9972 25.1681 36.006 25.1751 36.0145 25.1823C36.0423 25.2053 36.0694 25.2293 36.0965 25.2532C36.1215 25.2752 36.1463 25.2976 36.1706 25.3203C36.1925 25.3408 36.2142 25.3614 36.2357 25.3824C36.2572 25.4035 36.2782 25.4249 36.2991 25.4465C36.3214 25.4694 36.3436 25.4923 36.3653 25.5159C36.3842 25.5365 36.4025 25.5575 36.4209 25.5784C36.4429 25.6034 36.465 25.6283 36.4863 25.6539C36.5032 25.6744 36.5194 25.6955 36.536 25.7162C36.5571 25.7429 36.5788 25.7693 36.5992 25.7967C36.6219 25.827 36.6433 25.8581 36.6649 25.889C36.6905 25.9255 36.7153 25.9625 36.7395 25.9999C36.7597 26.0311 36.78 26.0621 36.7992 26.0939C36.8113 26.114 36.8226 26.1346 36.8344 26.1549C36.8538 26.1885 36.8731 26.2221 36.8913 26.2563C36.9015 26.2753 36.911 26.2946 36.9208 26.3138C36.9395 26.3504 36.958 26.3872 36.9754 26.4245C36.9837 26.4421 36.9916 26.46 36.9996 26.4778C37.0174 26.5176 37.0346 26.5576 37.051 26.5979C37.0576 26.6143 37.0641 26.6306 37.0704 26.6472C37.0869 26.6898 37.1027 26.7327 37.1175 26.7759C37.1228 26.7911 37.128 26.8062 37.133 26.8215C37.1478 26.8665 37.1616 26.9119 37.1747 26.9576C37.1787 26.9719 37.183 26.9862 37.1869 27.0005C37.1997 27.0473 37.2112 27.0945 37.222 27.1418C37.2253 27.1558 37.2286 27.1696 37.2317 27.1836C37.242 27.2315 37.251 27.2797 37.2594 27.3281C37.2619 27.3421 37.2647 27.356 37.267 27.3701C37.2747 27.4182 37.281 27.4667 37.2868 27.5153C37.2886 27.53 37.2908 27.5446 37.2924 27.5594C37.2976 27.6084 37.3012 27.6577 37.3044 27.7069C37.3053 27.7214 37.307 27.7356 37.3077 27.7501C37.3111 27.8136 37.313 27.8774 37.313 27.9413V27.9443C36.703 27.7239 36.1759 27.3087 35.8122 26.7483C35.7047 26.5827 35.5263 26.4764 35.3294 26.4607C35.1334 26.445 34.9395 26.5218 34.8072 26.6685C33.9727 27.5932 32.7812 28.1235 31.5382 28.1235C31.0593 28.1235 30.5918 28.0475 30.1434 27.8972C30.1435 27.8888 30.1438 27.8804 30.1439 27.872C30.1451 27.8116 30.1474 27.7512 30.1516 27.6911C30.1519 27.6875 30.152 27.6839 30.1522 27.6805C30.1572 27.6122 30.1643 27.5442 30.1731 27.4764C30.1737 27.4721 30.1742 27.4679 30.1748 27.4638C30.2313 27.0424 30.3619 26.6327 30.5609 26.2589C30.7258 25.949 30.6085 25.5641 30.2986 25.3991C29.9887 25.2341 29.6037 25.3515 29.4387 25.6614C29.3056 25.9112 29.196 26.1731 29.1089 26.4426C29.1043 26.4545 29.0994 26.4663 29.0955 26.4787C29.0064 26.7612 28.9442 27.0511 28.9081 27.3453C28.908 27.3466 28.9077 27.348 28.9075 27.3494C28.8964 27.4407 28.8881 27.5325 28.8821 27.6245C28.8811 27.6397 28.8803 27.655 28.8795 27.6701C28.8745 27.7603 28.8711 27.8507 28.8711 27.9413V28.3315V29.9764C28.8711 32.6542 31.0497 34.8329 33.7276 34.8329C36.4056 34.8329 38.5842 32.6542 38.5842 29.9764V28.7381V27.9413C38.5842 27.8548 38.5817 27.7688 38.5772 27.6834C38.5762 27.6639 38.574 27.6445 38.5728 27.6251C38.5685 27.5585 38.5637 27.4921 38.5566 27.4262C38.5544 27.4058 38.5513 27.3855 38.5488 27.3651C38.5411 27.3003 38.5328 27.2356 38.5226 27.1716C38.5193 27.1511 38.5152 27.1308 38.5116 27.1104C38.5006 27.0469 38.4889 26.9837 38.4755 26.9211C38.4709 26.8997 38.4656 26.8786 38.4607 26.8573C38.4467 26.7964 38.4321 26.7358 38.4159 26.6757C38.4097 26.6526 38.4028 26.6297 38.3962 26.6066C38.3798 26.5495 38.3627 26.4926 38.3443 26.4364C38.336 26.4109 38.3272 26.3855 38.3185 26.3602C38.3003 26.3077 38.2815 26.2557 38.2617 26.204C38.2508 26.1754 38.2395 26.147 38.228 26.1186C38.209 26.0719 38.1892 26.0257 38.1688 25.9796C38.1546 25.9475 38.1403 25.9155 38.1253 25.8836C38.1064 25.8433 38.0867 25.8036 38.0667 25.7639C38.0485 25.7278 38.0304 25.6917 38.0113 25.6561C37.9939 25.6235 37.9756 25.5915 37.9574 25.5594C37.9341 25.5183 37.9111 25.4771 37.8868 25.4367C37.8736 25.4151 37.8598 25.394 37.8463 25.3726C37.698 25.1352 37.5289 24.91 37.3399 24.6997C37.332 24.691 37.3246 24.682 37.3167 24.6733C37.2766 24.6293 37.2352 24.5865 37.1933 24.5439C37.1771 24.5274 37.1612 24.5107 37.1447 24.4944C37.1065 24.4565 37.0674 24.4196 37.0278 24.3829C37.0059 24.3625 36.984 24.3424 36.9617 24.3224C36.943 24.3058 36.9253 24.2883 36.9063 24.2718C36.9002 24.2662 36.894 24.2605 36.8874 24.255C36.8657 24.2364 36.8432 24.219 36.8212 24.2007C36.8161 24.1965 36.8109 24.1923 36.8057 24.188C36.7539 24.1455 36.7012 24.104 36.6477 24.0638C36.6363 24.0551 36.6248 24.0466 36.6132 24.038C36.5665 24.0034 36.519 23.9697 36.4711 23.9368C36.4528 23.9243 36.4345 23.9117 36.4161 23.8994C36.3754 23.8724 36.3343 23.8461 36.2929 23.8204C36.2669 23.8042 36.2411 23.7879 36.2148 23.7722C36.1821 23.7527 36.149 23.7339 36.1158 23.7153C36.0808 23.6954 36.0459 23.6754 36.0103 23.6565C35.9895 23.6454 35.9684 23.635 35.9474 23.6242C35.6511 23.4712 35.3374 23.3478 35.0097 23.2579C35.007 23.2572 35.0043 23.2563 35.0015 23.2557C34.9415 23.2393 34.881 23.2245 34.8201 23.2104C34.8068 23.2073 34.7935 23.2041 34.7801 23.2012C34.7259 23.1891 34.6713 23.1781 34.6164 23.1679C34.5948 23.1639 34.5731 23.1601 34.5514 23.1563C34.5025 23.1479 34.4533 23.1401 34.4039 23.1331C34.3739 23.1289 34.3437 23.1253 34.3135 23.1216C34.2707 23.1164 34.2279 23.1112 34.1848 23.1072C34.1428 23.1032 34.1006 23.1005 34.0585 23.0975C34.0254 23.0953 33.9925 23.0924 33.9593 23.0908C33.8821 23.0871 33.8049 23.085 33.7275 23.085C32.9559 23.085 32.1876 23.2707 31.5057 23.622C31.1936 23.7827 31.071 24.1661 31.2318 24.4781C31.3929 24.79 31.7761 24.9128 32.0884 24.7519ZM33.7279 33.5614C31.751 33.5614 30.1427 31.9531 30.1427 29.9762V29.2199C30.5963 29.3353 31.0628 29.3947 31.5383 29.3947C32.8901 29.3947 34.1945 28.9083 35.215 28.0407C35.7808 28.6466 36.5073 29.0732 37.3131 29.2707V29.9762C37.3131 31.9532 35.7048 33.5614 33.7279 33.5614Z" fill="#E3C06C"/>
</svg>
