<svg width="425" height="306" viewBox="0 0 425 306" fill="none" xmlns="http://www.w3.org/2000/svg">
<g clip-path="url(#clip0)">
<path opacity="0.1" d="M212.5 306C329.861 306 425 294.405 425 280.102C425 265.799 329.861 254.204 212.5 254.204C95.1395 254.204 0 265.799 0 280.102C0 294.405 95.1395 306 212.5 306Z" fill="#FF6340"/>
<path d="M363.602 292.796C363.602 292.796 374.684 278.656 373.788 264.626C373.375 258.744 374.876 252.886 378.065 247.932C379.598 245.592 381.341 243.398 383.273 241.377" stroke="#535461" stroke-width="2" stroke-miterlimit="10"/>
<path d="M382.76 232.532C381.979 234.496 383.259 241.609 383.259 241.609C383.259 241.609 389.071 237.333 389.853 235.37C390.227 234.427 390.213 233.373 389.813 232.441C389.413 231.509 388.661 230.774 387.721 230.398C386.781 230.022 385.73 230.035 384.8 230.436C383.87 230.836 383.136 231.59 382.76 232.532Z" fill="#FF6340"/>
<path d="M372.57 241.065C372.979 243.139 377.909 248.412 377.909 248.412C377.909 248.412 380.47 241.656 380.062 239.581C379.965 239.088 379.771 238.619 379.493 238.201C379.216 237.782 378.858 237.423 378.442 237.143C378.025 236.863 377.558 236.668 377.066 236.569C376.574 236.471 376.068 236.47 375.576 236.567C375.084 236.665 374.616 236.858 374.199 237.137C373.782 237.416 373.423 237.774 373.144 238.192C372.865 238.609 372.671 239.078 372.572 239.571C372.474 240.064 372.473 240.572 372.57 241.065Z" fill="#FF6340"/>
<path d="M365.429 259.755C366.826 261.339 373.737 263.396 373.737 263.396C373.737 263.396 372.546 256.267 371.149 254.683C370.817 254.306 370.414 253.999 369.964 253.778C369.513 253.558 369.024 253.428 368.523 253.397C368.023 253.366 367.521 253.435 367.047 253.598C366.572 253.762 366.135 254.018 365.759 254.351C365.384 254.684 365.077 255.088 364.857 255.54C364.637 255.992 364.508 256.483 364.478 256.984C364.447 257.486 364.515 257.989 364.679 258.465C364.842 258.94 365.097 259.379 365.429 259.755Z" fill="#FF6340"/>
<path d="M363.203 275.117C364.313 276.915 370.777 280.113 370.777 280.113C370.777 280.113 370.805 272.885 369.695 271.087C369.432 270.659 369.086 270.288 368.679 269.994C368.272 269.7 367.812 269.489 367.323 269.374C366.835 269.259 366.329 269.241 365.834 269.322C365.339 269.403 364.865 269.58 364.438 269.845C364.012 270.11 363.641 270.456 363.349 270.864C363.056 271.273 362.846 271.735 362.731 272.224C362.616 272.714 362.599 273.221 362.68 273.718C362.761 274.214 362.938 274.69 363.203 275.117Z" fill="#FF6340"/>
<path d="M385.204 251.771C383.254 252.578 376.146 251.377 376.146 251.377C376.146 251.377 380.342 245.5 382.292 244.694C383.228 244.306 384.279 244.308 385.214 244.698C386.149 245.088 386.891 245.834 387.277 246.773C387.663 247.711 387.662 248.765 387.273 249.703C386.884 250.64 386.14 251.384 385.204 251.771Z" fill="#FF6340"/>
<path d="M382.372 269.704C380.271 269.888 373.847 266.61 373.847 266.61C373.847 266.61 379.605 262.261 381.706 262.076C382.205 262.032 382.709 262.087 383.187 262.238C383.666 262.389 384.11 262.632 384.495 262.956C384.879 263.279 385.197 263.675 385.428 264.121C385.66 264.567 385.802 265.054 385.846 265.556C385.89 266.057 385.835 266.562 385.684 267.041C385.533 267.521 385.289 267.966 384.966 268.352C384.644 268.737 384.249 269.054 383.803 269.286C383.358 269.518 382.872 269.66 382.372 269.704Z" fill="#FF6340"/>
<path d="M377.235 286.755C375.195 287.292 368.31 285.15 368.31 285.15C368.31 285.15 373.253 279.888 375.292 279.35C376.271 279.092 377.313 279.234 378.188 279.746C379.062 280.258 379.698 281.097 379.956 282.079C380.213 283.06 380.071 284.105 379.561 284.982C379.051 285.859 378.214 286.496 377.235 286.755Z" fill="#FF6340"/>
<path opacity="0.25" d="M382.76 232.532C381.979 234.496 383.259 241.609 383.259 241.609C383.259 241.609 389.071 237.333 389.853 235.37C390.227 234.427 390.213 233.373 389.813 232.441C389.413 231.509 388.661 230.774 387.721 230.398C386.781 230.022 385.73 230.035 384.8 230.436C383.87 230.836 383.136 231.59 382.76 232.532Z" fill="black"/>
<path opacity="0.25" d="M372.57 241.065C372.979 243.139 377.909 248.412 377.909 248.412C377.909 248.412 380.47 241.656 380.062 239.581C379.965 239.088 379.771 238.619 379.493 238.201C379.216 237.782 378.858 237.423 378.442 237.143C378.025 236.863 377.558 236.668 377.066 236.569C376.574 236.471 376.068 236.47 375.576 236.567C375.084 236.665 374.616 236.858 374.199 237.137C373.782 237.416 373.423 237.774 373.144 238.192C372.865 238.609 372.671 239.078 372.572 239.571C372.474 240.064 372.473 240.572 372.57 241.065Z" fill="black"/>
<path opacity="0.25" d="M365.429 259.755C366.826 261.339 373.737 263.396 373.737 263.396C373.737 263.396 372.546 256.267 371.149 254.683C370.817 254.306 370.414 253.999 369.964 253.778C369.513 253.558 369.024 253.428 368.523 253.397C368.023 253.366 367.521 253.435 367.047 253.598C366.572 253.762 366.135 254.018 365.759 254.351C365.384 254.684 365.077 255.088 364.857 255.54C364.637 255.992 364.508 256.483 364.478 256.984C364.447 257.486 364.515 257.989 364.679 258.465C364.842 258.94 365.097 259.379 365.429 259.755Z" fill="black"/>
<path opacity="0.25" d="M363.203 275.117C364.313 276.915 370.777 280.113 370.777 280.113C370.777 280.113 370.805 272.885 369.695 271.087C369.432 270.659 369.086 270.288 368.679 269.994C368.272 269.7 367.812 269.489 367.323 269.374C366.835 269.259 366.329 269.241 365.834 269.322C365.339 269.403 364.865 269.58 364.438 269.845C364.012 270.11 363.641 270.456 363.349 270.864C363.056 271.273 362.846 271.735 362.731 272.224C362.616 272.714 362.599 273.221 362.68 273.718C362.761 274.214 362.938 274.69 363.203 275.117Z" fill="black"/>
<path opacity="0.25" d="M385.204 251.771C383.254 252.578 376.146 251.377 376.146 251.377C376.146 251.377 380.342 245.5 382.292 244.694C383.228 244.306 384.279 244.308 385.214 244.698C386.149 245.088 386.891 245.834 387.277 246.773C387.663 247.711 387.662 248.765 387.273 249.703C386.884 250.64 386.14 251.384 385.204 251.771Z" fill="black"/>
<path opacity="0.25" d="M382.372 269.704C380.271 269.888 373.847 266.61 373.847 266.61C373.847 266.61 379.605 262.261 381.706 262.076C382.205 262.032 382.709 262.087 383.187 262.238C383.666 262.389 384.11 262.632 384.495 262.956C384.879 263.279 385.197 263.675 385.428 264.121C385.66 264.567 385.802 265.054 385.846 265.556C385.89 266.057 385.835 266.562 385.684 267.041C385.533 267.521 385.289 267.966 384.966 268.352C384.644 268.737 384.249 269.054 383.803 269.286C383.358 269.518 382.872 269.66 382.372 269.704Z" fill="black"/>
<path opacity="0.25" d="M377.235 286.755C375.195 287.292 368.31 285.15 368.31 285.15C368.31 285.15 373.253 279.888 375.292 279.35C376.271 279.092 377.313 279.234 378.188 279.746C379.062 280.258 379.698 281.097 379.956 282.079C380.213 283.06 380.071 284.105 379.561 284.982C379.051 285.859 378.214 286.496 377.235 286.755Z" fill="black"/>
<path d="M363.696 292.208C363.696 292.208 379.543 283.783 384.393 270.593C386.392 265.048 390.132 260.302 395.05 257.069C397.397 255.552 399.877 254.254 402.46 253.191" stroke="#535461" stroke-width="2" stroke-miterlimit="10"/>
<path d="M405.566 244.897C404.058 246.375 402.354 253.398 402.354 253.398C402.354 253.398 409.396 251.851 410.904 250.373C411.628 249.663 412.041 248.694 412.053 247.679C412.064 246.664 411.673 245.685 410.966 244.959C410.258 244.233 409.291 243.819 408.279 243.807C407.266 243.795 406.291 244.188 405.566 244.897Z" fill="#FF6340"/>
<path d="M392.802 248.558C392.337 250.62 394.713 257.444 394.713 257.444C394.713 257.444 399.785 252.308 400.25 250.245C400.361 249.755 400.374 249.248 400.289 248.752C400.204 248.257 400.022 247.783 399.754 247.358C399.487 246.933 399.138 246.565 398.729 246.275C398.319 245.985 397.857 245.778 397.368 245.667C396.879 245.557 396.373 245.543 395.878 245.629C395.384 245.714 394.912 245.896 394.488 246.164C394.064 246.433 393.697 246.782 393.407 247.193C393.118 247.603 392.912 248.067 392.802 248.558Z" fill="#FF6340"/>
<path d="M378.72 262.744C379.357 264.759 384.844 269.447 384.844 269.447C384.844 269.447 386.636 262.446 385.999 260.431C385.848 259.951 385.604 259.507 385.281 259.122C384.958 258.737 384.563 258.42 384.118 258.189C383.672 257.957 383.186 257.816 382.687 257.773C382.187 257.73 381.684 257.786 381.206 257.938C380.728 258.09 380.285 258.334 379.901 258.658C379.517 258.982 379.201 259.378 378.97 259.824C378.739 260.271 378.599 260.758 378.556 261.259C378.513 261.76 378.568 262.264 378.72 262.744Z" fill="#FF6340"/>
<path d="M370.476 275.883C370.764 277.977 375.382 283.528 375.382 283.528C375.382 283.528 378.328 276.931 378.04 274.836C377.972 274.338 377.806 273.859 377.553 273.425C377.299 272.991 376.963 272.612 376.564 272.308C376.164 272.004 375.708 271.783 375.223 271.656C374.738 271.529 374.233 271.498 373.736 271.567C373.24 271.636 372.761 271.802 372.329 272.056C371.896 272.31 371.517 272.647 371.215 273.048C370.912 273.449 370.691 273.905 370.564 274.392C370.437 274.878 370.407 275.385 370.476 275.883Z" fill="#FF6340"/>
<path d="M400.024 263.479C397.916 263.424 391.903 259.438 391.903 259.438C391.903 259.438 398.115 255.77 400.223 255.825C401.235 255.851 402.195 256.28 402.892 257.016C403.59 257.753 403.967 258.736 403.94 259.751C403.914 260.766 403.487 261.729 402.752 262.428C402.018 263.127 401.037 263.505 400.024 263.479H400.024Z" fill="#FF6340"/>
<path d="M390.189 278.723C388.194 278.038 383.645 272.43 383.645 272.43C383.645 272.43 390.667 270.794 392.662 271.479C393.62 271.808 394.408 272.505 394.854 273.416C395.299 274.328 395.365 275.38 395.037 276.341C394.709 277.301 394.014 278.092 393.105 278.538C392.196 278.985 391.147 279.051 390.189 278.723V278.723Z" fill="#FF6340"/>
<path d="M378.601 292.223C376.519 291.886 371.091 287.13 371.091 287.13C371.091 287.13 377.736 284.328 379.818 284.665C380.817 284.826 381.712 285.38 382.305 286.203C382.897 287.026 383.14 288.052 382.978 289.054C382.817 290.056 382.265 290.953 381.444 291.548C380.623 292.142 379.6 292.385 378.601 292.223Z" fill="#FF6340"/>
<path opacity="0.1" d="M242.204 36.2395C221.206 35.5085 201.207 28.7116 182.11 21.2754C163.013 13.8391 144.097 5.60039 123.601 1.66005C110.419 -0.87431 95.3445 -1.23289 84.723 5.85361C74.502 12.6729 71.1994 24.4445 69.4237 35.3671C68.0878 43.5848 67.3024 52.2337 70.9628 59.9269C73.5042 65.2681 78.0165 69.7578 81.1369 74.8737C91.9947 92.6753 84.3203 114.627 72.5537 132.008C67.0342 140.162 60.632 147.94 56.3729 156.62C52.1137 165.299 50.1434 175.245 53.8698 184.098C57.5633 192.874 66.3654 199.466 75.9001 204.102C95.2654 213.519 118.085 216.214 140.338 217.74C189.597 221.119 239.118 219.656 288.508 218.191C306.786 217.649 325.144 217.099 343.125 214.265C353.11 212.692 363.419 210.194 370.668 204.164C379.871 196.509 382.152 183.548 375.985 173.95C365.642 157.85 337.043 153.851 329.813 136.573C325.834 127.063 329.921 116.469 335.704 107.649C348.11 88.7275 368.904 72.1277 370 50.5001C370.752 35.646 360.756 20.77 345.299 13.742C329.098 6.37515 306.632 7.30182 294.68 19.4964C282.372 32.0533 260.744 36.8849 242.204 36.2395Z" fill="#FF6340"/>
<path d="M206.252 268.486C214.137 268.486 220.529 261.683 220.529 253.291C220.529 244.899 214.137 238.096 206.252 238.096C198.367 238.096 191.975 244.899 191.975 253.291C191.975 261.683 198.367 268.486 206.252 268.486Z" fill="#FBD56F"/>
<path opacity="0.1" d="M206.252 268.486C214.137 268.486 220.529 261.683 220.529 253.291C220.529 244.899 214.137 238.096 206.252 238.096C198.367 238.096 191.975 244.899 191.975 253.291C191.975 261.683 198.367 268.486 206.252 268.486Z" fill="black"/>
<path d="M208.716 268.486C216.601 268.486 222.993 261.835 222.993 253.63C222.993 245.425 216.601 238.773 208.716 238.773C200.831 238.773 194.439 245.425 194.439 253.63C194.439 261.835 200.831 268.486 208.716 268.486Z" fill="#FBD56F"/>
<path d="M214.498 267.093L213.013 266.264C213.013 266.264 212.319 269.171 212.546 271.242C212.568 271.452 212.654 271.65 212.792 271.809C212.931 271.969 213.115 272.082 213.319 272.133C216.735 272.984 233.018 276.608 244.215 271.503C244.377 271.429 244.518 271.314 244.622 271.168C244.726 271.023 244.791 270.853 244.81 270.675C244.948 269.402 244.461 266.776 244.267 266.264C243.85 265.163 214.498 267.093 214.498 267.093Z" fill="#FBD56F"/>
<path opacity="0.1" d="M214.498 267.093L213.013 266.264C213.013 266.264 212.319 269.171 212.546 271.242C212.568 271.452 212.654 271.65 212.792 271.809C212.931 271.969 213.115 272.082 213.319 272.133C216.735 272.984 233.018 276.608 244.215 271.503C244.377 271.429 244.518 271.314 244.622 271.168C244.726 271.023 244.791 270.853 244.81 270.675C244.948 269.402 244.461 266.776 244.267 266.264C243.85 265.163 214.498 267.093 214.498 267.093Z" fill="black"/>
<path d="M228.64 269.796C237.271 269.796 244.267 268.215 244.267 266.264C244.267 264.313 237.271 262.732 228.64 262.732C220.01 262.732 213.013 264.313 213.013 266.264C213.013 268.215 220.01 269.796 228.64 269.796Z" fill="#FBD56F"/>
<path d="M220.469 261.882L218.984 261.053C218.984 261.053 218.289 263.959 218.516 266.031C218.538 266.241 218.625 266.439 218.763 266.598C218.901 266.758 219.085 266.871 219.289 266.922C222.706 267.773 238.989 271.397 250.186 266.292C250.348 266.218 250.488 266.102 250.593 265.957C250.697 265.812 250.762 265.642 250.781 265.464C250.918 264.191 250.432 261.565 250.238 261.053C249.82 259.952 220.469 261.882 220.469 261.882Z" fill="#FBD56F"/>
<path opacity="0.1" d="M220.469 261.882L218.984 261.053C218.984 261.053 218.289 263.959 218.516 266.031C218.538 266.241 218.625 266.439 218.763 266.598C218.901 266.758 219.085 266.871 219.289 266.922C222.706 267.773 238.989 271.397 250.186 266.292C250.348 266.218 250.488 266.102 250.593 265.957C250.697 265.812 250.762 265.642 250.781 265.464C250.918 264.191 250.432 261.565 250.238 261.053C249.82 259.952 220.469 261.882 220.469 261.882Z" fill="black"/>
<path d="M234.611 264.585C243.241 264.585 250.238 263.004 250.238 261.053C250.238 259.102 243.241 257.521 234.611 257.521C225.98 257.521 218.984 259.102 218.984 261.053C218.984 263.004 225.98 264.585 234.611 264.585Z" fill="#FBD56F"/>
<path d="M225.747 255.033L224.262 254.204C224.262 254.204 223.567 257.111 223.794 259.182C223.817 259.392 223.903 259.59 224.041 259.749C224.179 259.909 224.363 260.022 224.567 260.073C227.984 260.924 244.267 264.548 255.464 259.443C255.626 259.369 255.766 259.253 255.871 259.108C255.975 258.963 256.04 258.793 256.059 258.615C256.196 257.342 255.71 254.716 255.516 254.204C255.098 253.103 225.747 255.033 225.747 255.033Z" fill="#FBD56F"/>
<path opacity="0.1" d="M225.747 255.033L224.262 254.204C224.262 254.204 223.567 257.111 223.794 259.182C223.817 259.392 223.903 259.59 224.041 259.749C224.179 259.909 224.363 260.022 224.567 260.073C227.984 260.924 244.267 264.548 255.464 259.443C255.626 259.369 255.766 259.253 255.871 259.108C255.975 258.963 256.04 258.793 256.059 258.615C256.196 257.342 255.71 254.716 255.516 254.204C255.098 253.103 225.747 255.033 225.747 255.033Z" fill="black"/>
<path d="M239.889 257.736C248.519 257.736 255.516 256.155 255.516 254.204C255.516 252.253 248.519 250.672 239.889 250.672C231.258 250.672 224.262 252.253 224.262 254.204C224.262 256.155 231.258 257.736 239.889 257.736Z" fill="#FBD56F"/>
<path d="M219.902 247.903L218.417 247.074C218.417 247.074 217.722 249.981 217.949 252.052C217.971 252.262 218.058 252.46 218.196 252.62C218.334 252.779 218.518 252.892 218.722 252.943C222.139 253.794 238.422 257.418 249.619 252.314C249.781 252.239 249.921 252.124 250.026 251.979C250.13 251.834 250.195 251.664 250.214 251.486C250.351 250.213 249.865 247.586 249.671 247.074C249.253 245.973 219.902 247.903 219.902 247.903Z" fill="#FBD56F"/>
<path opacity="0.1" d="M219.902 247.903L218.417 247.074C218.417 247.074 217.722 249.981 217.949 252.052C217.971 252.262 218.058 252.46 218.196 252.62C218.334 252.779 218.518 252.892 218.722 252.943C222.139 253.794 238.422 257.418 249.619 252.314C249.781 252.239 249.921 252.124 250.026 251.979C250.13 251.834 250.195 251.664 250.214 251.486C250.351 250.213 249.865 247.586 249.671 247.074C249.253 245.973 219.902 247.903 219.902 247.903Z" fill="black"/>
<path d="M234.044 250.606C242.674 250.606 249.671 249.025 249.671 247.074C249.671 245.124 242.674 243.542 234.044 243.542C225.413 243.542 218.417 245.124 218.417 247.074C218.417 249.025 225.413 250.606 234.044 250.606Z" fill="#FBD56F"/>
<path d="M233.051 242.182L231.566 241.353C231.566 241.353 230.872 244.259 231.099 246.33C231.121 246.54 231.207 246.739 231.345 246.898C231.484 247.057 231.667 247.17 231.872 247.222C235.288 248.072 251.571 251.697 262.768 246.592C262.93 246.518 263.071 246.402 263.175 246.257C263.279 246.112 263.344 245.942 263.363 245.764C263.5 244.491 263.014 241.864 262.82 241.353C262.403 240.251 233.051 242.182 233.051 242.182Z" fill="#FBD56F"/>
<path opacity="0.1" d="M233.051 242.182L231.566 241.353C231.566 241.353 230.872 244.259 231.099 246.33C231.121 246.54 231.207 246.739 231.345 246.898C231.484 247.057 231.667 247.17 231.872 247.222C235.288 248.072 251.571 251.697 262.768 246.592C262.93 246.518 263.071 246.402 263.175 246.257C263.279 246.112 263.344 245.942 263.363 245.764C263.5 244.491 263.014 241.864 262.82 241.353C262.403 240.251 233.051 242.182 233.051 242.182Z" fill="black"/>
<path d="M247.193 244.885C255.824 244.885 262.82 243.303 262.82 241.353C262.82 239.402 255.824 237.821 247.193 237.821C238.563 237.821 231.566 239.402 231.566 241.353C231.566 243.303 238.563 244.885 247.193 244.885Z" fill="#FBD56F"/>
<path d="M224.167 238.336L222.682 237.507C222.682 237.507 221.987 240.413 222.214 242.485C222.236 242.695 222.323 242.893 222.461 243.052C222.599 243.212 222.783 243.325 222.987 243.376C226.404 244.227 242.687 247.851 253.884 242.746C254.046 242.672 254.186 242.556 254.291 242.411C254.395 242.266 254.46 242.096 254.479 241.918C254.616 240.645 254.13 238.019 253.936 237.507C253.518 236.406 224.167 238.336 224.167 238.336Z" fill="#FBD56F"/>
<path opacity="0.1" d="M224.167 238.336L222.682 237.507C222.682 237.507 221.987 240.413 222.214 242.485C222.236 242.695 222.323 242.893 222.461 243.052C222.599 243.212 222.783 243.325 222.987 243.376C226.404 244.227 242.687 247.851 253.884 242.746C254.046 242.672 254.186 242.556 254.291 242.411C254.395 242.266 254.46 242.096 254.479 241.918C254.616 240.645 254.13 238.019 253.936 237.507C253.518 236.406 224.167 238.336 224.167 238.336Z" fill="black"/>
<path d="M238.309 241.039C246.939 241.039 253.936 239.458 253.936 237.507C253.936 235.556 246.939 233.975 238.309 233.975C229.678 233.975 222.682 235.556 222.682 237.507C222.682 239.458 229.678 241.039 238.309 241.039Z" fill="#FBD56F"/>
<path d="M230.098 230.912L228.613 230.083C228.613 230.083 227.919 232.989 228.146 235.061C228.168 235.271 228.254 235.469 228.393 235.628C228.531 235.788 228.715 235.901 228.919 235.952C232.335 236.803 248.618 240.427 259.815 235.322C259.978 235.248 260.118 235.132 260.222 234.987C260.327 234.842 260.391 234.672 260.41 234.494C260.548 233.221 260.061 230.595 259.867 230.083C259.45 228.982 230.098 230.912 230.098 230.912Z" fill="#FBD56F"/>
<path opacity="0.1" d="M230.098 230.912L228.613 230.083C228.613 230.083 227.919 232.989 228.146 235.061C228.168 235.271 228.254 235.469 228.393 235.628C228.531 235.788 228.715 235.901 228.919 235.952C232.335 236.803 248.618 240.427 259.815 235.322C259.978 235.248 260.118 235.132 260.222 234.987C260.327 234.842 260.391 234.672 260.41 234.494C260.548 233.221 260.061 230.595 259.867 230.083C259.45 228.982 230.098 230.912 230.098 230.912Z" fill="black"/>
<path d="M244.24 233.615C252.871 233.615 259.867 232.034 259.867 230.083C259.867 228.132 252.871 226.551 244.24 226.551C235.61 226.551 228.613 228.132 228.613 230.083C228.613 232.034 235.61 233.615 244.24 233.615Z" fill="#FBD56F"/>
<path d="M233.024 222.1L231.539 221.27C231.539 221.27 230.845 224.177 231.072 226.248C231.094 226.458 231.18 226.656 231.318 226.816C231.457 226.975 231.641 227.088 231.845 227.139C235.261 227.99 251.544 231.614 262.741 226.51C262.904 226.435 263.044 226.32 263.148 226.175C263.253 226.03 263.317 225.86 263.336 225.682C263.474 224.409 262.987 221.782 262.793 221.27C262.376 220.169 233.024 222.1 233.024 222.1Z" fill="#FBD56F"/>
<path opacity="0.1" d="M233.024 222.1L231.539 221.27C231.539 221.27 230.845 224.177 231.072 226.248C231.094 226.458 231.18 226.656 231.318 226.816C231.457 226.975 231.641 227.088 231.845 227.139C235.261 227.99 251.544 231.614 262.741 226.51C262.904 226.435 263.044 226.32 263.148 226.175C263.253 226.03 263.317 225.86 263.336 225.682C263.474 224.409 262.987 221.782 262.793 221.27C262.376 220.169 233.024 222.1 233.024 222.1Z" fill="black"/>
<path d="M247.166 224.803C255.797 224.803 262.793 223.221 262.793 221.271C262.793 219.32 255.797 217.739 247.166 217.739C238.536 217.739 231.539 219.32 231.539 221.271C231.539 223.221 238.536 224.803 247.166 224.803Z" fill="#FBD56F"/>
<path d="M259.404 269.137L257.919 268.308C257.919 268.308 257.224 271.214 257.451 273.285C257.474 273.495 257.56 273.694 257.698 273.853C257.837 274.012 258.02 274.125 258.225 274.177C261.641 275.027 277.924 278.652 289.121 273.547C289.283 273.473 289.424 273.357 289.528 273.212C289.632 273.067 289.697 272.897 289.716 272.719C289.853 271.446 289.367 268.82 289.173 268.308C288.756 267.206 259.404 269.137 259.404 269.137Z" fill="#FBD56F"/>
<path opacity="0.1" d="M259.404 269.137L257.919 268.308C257.919 268.308 257.224 271.214 257.451 273.285C257.474 273.495 257.56 273.694 257.698 273.853C257.837 274.012 258.02 274.125 258.225 274.177C261.641 275.027 277.924 278.652 289.121 273.547C289.283 273.473 289.424 273.357 289.528 273.212C289.632 273.067 289.697 272.897 289.716 272.719C289.853 271.446 289.367 268.82 289.173 268.308C288.756 267.206 259.404 269.137 259.404 269.137Z" fill="black"/>
<path d="M273.546 271.84C282.177 271.84 289.173 270.258 289.173 268.308C289.173 266.357 282.177 264.776 273.546 264.776C264.916 264.776 257.919 266.357 257.919 268.308C257.919 270.258 264.916 271.84 273.546 271.84Z" fill="#FBD56F"/>
<path d="M264.682 262.288L263.197 261.459C263.197 261.459 262.503 264.366 262.73 266.437C262.752 266.647 262.838 266.845 262.977 267.004C263.115 267.164 263.299 267.277 263.503 267.328C266.919 268.179 283.202 271.803 294.399 266.698C294.562 266.624 294.702 266.509 294.806 266.363C294.911 266.218 294.975 266.048 294.994 265.87C295.132 264.598 294.646 261.971 294.451 261.459C294.034 260.358 264.682 262.288 264.682 262.288Z" fill="#FBD56F"/>
<path opacity="0.1" d="M264.682 262.288L263.197 261.459C263.197 261.459 262.503 264.366 262.73 266.437C262.752 266.647 262.838 266.845 262.977 267.004C263.115 267.164 263.299 267.277 263.503 267.328C266.919 268.179 283.202 271.803 294.399 266.698C294.562 266.624 294.702 266.509 294.806 266.363C294.911 266.218 294.975 266.048 294.994 265.87C295.132 264.598 294.646 261.971 294.451 261.459C294.034 260.358 264.682 262.288 264.682 262.288Z" fill="black"/>
<path d="M278.824 264.991C287.455 264.991 294.451 263.41 294.451 261.459C294.451 259.508 287.455 257.927 278.824 257.927C270.194 257.927 263.197 259.508 263.197 261.459C263.197 263.41 270.194 264.991 278.824 264.991Z" fill="#FBD56F"/>
<path d="M258.837 255.158L257.352 254.329C257.352 254.329 256.657 257.236 256.885 259.307C256.907 259.517 256.993 259.715 257.131 259.875C257.27 260.034 257.453 260.147 257.658 260.198C261.074 261.049 277.357 264.673 288.554 259.568C288.716 259.494 288.857 259.379 288.961 259.234C289.065 259.088 289.13 258.918 289.149 258.741C289.286 257.468 288.8 254.841 288.606 254.329C288.188 253.228 258.837 255.158 258.837 255.158Z" fill="#FBD56F"/>
<path opacity="0.1" d="M258.837 255.158L257.352 254.329C257.352 254.329 256.657 257.236 256.885 259.307C256.907 259.517 256.993 259.715 257.131 259.875C257.27 260.034 257.453 260.147 257.658 260.198C261.074 261.049 277.357 264.673 288.554 259.568C288.716 259.494 288.857 259.379 288.961 259.234C289.065 259.088 289.13 258.918 289.149 258.741C289.286 257.468 288.8 254.841 288.606 254.329C288.188 253.228 258.837 255.158 258.837 255.158Z" fill="black"/>
<path d="M272.979 257.861C281.61 257.861 288.606 256.28 288.606 254.329C288.606 252.379 281.61 250.797 272.979 250.797C264.349 250.797 257.352 252.379 257.352 254.329C257.352 256.28 264.349 257.861 272.979 257.861Z" fill="#FBD56F"/>
<path d="M271.987 249.437L270.502 248.608C270.502 248.608 269.807 251.514 270.034 253.585C270.056 253.795 270.143 253.993 270.281 254.153C270.419 254.312 270.603 254.425 270.807 254.477C274.224 255.327 290.507 258.951 301.704 253.847C301.866 253.772 302.006 253.657 302.111 253.512C302.215 253.367 302.28 253.197 302.299 253.019C302.436 251.746 301.95 249.119 301.756 248.608C301.338 247.506 271.987 249.437 271.987 249.437Z" fill="#FBD56F"/>
<path opacity="0.1" d="M271.987 249.437L270.502 248.608C270.502 248.608 269.807 251.514 270.034 253.585C270.056 253.795 270.143 253.993 270.281 254.153C270.419 254.312 270.603 254.425 270.807 254.477C274.224 255.327 290.507 258.951 301.704 253.847C301.866 253.772 302.006 253.657 302.111 253.512C302.215 253.367 302.28 253.197 302.299 253.019C302.436 251.746 301.95 249.119 301.756 248.608C301.338 247.506 271.987 249.437 271.987 249.437Z" fill="black"/>
<path d="M286.129 252.14C294.759 252.14 301.756 250.558 301.756 248.608C301.756 246.657 294.759 245.076 286.129 245.076C277.498 245.076 270.502 246.657 270.502 248.608C270.502 250.558 277.498 252.14 286.129 252.14Z" fill="#FBD56F"/>
<path d="M263.102 245.591L261.617 244.762C261.617 244.762 260.923 247.668 261.15 249.74C261.172 249.95 261.258 250.148 261.396 250.307C261.535 250.467 261.719 250.58 261.923 250.631C265.339 251.482 281.622 255.106 292.819 250.001C292.981 249.927 293.122 249.811 293.226 249.666C293.33 249.521 293.395 249.351 293.414 249.173C293.552 247.9 293.065 245.274 292.871 244.762C292.454 243.661 263.102 245.591 263.102 245.591Z" fill="#FBD56F"/>
<path opacity="0.1" d="M263.102 245.591L261.617 244.762C261.617 244.762 260.923 247.668 261.15 249.74C261.172 249.95 261.258 250.148 261.396 250.307C261.535 250.467 261.719 250.58 261.923 250.631C265.339 251.482 281.622 255.106 292.819 250.001C292.981 249.927 293.122 249.811 293.226 249.666C293.33 249.521 293.395 249.351 293.414 249.173C293.552 247.9 293.065 245.274 292.871 244.762C292.454 243.661 263.102 245.591 263.102 245.591Z" fill="black"/>
<path d="M277.244 248.294C285.875 248.294 292.871 246.713 292.871 244.762C292.871 242.811 285.875 241.23 277.244 241.23C268.614 241.23 261.617 242.811 261.617 244.762C261.617 246.713 268.614 248.294 277.244 248.294Z" fill="#FBD56F"/>
<path d="M269.034 238.167L267.549 237.338C267.549 237.338 266.854 240.244 267.081 242.315C267.104 242.526 267.19 242.724 267.328 242.883C267.466 243.042 267.65 243.155 267.855 243.207C271.271 244.057 287.554 247.682 298.751 242.577C298.913 242.503 299.053 242.387 299.158 242.242C299.262 242.097 299.327 241.927 299.346 241.749C299.483 240.476 298.997 237.85 298.803 237.338C298.385 236.236 269.034 238.167 269.034 238.167Z" fill="#FBD56F"/>
<path opacity="0.1" d="M269.034 238.167L267.549 237.338C267.549 237.338 266.854 240.244 267.081 242.315C267.104 242.526 267.19 242.724 267.328 242.883C267.466 243.042 267.65 243.155 267.855 243.207C271.271 244.057 287.554 247.682 298.751 242.577C298.913 242.503 299.053 242.387 299.158 242.242C299.262 242.097 299.327 241.927 299.346 241.749C299.483 240.476 298.997 237.85 298.803 237.338C298.385 236.236 269.034 238.167 269.034 238.167Z" fill="black"/>
<path d="M283.176 240.87C291.806 240.87 298.803 239.288 298.803 237.338C298.803 235.387 291.806 233.806 283.176 233.806C274.545 233.806 267.549 235.387 267.549 237.338C267.549 239.288 274.545 240.87 283.176 240.87Z" fill="#FBD56F"/>
<path d="M271.96 229.354L270.475 228.525C270.475 228.525 269.78 231.432 270.007 233.503C270.029 233.713 270.116 233.911 270.254 234.071C270.392 234.23 270.576 234.343 270.78 234.394C274.197 235.245 290.48 238.869 301.677 233.764C301.839 233.69 301.979 233.575 302.084 233.43C302.188 233.284 302.253 233.115 302.272 232.937C302.409 231.664 301.923 229.037 301.729 228.525C301.311 227.424 271.96 229.354 271.96 229.354Z" fill="#FBD56F"/>
<path opacity="0.1" d="M271.96 229.354L270.475 228.525C270.475 228.525 269.78 231.432 270.007 233.503C270.029 233.713 270.116 233.911 270.254 234.071C270.392 234.23 270.576 234.343 270.78 234.394C274.197 235.245 290.48 238.869 301.677 233.764C301.839 233.69 301.979 233.575 302.084 233.43C302.188 233.284 302.253 233.115 302.272 232.937C302.409 231.664 301.923 229.037 301.729 228.525C301.311 227.424 271.96 229.354 271.96 229.354Z" fill="black"/>
<path d="M286.102 232.058C294.732 232.058 301.729 230.476 301.729 228.526C301.729 226.575 294.732 224.994 286.102 224.994C277.471 224.994 270.475 226.575 270.475 228.526C270.475 230.476 277.471 232.058 286.102 232.058Z" fill="#FBD56F"/>
<path d="M366.15 289.924C363.975 289.848 363.898 289.002 361.101 287.542C359.522 286.718 357.125 284.324 355.338 282.398C355.195 282.244 355.056 282.093 354.922 281.946C355.395 281.936 355.663 281.931 355.663 281.931C355.663 281.931 354.963 275.781 355.585 274.321C356.206 272.861 355.74 264.175 355.74 264.175C355.74 264.175 356.129 257.565 355.43 256.027C354.73 254.49 355.663 244.651 355.663 244.651C355.663 244.651 356.284 238.81 356.44 226.896C356.595 214.982 349.603 214.597 349.603 214.597C349.603 214.597 348.671 214.525 347.255 214.39C347.119 214.377 346.976 214.363 346.831 214.349C347.748 212.425 348.282 210.985 348.282 210.985C348.282 210.985 347.117 199.839 346.806 197.918C346.496 195.996 344.631 188.079 344.631 188.079C344.631 188.079 343.31 184.697 342.534 182.314C341.757 179.932 339.426 177.164 339.426 177.164C339.426 177.164 335.231 168.863 334.066 167.633C333.525 167.063 332.767 166.343 332.109 165.736C331.991 165.627 331.878 165.523 331.768 165.422C331.943 164.556 332.037 163.675 332.046 162.791C332.046 162.791 327.695 158.486 327.384 157.41C327.074 156.334 322.956 152.337 322.956 152.337C322.956 152.337 320.626 148.033 317.984 147.956C316.736 147.885 315.485 147.923 314.243 148.07C314.785 146.056 315.427 143.947 316.003 142.137C316.067 141.936 316.13 141.739 316.193 141.545C318.303 140.114 319.96 138.105 320.965 135.757C321.02 135.633 321.07 135.506 321.12 135.38C321.148 135.381 321.176 135.386 321.204 135.385C321.313 135.384 321.422 135.374 321.53 135.356C322.4 135.206 323.136 134.221 322.735 133.444C322.761 133.488 322.798 133.524 322.843 133.549C322.887 133.573 322.938 133.585 322.988 133.584C323.278 133.574 323.632 133.154 323.7 132.784C323.712 132.72 323.718 132.655 323.728 132.59C323.74 132.51 323.753 132.43 323.763 132.349C323.772 132.274 323.777 132.198 323.784 132.122C323.79 132.043 323.797 131.965 323.801 131.886C323.804 131.813 323.806 131.739 323.808 131.666C323.809 131.581 323.809 131.496 323.807 131.412C323.806 131.344 323.805 131.276 323.802 131.208C323.797 131.105 323.789 131.003 323.779 130.9C323.775 130.858 323.775 130.815 323.77 130.773L323.769 130.779C323.724 130.359 323.64 129.944 323.519 129.54C323.089 128.111 322.189 126.694 322.536 125.244C322.54 125.228 322.546 125.214 322.551 125.198L322.551 125.201C322.84 124.075 323.812 123.258 324.406 122.252C324.463 122.156 324.512 122.057 324.562 121.958C324.571 121.94 324.581 121.922 324.59 121.904C324.626 121.829 324.656 121.752 324.688 121.676C324.708 121.627 324.73 121.579 324.749 121.529C324.774 121.462 324.794 121.394 324.816 121.326C324.836 121.264 324.857 121.202 324.875 121.139C324.891 121.079 324.905 121.018 324.919 120.957C324.937 120.884 324.954 120.811 324.968 120.737C324.978 120.684 324.986 120.63 324.994 120.577C325.007 120.493 325.019 120.409 325.028 120.324C325.033 120.278 325.036 120.232 325.04 120.186C325.047 120.092 325.053 119.998 325.055 119.903C325.056 119.865 325.056 119.827 325.056 119.789C325.057 119.685 325.054 119.582 325.048 119.478C325.047 119.447 325.045 119.416 325.043 119.385C325.035 119.275 325.024 119.165 325.009 119.055C325.007 119.039 325.006 119.023 325.004 119.007L325.003 119.011C324.871 118.045 324.488 117.131 323.891 116.362C323.21 115.55 322.351 114.908 321.38 114.487C320.41 114.066 319.355 113.878 318.299 113.937C317.715 114.003 317.126 114.014 316.541 113.969C315.565 113.826 314.74 113.205 313.963 112.605C311.794 110.929 309.625 109.254 307.456 107.579C306.73 106.946 305.897 106.45 304.996 106.113C304.077 105.83 302.974 105.928 302.294 106.601C301.075 107.807 301.85 109.882 301.361 111.516C300.937 112.932 299.573 113.892 298.161 114.37C296.749 114.848 295.238 114.953 293.788 115.299C293.356 115.369 292.952 115.556 292.617 115.838C292.242 116.296 292.059 116.882 292.109 117.473C292.1 118.92 292.447 120.348 293.119 121.629C293.393 122.151 293.726 122.678 294.017 123.213C294.042 123.258 294.065 123.302 294.088 123.346C294.121 123.407 294.154 123.469 294.185 123.53C294.235 123.63 294.284 123.731 294.329 123.831C294.349 123.874 294.367 123.918 294.385 123.962C294.416 124.033 294.445 124.104 294.472 124.175C294.49 124.221 294.507 124.267 294.523 124.312C294.552 124.396 294.578 124.481 294.602 124.565C294.757 125.062 294.772 125.593 294.644 126.098C294.42 126.924 293.777 127.561 293.21 128.206C292.747 128.71 292.417 129.323 292.251 129.988L292.249 130.003C292.217 130.157 292.211 130.316 292.231 130.472C292.234 130.492 292.236 130.512 292.24 130.53C292.247 130.565 292.257 130.6 292.269 130.633C292.277 130.658 292.288 130.682 292.299 130.705C292.311 130.732 292.324 130.759 292.339 130.784C292.367 130.827 292.401 130.867 292.438 130.901C292.456 130.916 292.474 130.929 292.493 130.942C292.524 130.965 292.557 130.986 292.592 131.003C292.614 131.014 292.635 131.024 292.659 131.033C292.71 131.052 292.764 131.066 292.818 131.076C292.833 131.079 292.846 131.084 292.862 131.086C292.945 131.097 293.029 131.1 293.112 131.097C293.136 131.096 293.162 131.093 293.188 131.091C293.268 131.085 293.347 131.075 293.426 131.061C293.455 131.056 293.484 131.051 293.514 131.045C293.628 131.021 293.748 130.992 293.88 130.951C294.317 130.819 294.741 130.65 295.15 130.448C295.149 130.495 295.146 130.541 295.146 130.588C295.146 130.668 295.146 130.753 295.154 130.834C295.176 132.341 295.46 133.833 295.993 135.242C296.826 137.439 298.224 139.375 300.044 140.855C300.022 140.988 299.997 141.121 299.97 141.255C299.596 143.098 298.813 144.948 298.329 144.805C297.857 144.699 297.374 144.646 296.889 144.646C296.742 144.642 296.6 144.64 296.465 144.639L296.465 144.639C296.026 144.588 295.583 144.588 295.144 144.639C294.948 144.652 294.751 144.625 294.566 144.559C293.311 144.162 291.977 144.087 290.685 144.34C287.999 144.892 283.912 145.902 282.792 147.11C281.083 148.955 278.597 150.723 275.8 158.41C275.8 158.41 274.402 163.098 273.314 163.713C273.554 163.589 273.8 163.478 274.052 163.381C273.908 163.635 273.709 163.853 273.469 164.021C273.864 163.819 274.273 163.648 274.693 163.509C273.844 168.517 275.101 182.842 275.101 182.842C275.101 182.842 274.091 185.312 275.412 186.772C276.197 187.64 276.623 188.994 276.841 189.952C276.78 190.048 276.716 190.147 276.65 190.25V190.251C275.951 191.338 275.015 192.756 274.402 193.537C273.314 194.92 273.625 199.301 273.625 199.301C273.625 199.301 273.392 201.377 272.615 202.145C271.838 202.914 271.993 205.758 271.993 205.758L269.974 213.214C269.974 213.214 268.109 214.905 268.109 215.674C268.109 216.442 266.633 218.594 266.633 218.594C266.633 218.594 264.38 222.284 266.633 221.746C267.454 221.505 268.225 221.116 268.908 220.599L268.907 220.654C268.903 220.789 268.9 220.927 268.898 221.066C268.835 225.085 269.271 230.739 272.226 230.739C276.81 230.739 288.618 236.196 288.618 236.196C291.027 238.041 294.29 237.426 294.29 237.426C294.29 237.426 288.541 243.191 288.696 245.574C288.851 247.957 285.433 251.877 285.433 251.877L274.868 272.553C274.927 273.994 275.182 275.42 275.625 276.791C275.575 276.835 275.523 276.877 275.474 276.922C271.414 280.641 271.061 288.003 271.061 288.003L270.129 291.769L284.268 297.995C284.268 297.995 302.602 298.38 305.787 297.534C308.973 296.689 308.273 293.153 304.078 292.461C299.883 291.769 298.873 289.924 297.475 289.079C296.532 288.509 293.182 284.822 291.103 282.486C291.071 282.45 291.042 282.417 291.011 282.382L291.493 279.702C292.425 279.24 293.824 274.628 293.824 274.628C293.824 274.628 293.824 272.784 294.756 272.246C295.688 271.708 297.63 266.173 297.63 266.173C297.63 266.173 301.825 259.179 301.592 258.256C301.359 257.334 304.622 252.645 304.622 252.645C304.622 252.645 310.138 247.265 309.905 246.304C309.672 245.343 314.333 240.424 314.333 240.424C316.017 239.135 317.421 237.514 318.458 235.661C318.878 235.594 319.328 235.521 319.804 235.441C325.904 234.439 336.04 232.627 337.173 232.122C338.727 231.431 338.416 234.505 337.795 237.119C337.173 239.732 336.707 252.261 337.406 253.875C338.105 255.489 337.795 258.103 337.795 258.103L336.862 272.169L337.484 275.167C337.484 275.167 335.386 276.858 336.241 277.857C337.095 278.856 336.318 283.16 336.318 283.16C336.392 283.133 336.479 283.107 336.577 283.08C336.502 283.249 336.43 283.422 336.367 283.605C335.163 287.047 335.852 292.692 335.852 292.692V297.15C335.852 297.15 357.372 297.534 362.111 297.534C366.85 297.534 373.375 295.228 373.764 293.383C374.152 291.539 368.326 290.001 366.15 289.924ZM304.945 209.905L303.535 210.024C304.002 209.956 304.473 209.916 304.945 209.905ZM313.539 150.907C313.737 150.017 313.976 149.061 314.24 148.08L313.539 150.907ZM316.197 212.061C314.853 212.594 313.357 212.596 312.012 212.065L312.002 212.061C312.002 212.061 312.08 206.68 312.702 204.451C313.323 202.222 314.178 198.148 314.178 198.148C314.178 198.148 314.877 192.537 315.576 190.001C316.275 187.464 318.994 173.321 320.393 172.399C321.791 171.476 322.568 173.091 322.568 173.091C322.568 173.091 322.777 173.086 323.127 173.047C323.193 173.195 323.267 173.352 323.349 173.518C325.007 176.877 329.87 183.775 329.87 183.775C331.313 184.667 332.535 185.876 333.444 187.311C334.765 189.54 335.153 194.766 335.153 194.766C335.153 194.766 338.105 206.373 339.504 207.987C340.203 208.794 339.892 209.275 339.407 209.554C338.417 210.097 337.575 210.877 336.956 211.824C336.757 212.141 336.546 212.488 336.332 212.859C335.798 212.735 335.319 212.606 334.92 212.471C331.113 211.189 318.295 211.138 316.197 212.061Z" fill="url(#paint0_linear)"/>
<path d="M335.343 292.737V297.158C335.343 297.158 356.4 297.539 361.037 297.539C365.674 297.539 372.06 295.252 372.44 293.423C372.82 291.593 367.118 290.069 364.99 289.993C362.861 289.917 362.785 289.078 360.049 287.63C358.504 286.813 356.158 284.439 354.41 282.529C353.061 281.055 352.067 279.855 352.067 279.855C352.067 279.855 340.74 279.627 337.471 281.456C336.719 281.878 336.199 282.704 335.846 283.726C334.668 287.139 335.343 292.737 335.343 292.737Z" fill="#434175"/>
<path opacity="0.1" d="M335.846 283.726C338.221 282.898 352.124 282.576 354.41 282.529C353.061 281.055 352.067 279.855 352.067 279.855C352.067 279.855 340.74 279.627 337.471 281.456C336.719 281.878 336.199 282.704 335.846 283.726Z" fill="black"/>
<path d="M274.756 213.238C274.756 213.238 275.195 213.505 275.985 213.982C276.127 214.067 276.281 214.162 276.445 214.261C276.945 214.564 277.546 214.926 278.232 215.34C287.786 221.113 313.848 236.763 315.274 236.638C315.648 236.606 316.771 236.437 318.322 236.184C318.733 236.117 319.174 236.045 319.639 235.966C325.608 234.972 335.527 233.174 336.635 232.674C338.155 231.988 337.851 235.037 337.243 237.629C336.635 240.22 336.179 252.644 336.863 254.245C337.547 255.846 337.243 258.437 337.243 258.437L336.331 272.386L336.939 275.358C336.939 275.358 334.887 277.035 335.723 278.026C336.559 279.017 335.799 283.285 335.799 283.285C338.231 282.371 354.727 282.066 354.727 282.066C354.727 282.066 354.043 275.968 354.651 274.52C355.26 273.072 354.803 264.459 354.803 264.459C354.803 264.459 355.184 257.904 354.499 256.379C353.815 254.855 354.727 245.098 354.727 245.098C354.727 245.098 355.336 239.306 355.488 227.491C355.64 215.677 348.798 215.296 348.798 215.296C348.798 215.296 347.886 215.224 346.501 215.09C343.791 214.83 339.276 214.331 336.26 213.674C335.641 213.546 335.031 213.384 334.431 213.188C330.706 211.916 318.163 211.866 316.11 212.781C314.796 213.31 313.329 213.311 312.014 212.785L312.005 212.781L310.409 210.189L295.161 211.493L293.545 211.631L278.534 212.915L277.502 213.003L274.756 213.238Z" fill="#565387"/>
<path opacity="0.1" d="M335.875 224.93C340.304 227.095 344.53 219.421 346.501 215.09C343.791 214.83 339.276 214.331 336.259 213.674C334.275 217.013 331.628 222.856 335.875 224.93Z" fill="black"/>
<path d="M322.572 173.07C322.664 173.594 322.846 174.098 323.108 174.56C324.73 177.891 329.489 184.731 329.489 184.731C330.905 185.619 332.1 186.818 332.986 188.238C334.278 190.448 334.658 195.631 334.658 195.631C334.658 195.631 337.547 207.14 338.915 208.741C339.6 209.541 339.296 210.018 338.821 210.294C337.849 210.836 337.025 211.609 336.422 212.546C334.429 215.759 331.247 222.133 335.723 224.321C341.804 227.293 347.506 211.714 347.506 211.714C347.506 211.714 346.365 200.662 346.061 198.756C345.757 196.851 343.933 189 343.933 189C343.933 189 342.64 185.646 341.88 183.283C341.12 180.92 338.839 178.176 338.839 178.176C338.839 178.176 334.734 169.944 333.594 168.725C333.065 168.159 332.323 167.446 331.68 166.844C330.937 166.147 330.325 165.6 330.325 165.6C330.325 165.6 322.496 171.24 322.572 173.07Z" fill="#EE8E9E"/>
<path d="M271.031 291.822L284.866 297.996C284.866 297.996 302.807 298.377 305.924 297.539C309.04 296.7 308.356 293.194 304.251 292.508C300.146 291.822 299.158 289.993 297.79 289.154C296.867 288.589 293.589 284.933 291.555 282.616C290.575 281.5 289.884 280.694 289.884 280.694C289.884 280.694 287.223 273.605 279.849 275.206C278.504 275.497 277.263 276.152 276.261 277.099C272.288 280.787 271.943 288.087 271.943 288.087L271.031 291.822Z" fill="#434175"/>
<path opacity="0.1" d="M276.445 214.261C276.945 214.564 277.546 214.926 278.232 215.34C287.786 221.113 313.848 236.763 315.274 236.638C315.648 236.606 316.771 236.437 318.322 236.184C318.733 236.117 319.174 236.045 319.639 235.966C319.657 235.937 319.674 235.908 319.69 235.879C320.456 234.538 321.041 233.102 321.431 231.607C323.028 225.51 315.122 220.86 315.122 220.86L313.449 219.557C311.549 216.348 297.866 213.314 297.866 213.314L296.102 212.127L295.161 211.493L294.913 211.326L292.772 209.884L282.054 210.646L278.87 212.698L278.534 212.915L277.353 213.677L276.445 214.261Z" fill="black"/>
<path opacity="0.1" d="M276.261 277.099C279.171 287.191 291.328 283.895 291.328 283.895L291.555 282.616C290.575 281.5 289.884 280.694 289.884 280.694C289.884 280.694 287.223 273.605 279.849 275.206C278.504 275.497 277.263 276.152 276.261 277.099Z" fill="black"/>
<path d="M273.084 231.302C277.569 231.302 289.123 236.714 289.123 236.714C291.48 238.543 294.673 237.934 294.673 237.934C294.673 237.934 289.047 243.65 289.199 246.013C289.351 248.376 286.007 252.263 286.007 252.263L275.668 272.767C276.428 287.325 291.328 283.285 291.328 283.285L291.936 279.855C292.848 279.398 294.217 274.825 294.217 274.825C294.217 274.825 294.217 272.995 295.129 272.462C296.041 271.928 297.942 266.44 297.942 266.44C297.942 266.44 302.047 259.504 301.818 258.59C301.59 257.675 304.783 253.025 304.783 253.025C304.783 253.025 310.181 247.69 309.952 246.737C309.724 245.784 314.286 240.906 314.286 240.906C315.938 239.624 317.311 238.017 318.322 236.184C319.088 234.843 319.673 233.407 320.063 231.912C321.349 227.002 316.472 223.029 314.524 221.671C314.053 221.342 313.753 221.165 313.753 221.165L312.081 219.862C311.217 218.401 307.915 216.979 304.572 215.862C302.161 215.055 299.727 214.407 298.171 214.019C297.142 213.762 296.497 213.619 296.497 213.619L294.734 212.432L294.113 212.014L293.545 211.631L291.404 210.189L286.635 210.528L280.685 210.951L277.502 213.003L275.984 213.982L270.043 217.811C270.043 217.811 269.886 219.278 269.836 221.246C269.833 221.398 269.83 221.552 269.827 221.711C269.765 225.696 270.192 231.302 273.084 231.302Z" fill="#565387"/>
<path d="M295.965 145.935L297.561 151.652C297.561 151.652 300.374 161.484 300.678 162.17C300.982 162.856 308.356 169.792 308.66 169.945C308.964 170.097 312.98 172.384 312.98 172.384C312.98 172.384 313.297 159.807 312.993 156.149C312.967 155.345 313.033 154.541 313.191 153.752C313.676 150.885 314.903 146.68 315.92 143.443C316.771 140.729 317.478 138.694 317.478 138.694C317.478 138.694 299.69 137.932 300.298 139.685C300.528 140.348 300.453 141.456 300.231 142.568C299.865 144.395 299.099 146.229 298.626 146.087C298.163 145.983 297.69 145.93 297.216 145.93C296.56 145.911 295.965 145.935 295.965 145.935Z" fill="#EE8E9E"/>
<path opacity="0.1" d="M300.231 142.567C302.405 144.386 305.105 145.454 307.931 145.611C310.757 145.769 313.559 145.008 315.92 143.443C316.771 140.729 317.478 138.694 317.478 138.694C317.478 138.694 299.69 137.932 300.298 139.685C300.528 140.348 300.453 141.456 300.231 142.567Z" fill="black"/>
<path d="M321.813 131.99C321.814 133.388 321.592 134.778 321.155 136.106C321.046 136.449 320.919 136.786 320.775 137.116C319.751 139.548 318.023 141.616 315.814 143.052C313.605 144.488 311.017 145.226 308.385 145.171C305.752 145.116 303.197 144.27 301.05 142.743C298.903 141.216 297.262 139.078 296.34 136.605C295.817 135.206 295.54 133.727 295.518 132.234C295.511 132.153 295.511 132.07 295.511 131.99C295.511 128.492 296.896 125.138 299.363 122.666C301.829 120.193 305.174 118.803 308.662 118.803C312.15 118.803 315.495 120.193 317.961 122.666C320.427 125.138 321.813 128.492 321.813 131.99H321.813Z" fill="#EE8E9E"/>
<path opacity="0.1" d="M295.965 145.935L297.561 151.652C297.561 151.652 300.374 161.484 300.678 162.17C300.982 162.856 308.356 169.792 308.66 169.945C308.964 170.097 312.98 172.384 312.98 172.384C312.98 172.384 313.297 159.807 312.993 156.149C312.967 155.345 313.033 154.541 313.191 153.752L312.157 157.978L312.233 166.438L312.841 166.896L311.473 168.954V167.429C311.473 167.429 306.608 162.704 305.847 160.722C305.087 158.74 302.351 155.152 302.351 155.152C302.351 155.152 299.234 149.898 299.158 148.984C299.099 148.27 297.79 146.621 297.216 145.93C296.56 145.911 295.965 145.935 295.965 145.935Z" fill="black"/>
<path opacity="0.1" d="M322.572 173.07C322.664 173.594 322.846 174.098 323.108 174.56C324.77 174.39 330.433 173.33 331.68 166.844C330.937 166.147 330.326 165.6 330.326 165.6C330.326 165.6 322.496 171.24 322.572 173.07Z" fill="black"/>
<path opacity="0.1" d="M269.827 221.711C271.361 220.622 272.821 219.138 273.692 218.726C274.984 218.116 276.961 216.134 276.961 216.134C276.961 216.134 277.462 215.793 278.232 215.34C279.643 214.511 281.955 213.31 283.726 213.162C285.313 213.029 290.586 212.691 294.734 212.432C297.735 212.243 300.146 212.095 300.146 212.095C300.146 212.095 305.087 210.342 307.216 211.485C308.74 212.251 310.347 212.839 312.005 213.238C312.005 213.238 312.007 213.072 312.014 212.785L312.005 212.781L310.409 210.189L293.545 211.631L291.404 210.189L280.685 210.951L277.502 213.003L274.756 213.238C274.756 213.238 275.195 213.505 275.985 213.982L270.043 217.811C270.043 217.811 269.86 219.514 269.827 221.711Z" fill="black"/>
<path d="M267.61 222.385C268.415 222.145 269.17 221.759 269.836 221.247V221.246C271.367 220.159 272.822 218.679 273.692 218.269C274.984 217.659 276.961 215.677 276.961 215.677C276.961 215.677 280.99 212.933 283.726 212.705C284.473 212.642 286.033 212.534 287.907 212.412C289.826 212.284 292.071 212.14 294.113 212.014C295.29 211.939 296.398 211.869 297.335 211.811C299.013 211.708 300.146 211.637 300.146 211.637C300.146 211.637 305.087 209.884 307.216 211.028C308.74 211.793 310.347 212.382 312.005 212.781C312.005 212.781 312.081 207.445 312.689 205.235C313.297 203.024 314.134 198.985 314.134 198.985C314.134 198.985 314.818 193.421 315.502 190.905C316.186 188.39 318.847 174.365 320.215 173.451C321.583 172.536 322.343 174.137 322.343 174.137C322.343 174.137 331.466 173.984 331.618 163.923C331.618 163.923 327.361 159.655 327.057 158.588C326.753 157.52 322.724 153.557 322.724 153.557C322.724 153.557 320.443 149.289 317.858 149.212C316.637 149.142 315.412 149.18 314.197 149.325L312.005 158.283L312.081 166.743L312.689 167.201L311.321 169.259V167.734C311.321 167.734 306.456 163.008 305.696 161.027C304.935 159.045 302.199 155.456 302.199 155.456C302.199 155.456 299.082 150.203 299.006 149.289C298.93 148.374 296.801 145.923 296.801 145.923C296.372 145.872 295.938 145.872 295.509 145.923C295.317 145.936 295.124 145.909 294.943 145.843C293.716 145.45 292.409 145.376 291.146 145.627C288.517 146.174 284.518 147.176 283.422 148.374C281.75 150.203 279.317 151.956 276.58 159.578L291.328 164.914L290.066 167.319L278.329 189.686C278.329 189.686 277.94 190.321 277.412 191.152V191.154C276.728 192.231 275.813 193.637 275.212 194.411C274.148 195.783 274.452 200.128 274.452 200.128C274.452 200.128 274.224 202.186 273.464 202.948C272.704 203.71 272.856 206.531 272.856 206.531L270.879 213.924C270.879 213.924 269.055 215.601 269.055 216.363C269.055 217.125 267.61 219.26 267.61 219.26C267.61 219.26 265.406 222.918 267.61 222.385Z" fill="#434175"/>
<path opacity="0.1" d="M345.453 227.873C345.453 227.873 340.664 229.473 339.372 231.76C338.079 234.046 345.453 227.873 345.453 227.873Z" fill="black"/>
<path opacity="0.1" d="M343.021 222.842C342.868 223.071 336.461 229.517 336.863 231.074C337.265 232.631 343.021 222.842 343.021 222.842Z" fill="black"/>
<path opacity="0.1" d="M307.824 227.415C307.824 227.415 300.678 230.794 300.07 232.268C299.462 233.742 307.824 227.415 307.824 227.415Z" fill="black"/>
<path opacity="0.1" d="M307.368 231.76C307.368 231.76 300.919 234.504 300.039 235.19C299.158 235.876 307.368 231.76 307.368 231.76Z" fill="black"/>
<path opacity="0.1" d="M304.403 237.629C304.403 237.629 301.547 239.763 299.972 238.086C298.398 236.409 304.403 237.629 304.403 237.629Z" fill="black"/>
<path opacity="0.1" d="M315.123 181.988C314.97 182.216 305.467 199.366 302.959 200.662C300.45 201.957 315.123 181.988 315.123 181.988Z" fill="black"/>
<path opacity="0.1" d="M314.666 188.466C314.666 188.847 305.391 208.741 303.871 208.97C302.351 209.198 314.666 188.466 314.666 188.466Z" fill="black"/>
<path opacity="0.1" d="M279.393 201.271C279.393 201.271 274.914 210.862 273.16 211.409C271.405 211.956 279.393 201.271 279.393 201.271Z" fill="black"/>
<path opacity="0.1" d="M278.633 197.003C278.633 197.003 277.089 200.357 276.15 200.357C275.212 200.357 278.633 197.003 278.633 197.003Z" fill="black"/>
<path opacity="0.1" d="M321.813 131.99C321.814 133.388 321.592 134.778 321.155 136.106C321.045 136.449 320.919 136.786 320.775 137.116C320.1 137.014 319.464 136.733 318.931 136.304C318.367 135.921 317.896 135.416 317.552 134.825C317.292 134.197 317.068 133.554 316.879 132.901C316.575 132.163 316.081 131.52 315.447 131.038C314.813 130.556 314.061 130.253 313.271 130.16C313.708 130.907 313.013 131.932 312.157 132.066C311.302 132.195 310.469 131.685 309.88 131.048C309.291 130.412 308.865 129.638 308.28 129.001C307.691 128.365 306.858 127.854 306.003 127.984C305.246 128.098 304.661 128.677 304.026 129.108C303.395 129.539 302.509 129.828 301.897 129.367C301.555 129.112 301.388 128.677 301.061 128.399C300.221 127.694 298.913 128.422 298.293 129.333C297.339 130.743 296.758 131.597 295.518 132.234C295.511 132.154 295.511 132.07 295.511 131.99C295.511 128.492 296.896 125.138 299.363 122.666C301.829 120.193 305.174 118.803 308.662 118.803C312.15 118.803 315.495 120.193 317.961 122.666C320.427 125.138 321.813 128.492 321.813 131.99Z" fill="black"/>
<path d="M298.295 128.951C298.913 128.04 300.22 127.311 301.063 128.02C301.39 128.295 301.557 128.73 301.897 128.987C302.508 129.449 303.395 129.159 304.027 128.727C304.659 128.295 305.246 127.718 306.003 127.602C306.858 127.472 307.692 127.983 308.279 128.62C308.867 129.257 309.293 130.03 309.88 130.667C310.468 131.304 311.302 131.815 312.157 131.684C313.013 131.552 313.71 130.526 313.27 129.779C314.06 129.872 314.811 130.175 315.445 130.657C316.079 131.139 316.574 131.782 316.877 132.519C317.066 133.172 317.291 133.815 317.55 134.444C317.895 135.034 318.367 135.539 318.932 135.921C319.63 136.434 320.475 136.866 321.327 136.717C322.179 136.569 322.901 135.59 322.505 134.819C322.777 135.233 323.361 134.656 323.45 134.167C323.643 133.096 323.582 131.994 323.274 130.95C322.854 129.534 321.973 128.128 322.312 126.69C322.581 125.551 323.552 124.734 324.141 123.724C325.185 121.933 324.908 119.52 323.638 117.883C322.978 117.08 322.138 116.444 321.188 116.027C320.238 115.609 319.202 115.421 318.166 115.478C317.595 115.544 317.019 115.554 316.446 115.51C315.491 115.368 314.684 114.752 313.924 114.157L307.556 109.173C306.848 108.547 306.033 108.055 305.15 107.719C304.25 107.439 303.171 107.536 302.505 108.204C301.313 109.399 302.071 111.457 301.592 113.078C301.177 114.482 299.843 115.433 298.461 115.907C297.08 116.382 295.601 116.486 294.182 116.829C293.758 116.899 293.362 117.084 293.037 117.364C292.668 117.819 292.49 118.4 292.539 118.984C292.53 120.418 292.869 121.833 293.527 123.106C294.265 124.528 295.433 125.989 295.02 127.537C294.801 128.357 294.171 128.988 293.616 129.628C292.413 131.015 292.007 133.066 294.271 132.35C296.452 131.66 297.064 130.765 298.295 128.951Z" fill="#434175"/>
<g opacity="0.1">
<path opacity="0.1" d="M323.451 132.665C323.363 133.153 322.778 133.731 322.506 133.316C322.902 134.087 322.18 135.066 321.328 135.215C320.476 135.363 319.631 134.931 318.933 134.418C318.368 134.036 317.896 133.531 317.552 132.941C317.292 132.312 317.067 131.67 316.878 131.016C316.575 130.279 316.081 129.636 315.447 129.154C314.812 128.673 314.062 128.369 313.272 128.276C313.711 129.023 313.014 130.05 312.158 130.181C311.303 130.312 310.469 129.801 309.881 129.164C309.294 128.528 308.868 127.755 308.28 127.118C307.693 126.481 306.859 125.969 306.004 126.1C305.247 126.215 304.66 126.792 304.029 127.224C303.397 127.656 302.51 127.946 301.899 127.484C301.558 127.227 301.391 126.792 301.064 126.517C300.221 125.808 298.915 126.537 298.296 127.449C297.065 129.263 296.453 130.157 294.272 130.847C293.556 131.073 293.109 131.022 292.868 130.804C292.389 131.906 292.607 132.877 294.272 132.35C296.453 131.66 297.065 130.766 298.296 128.952C298.915 128.04 300.221 127.311 301.064 128.02C301.391 128.295 301.558 128.73 301.899 128.987C302.51 129.449 303.397 129.159 304.029 128.727C304.66 128.295 305.247 127.718 306.004 127.603C306.859 127.472 307.693 127.983 308.28 128.62C308.868 129.257 309.294 130.03 309.881 130.667C310.469 131.304 311.303 131.815 312.158 131.684C313.014 131.552 313.711 130.526 313.272 129.779C314.062 129.872 314.812 130.175 315.447 130.657C316.081 131.139 316.575 131.782 316.878 132.519C317.067 133.173 317.292 133.815 317.552 134.444C317.896 135.034 318.368 135.539 318.933 135.921C319.631 136.434 320.476 136.866 321.328 136.718C322.18 136.569 322.902 135.59 322.506 134.819C322.778 135.234 323.363 134.656 323.451 134.167C323.569 133.51 323.592 132.838 323.52 132.174C323.502 132.338 323.48 132.502 323.451 132.665Z" fill="black"/>
<path opacity="0.1" d="M295.002 126.092C295.007 126.073 295.016 126.054 295.021 126.035C295.435 124.487 294.266 123.025 293.529 121.603C293.011 120.601 292.691 119.508 292.584 118.384C292.555 118.583 292.541 118.783 292.54 118.984C292.531 120.418 292.87 121.833 293.529 123.106C294.033 124.078 294.738 125.068 295.002 126.092Z" fill="black"/>
<path opacity="0.1" d="M324.142 122.221C323.553 123.231 322.582 124.049 322.314 125.188C322.21 125.669 322.214 126.168 322.327 126.648C322.61 125.532 323.561 124.721 324.142 123.724C324.691 122.747 324.897 121.614 324.728 120.506C324.645 121.11 324.446 121.693 324.142 122.221Z" fill="black"/>
</g>
<path opacity="0.1" d="M277.412 191.152V191.154C277.513 191.574 277.591 192 277.645 192.43C277.645 192.43 283.65 206.53 284.41 207.369C284.644 207.627 285.526 208.895 286.635 210.527C287.036 211.117 287.466 211.756 287.907 212.412C290.206 215.832 292.772 219.717 292.772 219.717L298.398 224.671C298.398 224.671 310.635 225.653 314.524 221.671C314.053 221.342 313.753 221.165 313.753 221.165L312.081 219.862C311.217 218.401 307.915 216.979 304.572 215.861C301.492 215.884 298.972 216.134 298.972 216.134L298.171 214.018L297.335 211.811L293.083 200.585C293.083 200.585 290.34 186.408 289.428 185.722C288.515 185.036 288.743 182.902 288.743 182.902C288.743 182.902 290.416 176.88 289.808 176.042C289.2 175.204 290.796 169.03 290.796 169.03C290.637 168.427 290.391 167.851 290.066 167.319L278.329 189.686C278.329 189.686 277.94 190.321 277.412 191.152Z" fill="black"/>
<path d="M290.948 168.572C290.948 168.572 289.352 174.746 289.96 175.585C290.568 176.423 288.895 182.445 288.895 182.445C288.895 182.445 288.667 184.579 289.58 185.265C290.492 185.951 293.234 200.128 293.234 200.128L299.124 215.677C299.124 215.677 317.554 213.848 315.654 219.641C313.753 225.433 298.55 224.214 298.55 224.214L292.924 219.259C292.924 219.259 285.323 207.75 284.562 206.912C283.802 206.073 277.797 191.972 277.797 191.972C277.797 191.972 277.493 189.152 276.2 187.704C274.908 186.256 275.896 183.806 275.896 183.806C275.896 183.806 274.3 165.371 275.972 163.161C277.645 160.95 289.2 161.941 290.948 168.572Z" fill="#EE8E9E"/>
<path opacity="0.1" d="M281.522 156.987L276.733 159.883C276.733 159.883 275.364 164.533 274.3 165.143C274.3 165.143 283.878 159.807 291.1 172.079C291.1 172.079 290.872 170.478 291.86 169.716C292.848 168.954 292.62 165.676 292.62 165.676C292.883 165.158 293.112 164.623 293.305 164.075C293.989 162.399 290.416 152.795 281.522 156.987Z" fill="black"/>
<path d="M281.37 156.682L276.58 159.579C276.58 159.579 275.212 164.228 274.148 164.838C274.148 164.838 283.726 159.502 290.948 171.774C290.948 171.774 290.72 170.173 291.708 169.411C292.696 168.649 292.468 165.371 292.468 165.371C292.731 164.853 292.96 164.319 293.152 163.771C293.837 162.094 290.264 152.49 281.37 156.682Z" fill="#434175"/>
<path d="M238.684 290.166C246.569 290.166 252.961 283.363 252.961 274.971C252.961 266.579 246.569 259.776 238.684 259.776C230.799 259.776 224.407 266.579 224.407 274.971C224.407 283.363 230.799 290.166 238.684 290.166Z" fill="#FBD56F"/>
<path opacity="0.1" d="M238.684 290.166C246.569 290.166 252.961 283.363 252.961 274.971C252.961 266.579 246.569 259.776 238.684 259.776C230.799 259.776 224.407 266.579 224.407 274.971C224.407 283.363 230.799 290.166 238.684 290.166Z" fill="black"/>
<path d="M241.148 290.165C249.033 290.165 255.425 283.514 255.425 275.309C255.425 267.104 249.033 260.452 241.148 260.452C233.263 260.452 226.871 267.104 226.871 275.309C226.871 283.514 233.263 290.165 241.148 290.165Z" fill="#FBD56F"/>
<path d="M34.2672 283.321C44.0057 283.321 51.9004 281.983 51.9004 280.332C51.9004 278.681 44.0057 277.343 34.2672 277.343C24.5286 277.343 16.634 278.681 16.634 280.332C16.634 281.983 24.5286 283.321 34.2672 283.321Z" fill="#FF6340"/>
<path d="M41.5584 275.442C42.3135 274.738 43.0219 273.908 43.2395 272.898C43.4571 271.888 43.0276 270.676 42.0648 270.307C40.9859 269.893 39.833 270.643 38.9589 271.4C38.0848 272.158 37.083 273.022 35.939 272.862C36.5275 272.327 36.9678 271.648 37.2169 270.892C37.4661 270.136 37.5157 269.328 37.3608 268.547C37.3106 268.225 37.1739 267.922 36.9654 267.671C36.3665 267.029 35.2808 267.305 34.5637 267.811C32.2831 269.419 31.6468 272.525 31.6344 275.321C31.4044 274.312 31.5981 273.261 31.5924 272.227C31.5868 271.193 31.304 270.046 30.4338 269.49C29.8916 269.198 29.2819 269.054 28.6665 269.074C27.6414 269.036 26.4997 269.139 25.7996 269.891C24.9297 270.825 25.1553 272.392 25.9121 273.421C26.6688 274.449 27.8199 275.093 28.8795 275.804C29.7294 276.311 30.4542 277.004 31.0001 277.832C31.0642 277.947 31.1169 278.068 31.1573 278.194H37.584C39.0266 277.461 40.3636 276.535 41.5584 275.442Z" fill="#FF6340"/>
<path d="M193.729 260.842C194.515 261.921 195.157 263.097 195.64 264.342C195.768 264.663 195.893 265.001 196.011 265.356C197.911 271.049 194.901 277.875 194.04 277.139C193.18 276.403 190.498 275.036 189.979 276.956C189.461 278.876 187.545 280.838 187.545 280.838C184.056 284.358 180.897 280.555 178.823 276.626C178.146 275.33 177.543 273.996 177.019 272.63C176.559 271.423 176.295 270.589 176.295 270.589L190.83 258.172C190.83 258.172 192.235 258.819 193.729 260.842Z" fill="#FF6340"/>
<path d="M170.82 268.782C171.606 269.861 172.248 271.037 172.731 272.282C172.859 272.603 172.984 272.941 173.102 273.296C175.002 278.989 171.992 285.815 171.131 285.079C170.271 284.342 167.589 282.976 167.07 284.896C166.552 286.816 164.636 288.778 164.636 288.778C161.147 292.298 157.988 288.495 155.914 284.566C155.237 283.27 154.635 281.936 154.11 280.57C153.65 279.363 153.386 278.529 153.386 278.529L167.921 266.112C167.921 266.112 169.326 266.759 170.82 268.782Z" fill="#FF6340"/>
<path d="M124.822 279.752C124.74 281.085 124.486 282.402 124.066 283.669C123.959 283.998 123.84 284.339 123.705 284.687C121.545 290.286 114.882 293.615 114.688 292.497C114.495 291.38 113.3 288.612 111.678 289.758C110.057 290.905 107.334 291.19 107.334 291.19C102.407 291.666 102.395 286.717 103.299 282.366C103.603 280.934 103.989 279.522 104.454 278.135C104.868 276.911 105.195 276.1 105.195 276.1L124.289 275.841C124.289 275.841 124.96 277.238 124.822 279.752Z" fill="#FF6340"/>
<path d="M100.151 273.513C100.069 274.846 99.8149 276.163 99.3947 277.43C99.2883 277.76 99.1693 278.1 99.0346 278.449C96.8738 284.047 90.2114 287.376 90.0175 286.259C89.8237 285.141 88.6287 282.373 87.0075 283.52C85.3863 284.666 82.6626 284.951 82.6626 284.951C77.7358 285.427 77.7242 280.479 78.6286 276.127C78.9321 274.696 79.3177 273.283 79.7835 271.896C80.1971 270.672 80.5243 269.861 80.5243 269.861L99.6185 269.602C99.6185 269.602 100.289 270.999 100.151 273.513Z" fill="#FF6340"/>
<path opacity="0.2" d="M193.729 260.842C194.515 261.921 195.157 263.097 195.64 264.342C195.768 264.663 195.893 265.001 196.011 265.356C197.911 271.049 194.901 277.875 194.04 277.139C193.18 276.403 190.498 275.036 189.979 276.956C189.461 278.876 187.545 280.838 187.545 280.838C184.056 284.358 180.897 280.555 178.823 276.626C178.146 275.33 177.543 273.996 177.019 272.63C176.559 271.423 176.295 270.589 176.295 270.589L190.83 258.172C190.83 258.172 192.235 258.819 193.729 260.842Z" fill="black"/>
<path opacity="0.2" d="M170.82 268.782C171.606 269.861 172.248 271.037 172.731 272.282C172.859 272.603 172.984 272.941 173.102 273.296C175.002 278.989 171.992 285.815 171.131 285.079C170.271 284.342 167.589 282.976 167.07 284.896C166.552 286.816 164.636 288.778 164.636 288.778C161.147 292.298 157.988 288.495 155.914 284.566C155.237 283.27 154.635 281.936 154.11 280.57C153.65 279.363 153.386 278.529 153.386 278.529L167.921 266.112C167.921 266.112 169.326 266.759 170.82 268.782Z" fill="black"/>
<path opacity="0.2" d="M124.822 279.752C124.74 281.085 124.486 282.402 124.066 283.669C123.959 283.998 123.84 284.339 123.705 284.687C121.545 290.286 114.882 293.615 114.688 292.497C114.495 291.38 113.3 288.612 111.678 289.758C110.057 290.905 107.334 291.19 107.334 291.19C102.407 291.666 102.395 286.717 103.299 282.366C103.603 280.934 103.989 279.522 104.454 278.135C104.868 276.911 105.195 276.1 105.195 276.1L124.289 275.841C124.289 275.841 124.96 277.238 124.822 279.752Z" fill="black"/>
<path opacity="0.2" d="M100.151 273.513C100.069 274.846 99.8149 276.163 99.3947 277.43C99.2883 277.76 99.1693 278.1 99.0346 278.449C96.8738 284.047 90.2114 287.376 90.0175 286.259C89.8237 285.141 88.6287 282.373 87.0075 283.52C85.3863 284.666 82.6626 284.951 82.6626 284.951C77.7358 285.427 77.7242 280.479 78.6286 276.127C78.9321 274.696 79.3177 273.283 79.7835 271.896C80.1971 270.672 80.5243 269.861 80.5243 269.861L99.6185 269.602C99.6185 269.602 100.289 270.999 100.151 273.513Z" fill="black"/>
<path d="M232.502 189.608C232.502 240.743 215.249 282.197 135.634 282.197C82.1348 282.197 40.7452 268.868 38.7654 189.608C37.4885 138.488 82.1347 97.0186 135.634 97.0186C189.132 97.0186 232.502 138.472 232.502 189.608Z" fill="#FF6340"/>
<path opacity="0.2" d="M117.462 98.6353H117.471C117.469 98.6365 117.467 98.6373 117.464 98.6376L117.462 98.6353Z" fill="black"/>
<path opacity="0.2" d="M117.651 98.604C117.897 98.5643 118.384 98.4963 119.091 98.4424L117.516 98.6295C117.538 98.6239 117.567 98.6182 117.6 98.6125C117.617 98.6097 117.632 98.6068 117.651 98.604Z" fill="black"/>
<path opacity="0.2" d="M189.229 136.436L182.158 138.989C178.554 134.142 174.676 129.506 170.543 125.104C166.032 120.28 161.11 115.859 155.833 111.892C137.729 98.4393 123.727 98.0962 119.102 98.4421L129.731 97.1887C139.776 98.9218 149.437 102.423 158.265 107.531C164.442 111.101 170.195 115.362 175.413 120.233C184.667 128.845 189.229 136.436 189.229 136.436Z" fill="black"/>
<path opacity="0.2" d="M125.31 141.257C125.31 141.257 115.977 110.063 123.896 101.556C123.896 101.556 136.341 97.3024 145.674 121.407L125.31 141.257Z" fill="black"/>
<path d="M172.57 112.122C172.57 112.122 197.321 91.0333 208.271 94.8923C208.271 94.8923 217.15 104.614 198.876 122.859L172.57 112.122Z" fill="#FF6340"/>
<path opacity="0.2" d="M172.57 112.122C172.57 112.122 197.321 91.0333 208.271 94.8923C208.271 94.8923 217.15 104.614 198.876 122.859L172.57 112.122Z" fill="black"/>
<path d="M249.754 213.145C249.754 240.631 230.082 262.346 211.572 262.346C193.063 262.346 182.724 240.631 182.724 213.145C182.724 185.659 197.76 164.451 216.239 163.377C245.512 161.675 249.754 185.659 249.754 213.145Z" fill="#FF6340"/>
<path opacity="0.2" d="M249.754 213.145C249.754 240.631 230.082 262.346 211.572 262.346C193.063 262.346 182.724 240.631 182.724 213.145C182.724 185.659 197.76 164.451 216.239 163.377C245.512 161.675 249.754 185.659 249.754 213.145Z" fill="black"/>
<path d="M210.441 225.197C213.878 225.197 216.663 221.642 216.663 217.257C216.663 212.872 213.878 209.317 210.441 209.317C207.005 209.317 204.219 212.872 204.219 217.257C204.219 221.642 207.005 225.197 210.441 225.197Z" fill="#FF6340"/>
<path d="M232.502 218.391C235.938 218.391 238.724 214.836 238.724 210.451C238.724 206.066 235.938 202.511 232.502 202.511C229.065 202.511 226.279 206.066 226.279 210.451C226.279 214.836 229.065 218.391 232.502 218.391Z" fill="#FF6340"/>
<path d="M176.621 115.111C176.625 116.89 176.211 118.644 175.413 120.233C174.36 122.343 172.65 124.053 170.543 125.104C166.032 120.28 161.11 115.859 155.833 111.892C156.303 110.272 157.135 108.781 158.265 107.531C159.24 106.442 160.432 105.569 161.764 104.971C163.096 104.373 164.538 104.061 165.998 104.057C171.864 104.057 176.621 109.006 176.621 115.111Z" fill="#FAD46F"/>
</g>
<defs>
<linearGradient id="paint0_linear" x1="319.707" y1="298.082" x2="319.707" y2="105.964" gradientUnits="userSpaceOnUse">
<stop stop-color="#808080" stop-opacity="0.25"/>
<stop offset="0.53514" stop-color="#808080" stop-opacity="0.12"/>
<stop offset="1" stop-color="#808080" stop-opacity="0.1"/>
</linearGradient>
<clipPath id="clip0">
<rect width="425" height="306" fill="white"/>
</clipPath>
</defs>
</svg>
