<svg width="457" height="379" viewBox="0 0 457 379" fill="none" xmlns="http://www.w3.org/2000/svg">
<g clip-path="url(#clip0)">
<path opacity="0.1" d="M426.825 209.423C409.271 237.819 412.561 276.504 420.27 307.007C422.849 317.22 425.821 328.001 423.616 339.43C420.918 353.406 411.084 364.381 401.131 370.666C382.986 382.096 362.267 381.779 347.18 369.828C334.151 359.506 325.57 341.503 312.267 331.735C290.024 315.383 259.479 325.294 232.958 340.576C214.203 351.361 193.559 365.086 176.223 357.315C164.027 351.858 156.422 336.463 152.873 319.709C151.159 311.621 150.123 302.785 146.195 296.623C143.857 292.96 140.644 290.508 137.312 288.497C106.905 270.162 65.7641 285.492 36.4409 264.729C16.6349 250.711 5.376 221.756 1.67509 190.795C-2.02581 159.834 1.01726 126.705 4.82701 94.0867C7.5388 70.8965 11.2066 46.0876 23.3789 27.2278C36.2563 7.27941 56.5545 -1.64175 74.1976 0.251332C91.8408 2.14442 107.16 13.3231 120.364 26.9864C136.867 44.062 151.751 65.8703 173.109 71.3792C187.657 75.1322 203.545 70.7876 219.016 68.3313C244.846 64.2233 270.317 65.4018 295.608 66.9446C319.82 68.4213 344.179 70.2575 366.739 78.7764C382.702 84.8106 394.955 97.3712 409.853 105.54C419.565 110.864 430.521 111.541 439.57 118.64C450.715 127.386 460.36 143.529 455.897 163.937C451.642 183.35 436.138 194.354 426.825 209.423Z" fill="#FF6340"/>
<path d="M314.477 145.237C314.477 145.237 362.277 105.185 372.906 84.9901C383.536 64.7956 397.066 47.3934 397.066 47.3934" stroke="#535461" stroke-width="2" stroke-miterlimit="10"/>
<path d="M390.781 92.5387L370.104 87.877C370.104 87.877 374.984 109.685 390.781 92.5387Z" fill="#FF6340"/>
<path d="M359.186 70.276L371.084 88.0946C371.084 88.0946 347.823 89.7747 359.186 70.276Z" fill="#FF6340"/>
<path d="M398.917 75.7896L380.019 72.4767C380.019 72.4767 391.889 90.532 398.917 75.7896Z" fill="#FF6340"/>
<path d="M370.952 59.864L380.261 72.0555C380.261 72.0555 363.782 73.6173 370.952 59.864Z" fill="#FF6340"/>
<path d="M389.792 57.4362C389.792 57.4362 405.883 58.2029 407.776 59.741C409.669 61.2791 405.377 70.2949 399.257 68.823C393.138 67.3512 389.792 57.4362 389.792 57.4362Z" fill="#FF6340"/>
<path d="M383.361 43.0535C383.361 43.0535 389.934 55.0319 389.688 57.3131C389.442 59.5943 379.669 62.1547 377.696 53.5269C375.722 44.8992 383.361 43.0535 383.361 43.0535Z" fill="#FF6340"/>
<path d="M403.803 52.202C404.547 49.8455 403.24 47.3319 400.884 46.5878C398.527 45.8436 396.014 47.1507 395.269 49.5072C394.525 51.8636 395.832 54.3772 398.189 55.1213C400.545 55.8655 403.059 54.5584 403.803 52.202Z" fill="#FFD037"/>
<path d="M396.798 47.5973C397.542 45.2408 396.235 42.7273 393.879 41.9831C391.523 41.239 389.009 42.546 388.265 44.9025C387.521 47.259 388.828 49.7726 391.184 50.5167C393.541 51.2609 396.054 49.9538 396.798 47.5973Z" fill="#FFD037"/>
<path d="M165.386 302.245C165.386 302.245 173.057 279.424 124.425 251.913C124.425 251.913 75.045 237.511 80.0947 188.054C80.0947 188.054 23.1709 229.759 61.6896 282.883C100.208 336.008 133.455 324.413 133.455 324.413L165.386 302.245Z" fill="#FF6340"/>
<path d="M150.559 312.553C150.559 312.553 126.829 286.906 104.084 276.991C99.5407 274.946 95.3657 272.165 91.7275 268.761C77.2268 255.509 70.904 235.514 74.6428 216.228L80.1089 188.054" stroke="#535461" stroke-width="2" stroke-miterlimit="10"/>
<path d="M361.42 15.7126H91.3726V329.269H361.42V15.7126Z" fill="url(#paint0_linear)"/>
<path d="M358.278 19.3616H94.5197V325.61H358.278V19.3616Z" fill="#F7F7FD"/>
<path d="M177.127 53.8818H110.45V59.1919H177.127V53.8818Z" fill="#E2E2EC"/>
<path d="M224.331 66.8636H110.45V72.1737H224.331V66.8636Z" fill="#E2E2EC"/>
<path d="M345.646 48.8085H298.325V89.6423H345.646V48.8085Z" fill="white"/>
<path d="M345.396 49.045V89.4056H298.543V49.045H345.396ZM345.869 48.5718H298.069V89.8789H345.869V48.5718Z" fill="#E2E2EC"/>
<path d="M297.852 48.8085H250.53V89.6423H297.852V48.8085Z" fill="white"/>
<path d="M297.596 49.045V89.4056H250.743V49.045H297.596ZM298.069 48.5718H250.27V89.8789H298.069V48.5718Z" fill="#E2E2EC"/>
<path d="M345.646 90.1155H298.325V130.949H345.646V90.1155Z" fill="white"/>
<path d="M345.396 90.3522V130.713H298.543V90.3522H345.396ZM345.869 89.8789H298.069V131.186H345.869V89.8789Z" fill="#E2E2EC"/>
<path d="M297.852 90.1155H250.53V130.949H297.852V90.1155Z" fill="white"/>
<path d="M297.596 90.3522V130.713H250.743V90.3522H297.596ZM298.069 89.8789H250.27V131.186H298.069V89.8789Z" fill="#E2E2EC"/>
<path d="M250.057 90.1155H202.736V130.949H250.057V90.1155Z" fill="white"/>
<path d="M249.82 90.3522V130.713H202.968V90.3522H249.82ZM250.294 89.8789H202.494V131.186H250.294V89.8789Z" fill="#E2E2EC"/>
<path d="M202.262 90.1155H154.941V130.949H202.262V90.1155Z" fill="white"/>
<path d="M202.026 90.3522V130.713H155.173V90.3522H202.026ZM202.499 89.8789H154.7V131.186H202.499V89.8789Z" fill="#E2E2EC"/>
<path d="M154.468 90.1155H107.146V130.949H154.468V90.1155Z" fill="white"/>
<path d="M154.231 90.3522V130.713H107.378V90.3522H154.231ZM154.704 89.8789H106.905V131.186H154.704V89.8789Z" fill="#E2E2EC"/>
<path d="M345.646 131.418H298.325V172.252H345.646V131.418Z" fill="white"/>
<path d="M345.396 131.659V172.02H298.543V131.659H345.396ZM345.869 131.186H298.069V172.493H345.869V131.186Z" fill="#E2E2EC"/>
<path d="M297.852 131.418H250.53V172.252H297.852V131.418Z" fill="white"/>
<path d="M297.596 131.659V172.02H250.743V131.659H297.596ZM298.069 131.186H250.27V172.493H298.069V131.186Z" fill="#E2E2EC"/>
<path d="M250.057 131.418H202.736V172.252H250.057V131.418Z" fill="white"/>
<path d="M249.82 131.659V172.02H202.968V131.659H249.82ZM250.294 131.186H202.494V172.493H250.294V131.186Z" fill="#E2E2EC"/>
<path d="M202.262 131.418H154.941V172.252H202.262V131.418Z" fill="white"/>
<path d="M202.026 131.659V172.02H155.173V131.659H202.026ZM202.499 131.186H154.7V172.493H202.499V131.186Z" fill="#E2E2EC"/>
<path d="M154.468 131.418H107.146V172.252H154.468V131.418Z" fill="white"/>
<path d="M154.231 131.659V172.02H107.378V131.659H154.231ZM154.704 131.186H106.905V172.493H154.704V131.186Z" fill="#E2E2EC"/>
<path d="M345.646 172.725H298.325V213.559H345.646V172.725Z" fill="white"/>
<path d="M345.396 172.962V213.322H298.543V172.962H345.396ZM345.869 172.488H298.069V213.795H345.869V172.488Z" fill="#E2E2EC"/>
<path d="M297.852 172.725H250.53V213.559H297.852V172.725Z" fill="white"/>
<path d="M297.596 172.962V213.322H250.743V172.962H297.596ZM298.069 172.488H250.27V213.795H298.069V172.488Z" fill="#E2E2EC"/>
<path d="M250.057 172.725H202.736V213.559H250.057V172.725Z" fill="white"/>
<path d="M249.82 172.962V213.322H202.968V172.962H249.82ZM250.294 172.488H202.494V213.795H250.294V172.488Z" fill="#E2E2EC"/>
<path d="M202.262 172.725H154.941V213.559H202.262V172.725Z" fill="white"/>
<path d="M202.026 172.962V213.322H155.173V172.962H202.026ZM202.499 172.488H154.7V213.795H202.499V172.488Z" fill="#E2E2EC"/>
<path d="M154.468 172.725H107.146V213.559H154.468V172.725Z" fill="white"/>
<path d="M154.231 172.962V213.322H107.378V172.962H154.231ZM154.704 172.488H106.905V213.795H154.704V172.488Z" fill="#E2E2EC"/>
<path d="M345.646 214.027H298.325V254.861H345.646V214.027Z" fill="white"/>
<path d="M345.396 214.269V254.625H298.543V214.269H345.396ZM345.869 213.795H298.069V255.098H345.869V213.795Z" fill="#E2E2EC"/>
<path d="M297.852 214.027H250.53V254.861H297.852V214.027Z" fill="white"/>
<path d="M297.596 214.269V254.625H250.743V214.269H297.596ZM298.069 213.795H250.27V255.098H298.069V213.795Z" fill="#E2E2EC"/>
<path d="M250.057 214.027H202.736V254.861H250.057V214.027Z" fill="white"/>
<path d="M249.82 214.269V254.625H202.968V214.269H249.82ZM250.294 213.795H202.494V255.098H250.294V213.795Z" fill="#E2E2EC"/>
<path d="M202.262 214.027H154.941V254.861H202.262V214.027Z" fill="white"/>
<path d="M202.026 214.269V254.625H155.173V214.269H202.026ZM202.499 213.795H154.7V255.098H202.499V213.795Z" fill="#E2E2EC"/>
<path d="M154.468 214.027H107.146V254.861H154.468V214.027Z" fill="white"/>
<path d="M154.231 214.269V254.625H107.378V214.269H154.231ZM154.704 213.795H106.905V255.098H154.704V213.795Z" fill="#E2E2EC"/>
<path d="M345.646 255.334H298.325V296.168H345.646V255.334Z" fill="white"/>
<path d="M345.396 255.571V295.931H298.543V255.571H345.396ZM345.869 255.098H298.069V296.405H345.869V255.098Z" fill="#E2E2EC"/>
<path d="M297.852 255.334H250.53V296.168H297.852V255.334Z" fill="white"/>
<path d="M297.596 255.571V295.931H250.743V255.571H297.596ZM298.069 255.098H250.27V296.405H298.069V255.098Z" fill="#E2E2EC"/>
<path d="M250.057 255.334H202.736V296.168H250.057V255.334Z" fill="white"/>
<path d="M249.82 255.571V295.931H202.968V255.571H249.82ZM250.294 255.098H202.494V296.405H250.294V255.098Z" fill="#E2E2EC"/>
<path d="M202.262 255.334H154.941V296.168H202.262V255.334Z" fill="white"/>
<path d="M202.026 255.571V295.931H155.173V255.571H202.026ZM202.499 255.098H154.7V296.405H202.499V255.098Z" fill="#E2E2EC"/>
<path d="M154.468 255.334H107.146V296.168H154.468V255.334Z" fill="white"/>
<path d="M154.231 255.571V295.931H107.378V255.571H154.231ZM154.704 255.098H106.905V296.405H154.704V255.098Z" fill="#E2E2EC"/>
<path d="M206.541 333.604C207.894 332.577 209.167 331.365 209.56 329.889C209.762 329.107 209.655 328.278 209.262 327.573C208.869 326.868 208.22 326.342 207.449 326.102C205.514 325.497 203.446 326.576 201.874 327.697C200.303 328.819 198.509 330.064 196.455 329.832C198.58 328.294 199.593 325.8 199.006 323.533C198.906 323.044 198.658 322.598 198.296 322.255C197.222 321.308 195.272 321.72 193.985 322.458C189.891 324.825 188.751 329.344 188.727 333.429C188.315 331.957 188.661 330.423 188.651 328.909C188.642 327.394 188.136 325.724 186.574 324.91C185.574 324.476 184.492 324.268 183.403 324.299C181.562 324.242 179.513 324.394 178.259 325.492C176.697 326.855 177.104 329.146 178.462 330.646C179.82 332.146 181.888 333.088 183.786 334.124C185.234 334.915 186.702 335.838 187.572 337.087C187.687 337.253 187.782 337.43 187.856 337.617H199.39C201.93 336.58 204.332 335.232 206.541 333.604Z" fill="#FF6340"/>
<path d="M113.389 99.0225C114.878 99.0225 116.086 97.8147 116.086 96.3248C116.086 94.835 114.878 93.6272 113.389 93.6272C111.899 93.6272 110.691 94.835 110.691 96.3248C110.691 97.8147 111.899 99.0225 113.389 99.0225Z" fill="#FC6681"/>
<path d="M120.128 99.0225C121.618 99.0225 122.825 97.8147 122.825 96.3248C122.825 94.835 121.618 93.6272 120.128 93.6272C118.638 93.6272 117.43 94.835 117.43 96.3248C117.43 97.8147 118.638 99.0225 120.128 99.0225Z" fill="#FFD037"/>
<path d="M208.647 139.014C210.137 139.014 211.344 137.806 211.344 136.316C211.344 134.826 210.137 133.619 208.647 133.619C207.157 133.619 205.949 134.826 205.949 136.316C205.949 137.806 207.157 139.014 208.647 139.014Z" fill="#FF6340"/>
<path d="M215.391 139.014C216.88 139.014 218.088 137.806 218.088 136.316C218.088 134.826 216.88 133.619 215.391 133.619C213.901 133.619 212.693 134.826 212.693 136.316C212.693 137.806 213.901 139.014 215.391 139.014Z" fill="#FF6340"/>
<path d="M352.883 216.299C354.372 216.299 355.58 215.091 355.58 213.601C355.58 212.111 354.372 210.904 352.883 210.904C351.393 210.904 350.185 212.111 350.185 213.601C350.185 215.091 351.393 216.299 352.883 216.299Z" fill="#FF6340"/>
<path d="M354.231 213.157C355.721 213.157 356.929 211.949 356.929 210.459C356.929 208.969 355.721 207.761 354.231 207.761C352.741 207.761 351.534 208.969 351.534 210.459C351.534 211.949 352.741 213.157 354.231 213.157Z" fill="#FF6340"/>
<path d="M355.58 210.459C357.07 210.459 358.278 209.251 358.278 207.761C358.278 206.271 357.07 205.063 355.58 205.063C354.09 205.063 352.883 206.271 352.883 207.761C352.883 209.251 354.09 210.459 355.58 210.459Z" fill="#FF6340"/>
<path d="M305.254 99.0225C306.743 99.0225 307.951 97.8147 307.951 96.3248C307.951 94.835 306.743 93.6272 305.254 93.6272C303.764 93.6272 302.556 94.835 302.556 96.3248C302.556 97.8147 303.764 99.0225 305.254 99.0225Z" fill="#FF6340"/>
<path d="M311.993 99.0225C313.483 99.0225 314.69 97.8147 314.69 96.3248C314.69 94.835 313.483 93.6272 311.993 93.6272C310.503 93.6272 309.295 94.835 309.295 96.3248C309.295 97.8147 310.503 99.0225 311.993 99.0225Z" fill="#FF6340"/>
<path d="M318.737 99.0225C320.227 99.0225 321.434 97.8147 321.434 96.3248C321.434 94.835 320.227 93.6272 318.737 93.6272C317.247 93.6272 316.039 94.835 316.039 96.3248C316.039 97.8147 317.247 99.0225 318.737 99.0225Z" fill="#FF6340"/>
<path d="M325.476 99.0225C326.966 99.0225 328.174 97.8147 328.174 96.3248C328.174 94.835 326.966 93.6272 325.476 93.6272C323.986 93.6272 322.778 94.835 322.778 96.3248C322.778 97.8147 323.986 99.0225 325.476 99.0225Z" fill="#FF6340"/>
<path d="M305.254 182.597C306.743 182.597 307.951 181.39 307.951 179.9C307.951 178.41 306.743 177.202 305.254 177.202C303.764 177.202 302.556 178.41 302.556 179.9C302.556 181.39 303.764 182.597 305.254 182.597Z" fill="#FF6340"/>
<path d="M311.993 182.597C313.483 182.597 314.69 181.39 314.69 179.9C314.69 178.41 313.483 177.202 311.993 177.202C310.503 177.202 309.295 178.41 309.295 179.9C309.295 181.39 310.503 182.597 311.993 182.597Z" fill="#FF6340"/>
<path d="M318.737 182.597C320.227 182.597 321.434 181.39 321.434 179.9C321.434 178.41 320.227 177.202 318.737 177.202C317.247 177.202 316.039 178.41 316.039 179.9C316.039 181.39 317.247 182.597 318.737 182.597Z" fill="#FF6340"/>
<path d="M325.476 182.597C326.966 182.597 328.174 181.39 328.174 179.9C328.174 178.41 326.966 177.202 325.476 177.202C323.986 177.202 322.778 178.41 322.778 179.9C322.778 181.39 323.986 182.597 325.476 182.597Z" fill="#FF6340"/>
<path d="M161.018 139.014C162.507 139.014 163.715 137.806 163.715 136.316C163.715 134.826 162.507 133.619 161.018 133.619C159.528 133.619 158.32 134.826 158.32 136.316C158.32 137.806 159.528 139.014 161.018 139.014Z" fill="#FFD037"/>
<path d="M113.389 179.904C114.878 179.904 116.086 178.697 116.086 177.207C116.086 175.717 114.878 174.509 113.389 174.509C111.899 174.509 110.691 175.717 110.691 177.207C110.691 178.697 111.899 179.904 113.389 179.904Z" fill="#FC6681"/>
<path d="M350.554 220.369C353.512 222.115 358.126 223.251 363.971 219.498L363.914 227.809C364.331 233.488 371.378 254.27 371.378 254.27L376.347 271.355C379.907 283.424 381.746 295.937 381.808 308.521C381.808 312.69 382.196 316.987 383.394 320.22C386.039 327.371 382.352 336.586 380.753 340.017C378.06 340.926 375.323 341.697 372.551 342.326C372.302 342.384 372.057 342.458 371.818 342.549L371.785 342.501C371.785 342.501 364.326 345.459 361.013 345.052C358.543 344.749 356.995 347.83 358.931 350.097C357.104 350.571 355.23 350.907 353.966 350.751C350.653 350.344 348.992 356.042 355.211 357.67C361.43 359.298 396.664 357.67 396.664 357.67C397.655 357.174 398.453 356.363 398.933 355.364C399.413 354.365 399.547 353.235 399.314 352.151C402.021 352.047 403.711 351.967 403.711 351.967C403.711 351.967 409.929 349.127 403.711 341.38L403.379 341.631L402.05 337.717V332.43C402.05 332.43 409.925 294.569 407.44 290.091C404.955 285.614 403.711 262.817 403.711 262.817L404.553 237.984C406.801 233.346 407.951 226.077 408.533 220.393C409.379 217.681 409.913 214.882 410.123 212.049C410.223 210.714 410.303 209.314 410.355 207.861C410.376 204.674 409.855 201.506 408.813 198.495C411.179 195.087 415.026 189.819 418.202 186.705C423.176 181.821 421.931 176.118 421.931 176.118L419.858 162.275L414.884 138.664C415.509 132.114 414.141 128.342 412.632 126.212C412.991 124.096 413.327 121.981 413.578 119.856C414.681 110.615 414.189 101.254 412.125 92.179C411.406 89.0128 410.426 85.7662 408.207 83.3667C405.694 80.6501 401.614 78.9937 400.677 75.4347C400.445 74.5496 400.436 73.6078 400.1 72.7559C399.191 70.4275 396.314 69.5803 393.796 69.2774C389.309 68.7331 382.821 68.3309 378.51 70.082C375.5 71.3125 371.354 74.7011 369.707 78.3358C368.76 80.0065 368.32 81.7623 368.723 83.414C368.881 84.0226 369.122 84.6069 369.437 85.1509C368.795 86.8918 368.468 88.7332 368.472 90.5888C368.487 93.7785 369.462 96.8898 371.27 99.5176C373.078 102.145 375.635 104.168 378.609 105.322C378.708 105.634 378.798 105.942 378.874 106.245C379.062 106.974 379.198 107.716 379.281 108.464C379.201 109.884 379.111 111.346 379.044 112.79C378.997 112.989 378.947 113.184 378.893 113.377C375.328 114.955 371.852 116.728 368.481 118.687C370.971 122.35 368.065 137.821 368.065 137.821C361.846 141.484 355.627 150.85 362.263 160.619C368.898 170.387 365.164 180.969 365.164 180.969L364.127 196.885V196.914L363.919 200.099H363.999L363.919 201.306L364.099 201.339V202.636C361.188 203.705 356.934 205.863 354.397 209.853C353.197 211.816 351.738 213.607 350.057 215.177C349.671 215.511 349.371 215.933 349.181 216.407C348.991 216.881 348.917 217.393 348.966 217.901C349.014 218.41 349.184 218.899 349.46 219.328C349.737 219.757 350.112 220.114 350.554 220.369ZM400.606 178.078C400.357 175.324 400.866 172.555 402.078 170.07C403.053 170.089 404.029 170.1 405.008 170.103C405.107 170.789 405.225 171.442 405.367 172.039C406.21 175.626 402.845 177.344 400.601 178.073L400.606 178.078Z" fill="url(#paint1_linear)"/>
<path d="M401.425 335.861L403.02 340.646L397.814 345.852L380.663 349.842L368.297 348.644L369.096 344.257C369.333 343.314 369.824 342.454 370.517 341.772C371.21 341.09 372.078 340.612 373.025 340.391C378.107 339.198 387.8 336.472 389.835 332.69L401.425 335.861Z" fill="#DB8B8B"/>
<path opacity="0.1" d="M401.425 335.861L403.02 340.646L397.814 345.852L380.663 349.842L368.297 348.644L369.096 344.257C369.333 343.314 369.824 342.454 370.517 341.772C371.21 341.09 372.078 340.612 373.025 340.391C378.107 339.198 387.8 336.472 389.835 332.69L401.425 335.861Z" fill="black"/>
<path d="M372.305 347.428L374.7 344.238L372.305 340.542C372.305 340.542 365.126 343.438 361.936 343.041C358.746 342.643 357.151 348.247 363.133 349.823C369.115 351.399 403.02 349.823 403.02 349.823C403.02 349.823 409.002 347.031 403.02 339.453L397.814 343.443C397.814 343.443 389.04 348.228 384.653 347.433L372.305 347.428Z" fill="#2E3037"/>
<path d="M361.534 354.201L373.9 355.398L391.051 351.408L396.257 346.202L395.836 344.934L395.239 343.154L394.643 341.422L383.077 338.232C382.486 339.197 381.675 340.008 380.71 340.599C376.953 343.169 370.204 345.024 366.243 345.951C366.082 345.991 365.924 346.04 365.769 346.098C364.931 346.38 364.176 346.868 363.576 347.519C362.975 348.169 362.548 348.959 362.334 349.818L361.534 354.201Z" fill="#DB8B8B"/>
<path opacity="0.1" d="M361.534 354.201L373.9 355.398L391.051 351.408L396.257 346.202L395.836 344.934L391.075 348.597C391.075 348.597 382.3 353.382 377.913 352.587H365.523L367.918 349.397L365.769 346.084C364.931 346.366 364.176 346.854 363.576 347.504C362.975 348.155 362.548 348.945 362.334 349.804L361.534 354.201Z" fill="black"/>
<path d="M365.523 353.013L367.918 349.823L365.523 346.127C365.523 346.127 358.344 349.023 355.154 348.625C351.964 348.228 350.37 353.831 356.352 355.407C362.334 356.983 396.238 355.407 396.238 355.407C396.238 355.407 402.22 352.615 396.238 345.038L391.032 349.028C391.032 349.028 382.258 353.813 377.871 353.017L365.523 353.013Z" fill="#2E3037"/>
<path d="M375.495 121.664C375.495 121.664 394.643 123.656 391.851 115.682C391.07 113.42 390.867 110.999 391.259 108.639C391.756 105.713 392.913 102.939 394.643 100.527L376.692 103.32C377.768 105.118 378.587 107.059 379.125 109.084C381.264 117.542 375.495 121.664 375.495 121.664Z" fill="#DB8B8B"/>
<path d="M408.202 212.607C408.202 212.607 407.805 229.759 403.815 238.136L403.015 262.466C403.015 262.466 404.212 284.805 406.607 289.192C409.002 293.579 401.401 330.674 401.401 330.674V337.059C401.401 337.059 388.623 341.843 385.045 336.259L388.637 288.79L387.043 222.977L408.202 212.607Z" fill="#474463"/>
<path opacity="0.1" d="M408.202 212.607C408.202 212.607 407.805 229.759 403.815 238.136L403.015 262.466C403.015 262.466 404.212 284.805 406.607 289.192C409.002 293.579 401.401 330.674 401.401 330.674V337.059C401.401 337.059 388.623 341.843 385.045 336.259L388.637 288.79L387.043 222.977L408.202 212.607Z" fill="black"/>
<path d="M416.181 157.561L418.576 163.946L420.568 177.51C420.837 179.399 420.652 181.326 420.027 183.129C419.403 184.933 418.357 186.561 416.976 187.879C412.192 192.664 405.807 202.636 405.807 202.636L398.235 179.919C398.235 179.919 405.807 178.721 404.619 173.534C403.432 168.347 403.815 158.74 403.815 158.74L416.181 157.561Z" fill="#FC6681"/>
<path opacity="0.05" d="M416.181 157.561L418.576 163.946L420.568 177.51C420.837 179.399 420.652 181.326 420.027 183.129C419.403 184.933 418.357 186.561 416.976 187.879C412.192 192.664 405.807 202.636 405.807 202.636L398.235 179.919C398.235 179.919 405.807 178.721 404.619 173.534C403.432 168.347 403.815 158.74 403.815 158.74L416.181 157.561Z" fill="black"/>
<path opacity="0.1" d="M380.729 340.604C385.845 348.649 393.81 344.092 395.22 343.183L394.643 341.422L383.077 338.232C382.492 339.196 381.687 340.009 380.729 340.604Z" fill="black"/>
<path d="M364.728 228.164C365.126 233.748 371.908 254.09 371.908 254.09L376.692 270.829C380.121 282.665 381.89 294.92 381.95 307.243C381.95 311.327 382.324 315.539 383.479 318.705C386.669 327.48 380.289 339.449 380.289 339.449C385.874 349.421 395.433 342.639 395.433 342.639V336.259C395.433 336.259 403.006 301.554 401.018 294.777C399.03 288 398.226 269.646 398.226 269.646V236.517C404.615 230.15 408.501 221.697 409.172 212.702C409.267 211.396 409.343 210.023 409.395 208.599C409.716 199.607 403.564 189.048 401.16 185.29C400.583 184.382 400.213 183.87 400.213 183.87L364.993 197.841L364.913 197.875V199.238V202.252L364.728 228.164Z" fill="#474463"/>
<path opacity="0.1" d="M376.692 103.315C377.768 105.114 378.587 107.054 379.125 109.079C381.075 109.819 383.153 110.161 385.237 110.085C387.321 110.008 389.369 109.515 391.259 108.635C391.757 105.71 392.914 102.938 394.643 100.527L376.692 103.315Z" fill="black"/>
<path d="M384.671 109.293C393.263 109.293 400.228 102.328 400.228 93.7361C400.228 85.1445 393.263 78.1797 384.671 78.1797C376.08 78.1797 369.115 85.1445 369.115 93.7361C369.115 102.328 376.08 109.293 384.671 109.293Z" fill="#DB8B8B"/>
<path opacity="0.1" d="M364.728 202.238L364.899 202.271C381.624 205.712 402.622 188.277 402.622 188.277C402.06 187.328 401.574 186.336 401.169 185.309C400.592 184.401 400.223 183.889 400.223 183.889L365.003 197.86L364.913 199.257L364.728 202.238Z" fill="black"/>
<path d="M369.115 121.261C369.115 121.261 391.453 107.697 398.633 113.282L408.604 126.06C408.604 126.06 414.989 128.053 413.81 140.817L418.576 163.946L404.217 167.538C404.217 167.538 395.84 175.517 402.622 187.084C402.622 187.084 381.482 204.633 364.728 201.045L365.926 182.299C365.926 182.299 369.518 171.93 363.133 162.355C356.749 152.781 362.736 143.609 368.718 140.017C368.718 140.012 371.505 124.854 369.115 121.261Z" fill="#FC6681"/>
<path d="M367.918 202.636C367.918 202.636 359.541 204.231 355.552 210.615C354.401 212.53 352.997 214.281 351.378 215.821C351.013 216.151 350.731 216.562 350.553 217.02C350.375 217.479 350.306 217.972 350.352 218.462C350.398 218.951 350.558 219.424 350.818 219.841C351.078 220.258 351.432 220.609 351.851 220.866C355.017 222.759 360.18 223.938 366.702 218.58C377.89 209.418 367.918 202.636 367.918 202.636Z" fill="#DB8B8B"/>
<path opacity="0.1" d="M380.284 128.843C380.284 128.843 388.264 128.043 390.256 148.787C392.248 169.53 395.462 174.315 395.462 174.315C395.462 174.315 397.454 185.087 392.67 191.466C387.885 197.846 378.708 211.41 378.708 211.41C378.708 211.41 368.737 214.202 366.744 204.231L379.111 181.097C379.111 181.097 381.103 173.118 376.318 167.533C371.534 161.949 367.918 124.854 380.284 128.843Z" fill="black"/>
<path d="M379.47 127.646C379.47 127.646 387.45 126.846 389.442 147.59C391.434 168.333 394.648 173.118 394.648 173.118C394.648 173.118 396.64 183.889 391.856 190.269C387.071 196.649 377.894 210.213 377.894 210.213C377.894 210.213 367.923 213.005 365.93 203.033L378.297 179.9C378.297 179.9 380.289 171.92 375.504 166.336C370.72 160.751 367.118 123.656 379.47 127.646Z" fill="#FC6681"/>
<path opacity="0.1" d="M372.901 142.601C372.901 142.601 372.106 154.954 375.684 161.75C379.262 168.546 379.276 177.306 375.684 182.1" fill="black"/>
<path opacity="0.1" d="M370.909 127.447C370.909 127.447 374.099 124.257 383.275 123.855C392.452 123.453 396.437 120.665 396.437 120.665" fill="black"/>
<path opacity="0.1" d="M393.095 73.6362C395.519 73.9344 398.301 74.7674 399.163 77.0438C399.485 77.8815 399.494 78.8044 399.716 79.6704C400.62 83.1537 404.544 84.777 406.962 87.4416C409.096 89.8079 410.038 92.9741 410.748 96.074C412.74 104.963 413.22 114.125 412.168 123.174C411.392 129.799 409.802 136.302 409.357 142.947C408.912 149.591 409.726 156.582 413.356 162.166C414.918 164.566 416.981 166.677 418.088 169.317C415.803 171.173 412.646 171.438 409.697 171.537C406.268 171.654 402.837 171.654 399.404 171.537C397.606 171.476 395.727 171.357 394.175 170.449C393.025 169.713 392.081 168.699 391.43 167.5C389.466 164.187 388.973 160.164 389.063 156.302C389.153 152.441 389.759 148.598 389.83 144.731C389.868 142.625 389.702 140.386 388.491 138.664C387.615 137.419 386.285 136.581 385.149 135.573C380.89 131.787 379.414 125.72 379.272 120.017C379.13 114.314 380.071 108.601 379.589 102.918C379.399 100.693 378.566 98.0192 376.38 97.5885C375.689 97.4512 374.96 97.5885 374.298 97.3235C372.542 96.6467 372.712 94.1715 372.21 92.3588C371.647 90.3238 369.91 88.7525 369.423 86.6796C368.273 81.8522 374.416 76.0925 378.443 74.4124C382.537 72.6992 388.779 73.1062 393.095 73.6362Z" fill="black"/>
<path d="M393.493 72.8412C395.916 73.1393 398.699 73.9723 399.56 76.2487C399.882 77.0864 399.892 78.0093 400.114 78.8754C401.018 82.3587 404.941 83.982 407.36 86.6465C409.494 89.0129 410.436 92.179 411.146 95.279C413.137 104.168 413.617 113.33 412.565 122.378C411.789 129.004 410.199 135.507 409.754 142.152C409.309 148.796 410.123 155.787 413.753 161.371C415.315 163.771 417.379 165.882 418.486 168.522C416.2 170.378 413.043 170.643 410.095 170.742C406.666 170.859 403.234 170.859 399.802 170.742C398.003 170.68 396.124 170.562 394.572 169.653C393.423 168.918 392.478 167.904 391.827 166.705C389.863 163.392 389.371 159.369 389.461 155.507C389.551 151.646 390.157 147.803 390.228 143.936C390.265 141.83 390.1 139.591 388.888 137.869C388.013 136.624 386.683 135.786 385.547 134.778C381.288 130.992 379.811 124.925 379.669 119.222C379.527 113.519 380.469 107.806 379.986 102.122C379.797 99.8981 378.964 97.2241 376.777 96.7934C376.087 96.6562 375.358 96.7934 374.695 96.5284C372.939 95.8516 373.11 93.3764 372.608 91.5638C372.045 89.5287 370.308 87.9575 369.821 85.8845C368.67 81.0572 374.813 75.2975 378.841 73.6173C382.935 71.8994 389.177 72.3064 393.493 72.8412Z" fill="#472727"/>
</g>
<defs>
<linearGradient id="paint0_linear" x1="226.399" y1="329.264" x2="226.399" y2="15.7126" gradientUnits="userSpaceOnUse">
<stop stop-color="#808080" stop-opacity="0.25"/>
<stop offset="0.54" stop-color="#808080" stop-opacity="0.12"/>
<stop offset="1" stop-color="#808080" stop-opacity="0.1"/>
</linearGradient>
<linearGradient id="paint1_linear" x1="-133266" y1="233723" x2="-133266" y2="56531.3" gradientUnits="userSpaceOnUse">
<stop stop-color="#808080" stop-opacity="0.25"/>
<stop offset="0.54" stop-color="#808080" stop-opacity="0.12"/>
<stop offset="1" stop-color="#808080" stop-opacity="0.1"/>
</linearGradient>
<clipPath id="clip0">
<rect width="457" height="379" fill="white"/>
</clipPath>
</defs>
</svg>
