<svg width="294" height="52" viewBox="0 0 294 52" fill="none" xmlns="http://www.w3.org/2000/svg">
<path d="M10.25 51.2896C35.1244 50.9479 70.3844 29.8734 70.2026 16.6454C70.0807 7.77157 57.8832 6.42315 49.4032 6.1262L49.6973 5.57088C50.0459 4.98726 50.2044 4.54406 50.1994 4.1858C50.1922 3.66219 49.5844 3.33978 49.4198 3.34204C49.3375 3.34317 48.6061 4.01475 47.8218 4.82487L46.4436 6.33224C31.6214 7.61086 16.3365 13.1406 16.3679 15.428C16.374 15.8689 16.8185 16.2763 17.7021 16.7051C18.0335 16.866 18.3089 16.9449 18.5283 16.9419C18.7751 16.9385 18.9385 16.8535 19.0734 16.6863C19.1275 16.6304 19.1538 16.5474 19.1526 16.4647C19.1488 16.1891 18.7878 15.8633 18.2084 15.6232C17.9875 15.516 17.8211 15.3805 17.8199 15.2978L17.8196 15.2702C17.98 14.9648 20.4601 13.8006 22.5612 13C32.0296 9.36932 42.8976 7.7867 45.1739 7.75543L45.3114 7.7811C45.3201 8.41495 26.4339 31.3317 25.4129 32.8893C25.1973 33.1679 24.7608 33.3393 23.6123 33.6031C16.6664 35.1594 0.487652 39.5163 0.586849 46.7366C0.64099 50.6774 6.41046 51.3424 10.25 51.2896ZM1.87469 46.6362C1.78003 39.7466 23.0553 34.989 23.741 34.9796L23.8232 34.9784C23.8232 34.9784 19.7368 41.0159 19.5036 42.0114L19.4788 42.2047C19.4849 42.6456 19.8189 42.9993 20.2577 42.9933C20.6965 42.9873 21.3456 42.3168 21.3399 41.9035C21.3396 41.8759 21.3392 41.8483 21.3114 41.8212L21.3087 41.6282C21.3065 41.4629 21.3308 41.2421 21.4112 41.1031C21.9983 39.9098 24.6885 36.0691 25.8455 34.4269C33.0945 32.9767 41.8611 32.1672 47.1541 32.0945C49.6772 32.0598 51.4069 32.1739 51.7683 32.5272C51.9904 32.7171 52.1012 32.7983 52.2383 32.7964C52.4029 32.7941 52.8398 32.6503 52.833 32.1543C52.8246 31.548 52.6304 31.3853 52.1055 31.1169C51.6637 30.9024 49.8521 30.817 47.3016 30.8521C41.9263 30.9259 33.2124 31.5694 27.0588 32.8943L27.4089 32.4209C27.4359 32.3929 45.6396 9.70605 45.6392 9.67849C45.6392 9.67849 41.5637 16.5151 41.2782 19.6889C41.2542 19.9373 41.2294 20.1306 41.2317 20.2959C41.2358 20.5991 41.3192 20.6806 41.5402 20.7878C41.6232 20.8418 41.7058 20.8682 41.7881 20.8671C42.1172 20.8626 42.3869 20.5281 42.3805 20.0596C42.3445 17.4416 47.5255 9.21156 48.4908 7.5996C49.0119 7.59245 49.5052 7.5581 50.0537 7.55057C58.1715 7.43904 68.8144 9.44279 68.9136 16.6631C69.0723 28.2101 36.3674 49.5802 9.27153 49.9525C6.50161 49.9905 1.91293 49.4196 1.87469 46.6362Z" fill="#707070"/>
<path d="M71.0397 27.6593C71.2042 27.6571 71.5592 27.5419 71.5543 27.1837C71.546 26.5774 71.0482 26.281 70.6642 26.2863C70.39 26.2901 70.1451 26.4313 70.1492 26.7344C70.1549 27.1478 70.738 27.6635 71.0397 27.6593ZM67.3771 34.6006C70.3939 34.5591 74.3154 32.4931 75.945 31.313C76.1084 31.2281 76.1862 30.8963 76.1816 30.5656C76.1794 30.4002 76.0948 30.236 75.9303 30.2383C74.4618 31.168 70.1589 33.4322 67.8004 33.4646C67.197 33.4729 66.9445 33.063 66.9419 32.87C66.9264 31.7401 67.361 31.431 67.361 31.431C67.9324 31.0924 69.1593 30.5518 69.1514 29.9731C69.1434 29.3943 68.702 29.2075 68.3729 29.212C67.6324 29.2222 66.9284 29.8934 66.6873 30.3101C65.9841 31.0364 65.6119 31.896 65.6259 32.9157C65.6342 33.522 66.0607 34.6187 67.3771 34.6006Z" fill="#707070"/>
<path d="M85.7823 30.5715L85.7811 30.4888C85.7773 30.2132 85.6665 30.1321 85.502 30.1343C85.2551 30.1377 80.345 34.1192 77.0265 34.1648C75.381 34.1874 75.1571 33.8597 75.1522 33.5015C75.1488 33.2534 75.4699 32.6702 76.4835 32.5736C78.126 32.3305 80.6632 31.3309 80.6417 29.7601C80.6311 28.9884 79.9142 28.7227 79.3657 28.7302C77.446 28.7566 73.6406 31.2896 73.6709 33.4942C73.6852 34.5415 74.6591 35.5479 76.4966 35.5227C80.4458 35.4684 85.4904 31.2922 85.5179 31.2918C85.6257 31.1525 85.7876 30.9573 85.7823 30.5715ZM78.8899 30.0322C79.0544 30.03 79.1375 30.0839 79.1394 30.2217C79.1443 30.58 76.879 31.4105 76.2486 31.4467C76.244 31.116 78.4785 30.0379 78.8899 30.0322Z" fill="#707070"/>
<path d="M87.798 35.5328C90.3485 35.4978 95.8841 31.1218 95.8784 30.7084C95.8728 30.295 95.7859 29.9655 95.4568 29.97C94.722 30.3935 90.4114 34.0912 87.8609 34.1262C86.8736 34.1398 86.4479 33.0982 86.4403 32.547C86.4267 31.5549 86.72 30.9445 86.72 30.9445C87.7813 30.3235 93.4133 24.9815 93.4133 24.9815L94.1801 24.8883C95.9079 24.8645 95.4229 25.5052 95.944 25.498C96.6022 25.489 97.5015 25.0631 97.4936 24.4844C97.4822 23.6577 96.5761 23.5874 95.0951 23.6078L94.5741 23.6149C95.7675 22.6338 99.9126 16.8712 99.8857 14.9145C99.8751 14.1429 99.3697 13.2954 98.5744 13.3063C95.969 13.3421 92.0384 18.7434 88.8178 23.9145C87.5037 24.098 86.7099 24.2191 85.1501 24.4886C85.6403 24.2338 86.5419 23.9733 86.534 23.3946C86.5306 23.1466 86.3638 22.9835 86.1158 22.9042C85.6222 22.911 82.3505 24.3617 82.3595 25.0231C82.3641 25.3538 82.3709 25.8499 83.0291 25.8408C84.3455 25.8227 85.8223 25.4992 87.8769 25.3056C85.6228 28.9474 84.9926 30.9958 85.0199 32.98C85.0358 34.1375 85.9331 35.5584 87.798 35.5328ZM93.0379 23.6085L90.3799 23.8104C93.4401 18.9447 96.8374 14.6532 98.1263 14.6355C98.428 14.6314 98.6516 14.9315 98.6576 15.3724C98.6697 16.2543 94.5022 22.3755 93.0379 23.6085ZM87.1872 29.0086L89.4123 25.257L91.7412 25.0596C91.7412 25.0596 87.6519 28.892 87.1872 29.0086Z" fill="#707070"/>
<path d="M99.7679 34.2934C100.668 33.9503 103.893 31.0945 105.879 29.8819C105.582 30.2443 105.237 31.076 105.248 31.8752C105.262 32.8673 105.823 33.7967 107.688 33.7711C109.471 33.7466 114.485 31.3348 114.469 30.2049C114.466 29.9569 114.462 29.7089 114.216 29.7123C114.216 29.7123 109.73 32.6405 108.002 32.6643C106.795 32.6808 106.433 32.2448 106.425 31.6936C106.412 30.7291 107.409 29.4199 107.405 29.1719C107.397 28.5932 106.734 28.1888 106.487 28.1922C105.938 28.1997 100.807 32.074 100.807 32.074C100.804 31.826 101.659 30.1604 101.646 29.251C101.639 28.7549 101.14 28.3484 100.811 28.3529C99.8236 28.3664 98.61 29.8716 95.6464 31.7866C95.6437 31.5937 96.9656 29.9768 96.9614 29.6737C96.9569 29.343 96.6255 29.1822 96.461 29.1844C95.885 29.1923 95.1334 30.3879 94.6489 31.0561C94.0831 31.8081 93.3586 32.9757 93.3688 33.7198C93.3733 34.0505 93.707 34.3767 94.1184 34.371C94.996 34.3589 99.6841 30.1876 100.095 30.1819C100.098 30.4024 98.8387 32.5421 98.8527 33.5617C98.8606 34.1405 99.384 34.2987 99.7679 34.2934Z" fill="#707070"/>
<path d="M112.799 34.4451C114.938 34.4157 116.799 32.0748 118.019 31.0658L118.021 31.1484C118.027 31.6169 118.191 33.5441 120.357 33.5144C122.661 33.4827 128.217 30.5949 128.212 30.2642C128.209 30.0162 127.709 29.5269 127.544 29.5292C127.544 29.5292 122.644 32.2426 120.422 32.2731C119.38 32.2874 119.149 31.4086 119.139 30.6645L119.234 29.6433C119.371 29.6414 119.559 29.3357 119.555 29.005C119.549 28.5916 119.296 28.154 118.391 28.1665C116.087 28.1981 111.432 30.7428 111.461 32.8924C111.472 33.6365 111.894 34.4576 112.799 34.4451ZM113.138 33.1725C112.892 33.1759 112.698 33.0408 112.696 32.903C112.674 31.277 116.273 29.7116 117.781 29.6909L117.809 29.6905C117.077 30.3621 114.344 33.1008 113.138 33.1725Z" fill="#707070"/>
<path d="M137.746 29.3614C137.609 29.3633 136.33 30.1251 133.971 30.1575C133.286 30.1669 133.011 30.1431 132.407 30.0688C131.747 29.9951 131.363 29.9453 131.088 29.9491C129.882 29.9656 127.766 31.7312 127.684 31.7048C127.683 31.6772 128.675 30.0098 128.67 29.5964C128.669 29.5413 128.641 29.4865 128.64 29.459C128.527 29.2125 128.361 29.0769 128.141 29.0799C128.004 29.0818 127.84 29.1392 127.706 29.3064C127.354 29.6696 126.504 31.721 125.862 32.8599C125.621 33.3042 125.514 33.4987 125.516 33.664C125.518 33.7742 125.601 33.8558 125.713 33.9921C125.88 34.1827 126.074 34.3179 126.567 34.3111C127.061 34.3043 130.037 31.2866 131.216 31.2704C131.216 31.2704 133.304 31.4897 134.291 31.4762C136.046 31.4521 138.391 30.3724 138.384 29.8764C138.379 29.5181 138.13 29.3562 137.746 29.3614Z" fill="#707070"/>
<path d="M226.584 16.7847C226.476 8.90301 214.664 5.73008 206.327 5.84462C197.88 5.96067 188.807 8.42823 187.763 10.2893C187.629 10.5117 187.577 10.7053 187.58 10.8983C187.583 11.1738 187.751 11.3645 187.997 11.3611C188.162 11.3588 188.353 11.2735 188.542 11.0504C189.865 9.57136 197.596 7.26006 205.824 7.14703C215.724 7.01101 225.128 10.658 225.209 16.528L225.214 16.8862C225.327 25.1262 210.491 31.394 202.794 34.1735C197.824 33.7732 187.964 32.8612 176.418 33.0198C172.359 33.0756 153.989 33.6863 152.061 37.1307C151.901 37.4085 151.82 37.5474 151.822 37.6852C151.824 37.8506 151.909 37.9872 152.078 38.3157C153.403 40.9711 163.974 41.7079 167.512 41.6593C173.71 41.5742 186.836 40.6496 202.922 35.4948C210.559 36.3546 218.499 37.2653 223.996 40.0564C224.852 40.4581 225.293 40.645 225.567 40.6412C225.759 40.6386 225.868 40.5544 225.948 40.3604C226.001 40.2769 226.028 40.1939 226.027 40.1388C225.982 36.8869 206.036 34.5975 206.034 34.4321C206.414 34.0962 226.725 27.064 226.584 16.7847ZM199.024 35.2727C199.026 35.438 185.456 40.0346 167.328 40.2837C158.196 40.4091 153.229 38.2723 153.222 37.7762C153.191 35.5164 165.714 34.6002 177.754 34.4348C187.215 34.3048 196.382 34.6474 198.858 35.1923L199.024 35.2727Z" fill="#707070"/>
<path d="M230.269 25.4718C230.434 25.4695 230.789 25.3544 230.784 24.9961C230.775 24.3898 230.278 24.0935 229.894 24.0987C229.619 24.1025 229.374 24.2437 229.379 24.5468C229.384 24.9602 229.967 25.4759 230.269 25.4718ZM226.607 32.413C229.623 32.3715 233.545 30.3055 235.174 29.1255C235.338 29.0405 235.416 28.7087 235.411 28.378C235.409 28.2126 235.324 28.0484 235.16 28.0507C233.691 28.9805 229.388 31.2447 227.03 31.2771C226.426 31.2854 226.174 30.8754 226.171 30.6825C226.156 29.5526 226.59 29.2434 226.59 29.2434C227.162 28.9048 228.389 28.3642 228.381 27.7855C228.373 27.2068 227.931 27.0199 227.602 27.0244C226.862 27.0346 226.158 27.7058 225.917 28.1225C225.213 28.8489 224.841 29.7084 224.855 30.7281C224.864 31.3344 225.29 32.4311 226.607 32.413Z" fill="#707070"/>
<path d="M239.471 32.3741C240.371 32.0309 243.596 29.1751 245.582 27.9626C245.285 28.325 244.94 29.1567 244.951 29.9559C244.965 30.948 245.526 31.8774 247.391 31.8518C249.173 31.8273 254.188 29.4155 254.172 28.2856C254.169 28.0376 254.165 27.7896 253.918 27.793C253.918 27.793 249.433 30.7212 247.705 30.745C246.498 30.7615 246.136 30.3255 246.128 29.7743C246.115 28.8098 247.112 27.5006 247.108 27.2526C247.1 26.6738 246.436 26.2695 246.19 26.2729C245.641 26.2804 240.51 30.1547 240.51 30.1547C240.507 29.9067 241.361 28.2411 241.349 27.3317C241.342 26.8356 240.843 26.429 240.514 26.4336C239.526 26.4471 238.313 27.9522 235.349 29.8673C235.347 29.6744 236.668 28.0575 236.664 27.7544C236.66 27.4237 236.328 27.2628 236.164 27.2651C235.588 27.273 234.836 28.4686 234.352 29.1368C233.786 29.8888 233.061 31.0564 233.072 31.8005C233.076 32.1312 233.41 32.4573 233.821 32.4517C234.699 32.4396 239.387 28.2682 239.798 28.2626C239.801 28.4831 238.541 30.6228 238.555 31.6424C238.563 32.2212 239.087 32.3794 239.471 32.3741Z" fill="#707070"/>
<path d="M258.229 32.1164C259.13 31.7732 262.355 28.9174 264.341 27.7049C264.044 28.0673 263.699 28.899 263.71 29.6982C263.723 30.6903 264.285 31.6197 266.15 31.5941C267.932 31.5696 272.946 29.1578 272.931 28.0279C272.927 27.7799 272.924 27.5319 272.677 27.5353C272.677 27.5353 268.191 30.4635 266.464 30.4872C265.257 30.5038 264.894 30.0678 264.887 29.5166C264.873 28.5521 265.87 27.2429 265.867 26.9949C265.859 26.4161 265.195 26.0118 264.948 26.0152C264.4 26.0227 259.269 29.897 259.269 29.897C259.265 29.649 260.12 27.9834 260.108 27.074C260.101 26.5779 259.602 26.1713 259.272 26.1758C258.285 26.1894 257.071 27.6945 254.108 29.6096C254.105 29.4167 255.427 27.7998 255.423 27.4967C255.418 27.166 255.087 27.0051 254.922 27.0074C254.347 27.0153 253.595 28.2109 253.11 28.8791C252.545 29.631 251.82 30.7987 251.83 31.5427C251.835 31.8734 252.168 32.1996 252.58 32.194C253.457 32.1819 258.146 28.0105 258.557 28.0049C258.56 28.2253 257.3 30.3651 257.314 31.3847C257.322 31.9634 257.845 32.1216 258.229 32.1164Z" fill="#707070"/>
<path d="M282.529 27.8685L282.528 27.7858C282.524 27.5102 282.413 27.4291 282.249 27.4313C282.002 27.4347 277.092 31.4162 273.773 31.4618C272.128 31.4844 271.904 31.1567 271.899 30.7985C271.896 30.5504 272.217 29.9672 273.23 29.8706C274.873 29.6275 277.41 28.6279 277.388 27.0571C277.378 26.2854 276.661 26.0196 276.112 26.0272C274.193 26.0536 270.387 28.5866 270.418 30.7912C270.432 31.8385 271.406 32.8449 273.243 32.8197C277.193 32.7654 282.237 28.5891 282.265 28.5888C282.372 28.4495 282.534 28.2543 282.529 27.8685ZM275.637 27.3292C275.801 27.327 275.884 27.3809 275.886 27.5187C275.891 27.877 273.626 28.7075 272.995 28.7437C272.991 28.413 275.225 27.3349 275.637 27.3292Z" fill="#707070"/>
<path d="M292.423 27.2364C292.286 27.2383 291.007 28.0001 288.648 28.0325C287.963 28.0419 287.688 28.0181 287.083 27.9437C286.424 27.8701 286.039 27.8203 285.765 27.824C284.558 27.8406 282.443 29.6062 282.361 29.5797C282.36 29.5522 283.352 27.8847 283.346 27.4714C283.346 27.4162 283.318 27.3615 283.317 27.3339C283.204 27.0874 283.038 26.9519 282.818 26.9549C282.681 26.9568 282.517 27.0142 282.382 27.1814C282.031 27.5446 281.181 29.5959 280.539 30.7349C280.298 31.1792 280.191 31.3736 280.193 31.539C280.195 31.6492 280.278 31.7308 280.39 31.867C280.557 32.0577 280.751 32.1928 281.244 32.1861C281.738 32.1793 284.714 29.1615 285.893 29.1453C285.893 29.1453 287.981 29.3647 288.968 29.3511C290.723 29.327 293.067 28.2474 293.061 27.7514C293.056 27.3931 292.807 27.2311 292.423 27.2364Z" fill="#707070"/>
</svg>
