<svg width="436" height="361" viewBox="0 0 436 361" fill="none" xmlns="http://www.w3.org/2000/svg">
<path d="M407.211 199.477C390.464 226.524 393.603 263.372 400.958 292.426C403.418 302.154 406.254 312.423 404.15 323.309C401.576 336.622 392.194 347.075 382.698 353.062C365.387 363.949 345.62 363.647 331.226 352.264C318.796 342.432 310.609 325.284 297.918 315.98C276.697 300.405 247.555 309.845 222.253 324.401C204.36 334.674 184.664 347.747 168.125 340.345C156.49 335.147 149.234 320.483 145.848 304.525C144.213 296.821 143.224 288.405 139.477 282.535C137.246 279.046 134.181 276.711 131.002 274.795C101.992 257.331 62.742 271.933 34.7662 252.156C15.8703 238.804 5.12881 211.224 1.59797 181.734C-1.93287 152.243 0.970367 120.687 4.60505 89.6183C7.19223 67.5295 10.6915 43.8989 22.3044 25.9348C34.5901 6.93383 53.9556 -1.56364 70.7879 0.239534C87.6204 2.04271 102.236 12.6905 114.833 25.7049C130.578 41.9695 144.778 62.742 165.154 67.9893C179.034 71.5641 194.192 67.4258 208.952 65.0862C233.595 61.1733 257.895 62.2958 282.024 63.7653C305.124 65.1719 328.363 66.9209 349.887 75.0352C365.116 80.7828 376.806 92.7468 391.019 100.528C400.285 105.599 410.738 106.244 419.371 113.006C430.004 121.336 439.205 136.712 434.948 156.151C430.888 174.642 416.096 185.124 407.211 199.477Z" fill="#8788B3"/>
<path d="M300.025 138.339C300.025 138.339 345.629 100.189 355.769 80.9537C365.911 61.7183 378.819 45.1426 378.819 45.1426" stroke="#535461" stroke-width="2" stroke-miterlimit="10"/>
<path d="M372.825 88.1434L353.098 83.7031C353.098 83.7031 357.753 104.475 372.825 88.1434Z" fill="#FF6340"/>
<path d="M342.681 66.9385L354.032 83.9108C354.032 83.9108 331.84 85.5111 342.681 66.9385Z" fill="#FF6340"/>
<path d="M380.586 72.1897L362.557 69.0342C362.557 69.0342 373.881 86.232 380.586 72.1897Z" fill="#FF6340"/>
<path d="M353.906 57.0205L362.787 68.633C362.787 68.633 347.065 70.1206 353.906 57.0205Z" fill="#FF6340"/>
<path d="M371.881 54.708C371.881 54.708 387.232 55.4383 389.038 56.9033C390.844 58.3684 386.75 66.956 380.911 65.554C375.073 64.1521 371.881 54.708 371.881 54.708Z" fill="#FF6340"/>
<path d="M365.745 41.0088C365.745 41.0088 372.016 52.4183 371.781 54.5911C371.546 56.764 362.223 59.2028 360.34 50.9848C358.457 42.7668 365.745 41.0088 365.745 41.0088Z" fill="#FF6340"/>
<path d="M385.247 49.7223C385.957 47.4778 384.71 45.0835 382.462 44.3748C380.214 43.6659 377.816 44.9109 377.105 47.1555C376.396 49.4 377.643 51.7942 379.891 52.503C382.139 53.2118 384.538 51.9668 385.247 49.7223Z" fill="#FFD037"/>
<path d="M378.565 45.3366C379.275 43.092 378.028 40.6978 375.78 39.989C373.532 39.2802 371.134 40.5252 370.424 42.7697C369.714 45.0143 370.961 47.4085 373.209 48.1173C375.457 48.8262 377.855 47.5811 378.565 45.3366Z" fill="#FFD037"/>
<path d="M157.786 287.891C157.786 287.891 165.105 266.154 118.707 239.949C118.707 239.949 71.5964 226.231 76.4141 179.123C76.4141 179.123 22.106 218.847 58.8547 269.448C95.6031 320.05 127.322 309.006 127.322 309.006L157.786 287.891Z" fill="#FF6340"/>
<path d="M143.641 297.709C143.641 297.709 121.001 273.28 99.3013 263.836C94.9668 261.888 90.9836 259.239 87.5126 255.997C73.6782 243.374 67.646 224.329 71.213 205.959L76.4279 179.123" stroke="#535461" stroke-width="2" stroke-miterlimit="10"/>
<path d="M344.812 14.9668H87.1738V313.631H344.812V14.9668Z" fill="url(#paint0_linear)"/>
<path d="M341.814 18.4424H90.1758V310.146H341.814V18.4424Z" fill="#F7F7FD"/>
<path d="M168.988 51.3232H105.375V56.3811H168.988V51.3232Z" fill="#E2E2EC"/>
<path d="M214.023 63.6885H105.375V68.7464H214.023V63.6885Z" fill="#E2E2EC"/>
<path d="M329.764 46.4902H284.617V85.3847H329.764V46.4902Z" fill="white"/>
<path d="M329.525 46.7154V85.1591H284.825V46.7154H329.525ZM329.977 46.2646H284.373V85.6099H329.977V46.2646Z" fill="#E2E2EC"/>
<path d="M284.165 46.4902H239.018V85.3847H284.165V46.4902Z" fill="white"/>
<path d="M283.921 46.7154V85.1591H239.221V46.7154H283.921ZM284.372 46.2646H238.77V85.6099H284.372V46.2646Z" fill="#E2E2EC"/>
<path d="M329.764 85.8359H284.617V124.73H329.764V85.8359Z" fill="white"/>
<path d="M329.525 86.0612V124.505H284.825V86.0612H329.525ZM329.977 85.6104H284.373V124.956H329.977V85.6104Z" fill="#E2E2EC"/>
<path d="M284.165 85.8359H239.018V124.73H284.165V85.8359Z" fill="white"/>
<path d="M283.921 86.0612V124.505H239.221V86.0612H283.921ZM284.372 85.6104H238.77V124.956H284.372V85.6104Z" fill="#E2E2EC"/>
<path d="M238.566 85.8359H193.42V124.73H238.566V85.8359Z" fill="white"/>
<path d="M238.341 86.0612V124.505H193.642V86.0612H238.341ZM238.793 85.6104H193.189V124.956H238.793V85.6104Z" fill="#E2E2EC"/>
<path d="M192.967 85.8359H147.82V124.73H192.967V85.8359Z" fill="white"/>
<path d="M192.743 86.0612V124.505H148.043V86.0612H192.743ZM193.194 85.6104H147.592V124.956H193.194V85.6104Z" fill="#E2E2EC"/>
<path d="M147.37 85.8359H102.223V124.73H147.37V85.8359Z" fill="white"/>
<path d="M147.143 86.0612V124.505H102.443V86.0612H147.143ZM147.595 85.6104H101.992V124.956H147.595V85.6104Z" fill="#E2E2EC"/>
<path d="M329.764 125.177H284.617V164.071H329.764V125.177Z" fill="white"/>
<path d="M329.525 125.406V163.85H284.825V125.406H329.525ZM329.977 124.955H284.373V164.3H329.977V124.955Z" fill="#E2E2EC"/>
<path d="M284.165 125.177H239.018V164.071H284.165V125.177Z" fill="white"/>
<path d="M283.921 125.406V163.85H239.221V125.406H283.921ZM284.372 124.955H238.77V164.3H284.372V124.955Z" fill="#E2E2EC"/>
<path d="M238.566 125.177H193.42V164.071H238.566V125.177Z" fill="white"/>
<path d="M238.341 125.406V163.85H193.642V125.406H238.341ZM238.793 124.955H193.189V164.3H238.793V124.955Z" fill="#E2E2EC"/>
<path d="M192.967 125.177H147.82V164.071H192.967V125.177Z" fill="white"/>
<path d="M192.743 125.406V163.85H148.043V125.406H192.743ZM193.194 124.955H147.592V164.3H193.194V124.955Z" fill="#E2E2EC"/>
<path d="M147.37 125.177H102.223V164.071H147.37V125.177Z" fill="white"/>
<path d="M147.143 125.406V163.85H102.443V125.406H147.143ZM147.595 124.955H101.992V164.3H147.595V124.955Z" fill="#E2E2EC"/>
<path d="M329.764 164.521H284.617V203.416H329.764V164.521Z" fill="white"/>
<path d="M329.525 164.747V203.191H284.825V164.747H329.525ZM329.977 164.296H284.373V203.641H329.977V164.296Z" fill="#E2E2EC"/>
<path d="M284.165 164.521H239.018V203.416H284.165V164.521Z" fill="white"/>
<path d="M283.921 164.747V203.191H239.221V164.747H283.921ZM284.372 164.296H238.77V203.641H284.372V164.296Z" fill="#E2E2EC"/>
<path d="M238.566 164.521H193.42V203.416H238.566V164.521Z" fill="white"/>
<path d="M238.341 164.747V203.191H193.642V164.747H238.341ZM238.793 164.296H193.189V203.641H238.793V164.296Z" fill="#E2E2EC"/>
<path d="M192.967 164.521H147.82V203.416H192.967V164.521Z" fill="white"/>
<path d="M192.743 164.747V203.191H148.043V164.747H192.743ZM193.194 164.296H147.592V203.641H193.194V164.296Z" fill="#E2E2EC"/>
<path d="M147.37 164.521H102.223V203.416H147.37V164.521Z" fill="white"/>
<path d="M147.143 164.747V203.191H102.443V164.747H147.143ZM147.595 164.296H101.992V203.641H147.595V164.296Z" fill="#E2E2EC"/>
<path d="M329.764 203.862H284.617V242.757H329.764V203.862Z" fill="white"/>
<path d="M329.525 204.093V242.532H284.825V204.093H329.525ZM329.977 203.642H284.373V242.983H329.977V203.642Z" fill="#E2E2EC"/>
<path d="M284.165 203.862H239.018V242.757H284.165V203.862Z" fill="white"/>
<path d="M283.921 204.093V242.532H239.221V204.093H283.921ZM284.372 203.642H238.77V242.983H284.372V203.642Z" fill="#E2E2EC"/>
<path d="M238.566 203.862H193.42V242.757H238.566V203.862Z" fill="white"/>
<path d="M238.341 204.093V242.532H193.642V204.093H238.341ZM238.793 203.642H193.189V242.983H238.793V203.642Z" fill="#E2E2EC"/>
<path d="M192.967 203.862H147.82V242.757H192.967V203.862Z" fill="white"/>
<path d="M192.743 204.093V242.532H148.043V204.093H192.743ZM193.194 203.642H147.592V242.983H193.194V203.642Z" fill="#E2E2EC"/>
<path d="M147.37 203.862H102.223V242.757H147.37V203.862Z" fill="white"/>
<path d="M147.143 204.093V242.532H102.443V204.093H147.143ZM147.595 203.642H101.992V242.983H147.595V203.642Z" fill="#E2E2EC"/>
<path d="M329.764 243.207H284.617V282.102H329.764V243.207Z" fill="white"/>
<path d="M329.525 243.433V281.876H284.825V243.433H329.525ZM329.977 242.982H284.373V282.328H329.977V242.982Z" fill="#E2E2EC"/>
<path d="M284.165 243.207H239.018V282.102H284.165V243.207Z" fill="white"/>
<path d="M283.921 243.433V281.876H239.221V243.433H283.921ZM284.372 242.982H238.77V282.328H284.372V242.982Z" fill="#E2E2EC"/>
<path d="M238.566 243.207H193.42V282.102H238.566V243.207Z" fill="white"/>
<path d="M238.341 243.433V281.876H193.642V243.433H238.341ZM238.793 242.982H193.189V282.328H238.793V242.982Z" fill="#E2E2EC"/>
<path d="M192.967 243.207H147.82V282.102H192.967V243.207Z" fill="white"/>
<path d="M192.743 243.433V281.876H148.043V243.433H192.743ZM193.194 242.982H147.592V282.328H193.194V242.982Z" fill="#E2E2EC"/>
<path d="M147.37 243.207H102.223V282.102H147.37V243.207Z" fill="white"/>
<path d="M147.143 243.433V281.876H102.443V243.433H147.143ZM147.595 242.982H101.992V282.328H147.595V242.982Z" fill="#E2E2EC"/>
<path d="M197.051 317.76C198.342 316.782 199.556 315.628 199.931 314.222C200.124 313.477 200.022 312.687 199.647 312.016C199.272 311.344 198.653 310.843 197.917 310.615C196.071 310.038 194.098 311.066 192.598 312.134C191.1 313.203 189.388 314.388 187.428 314.167C189.456 312.702 190.422 310.327 189.862 308.168C189.767 307.702 189.53 307.277 189.185 306.95C188.16 306.048 186.3 306.441 185.072 307.144C181.166 309.398 180.078 313.703 180.055 317.594C179.662 316.192 179.992 314.73 179.983 313.288C179.974 311.845 179.492 310.255 178.001 309.479C177.047 309.066 176.015 308.868 174.976 308.897C173.22 308.843 171.265 308.988 170.068 310.034C168.578 311.332 168.967 313.514 170.262 314.943C171.558 316.372 173.531 317.269 175.342 318.256C176.723 319.009 178.124 319.888 178.954 321.078C179.063 321.236 179.154 321.405 179.224 321.583H190.228C192.652 320.595 194.943 319.311 197.051 317.76Z" fill="#FF6340"/>
<path d="M108.178 94.3197C109.598 94.3197 110.751 93.1693 110.751 91.7502C110.751 90.3311 109.598 89.1807 108.178 89.1807C106.756 89.1807 105.604 90.3311 105.604 91.7502C105.604 93.1693 106.756 94.3197 108.178 94.3197Z" fill="#FC6681"/>
<path d="M114.607 94.3197C116.029 94.3197 117.18 93.1693 117.18 91.7502C117.18 90.3311 116.029 89.1807 114.607 89.1807C113.186 89.1807 112.033 90.3311 112.033 91.7502C112.033 93.1693 113.186 94.3197 114.607 94.3197Z" fill="#FFD037"/>
<path d="M199.058 132.412C200.48 132.412 201.631 131.262 201.631 129.842C201.631 128.423 200.48 127.273 199.058 127.273C197.637 127.273 196.484 128.423 196.484 129.842C196.484 131.262 197.637 132.412 199.058 132.412Z" fill="#FF6340"/>
<path d="M205.494 132.412C206.915 132.412 208.067 131.262 208.067 129.842C208.067 128.423 206.915 127.273 205.494 127.273C204.072 127.273 202.92 128.423 202.92 129.842C202.92 131.262 204.072 132.412 205.494 132.412Z" fill="#FF6340"/>
<path d="M336.668 206.026C338.088 206.026 339.241 204.876 339.241 203.457C339.241 202.037 338.088 200.888 336.668 200.888C335.246 200.888 334.094 202.037 334.094 203.457C334.094 204.876 335.246 206.026 336.668 206.026Z" fill="#FF6340"/>
<path d="M337.954 203.033C339.375 203.033 340.528 201.883 340.528 200.463C340.528 199.044 339.375 197.894 337.954 197.894C336.532 197.894 335.381 199.044 335.381 200.463C335.381 201.883 336.532 203.033 337.954 203.033Z" fill="#FF6340"/>
<path d="M339.241 200.464C340.663 200.464 341.815 199.313 341.815 197.894C341.815 196.475 340.663 195.324 339.241 195.324C337.819 195.324 336.668 196.475 336.668 197.894C336.668 199.313 337.819 200.464 339.241 200.464Z" fill="#FF6340"/>
<path d="M291.226 94.3197C292.647 94.3197 293.799 93.1693 293.799 91.7502C293.799 90.3311 292.647 89.1807 291.226 89.1807C289.805 89.1807 288.652 90.3311 288.652 91.7502C288.652 93.1693 289.805 94.3197 291.226 94.3197Z" fill="#FF6340"/>
<path d="M297.656 94.3197C299.078 94.3197 300.229 93.1693 300.229 91.7502C300.229 90.3311 299.078 89.1807 297.656 89.1807C296.235 89.1807 295.082 90.3311 295.082 91.7502C295.082 93.1693 296.235 94.3197 297.656 94.3197Z" fill="#FF6340"/>
<path d="M304.09 94.3197C305.511 94.3197 306.663 93.1693 306.663 91.7502C306.663 90.3311 305.511 89.1807 304.09 89.1807C302.668 89.1807 301.516 90.3311 301.516 91.7502C301.516 93.1693 302.668 94.3197 304.09 94.3197Z" fill="#FF6340"/>
<path d="M310.519 94.3197C311.941 94.3197 313.093 93.1693 313.093 91.7502C313.093 90.3311 311.941 89.1807 310.519 89.1807C309.098 89.1807 307.945 90.3311 307.945 91.7502C307.945 93.1693 309.098 94.3197 310.519 94.3197Z" fill="#FF6340"/>
<path d="M291.226 173.925C292.647 173.925 293.799 172.775 293.799 171.356C293.799 169.937 292.647 168.786 291.226 168.786C289.805 168.786 288.652 169.937 288.652 171.356C288.652 172.775 289.805 173.925 291.226 173.925Z" fill="#FF6340"/>
<path d="M297.656 173.925C299.078 173.925 300.229 172.775 300.229 171.356C300.229 169.937 299.078 168.786 297.656 168.786C296.235 168.786 295.082 169.937 295.082 171.356C295.082 172.775 296.235 173.925 297.656 173.925Z" fill="#FF6340"/>
<path d="M304.09 173.925C305.511 173.925 306.663 172.775 306.663 171.356C306.663 169.937 305.511 168.786 304.09 168.786C302.668 168.786 301.516 169.937 301.516 171.356C301.516 172.775 302.668 173.925 304.09 173.925Z" fill="#FF6340"/>
<path d="M310.519 173.925C311.941 173.925 313.093 172.775 313.093 171.356C313.093 169.937 311.941 168.786 310.519 168.786C309.098 168.786 307.945 169.937 307.945 171.356C307.945 172.775 309.098 173.925 310.519 173.925Z" fill="#FF6340"/>
<path d="M153.619 132.412C155.04 132.412 156.192 131.262 156.192 129.842C156.192 128.423 155.04 127.273 153.619 127.273C152.197 127.273 151.045 128.423 151.045 129.842C151.045 131.262 152.197 132.412 153.619 132.412Z" fill="#FFD037"/>
<path d="M108.178 171.359C109.598 171.359 110.751 170.21 110.751 168.791C110.751 167.371 109.598 166.221 108.178 166.221C106.756 166.221 105.604 167.371 105.604 168.791C105.604 170.21 106.756 171.359 108.178 171.359Z" fill="#FC6681"/>
<path d="M334.445 209.903C337.267 211.566 341.669 212.648 347.246 209.073L347.191 216.99C347.589 222.399 354.312 242.194 354.312 242.194L359.053 258.467C362.449 269.963 364.204 281.882 364.263 293.868C364.263 297.839 364.633 301.932 365.776 305.012C368.299 311.823 364.782 320.6 363.256 323.868C360.687 324.734 358.076 325.469 355.431 326.068C355.194 326.123 354.96 326.193 354.732 326.28L354.7 326.234C354.7 326.234 347.584 329.052 344.423 328.664C342.067 328.376 340.59 331.31 342.437 333.47C340.694 333.921 338.906 334.241 337.7 334.093C334.54 333.705 332.955 339.132 338.888 340.683C344.821 342.234 378.436 340.683 378.436 340.683C379.382 340.211 380.143 339.438 380.601 338.487C381.059 337.535 381.187 336.459 380.964 335.426C383.547 335.327 385.159 335.251 385.159 335.251C385.159 335.251 391.092 332.546 385.159 325.167L384.843 325.406L383.575 321.678V316.642C383.575 316.642 391.088 280.579 388.717 276.314C386.346 272.049 385.159 250.335 385.159 250.335L385.963 226.681C388.107 222.264 389.205 215.34 389.76 209.926C390.567 207.343 391.076 204.676 391.277 201.978C391.372 200.706 391.449 199.373 391.498 197.989C391.518 194.953 391.021 191.936 390.027 189.068C392.284 185.822 395.954 180.804 398.985 177.838C403.73 173.186 402.542 167.753 402.542 167.753L400.564 154.568L395.819 132.078C396.415 125.839 395.11 122.247 393.67 120.218C394.013 118.202 394.334 116.188 394.573 114.164C395.625 105.361 395.156 96.445 393.187 87.801C392.501 84.7852 391.566 81.6928 389.449 79.4073C387.051 76.8197 383.159 75.242 382.265 71.852C382.044 71.0089 382.035 70.1118 381.714 69.3004C380.847 67.0826 378.102 66.2756 375.7 65.9871C371.419 65.4687 365.229 65.0856 361.116 66.7535C358.245 67.9256 354.289 71.1532 352.718 74.6153C351.814 76.2067 351.395 77.8791 351.779 79.4523C351.93 80.032 352.16 80.5886 352.46 81.1067C351.848 82.765 351.536 84.5189 351.54 86.2864C351.554 89.3246 352.484 92.2881 354.209 94.7911C355.934 97.2937 358.374 99.2206 361.211 100.32C361.305 100.617 361.391 100.91 361.464 101.199C361.643 101.893 361.773 102.6 361.852 103.313C361.776 104.665 361.69 106.058 361.626 107.433C361.581 107.623 361.533 107.808 361.482 107.992C358.081 109.495 354.764 111.184 351.548 113.05C353.924 116.539 351.151 131.275 351.151 131.275C345.218 134.764 339.285 143.686 345.616 152.991C351.946 162.295 348.384 172.374 348.384 172.374L347.394 187.534V187.562L347.196 190.596H347.272L347.196 191.745L347.368 191.777V193.012C344.59 194.03 340.532 196.086 338.111 199.886C336.967 201.756 335.575 203.462 333.971 204.957C333.603 205.276 333.316 205.678 333.135 206.129C332.954 206.581 332.883 207.068 332.93 207.552C332.976 208.037 333.138 208.503 333.401 208.911C333.666 209.32 334.023 209.66 334.445 209.903ZM382.197 169.62C381.96 166.997 382.445 164.36 383.601 161.993C384.532 162.011 385.463 162.021 386.397 162.024C386.491 162.678 386.604 163.3 386.739 163.868C387.544 167.285 384.333 168.921 382.192 169.616L382.197 169.62Z" fill="url(#paint1_linear)"/>
<path d="M382.979 319.91L384.5 324.468L379.534 329.427L363.171 333.227L351.373 332.086L352.135 327.907C352.361 327.009 352.83 326.19 353.491 325.54C354.152 324.891 354.98 324.435 355.884 324.225C360.732 323.089 369.98 320.492 371.921 316.89L382.979 319.91Z" fill="#DB8B8B"/>
<path opacity="0.1" d="M382.979 319.91L384.5 324.468L379.534 329.427L363.171 333.227L351.373 332.086L352.135 327.907C352.361 327.009 352.83 326.19 353.491 325.54C354.152 324.891 354.98 324.435 355.884 324.225C360.732 323.089 369.98 320.492 371.921 316.89L382.979 319.91Z" fill="#333570"/>
<path d="M355.196 330.927L357.481 327.889L355.196 324.368C355.196 324.368 348.347 327.127 345.304 326.749C342.26 326.37 340.739 331.707 346.446 333.209C352.153 334.71 384.5 333.209 384.5 333.209C384.5 333.209 390.207 330.549 384.5 323.331L379.533 327.132C379.533 327.132 371.162 331.689 366.977 330.932L355.196 330.927Z" fill="#2E3037"/>
<path d="M344.92 337.379L356.718 338.519L373.081 334.718L378.047 329.759L377.646 328.552L377.076 326.856L376.508 325.206L365.473 322.168C364.909 323.087 364.135 323.86 363.215 324.423C359.63 326.87 353.192 328.637 349.413 329.52C349.259 329.558 349.108 329.605 348.96 329.66C348.161 329.929 347.441 330.394 346.868 331.014C346.295 331.633 345.887 332.386 345.683 333.204L344.92 337.379Z" fill="#DB8B8B"/>
<path opacity="0.1" d="M344.92 337.379L356.718 338.519L373.081 334.718L378.047 329.76L377.646 328.552L373.103 332.041C373.103 332.041 364.732 336.599 360.546 335.841H348.726L351.011 332.803L348.96 329.647C348.161 329.916 347.441 330.381 346.868 331C346.295 331.62 345.887 332.372 345.683 333.19L344.92 337.379Z" fill="#333570"/>
<path d="M348.727 336.248L351.012 333.209L348.727 329.689C348.727 329.689 341.878 332.447 338.835 332.068C335.791 331.69 334.27 337.027 339.977 338.528C345.685 340.029 378.031 338.528 378.031 338.528C378.031 338.528 383.738 335.869 378.031 328.651L373.064 332.452C373.064 332.452 364.693 337.01 360.508 336.251L348.727 336.248Z" fill="#2E3037"/>
<path d="M358.24 115.886C358.24 115.886 376.508 117.783 373.845 110.188C373.1 108.034 372.906 105.728 373.28 103.48C373.754 100.693 374.858 98.0504 376.508 95.7529L359.382 98.4133C360.409 100.126 361.19 101.975 361.703 103.904C363.744 111.96 358.24 115.886 358.24 115.886Z" fill="#DB8B8B"/>
<path d="M389.444 202.51C389.444 202.51 389.066 218.847 385.259 226.826L384.496 250.001C384.496 250.001 385.638 271.279 387.923 275.457C390.208 279.636 382.956 314.969 382.956 314.969V321.051C382.956 321.051 370.765 325.608 367.352 320.289L370.778 275.075L369.258 212.387L389.444 202.51Z" fill="#474463"/>
<path opacity="0.1" d="M389.444 202.51C389.444 202.51 389.066 218.847 385.259 226.826L384.496 250.001C384.496 250.001 385.638 271.279 387.923 275.457C390.208 279.636 382.956 314.969 382.956 314.969V321.051C382.956 321.051 370.765 325.608 367.352 320.289L370.778 275.075L369.258 212.387L389.444 202.51Z" fill="#333570"/>
<path d="M397.057 150.078L399.342 156.16L401.242 169.08C401.499 170.879 401.322 172.714 400.726 174.432C400.131 176.15 399.133 177.701 397.815 178.956C393.251 183.514 387.16 193.012 387.16 193.012L379.936 171.374C379.936 171.374 387.16 170.233 386.026 165.293C384.894 160.352 385.259 151.201 385.259 151.201L397.057 150.078Z" fill="#FC6681"/>
<path opacity="0.05" d="M397.057 150.078L399.342 156.16L401.242 169.08C401.499 170.879 401.322 172.714 400.726 174.432C400.131 176.15 399.133 177.701 397.815 178.956C393.251 183.514 387.16 193.012 387.16 193.012L379.936 171.374C379.936 171.374 387.16 170.233 386.026 165.293C384.894 160.352 385.259 151.201 385.259 151.201L397.057 150.078Z" fill="#333570"/>
<path opacity="0.1" d="M363.234 324.427C368.115 332.09 375.714 327.75 377.059 326.884L376.509 325.206L365.474 322.168C364.916 323.086 364.148 323.861 363.234 324.427Z" fill="#333570"/>
<path d="M347.969 217.328C348.348 222.647 354.819 242.023 354.819 242.023L359.383 257.967C362.654 269.241 364.342 280.914 364.399 292.651C364.399 296.541 364.756 300.553 365.858 303.569C368.902 311.927 362.815 323.328 362.815 323.328C368.143 332.826 377.263 326.366 377.263 326.366V320.289C377.263 320.289 384.488 287.233 382.591 280.777C380.695 274.322 379.927 256.84 379.927 256.84V225.284C386.023 219.22 389.73 211.168 390.37 202.6C390.461 201.356 390.534 200.049 390.583 198.692C390.889 190.127 385.02 180.07 382.727 176.49C382.176 175.625 381.823 175.138 381.823 175.138L348.222 188.445L348.145 188.478V189.776V192.647L347.969 217.328Z" fill="#474463"/>
<path opacity="0.1" d="M359.383 98.4085C360.409 100.122 361.191 101.97 361.704 103.899C363.564 104.604 365.547 104.929 367.535 104.857C369.523 104.784 371.477 104.314 373.28 103.476C373.756 100.69 374.859 98.0494 376.509 95.7529L359.383 98.4085Z" fill="#333570"/>
<path d="M366.995 104.102C375.193 104.102 381.838 97.4682 381.838 89.2844C381.838 81.1008 375.193 74.4668 366.995 74.4668C358.799 74.4668 352.154 81.1008 352.154 89.2844C352.154 97.4682 358.799 104.102 366.995 104.102Z" fill="#DB8B8B"/>
<path opacity="0.1" d="M347.969 192.633L348.132 192.664C364.088 195.942 384.121 179.335 384.121 179.335C383.585 178.431 383.122 177.486 382.735 176.508C382.185 175.643 381.833 175.155 381.833 175.155L348.231 188.463L348.145 189.793L347.969 192.633Z" fill="#333570"/>
<path d="M352.153 115.502C352.153 115.502 373.465 102.582 380.315 107.902L389.828 120.073C389.828 120.073 395.919 121.971 394.794 134.129L399.341 156.16L385.642 159.581C385.642 159.581 377.65 167.181 384.121 178.199C384.121 178.199 363.952 194.914 347.968 191.497L349.111 173.641C349.111 173.641 352.538 163.765 346.446 154.644C340.356 145.525 346.067 136.789 351.775 133.367C351.775 133.362 354.433 118.924 352.153 115.502Z" fill="#FC6681"/>
<path d="M351.012 193.012C351.012 193.012 343.02 194.531 339.215 200.612C338.116 202.436 336.777 204.104 335.232 205.571C334.884 205.885 334.615 206.276 334.445 206.713C334.275 207.15 334.21 207.619 334.253 208.086C334.297 208.552 334.45 209.002 334.698 209.4C334.946 209.797 335.284 210.131 335.684 210.376C338.704 212.179 343.63 213.302 349.852 208.198C360.526 199.472 351.012 193.012 351.012 193.012Z" fill="#DB8B8B"/>
<path opacity="0.1" d="M362.808 122.724C362.808 122.724 370.422 121.962 372.322 141.72C374.223 161.478 377.289 166.036 377.289 166.036C377.289 166.036 379.189 176.296 374.625 182.372C370.06 188.449 361.305 201.369 361.305 201.369C361.305 201.369 351.792 204.029 349.891 194.531L361.689 172.496C361.689 172.496 363.59 164.896 359.025 159.576C354.461 154.257 351.011 118.924 362.808 122.724Z" fill="#333570"/>
<path d="M362.033 121.584C362.033 121.584 369.646 120.822 371.547 140.581C373.447 160.339 376.514 164.896 376.514 164.896C376.514 164.896 378.414 175.156 373.85 181.233C369.285 187.31 360.529 200.23 360.529 200.23C360.529 200.23 351.017 202.889 349.115 193.391L360.914 171.356C360.914 171.356 362.814 163.755 358.249 158.437C353.685 153.117 350.249 117.784 362.033 121.584Z" fill="#FC6681"/>
<path opacity="0.1" d="M355.765 135.828C355.765 135.828 355.007 147.594 358.42 154.068C361.834 160.541 361.847 168.885 358.42 173.451" fill="#333570"/>
<path opacity="0.1" d="M353.865 121.394C353.865 121.394 356.909 118.356 365.663 117.973C374.418 117.59 378.22 114.935 378.22 114.935" fill="#333570"/>
<path opacity="0.1" d="M375.031 70.1393C377.344 70.4233 379.998 71.2168 380.82 73.3851C381.128 74.183 381.136 75.062 381.348 75.8869C382.21 79.2048 385.954 80.751 388.261 83.289C390.297 85.5429 391.196 88.5588 391.873 91.5115C393.774 99.9783 394.231 108.705 393.228 117.324C392.487 123.635 390.971 129.829 390.546 136.158C390.121 142.487 390.898 149.146 394.361 154.465C395.851 156.751 397.82 158.761 398.876 161.276C396.696 163.044 393.684 163.296 390.87 163.39C387.599 163.502 384.326 163.502 381.05 163.39C379.335 163.332 377.542 163.219 376.062 162.354C374.964 161.653 374.064 160.687 373.443 159.545C371.569 156.39 371.099 152.558 371.185 148.879C371.27 145.201 371.849 141.541 371.916 137.858C371.953 135.852 371.794 133.719 370.639 132.079C369.803 130.893 368.534 130.095 367.45 129.135C363.387 125.528 361.979 119.749 361.843 114.317C361.708 108.885 362.606 103.444 362.146 98.0304C361.965 95.9111 361.17 93.3643 359.084 92.954C358.425 92.8232 357.73 92.954 357.098 92.7016C355.423 92.057 355.585 89.6993 355.106 87.9727C354.569 86.0344 352.912 84.5377 352.447 82.5632C351.35 77.9651 357.211 72.4789 361.053 70.8786C364.958 69.2468 370.914 69.6345 375.031 70.1393Z" fill="#333570"/>
<path d="M375.41 69.382C377.722 69.6659 380.377 70.4593 381.199 72.6276C381.506 73.4255 381.515 74.3046 381.727 75.1296C382.59 78.4474 386.332 79.9937 388.64 82.5316C390.676 84.7856 391.575 87.8013 392.252 90.7541C394.152 99.2209 394.61 107.948 393.606 116.566C392.866 122.877 391.349 129.072 390.924 135.401C390.5 141.729 391.276 148.388 394.739 153.707C396.23 155.993 398.199 158.004 399.255 160.519C397.074 162.286 394.062 162.539 391.249 162.633C387.978 162.745 384.704 162.745 381.429 162.633C379.713 162.574 377.92 162.462 376.44 161.596C375.344 160.896 374.442 159.93 373.821 158.788C371.947 155.632 371.478 151.8 371.564 148.122C371.65 144.444 372.228 140.784 372.295 137.1C372.331 135.094 372.173 132.962 371.017 131.321C370.182 130.136 368.913 129.337 367.829 128.377C363.766 124.771 362.357 118.992 362.222 113.56C362.086 108.128 362.985 102.686 362.524 97.2721C362.344 95.1538 361.549 92.6068 359.463 92.1966C358.804 92.0659 358.109 92.1966 357.476 91.9442C355.801 91.2995 355.964 88.9419 355.485 87.2154C354.948 85.2769 353.291 83.7803 352.826 81.8058C351.728 77.2078 357.589 71.7216 361.432 70.1212C365.338 68.4849 371.293 68.8726 375.41 69.382Z" fill="#472727"/>
<defs>
<linearGradient id="paint0_linear" x1="215.996" y1="313.627" x2="215.996" y2="14.9668" gradientUnits="userSpaceOnUse">
<stop stop-color="#808080" stop-opacity="0.25"/>
<stop offset="0.54" stop-color="#808080" stop-opacity="0.12"/>
<stop offset="1" stop-color="#808080" stop-opacity="0.1"/>
</linearGradient>
<linearGradient id="paint1_linear" x1="-127142" y1="222623" x2="-127142" y2="53846.4" gradientUnits="userSpaceOnUse">
<stop stop-color="#808080" stop-opacity="0.25"/>
<stop offset="0.54" stop-color="#808080" stop-opacity="0.12"/>
<stop offset="1" stop-color="#808080" stop-opacity="0.1"/>
</linearGradient>
</defs>
</svg>
