<svg width="17" height="17" viewBox="0 0 17 17" fill="none" xmlns="http://www.w3.org/2000/svg">
<path d="M2.02509 4.05018C3.14352 4.05018 4.05018 3.14352 4.05018 2.02509C4.05018 0.906664 3.14352 0 2.02509 0C0.906664 0 0 0.906664 0 2.02509C0 3.14352 0.906664 4.05018 2.02509 4.05018Z" fill="#8183B1"/>
<path d="M5.9623 5.58479V16.82H9.45068V11.2639C9.45068 9.79787 9.72649 8.37809 11.5443 8.37809C13.337 8.37809 13.3593 10.0542 13.3593 11.3565V16.8209H16.8495V10.6596C16.8495 7.63302 16.1979 5.30713 12.6605 5.30713C10.9621 5.30713 9.82367 6.23915 9.35812 7.1212H9.31092V5.58479H5.9623ZM0.277603 5.58479H3.77153V16.82H0.277603V5.58479Z" fill="#8183B1"/>
</svg>
