<svg width="17" height="17" viewBox="0 0 17 17" fill="none" xmlns="http://www.w3.org/2000/svg">
<path d="M2.02509 4.05018C3.14352 4.05018 4.05018 3.14352 4.05018 2.02509C4.05018 0.906664 3.14352 0 2.02509 0C0.906664 0 0 0.906664 0 2.02509C0 3.14352 0.906664 4.05018 2.02509 4.05018Z" fill="#646464"/>
<path d="M5.96228 5.58504V16.8202H9.45066V11.2642C9.45066 9.79812 9.72647 8.37833 11.5442 8.37833C13.337 8.37833 13.3592 10.0545 13.3592 11.3567V16.8212H16.8495V10.6598C16.8495 7.63327 16.1979 5.30737 12.6605 5.30737C10.9621 5.30737 9.82366 6.2394 9.35811 7.12144H9.3109V5.58504H5.96228ZM0.277588 5.58504H3.77152V16.8202H0.277588V5.58504Z" fill="#646464"/>
</svg>
