<svg width="17" height="17" viewBox="0 0 17 17" fill="none" xmlns="http://www.w3.org/2000/svg">
<path d="M11.8091 0H5.57989C2.71344 0 0.388916 2.32452 0.388916 5.19098V11.4202C0.388916 14.2866 2.71344 16.6111 5.57989 16.6111H11.8091C14.6755 16.6111 17 14.2866 17 11.4202V5.19098C17 2.32452 14.6755 0 11.8091 0ZM15.4428 11.4202C15.4428 13.4239 13.8128 15.0538 11.8091 15.0538H5.57989C3.57618 15.0538 1.94621 13.4239 1.94621 11.4202V5.19098C1.94621 3.18726 3.57618 1.55729 5.57989 1.55729H11.8091C13.8128 1.55729 15.4428 3.18726 15.4428 5.19098V11.4202Z" fill="#646464"/>
<path d="M8.69448 4.15283C6.40111 4.15283 4.5417 6.01224 4.5417 8.30561C4.5417 10.599 6.40111 12.4584 8.69448 12.4584C10.9879 12.4584 12.8473 10.599 12.8473 8.30561C12.8473 6.01224 10.9879 4.15283 8.69448 4.15283ZM8.69448 10.9011C7.26385 10.9011 6.099 9.73625 6.099 8.30561C6.099 6.87394 7.26385 5.71013 8.69448 5.71013C10.1251 5.71013 11.29 6.87394 11.29 8.30561C11.29 9.73625 10.1251 10.9011 8.69448 10.9011Z" fill="#646464"/>
<path d="M13.1587 4.39455C13.4643 4.39455 13.7121 4.14681 13.7121 3.8412C13.7121 3.53559 13.4643 3.28784 13.1587 3.28784C12.8531 3.28784 12.6054 3.53559 12.6054 3.8412C12.6054 4.14681 12.8531 4.39455 13.1587 4.39455Z" fill="#646464"/>
</svg>
