<svg width="17" height="17" viewBox="0 0 17 17" fill="none" xmlns="http://www.w3.org/2000/svg">
<path d="M11.8091 0H5.57989C2.71344 0 0.388916 2.32452 0.388916 5.19098V11.4202C0.388916 14.2866 2.71344 16.6111 5.57989 16.6111H11.8091C14.6755 16.6111 17 14.2866 17 11.4202V5.19098C17 2.32452 14.6755 0 11.8091 0ZM15.4428 11.4202C15.4428 13.4239 13.8128 15.0538 11.8091 15.0538H5.57989C3.57618 15.0538 1.94621 13.4239 1.94621 11.4202V5.19098C1.94621 3.18726 3.57618 1.55729 5.57989 1.55729H11.8091C13.8128 1.55729 15.4428 3.18726 15.4428 5.19098V11.4202Z" fill="#8183B1"/>
<path d="M8.69447 4.15283C6.4011 4.15283 4.54169 6.01224 4.54169 8.30561C4.54169 10.599 6.4011 12.4584 8.69447 12.4584C10.9878 12.4584 12.8473 10.599 12.8473 8.30561C12.8473 6.01224 10.9878 4.15283 8.69447 4.15283ZM8.69447 10.9011C7.26384 10.9011 6.09898 9.73625 6.09898 8.30561C6.09898 6.87394 7.26384 5.71013 8.69447 5.71013C10.1251 5.71013 11.29 6.87394 11.29 8.30561C11.29 9.73625 10.1251 10.9011 8.69447 10.9011Z" fill="#8183B1"/>
<path d="M13.1587 4.39431C13.4643 4.39431 13.7121 4.14656 13.7121 3.84095C13.7121 3.53534 13.4643 3.2876 13.1587 3.2876C12.8531 3.2876 12.6053 3.53534 12.6053 3.84095C12.6053 4.14656 12.8531 4.39431 13.1587 4.39431Z" fill="#8183B1"/>
</svg>
