<svg width="81" height="57" viewBox="0 0 81 57" fill="none" xmlns="http://www.w3.org/2000/svg">
<path d="M80.0966 5.6283C79.6966 4.5283 78.7966 3.6283 77.8966 3.0283C77.1966 2.6283 75.9966 1.9283 75.2966 2.1283C74.9966 2.2283 74.7966 2.6283 74.6966 2.8283C73.1966 5.1283 71.5966 7.2283 69.8966 9.3283C68.8966 10.5283 67.9966 11.7283 67.0966 12.9283C66.5966 13.5283 66.0966 14.2283 65.5966 14.8283C64.2966 16.6283 63.0966 18.4283 61.7966 20.2283C60.9966 21.4283 60.1966 22.5283 59.1966 23.6283C57.5966 25.5283 55.8966 27.4283 54.0966 29.2283C52.8966 30.5283 51.5966 31.7283 50.3966 33.0283C49.1966 34.3283 47.9966 35.5283 46.5966 36.6283C45.7966 37.2283 44.9966 37.7283 43.9966 38.1283C43.4966 38.3283 43.2966 38.2283 43.2966 37.6283C43.2966 37.1283 43.3966 36.7283 43.4966 36.2283C44.0966 33.9283 44.6966 31.6283 45.6966 29.5283C46.5966 27.4283 47.6966 25.4283 48.8966 23.4283C50.2966 20.9283 51.8966 18.4283 53.5966 16.0283C54.7966 14.2283 55.8966 12.4283 56.9966 10.6283C57.7966 9.3283 58.1966 7.8283 58.6966 6.4283C58.8966 5.9283 58.7966 5.4283 58.7966 4.9283C58.6966 3.8283 58.0966 2.8283 57.1966 2.1283C54.8966 0.228299 52.2966 -0.271701 49.3966 0.128299C48.4966 0.228299 47.5966 0.628299 46.6966 0.928299C45.8966 1.0283 44.9966 1.2283 44.0966 1.4283C40.6966 1.9283 37.1966 2.8283 33.7966 3.6283C30.4966 4.4283 27.0966 5.0283 23.8966 6.3283C23.2966 6.5283 22.5966 6.7283 21.9966 6.9283C21.2966 7.1283 20.6966 7.4283 19.8966 7.2283C18.7966 7.0283 17.8966 7.3283 17.2966 8.4283C17.0966 8.8283 16.6966 9.0283 16.2966 9.3283C15.1966 10.0283 13.9966 10.5283 12.8966 11.2283C10.7966 12.5283 8.59657 13.9283 6.69657 15.5283C5.49657 16.4283 4.69657 17.6283 4.69657 19.1283C4.69657 20.6283 4.99657 22.1283 5.79657 23.4283C5.99657 23.7283 6.29657 24.0283 6.59657 24.2283C7.09657 24.5283 7.69657 24.3283 7.79657 23.8283C7.99657 23.0283 8.29657 22.3283 8.79657 21.7283C9.49657 20.8283 10.4966 20.1283 11.4966 19.5283C11.5966 19.4283 11.7966 19.5283 11.7966 19.5283C11.8966 19.6283 11.8966 19.7283 11.8966 19.8283C10.7966 22.4283 9.79657 25.1283 8.69657 27.7283C8.49657 28.1283 8.19657 28.4283 7.69657 28.6283C5.79657 29.6283 3.79657 30.7283 1.89657 31.8283C1.39657 32.1283 0.896575 32.4283 0.496575 32.8283C-0.00342545 33.2283 -0.103425 33.6283 0.0965745 34.1283C0.596575 35.3283 1.39657 36.2283 2.39657 36.9283C2.89657 37.2283 3.39657 37.2283 3.89657 36.9283C4.19657 36.7283 4.39657 36.5283 4.69657 36.3283C4.99657 36.1283 5.29657 36.0283 5.49657 35.8283C5.49657 35.8283 5.69657 35.7283 5.69657 35.8283C5.69657 35.9283 5.79657 36.0283 5.79657 36.1283C5.19657 38.3283 4.49657 40.5283 4.09657 42.7283C3.79657 44.5283 3.89657 46.6283 5.09657 48.1283C6.29657 49.6283 7.89657 50.6283 9.69657 51.1283C9.79657 51.1283 9.79657 51.1283 9.89657 51.1283C10.5966 51.1283 11.4966 50.6283 11.1966 49.8283C11.0966 49.5283 10.8966 49.3283 10.7966 49.0283C9.99657 47.7283 10.0966 45.9283 10.1966 44.4283C10.3966 42.8283 10.7966 41.2283 11.2966 39.7283C11.9966 37.3283 12.8966 35.0283 13.4966 32.6283C13.8966 31.2283 14.7966 30.5283 15.9966 29.9283C18.5966 28.8283 21.1966 27.6283 23.7966 26.5283C26.5966 25.4283 29.2966 24.0283 32.3966 23.8283C33.9966 23.7283 32.7966 21.7283 32.1966 21.1283C31.3966 20.2283 30.0966 19.2283 28.8966 19.6283C27.4966 20.1283 26.0966 20.5283 24.6966 21.1283C22.2966 22.1283 19.8966 23.1283 17.5966 24.1283C17.3966 24.2283 17.1966 24.1283 16.9966 24.2283C16.9966 24.0283 16.8966 23.8283 16.9966 23.7283C17.6966 22.0283 18.4966 20.4283 19.1966 18.8283C19.7966 17.6283 20.3966 16.3283 20.7966 15.1283C21.0966 14.3283 21.4966 13.9283 22.1966 13.7283C25.1966 12.6283 28.2966 11.6283 31.4966 10.9283C32.2966 10.7283 33.1966 10.5283 33.9966 10.3283C33.5966 10.9283 33.1966 11.4283 32.7966 12.1283C32.0966 13.4283 31.4966 14.8283 31.0966 16.2283C30.7966 17.6283 31.1966 19.1283 31.9966 20.3283C32.6966 21.3283 33.4966 22.4283 34.5966 23.2283C35.1966 23.7283 35.7966 23.7283 36.4966 23.5283C36.9966 23.4283 37.2966 22.9283 37.0966 22.4283C36.9966 22.0283 36.8966 21.7283 36.7966 21.3283C36.2966 19.7283 36.5966 18.1283 37.1966 16.7283C38.1966 14.3283 39.5966 12.2283 41.4966 10.4283C42.2966 9.6283 43.1966 8.9283 44.0966 8.2283C44.7966 8.1283 45.4966 7.9283 46.1966 7.8283C47.9966 7.4283 49.8966 7.1283 51.6966 6.7283C51.5966 6.8283 51.4966 7.0283 51.3966 7.1283C50.4966 8.6283 49.4966 10.1283 48.4966 11.5283C47.9966 12.2283 47.4966 13.0283 46.9966 13.7283C43.5966 18.8283 40.4966 24.5283 38.4966 30.3283C37.8966 32.1283 37.2966 34.1283 37.2966 36.0283C37.2966 36.5283 37.3966 36.9283 37.5966 37.4283C38.8966 39.7283 41.0966 41.9283 43.8966 41.8283C44.8966 41.8283 45.8966 41.6283 46.8966 41.2283C48.0966 40.6283 49.1966 39.8283 50.0966 38.9283C52.0966 37.1283 53.6966 35.0283 55.5966 33.1283C56.6966 32.0283 57.7966 30.8283 58.8966 29.5283C60.1966 27.9283 61.5966 26.3283 62.7966 24.6283C62.9966 24.4283 62.7966 26.2283 62.2966 27.2283C61.6966 28.4283 61.1966 29.6283 60.5966 30.8283C60.3966 31.4283 59.9966 32.0283 59.6966 32.6283C58.5966 34.9283 57.4966 37.1283 56.3966 39.4283C55.5966 41.0283 54.6966 42.6283 53.8966 44.2283C52.9966 46.2283 51.8966 48.1283 50.7966 50.0283C50.4966 50.6283 50.0966 51.2283 49.5966 51.6283C48.9966 52.2283 48.2966 52.7283 47.4966 53.1283C46.2966 53.7283 45.2966 53.3283 44.1966 52.7283C42.8966 51.9283 41.3966 51.2283 39.8966 50.7283C39.7966 50.7283 39.6966 50.7283 39.6966 50.8283C39.6966 50.9283 39.5966 51.1283 39.6966 51.2283C39.7966 51.4283 39.8966 51.5283 39.9966 51.7283C40.5966 52.3283 41.1966 53.0283 41.7966 53.5283C43.0966 54.7283 44.5966 55.6283 46.1966 56.3283C47.0966 56.7283 48.0966 56.8283 49.0966 56.9283C51.4966 57.2283 53.3966 56.4283 54.9966 54.6283C56.1966 53.2283 57.1966 51.6283 58.0966 50.0283C58.6966 48.8283 59.2966 47.5283 59.9966 46.3283C61.2966 43.7283 62.6966 41.0283 63.9966 38.4283C65.3966 35.7283 66.6966 33.1283 67.8966 30.3283C68.6966 28.5283 69.3966 26.7283 70.4966 25.0283C70.9966 24.3283 71.2966 23.5283 71.6966 22.7283C72.7966 20.5283 73.8966 18.4283 75.0966 16.3283C75.1966 16.1283 75.3966 15.8283 75.4966 15.5283C76.0966 14.3283 76.6966 13.0283 77.2966 11.8283C78.0966 10.3283 78.8966 8.8283 79.6966 7.3283C80.1966 6.5283 80.1966 6.1283 80.0966 5.6283Z" fill="white"/>
</svg>
