<svg width="40" height="40" viewBox="0 0 40 40" fill="none" xmlns="http://www.w3.org/2000/svg">
<path fill-rule="evenodd" clip-rule="evenodd" d="M6.36364 8C5.56031 8 4.90909 8.67157 4.90909 9.5V24.5C4.90909 25.3284 5.56031 26 6.36364 26H29.6364C30.4397 26 31.0909 25.3284 31.0909 24.5V9.5C31.0909 8.67157 30.4397 8 29.6364 8H6.36364ZM2 9.5C2 7.01472 3.95367 5 6.36364 5H29.6364C32.0463 5 34 7.01472 34 9.5V24.5C34 26.9853 32.0463 29 29.6364 29H6.36364C3.95367 29 2 26.9853 2 24.5V9.5Z" fill="#FF6340"/>
<path fill-rule="evenodd" clip-rule="evenodd" d="M10 33.5C10 32.6716 10.6716 32 11.5 32H23.5C24.3284 32 25 32.6716 25 33.5C25 34.3284 24.3284 35 23.5 35H11.5C10.6716 35 10 34.3284 10 33.5Z" fill="#FF6340"/>
<path fill-rule="evenodd" clip-rule="evenodd" d="M17.5 26C18.3284 26 19 26.6716 19 27.5V33.5C19 34.3284 18.3284 35 17.5 35C16.6716 35 16 34.3284 16 33.5V27.5C16 26.6716 16.6716 26 17.5 26Z" fill="#FF6340"/>
</svg>
