<svg width="37" height="23" viewBox="0 0 37 23" fill="none" xmlns="http://www.w3.org/2000/svg">
<path d="M33.5335 3.94073H27.9736C27.6712 3.94073 27.4262 4.18604 27.4262 4.48809C27.4262 4.79042 27.6712 5.03545 27.9736 5.03545H33.5335C34.8413 5.03545 35.9053 6.09939 35.9053 7.40751V14.9971C35.9053 16.3049 34.8413 17.3689 33.5335 17.3689H26.0168C25.7144 17.3689 25.4694 17.6139 25.4694 17.9162V20.244L22.7549 17.5292C22.6522 17.4265 22.513 17.3689 22.3679 17.3689H17.9162C16.6084 17.3689 15.5442 16.3049 15.5442 14.9971V7.40723C15.5442 6.09939 16.6081 5.03545 17.9162 5.03545H25.4146C25.717 5.03545 25.962 4.79042 25.962 4.48809C25.962 4.18576 25.717 3.94073 25.4146 3.94073H22.5503V3.46649C22.5503 1.55512 20.9951 0 19.0838 0H3.46649C1.55512 0 0 1.55512 0 3.46649V4.67666C0 4.97899 0.245026 5.22401 0.547356 5.22401C0.849686 5.22401 1.09471 4.97899 1.09471 4.67666V3.46649C1.09471 2.15865 2.15865 1.09471 3.46649 1.09471H19.0838C20.3916 1.09471 21.4556 2.15865 21.4556 3.46649V3.94073H17.9162C16.0049 3.94073 14.4497 5.49586 14.4497 7.40723V13.4279H8.72099C8.41866 13.4279 8.17364 13.6729 8.17364 13.9752V16.303L5.45916 13.5882C5.35641 13.4854 5.21724 13.4279 5.07214 13.4279H3.46649C2.15865 13.4279 1.09471 12.3639 1.09471 11.0561V7.22176C1.09471 6.91943 0.849686 6.67441 0.547356 6.67441C0.245026 6.67441 0 6.91943 0 7.22176V11.0561C0 12.9677 1.55512 14.5226 3.46649 14.5226H4.84518L8.33398 18.0114C8.43871 18.1161 8.57872 18.1717 8.72099 18.1714C8.79156 18.1714 8.8627 18.1579 8.93045 18.1299C9.13483 18.0452 9.26835 17.8457 9.26835 17.6243V14.5226H14.4497V14.9971C14.4497 16.9085 16.0049 18.4633 17.9162 18.4633H22.1412L25.6297 21.9521C25.7345 22.0568 25.8745 22.1124 26.0168 22.1124C26.0873 22.1124 26.1585 22.0989 26.2262 22.0707C26.4306 21.986 26.5641 21.7864 26.5641 21.5651V18.4633H33.5335C35.4449 18.4633 37 16.9085 37 14.9971V7.40723C37 5.49586 35.4449 3.94073 33.5335 3.94073Z" fill="#FF6340" stroke="#FF6340"/>
</svg>
