<svg width="38" height="38" viewBox="0 0 38 38" fill="none" xmlns="http://www.w3.org/2000/svg">
<path d="M17.191 24.9526C17.4385 24.6976 17.4385 24.2848 17.191 24.0298C16.9432 23.7755 16.5419 23.7755 16.2939 24.0298C16.0466 24.2848 16.0466 24.6976 16.2939 24.9526C16.5419 25.2069 16.9432 25.2069 17.191 24.9526Z" fill="#FF6340" stroke="#FF6340" stroke-width="0.6"/>
<path d="M14.1882 9.47542C14.1882 13.4303 17.3173 16.6481 21.1633 16.6481C25.0094 16.6481 28.1385 13.4303 28.1385 9.47542C28.1385 5.52054 25.0094 2.30298 21.1633 2.30298C17.3173 2.30298 14.1882 5.52054 14.1882 9.47542ZM26.8704 9.47542C26.8704 12.7113 24.3102 15.3439 21.1633 15.3439C18.0165 15.3439 15.4563 12.7113 15.4563 9.47542C15.4563 6.23977 18.0165 3.60717 21.1633 3.60717C24.3102 3.60717 26.8704 6.23977 26.8704 9.47542Z" fill="#FF6340" stroke="#FF6340" stroke-width="0.6"/>
<path d="M9.57068 35.5042C9.81646 35.759 10.2166 35.7618 10.4656 35.5096L13.5399 32.3952C14.0622 31.8581 14.221 31.063 13.9913 30.3717L14.6526 29.716C15.0086 29.3623 15.4774 29.1674 15.973 29.1674H24.4027C25.8982 29.1674 27.3117 28.5769 28.3833 27.5045C28.4274 27.4604 28.0486 27.9193 34.1342 20.4401C35.0368 19.342 34.9018 17.6931 33.8329 16.7639C32.7708 15.8434 31.1796 15.9757 30.2745 17.0549L26.5327 21.0095C26.0603 20.4115 25.3398 20.0388 24.5613 20.0388H17.4903C16.4841 19.6059 15.4165 19.3868 14.3149 19.3868C11.2614 19.3868 8.59522 20.837 7.16438 23.556C6.56156 23.4385 5.92579 23.6261 5.46842 24.0964L2.45187 27.2074C2.20559 27.4614 2.20509 27.8724 2.45087 28.1272L9.57068 35.5042ZM14.3147 20.6908C15.2859 20.6908 16.2249 20.8918 17.1062 21.2882C17.1865 21.3244 17.273 21.343 17.3604 21.343H24.5613C25.2488 21.343 25.8296 21.9196 25.8296 22.6469C25.8296 23.3662 25.2607 23.9511 24.5613 23.9511H19.3877C19.0376 23.9511 18.7536 24.2431 18.7536 24.6031C18.7536 24.9634 19.0376 25.2551 19.3877 25.2551H24.5613C25.9599 25.2551 27.0977 24.0852 27.0977 22.6469C27.0977 22.5323 27.0897 22.4187 27.0754 22.3061C30.695 18.4801 31.2054 17.9425 31.2272 17.9158C31.6791 17.3672 32.4814 17.2977 33.015 17.7604C33.5492 18.2248 33.6169 19.0493 33.1637 19.6009L27.4762 26.5924C26.6457 27.4123 25.5553 27.8635 24.4027 27.8635H15.973C15.1469 27.8635 14.365 28.1883 13.7718 28.7776L13.2329 29.3124L8.2652 24.2044C9.42623 21.9647 11.6048 20.6908 14.3147 20.6908ZM6.36583 25.0179C6.57494 24.8029 6.89605 24.7641 7.151 24.9262C7.26076 24.995 6.9456 24.6999 12.6432 30.5506C12.8967 30.8112 12.8831 31.2265 12.6467 31.4696L10.0258 34.1246L3.79525 27.6688L6.36583 25.0179Z" fill="#FF6340" stroke="#FF6340" stroke-width="0.6"/>
<path d="M20.4026 5.56336V6.32743C19.6645 6.59647 19.1343 7.32131 19.1343 8.1715C19.1343 9.24996 19.9876 10.1277 21.0366 10.1277C21.3862 10.1277 21.6707 10.4201 21.6707 10.7796C21.6707 11.1391 21.3862 11.4316 21.0366 11.4316C20.7658 11.4316 20.4732 11.2566 20.2133 10.9384C19.9878 10.6627 19.5879 10.6273 19.3199 10.8589C19.0518 11.0907 19.0171 11.5019 19.2426 11.7776C19.5815 12.1921 19.9802 12.481 20.4026 12.6268V13.3878C20.4026 13.748 20.6865 14.0397 21.0366 14.0397C21.3867 14.0397 21.6707 13.748 21.6707 13.3878V12.6237C22.4088 12.3544 22.939 11.6296 22.939 10.7796C22.939 9.70092 22.0857 8.82347 21.0366 8.82347C20.687 8.82347 20.4026 8.53099 20.4026 8.1715C20.4026 7.81201 20.687 7.51927 21.0366 7.51927C21.2614 7.51927 21.4985 7.63723 21.7225 7.86016C21.9742 8.11061 22.3756 8.10373 22.6191 7.84513C22.8627 7.58628 22.856 7.17354 22.6045 6.9231C22.2827 6.60284 21.9606 6.4217 21.6707 6.32284V5.56336C21.6707 5.20311 21.3867 4.91113 21.0366 4.91113C20.6865 4.91113 20.4026 5.20311 20.4026 5.56336Z" fill="#FF6340" stroke="#FF6340" stroke-width="0.6"/>
</svg>
