<svg width="30" height="31" viewBox="0 0 30 31" fill="none" xmlns="http://www.w3.org/2000/svg">
<path d="M13.9419 26.6477C7.52723 26.6477 2.30762 21.6395 2.30762 15.4844C2.30762 9.32939 7.52723 4.32104 13.9419 4.32104C16.1725 4.32104 18.3427 4.93092 20.218 6.08582C20.5861 6.31327 20.694 6.78415 20.457 7.13833C20.2191 7.49251 19.7294 7.5949 19.3602 7.36764C17.742 6.36995 15.8679 5.84332 13.9419 5.84332C8.40181 5.84332 3.89411 10.1686 3.89411 15.4844C3.89411 20.8001 8.40181 25.1254 13.9419 25.1254C19.4819 25.1254 23.9896 20.8001 23.9896 15.4844C23.9896 15.1667 23.9737 14.8521 23.9431 14.5427C23.9009 14.1235 24.2202 13.752 24.656 13.7115C25.0938 13.6728 25.4798 13.9774 25.5222 14.3955C25.558 14.7538 25.5761 15.1171 25.5761 15.4844C25.5761 21.6395 20.3566 26.6477 13.9419 26.6477Z" fill="#FF6340" stroke="#FF6340" stroke-width="0.999969"/>
<path d="M15.264 18.0215C15.061 18.0215 14.8579 17.9473 14.7035 17.7983L9.94407 13.2315C9.6342 12.934 9.6342 12.452 9.94407 12.1546C10.2539 11.8573 10.7563 11.8573 11.0662 12.1546L15.2652 16.1837L26.3377 5.55917C26.6477 5.26185 27.1501 5.26185 27.4599 5.55917C27.7698 5.85649 27.7698 6.33852 27.4599 6.63584L15.8256 17.7992C15.6701 17.9473 15.4671 18.0215 15.264 18.0215Z" fill="#FF6340" stroke="#FF6340" stroke-width="0.999969"/>
</svg>
