<svg width="45" height="45" viewBox="0 0 45 45" fill="none" xmlns="http://www.w3.org/2000/svg">
<g clip-path="url(#clip0)">
<path d="M31.9355 18.1451C26.7329 18.1451 22.5 22.3781 22.5 27.5806C22.5 32.7832 26.7329 37.0161 31.9355 37.0161C37.138 37.0161 41.371 32.7832 41.371 27.5806C41.371 22.3781 37.138 18.1451 31.9355 18.1451ZM31.9355 35.5645C27.5335 35.5645 23.9516 31.9826 23.9516 27.5806C23.9516 23.1787 27.5335 19.5968 31.9355 19.5968C36.3375 19.5968 39.9194 23.1787 39.9194 27.5806C39.9194 31.9826 36.3375 35.5645 31.9355 35.5645Z" fill="white"/>
<path d="M15.2418 26.3923V16.6935H16.6934V22.5C16.6934 22.9004 17.0188 23.2258 17.4192 23.2258H20.3225C20.7229 23.2258 21.0483 22.9004 21.0483 22.5V14.5161C21.0483 13.3157 20.0712 12.3387 18.8708 12.3387H16.6934V10.1613H22.4999V16.6935H23.9515V7.02342L30.7538 4.30271C31.0288 4.19214 31.2096 3.92598 31.2096 3.629C31.2096 3.33201 31.0288 3.06586 30.7538 2.95458L23.4957 0.0513534C23.2721 -0.0368916 23.0187 -0.0103118 22.8192 0.124714C22.6197 0.259739 22.4999 0.484782 22.4999 0.725772V5.80642H11.6128C9.61185 5.80642 7.98375 7.43452 7.98375 9.43545V15.9677C7.98375 16.3682 8.30908 16.6935 8.70955 16.6935H10.887V26.3923C6.73237 27.3797 3.62891 31.1125 3.62891 35.5645C3.62891 40.767 7.86183 45 13.0644 45C18.267 45 22.4999 40.767 22.4999 35.5645C22.4999 31.1125 19.3964 27.3797 15.2418 26.3923ZM23.9515 1.79782L28.53 3.629L23.9515 5.46017V1.79782ZM10.887 11.6129V15.2419H9.43536V9.43545C9.43536 8.2351 10.4124 7.25803 11.6128 7.25803H22.4999V8.70964H15.9676C15.5671 8.70964 15.2418 9.03498 15.2418 9.43545V13.0645C15.2418 13.465 15.5671 13.7903 15.9676 13.7903H18.8708C19.2706 13.7903 19.5967 14.1163 19.5967 14.5161V21.7742H18.145V15.9677C18.145 15.5672 17.8197 15.2419 17.4192 15.2419H14.516C14.1155 15.2419 13.7902 15.5672 13.7902 15.9677V26.1659C13.5499 26.1471 13.3096 26.129 13.0644 26.129C12.8191 26.129 12.5789 26.1471 12.3386 26.1659V11.6129H10.887ZM13.0644 43.5484C8.66242 43.5484 5.08052 39.9665 5.08052 35.5645C5.08052 31.1625 8.66242 27.5806 13.0644 27.5806C17.4664 27.5806 21.0483 31.1625 21.0483 35.5645C21.0483 39.9665 17.4664 43.5484 13.0644 43.5484Z" fill="white"/>
<path d="M15.9676 3.62903V2.17742C15.9676 0.977074 14.9906 0 13.7902 0C12.5899 0 11.6128 0.977074 11.6128 2.17742V3.62903C11.6128 4.82938 12.5899 5.80645 13.7902 5.80645C14.9906 5.80645 15.9676 4.82938 15.9676 3.62903ZM14.516 3.62903C14.516 4.02879 14.19 4.35484 13.7902 4.35484C13.3905 4.35484 13.0644 4.02879 13.0644 3.62903V2.17742C13.0644 1.77766 13.3905 1.45161 13.7902 1.45161C14.19 1.45161 14.516 1.77766 14.516 2.17742V3.62903Z" fill="white"/>
<path d="M14.0146 31.5894C13.3037 31.5894 12.707 31.7607 12.2246 32.1035C11.9368 32.3066 11.6766 32.5944 11.4438 32.9668C11.2069 33.3519 11.0672 33.7179 11.0249 34.0649H15.354L15.1826 34.9155H10.9233C10.9191 35.0044 10.917 35.089 10.917 35.1694C10.917 35.4953 10.9191 35.6899 10.9233 35.7534H15.0112L14.8335 36.604H11.0566C11.2344 37.5731 11.6618 38.2607 12.3389 38.667C12.8255 38.959 13.3524 39.105 13.9194 39.105C14.7108 39.105 15.3286 38.8976 15.7729 38.4829V39.7905C15.244 40.036 14.66 40.1587 14.021 40.1587C12.1082 40.1587 10.8154 39.3631 10.1426 37.772C10.0072 37.4504 9.89079 37.061 9.79346 36.604H8.82227L9 35.7534H9.6665C9.65381 35.5757 9.64746 35.3831 9.64746 35.1758C9.64746 35.0911 9.64958 35.0044 9.65381 34.9155H8.82227L9 34.0649H9.73633C9.9987 32.6854 10.6821 31.6951 11.7866 31.0942C12.4679 30.7218 13.2191 30.5356 14.04 30.5356C14.8271 30.5356 15.4894 30.707 16.0269 31.0498L15.7729 32.2305C15.2567 31.8031 14.6706 31.5894 14.0146 31.5894Z" fill="white"/>
<path d="M33.0146 23.5894C32.3037 23.5894 31.707 23.7607 31.2246 24.1035C30.9368 24.3066 30.6766 24.5944 30.4438 24.9668C30.2069 25.3519 30.0672 25.7179 30.0249 26.0649H34.354L34.1826 26.9155H29.9233C29.9191 27.0044 29.917 27.089 29.917 27.1694C29.917 27.4953 29.9191 27.6899 29.9233 27.7534H34.0112L33.8335 28.604H30.0566C30.2344 29.5731 30.6618 30.2607 31.3389 30.667C31.8255 30.959 32.3524 31.105 32.9194 31.105C33.7108 31.105 34.3286 30.8976 34.7729 30.4829V31.7905C34.244 32.036 33.66 32.1587 33.021 32.1587C31.1082 32.1587 29.8154 31.3631 29.1426 29.772C29.0072 29.4504 28.8908 29.061 28.7935 28.604H27.8223L28 27.7534H28.6665C28.6538 27.5757 28.6475 27.3831 28.6475 27.1758C28.6475 27.0911 28.6496 27.0044 28.6538 26.9155H27.8223L28 26.0649H28.7363C28.9987 24.6854 29.6821 23.6951 30.7866 23.0942C31.4679 22.7218 32.2191 22.5356 33.04 22.5356C33.8271 22.5356 34.4894 22.707 35.0269 23.0498L34.7729 24.2305C34.2567 23.8031 33.6706 23.5894 33.0146 23.5894Z" fill="white"/>
</g>
<defs>
<clipPath id="clip0">
<rect width="45" height="45" fill="white"/>
</clipPath>
</defs>
</svg>
