<svg width="38" height="38" viewBox="0 0 38 38" fill="none" xmlns="http://www.w3.org/2000/svg">
<path d="M35.1621 20.2571V16.8544C35.1621 16.262 34.6818 15.7817 34.0894 15.7817C31.8733 15.7817 29.8073 15.9687 27.8553 16.3506C26.7174 15.2518 25.3303 14.4546 23.8281 14.0188C25.4661 12.6403 26.5089 10.5762 26.5089 8.27275C26.5089 4.09283 23.1404 0.692261 18.9999 0.692261C14.8595 0.692261 11.4909 4.09283 11.4909 8.27275C11.4909 10.5762 12.5338 12.6403 14.1718 14.0188C12.6696 14.4546 11.2825 15.2518 10.1446 16.3506C8.19264 15.9687 6.1266 15.7817 3.91052 15.7817C3.31809 15.7817 2.83781 16.262 2.83781 16.8544V20.257C1.58924 20.6998 0.692383 21.8922 0.692383 23.2906V25.4361C0.692383 26.8345 1.58924 28.0269 2.83781 28.4697V31.8723C2.83781 32.4648 3.31809 32.945 3.91052 32.945C9.51929 32.945 14.125 34.274 18.405 37.1273C18.7636 37.3663 19.2361 37.3668 19.5951 37.1273C23.875 34.274 28.4807 32.945 34.0895 32.945C34.682 32.945 35.1622 32.4648 35.1622 31.8723V28.4697C36.4108 28.0269 37.3077 26.8345 37.3077 25.4361V23.2906C37.3075 21.8923 36.4107 20.6999 35.1621 20.2571ZM13.6364 8.27275C13.6364 5.27581 16.0425 2.83768 18.9999 2.83768C21.9574 2.83768 24.3635 5.27581 24.3635 8.27275C24.3635 11.2302 21.9574 13.6363 18.9999 13.6363C16.0425 13.6363 13.6364 11.2302 13.6364 8.27275ZM3.91045 26.5088C3.31895 26.5088 2.83773 26.0276 2.83773 25.4361V23.2907C2.83773 22.6992 3.31895 22.218 3.91045 22.218C4.50194 22.218 4.98316 22.6992 4.98316 23.2907V25.4361C4.98316 26.0276 4.50194 26.5088 3.91045 26.5088ZM17.9272 34.31C14.033 32.0829 9.85427 30.9574 4.98316 30.8151V28.4698C6.23172 28.0269 7.12858 26.8346 7.12858 25.4361V23.2907C7.12858 21.8923 6.23172 20.6999 4.98316 20.2571V17.9423C10.0235 18.087 14.075 19.2739 17.9272 21.7266V34.31ZM18.9999 19.868C17.02 18.6187 14.9591 17.6675 12.759 16.999C13.9679 16.2134 15.391 15.7817 16.8545 15.7817H21.1453C22.6089 15.7817 24.0319 16.2134 25.2408 16.999C23.0407 17.6675 20.9798 18.6187 18.9999 19.868ZM33.0167 30.8151C28.1456 30.9574 23.9667 32.0832 20.0726 34.3101V21.7274C23.9249 19.2746 27.9761 18.0869 33.0167 17.9423V20.2571C31.7681 20.6999 30.8713 21.8923 30.8713 23.2907V25.4361C30.8713 26.8346 31.7681 28.0269 33.0167 28.4698V30.8151ZM35.1621 25.4361C35.1621 26.0276 34.6809 26.5088 34.0894 26.5088C33.4979 26.5088 33.0167 26.0276 33.0167 25.4361V23.2907C33.0167 22.6992 33.4979 22.218 34.0894 22.218C34.6809 22.218 35.1621 22.6992 35.1621 23.2907V25.4361Z" fill="white" stroke="#FF6340" stroke-width="0.5"/>
</svg>
