<svg width="41" height="41" viewBox="0 0 41 41" fill="none" xmlns="http://www.w3.org/2000/svg">
<g clip-path="url(#clip0)">
<path d="M8.4733 34.0529H3.05215C2.67793 34.0529 2.37451 34.3563 2.37451 34.7305V40.1516C2.37451 40.5259 2.67793 40.8293 3.05215 40.8293H8.4733C8.84752 40.8293 9.15094 40.5259 9.15094 40.1516V34.7305C9.15094 34.3562 8.84761 34.0529 8.4733 34.0529ZM7.79565 39.474H3.7298V35.4081H7.79565V39.474Z" fill="white"/>
<path d="M18.6378 32.02H13.2167C12.8425 32.02 12.5391 32.3234 12.5391 32.6977V40.1517C12.5391 40.526 12.8425 40.8294 13.2167 40.8294H18.6378C19.0121 40.8294 19.3155 40.526 19.3155 40.1517V32.6977C19.3155 32.3233 19.0122 32.02 18.6378 32.02ZM17.9602 39.4741H13.8943V33.3753H17.9602V39.4741Z" fill="white"/>
<path d="M28.8024 29.3094H23.3813C23.007 29.3094 22.7036 29.6129 22.7036 29.9871V40.1517C22.7036 40.526 23.007 40.8294 23.3813 40.8294H28.8024C29.1766 40.8294 29.48 40.526 29.48 40.1517V29.9871C29.48 29.6128 29.1767 29.3094 28.8024 29.3094ZM28.1248 39.4741H24.0589V30.6647H28.1248V39.4741Z" fill="white"/>
<path d="M38.9669 23.2106H33.5458C33.1716 23.2106 32.8682 23.514 32.8682 23.8882V40.1516C32.8682 40.5259 33.1716 40.8293 33.5458 40.8293H38.9669C39.3412 40.8293 39.6446 40.5259 39.6446 40.1516V23.8882C39.6446 23.5139 39.3413 23.2106 38.9669 23.2106ZM38.2893 39.474H34.2234V24.5659H38.2893V39.474Z" fill="white"/>
<path d="M36.2567 6.26957H34.6426L34.7237 6.1071C35.2383 5.07793 34.8211 3.8265 33.7919 3.31191C32.8182 2.82511 31.6339 3.16995 31.0738 4.10331L30.1794 5.59413L29.285 4.10331C28.6927 3.11675 27.4128 2.79716 26.4263 3.38942C25.4932 3.94957 25.1486 5.13358 25.635 6.1071L25.7162 6.26957H24.059C23.6848 6.26957 23.3813 6.57298 23.3813 6.94721V10.3354C23.3813 10.7096 23.6848 11.0131 24.059 11.0131H24.7366V17.1118C24.7366 17.4861 25.04 17.7895 25.4143 17.7895H34.9013C35.2755 17.7895 35.5789 17.4861 35.5789 17.1118V11.0131H36.2566C36.6308 11.0131 36.9342 10.7096 36.9342 10.3354V6.94721C36.9344 6.5729 36.631 6.26957 36.2567 6.26957ZM28.125 16.4342H26.0921V11.0131H28.125V16.4342ZM28.125 9.65778H24.7368V7.62485H28.125V9.65778ZM27.2317 6.26957L26.8475 5.50095C26.6676 5.14138 26.8133 4.70396 27.1728 4.52404C27.5132 4.35379 27.9273 4.47432 28.123 4.80078L29.0041 6.26957H27.2317ZM30.8356 16.4342H29.4803V11.0131H30.8356V16.4342ZM30.8356 9.65778H29.4803V7.62485H30.8356V9.65778ZM32.2359 4.80078C32.4426 4.45586 32.8898 4.34379 33.2347 4.55056C33.5612 4.74623 33.6819 5.16052 33.5115 5.50095L33.1273 6.26957H31.3547L32.2359 4.80078ZM34.2238 16.4342H32.1909V11.0131H34.2238V16.4342ZM35.5791 9.65778H32.1909V7.62485H35.5791V9.65778Z" fill="white"/>
<path d="M22.4718 3.36536C21.8039 4.03648 21.2264 4.79188 20.7539 5.61233L21.9285 6.28862C22.3421 5.57023 22.8477 4.90894 23.4327 4.32151L22.4718 3.36536Z" fill="white"/>
<path d="M30.1577 20.5C29.3322 20.5006 28.5103 20.3937 27.7125 20.182L27.3638 21.4916C28.2754 21.7335 29.2146 21.8557 30.1577 21.8553H30.1679L30.1577 20.5Z" fill="white"/>
<path d="M30.1577 0.170779H30.127L30.1577 1.52606C30.9767 1.52547 31.7923 1.63067 32.5843 1.83905L32.9305 0.528743C32.0255 0.290552 31.0935 0.170186 30.1577 0.170779Z" fill="white"/>
<path d="M23.4594 17.7312L22.5024 18.6907C23.1728 19.3595 23.9276 19.9378 24.7478 20.411L25.4248 19.2371C24.707 18.8227 24.0463 18.3164 23.4594 17.7312Z" fill="white"/>
<path d="M19.6764 8.22961C19.4385 9.12681 19.3176 10.051 19.3168 10.9792L19.3154 11.0335L20.6711 11.013C20.6705 10.1908 20.7766 9.37204 20.9868 8.57708L19.6764 8.22961Z" fill="white"/>
<path d="M20.9969 13.4871L19.688 13.8391C19.9344 14.7539 20.3003 15.6322 20.7763 16.4514L21.9483 15.7705C21.532 15.0545 21.2122 14.2868 20.9969 13.4871Z" fill="white"/>
<path d="M34.9068 19.2278C34.1902 19.6432 33.4221 19.9623 32.6221 20.1771L32.9734 21.486C33.8882 21.2404 34.7668 20.8753 35.5864 20.4004L34.9068 19.2278Z" fill="white"/>
<path d="M38.3767 15.7538C37.9617 16.4714 37.4547 17.1317 36.8687 17.7179L37.8275 18.6761C38.4969 18.0062 39.0759 17.2518 39.5501 16.4321L38.3767 15.7538Z" fill="white"/>
<path d="M27.3217 0.545532C26.4072 0.792787 25.5291 1.15965 24.7104 1.63645L25.3921 2.80776C26.1078 2.39084 26.8755 2.07006 27.6751 1.85381L27.3217 0.545532Z" fill="white"/>
<path d="M39.5285 5.55615L38.3579 6.23905C38.7755 6.95447 39.097 7.72173 39.3141 8.52109L40.6217 8.16575C40.3736 7.25161 40.006 6.37424 39.5285 5.55615Z" fill="white"/>
<path d="M39.6448 11.013C39.6453 11.8418 39.5375 12.667 39.3242 13.4678L40.6338 13.8172C40.8774 12.9024 41.0005 11.9597 41.0001 11.013V10.972L39.6448 11.013Z" fill="white"/>
<path d="M35.5479 1.60413L34.8735 2.77941C35.5923 3.19218 36.2542 3.69711 36.8423 4.28124L37.7971 3.31966C37.1253 2.65235 36.3692 2.0756 35.5479 1.60413Z" fill="white"/>
<path d="M20.7822 21.1869L16.7163 20.5093L16.4933 21.846L18.9974 22.2633L15.0236 25.2435H8.47316C8.35313 25.2434 8.23531 25.2752 8.13171 25.3358L0 30.0793L0.682979 31.2499L8.65655 26.5987H15.2497C15.3963 26.5987 15.539 26.551 15.6563 26.463L19.7243 23.4121L19.3248 25.8096L20.6616 26.0327L21.3392 21.9668C21.4005 21.5977 21.1513 21.2486 20.7822 21.1869Z" fill="white"/>
</g>
<defs>
<clipPath id="clip0">
<rect width="41" height="41" fill="white"/>
</clipPath>
</defs>
</svg>
