<svg width="40" height="44" viewBox="0 0 40 44" fill="none" xmlns="http://www.w3.org/2000/svg">
<path d="M29.5589 22.6887C29.684 22.8535 29.8738 22.9403 30.0659 22.9403C30.1997 22.9403 30.3346 22.8982 30.4494 22.8111C30.7292 22.5991 30.7841 22.2003 30.5719 21.9206C29.7956 20.8966 28.8769 19.9916 27.8416 19.2311C27.5586 19.0233 27.1608 19.0841 26.953 19.367C26.7451 19.6499 26.8061 20.0478 27.089 20.2557C28.0256 20.9438 28.8567 21.7623 29.5589 22.6887Z" fill="white"/>
<path d="M25.7134 40.4641C23.9714 41.4104 21.9958 41.9105 19.9999 41.9105C17.9898 41.9105 16.0015 41.4035 14.2502 40.4443C13.9424 40.2758 13.556 40.3885 13.3873 40.6965C13.2187 41.0044 13.3316 41.3907 13.6395 41.5594C15.5775 42.6208 17.7769 43.1819 19.9999 43.1819C22.2071 43.1819 24.3926 42.6284 26.3202 41.5813C26.6287 41.4137 26.7429 41.0277 26.5754 40.7193C26.4077 40.4107 26.022 40.2966 25.7134 40.4641Z" fill="white"/>
<path d="M12.1582 19.2312C11.1313 19.9856 10.2191 20.8821 9.44697 21.8957C9.23416 22.175 9.28815 22.5738 9.56741 22.7866C9.68242 22.8742 9.81786 22.9166 9.95211 22.9166C10.1437 22.9166 10.3332 22.8302 10.4583 22.6661C11.1567 21.7491 11.982 20.9381 12.9109 20.2557C13.1938 20.0478 13.2548 19.65 13.0469 19.367C12.839 19.0843 12.4413 19.0234 12.1582 19.2312Z" fill="white"/>
<path d="M7.75661 35.1674H6.71177H5.8288H4.78388C2.39459 35.1674 0.450684 37.1113 0.450684 39.5006V43.3643C0.450684 43.7154 0.735201 44 1.08634 44C1.43747 44 1.72199 43.7154 1.72199 43.3643V39.5006C1.72199 37.8123 3.0955 36.4387 4.78388 36.4387H4.97924L3.99855 39.7721C3.93363 39.9926 3.99296 40.2311 4.15357 40.3956L5.8155 42.0978C5.93509 42.2202 6.09908 42.2893 6.27029 42.2893C6.44149 42.2893 6.60549 42.2202 6.72507 42.0978L8.38701 40.3956C8.5477 40.2311 8.60694 39.9926 8.54202 39.7721L7.56134 36.4387H7.75661C9.44498 36.4387 10.8186 37.8123 10.8186 39.5006V43.3643C10.8186 43.7154 11.1031 44 11.4542 44C11.8054 44 12.0899 43.7154 12.0899 43.3643V39.5006C12.0899 37.1113 10.146 35.1674 7.75661 35.1674ZM6.27029 40.7437L5.32316 39.7737L6.27029 36.5545L7.21741 39.7737L6.27029 40.7437Z" fill="white"/>
<path d="M6.27019 34.8329C8.94814 34.8329 11.1267 32.6543 11.1267 29.9764V28.7381V27.9414C11.1267 27.8548 11.1243 27.7688 11.1198 27.6834C11.1188 27.664 11.1166 27.6447 11.1154 27.6254C11.1111 27.5587 11.1062 27.4922 11.0992 27.4262C11.097 27.406 11.0938 27.386 11.0915 27.3657C11.0838 27.3006 11.0754 27.2358 11.0651 27.1715C11.0619 27.1515 11.0579 27.1317 11.0544 27.1117C11.0433 27.0477 11.0316 26.9839 11.018 26.9208C11.0136 26.9 11.0084 26.8795 11.0037 26.8588C10.9896 26.7972 10.9748 26.7359 10.9583 26.6752C10.9523 26.6529 10.9457 26.6307 10.9393 26.6085C10.9227 26.5505 10.9054 26.4929 10.8868 26.4358C10.8787 26.4111 10.8702 26.3864 10.8617 26.3617C10.8433 26.3084 10.8242 26.2555 10.804 26.2032C10.7934 26.1754 10.7825 26.1478 10.7713 26.1204C10.7519 26.0726 10.7318 26.0254 10.7109 25.9785C10.6971 25.9473 10.6832 25.9162 10.6687 25.8853C10.6493 25.844 10.6291 25.8031 10.6086 25.7624C10.5909 25.7274 10.5733 25.6923 10.5547 25.6576C10.5366 25.6236 10.5175 25.5902 10.4985 25.5568C10.4761 25.517 10.4539 25.4773 10.4303 25.4382C10.4159 25.4143 10.4006 25.391 10.3857 25.3674C10.2388 25.1328 10.0716 24.9102 9.88484 24.7022C9.87611 24.6925 9.8678 24.6825 9.85907 24.6729C9.81966 24.6297 9.7789 24.5877 9.73779 24.5458C9.72093 24.5286 9.70423 24.5111 9.68703 24.4941C9.64948 24.4569 9.61092 24.4205 9.57201 24.3844C9.54947 24.3635 9.52693 24.3427 9.50404 24.3222C9.48591 24.306 9.4687 24.289 9.45031 24.2731C9.44378 24.267 9.43709 24.261 9.43022 24.2551C9.40853 24.2365 9.38598 24.2191 9.36403 24.2009C9.35886 24.1966 9.35369 24.1924 9.34852 24.1881C9.29665 24.1456 9.24402 24.1042 9.19054 24.0639C9.1791 24.0553 9.16757 24.0467 9.15604 24.0381C9.10926 24.0035 9.0618 23.9698 9.01391 23.9369C8.99561 23.9244 8.9773 23.9119 8.95891 23.8996C8.91823 23.8725 8.87712 23.8463 8.83568 23.8205C8.80974 23.8043 8.78389 23.788 8.75762 23.7723C8.7249 23.7529 8.69176 23.734 8.65863 23.7154C8.62362 23.6955 8.5887 23.6756 8.55311 23.6566C8.53234 23.6455 8.51116 23.6351 8.49022 23.6243C8.19392 23.4713 7.88025 23.3479 7.55251 23.2581C7.5498 23.2573 7.54708 23.2565 7.54429 23.2558C7.48428 23.2394 7.42377 23.2246 7.36291 23.2105C7.34961 23.2074 7.3363 23.2042 7.32291 23.2013C7.26867 23.1892 7.21409 23.1782 7.15917 23.1681C7.13755 23.164 7.11594 23.1602 7.09425 23.1564C7.04526 23.1481 6.9961 23.1402 6.94669 23.1332C6.91669 23.129 6.88651 23.1254 6.85634 23.1217C6.81354 23.1165 6.77074 23.1113 6.7276 23.1073C6.68565 23.1033 6.64344 23.1006 6.60132 23.0976C6.56818 23.0954 6.5353 23.0925 6.50207 23.0909C6.42495 23.0872 6.34774 23.0851 6.27027 23.0851C5.49859 23.0851 4.7303 23.2708 4.04846 23.6221C3.73639 23.7829 3.61376 24.1662 3.77462 24.4783C3.93548 24.7905 4.31882 24.913 4.63088 24.7522C5.14059 24.4895 5.69217 24.3564 6.27036 24.3564C6.32756 24.3564 6.38435 24.3581 6.44088 24.3607C6.46512 24.3619 6.48927 24.3639 6.51343 24.3655C6.54445 24.3677 6.57547 24.3698 6.60623 24.3726C6.63802 24.3756 6.66963 24.3793 6.70116 24.3832C6.72294 24.3858 6.74472 24.3885 6.76642 24.3915C6.8032 24.3966 6.8399 24.4023 6.87651 24.4087C6.89118 24.4112 6.90584 24.4138 6.92042 24.4166C6.96211 24.4243 7.00364 24.4325 7.045 24.4416C7.0517 24.4431 7.05823 24.4447 7.06492 24.4462C7.35885 24.5133 7.64328 24.6174 7.91152 24.7557C7.92127 24.7607 7.93119 24.7656 7.94093 24.7707C7.9739 24.7881 8.00636 24.8063 8.03882 24.8248C8.05611 24.8346 8.07349 24.8445 8.09069 24.8547C8.11731 24.8703 8.14366 24.8866 8.16994 24.903C8.19299 24.9175 8.21596 24.9322 8.23867 24.9471C8.25952 24.9608 8.28029 24.9747 8.30088 24.989C8.32927 25.0086 8.35741 25.0286 8.3853 25.0491C8.4003 25.06 8.41521 25.0709 8.43005 25.0821C8.46429 25.1081 8.49793 25.1346 8.53116 25.1616C8.53963 25.1686 8.54828 25.1753 8.55675 25.1823C8.5837 25.2047 8.60989 25.228 8.63617 25.2511C8.66295 25.2747 8.68931 25.2986 8.71533 25.3228C8.73584 25.342 8.75626 25.3613 8.77635 25.381C8.79932 25.4034 8.82178 25.4263 8.84407 25.4493C8.86509 25.471 8.88619 25.4927 8.9067 25.515C8.92696 25.5369 8.94645 25.5595 8.96611 25.5818C8.98688 25.6056 9.0079 25.6291 9.02807 25.6534C9.0468 25.6758 9.0646 25.699 9.08265 25.7219C9.10223 25.7467 9.12223 25.771 9.14113 25.7963C9.17478 25.8413 9.20732 25.887 9.23885 25.9334C9.25283 25.9539 9.2658 25.9751 9.27936 25.9959C9.30055 26.0287 9.32191 26.0613 9.34199 26.0947C9.35369 26.114 9.36454 26.1339 9.3759 26.1535C9.39564 26.1878 9.41539 26.2221 9.43404 26.257C9.44395 26.2755 9.45328 26.2945 9.46285 26.3133C9.48175 26.3503 9.5004 26.3875 9.51803 26.4251C9.52616 26.4425 9.53396 26.4601 9.54176 26.4776C9.55973 26.5176 9.5771 26.5579 9.59363 26.5985C9.60015 26.6146 9.60643 26.6307 9.61278 26.6469C9.62939 26.6897 9.64524 26.733 9.66024 26.7764C9.66541 26.7914 9.67058 26.8064 9.6755 26.8214C9.69033 26.8665 9.70423 26.912 9.71728 26.9577C9.72135 26.972 9.72559 26.9862 9.72949 27.0005C9.7422 27.0473 9.75381 27.0945 9.76466 27.1418C9.76788 27.1558 9.77127 27.1696 9.77432 27.1837C9.78466 27.2316 9.79365 27.2798 9.80204 27.3281C9.80449 27.3422 9.80729 27.3561 9.80958 27.3701C9.81738 27.4184 9.82365 27.4671 9.8295 27.5157C9.83128 27.5303 9.83348 27.5447 9.83509 27.5593C9.84035 27.6084 9.8439 27.6577 9.84721 27.7071C9.84814 27.7215 9.84975 27.7358 9.85052 27.7502C9.8539 27.8137 9.85577 27.8774 9.85577 27.9413V27.9443C9.2458 27.724 8.71872 27.3088 8.35495 26.7484C8.2474 26.5827 8.069 26.4764 7.87211 26.4607C7.67506 26.4451 7.48225 26.5218 7.34986 26.6685C6.51546 27.5932 5.324 28.1235 4.081 28.1235C3.60214 28.1235 3.13464 28.0475 2.68621 27.8972C2.6863 27.8888 2.68655 27.8804 2.68672 27.8721C2.68791 27.8116 2.6902 27.751 2.69443 27.6907C2.69469 27.6873 2.69477 27.684 2.69503 27.6806C2.70003 27.6121 2.70706 27.5438 2.71596 27.4757C2.71647 27.4719 2.71698 27.4681 2.71749 27.4643C2.77402 27.0427 2.90462 26.6328 3.10379 26.2588C3.26872 25.949 3.15143 25.564 2.84148 25.399C2.53171 25.2341 2.14659 25.3515 1.98157 25.6613C1.84868 25.9108 1.73926 26.1725 1.65222 26.4414C1.64747 26.4537 1.64247 26.4657 1.63841 26.4784C1.54908 26.7614 1.48678 27.0519 1.45076 27.3467C1.45068 27.3473 1.45059 27.3479 1.45051 27.3485C1.43932 27.4401 1.43101 27.5323 1.425 27.6247C1.42398 27.6397 1.4233 27.6547 1.42245 27.6697C1.41745 27.76 1.41406 27.8504 1.41406 27.9413V28.3315V29.9763C1.41364 32.6544 3.59223 34.8329 6.27019 34.8329ZM2.68494 29.2202C3.13863 29.3356 3.60511 29.395 4.08058 29.395C5.4324 29.395 6.73684 28.9086 7.75719 28.041C8.32309 28.6469 9.04959 29.0735 9.85543 29.271V29.9765C9.85543 31.9534 8.24706 33.5617 6.27019 33.5617C4.29331 33.5617 2.68494 31.9534 2.68494 29.9765V29.2202Z" fill="white"/>
<path d="M14.8163 21.5213C15.1674 21.5213 15.452 21.2367 15.452 20.8856V17.0219C15.452 15.3335 16.8255 13.9599 18.5139 13.9599H18.7092L17.7285 17.2933C17.6636 17.5139 17.7229 17.7523 17.8835 17.9168L19.5455 19.619C19.6651 19.7415 19.8291 19.8105 20.0003 19.8105C20.1715 19.8105 20.3355 19.7415 20.455 19.619L22.117 17.9168C22.2777 17.7523 22.3369 17.5139 22.272 17.2933L21.2913 13.9599H21.4867C23.175 13.9599 24.5486 15.3335 24.5486 17.0219V20.8856C24.5486 21.2367 24.8331 21.5213 25.1842 21.5213C25.5353 21.5213 25.8199 21.2367 25.8199 20.8856V17.0219C25.8199 14.6325 23.876 12.6886 21.4867 12.6886H20.4417H19.5588H18.5139C16.1246 12.6886 14.1807 14.6325 14.1807 17.0219V20.8856C14.1807 21.2367 14.4652 21.5213 14.8163 21.5213ZM20.0003 18.265L19.0531 17.295L20.0003 14.0758L20.9474 17.295L20.0003 18.265Z" fill="white"/>
<path d="M20.0006 12.3542C22.6785 12.3542 24.8571 10.1756 24.8571 7.49768V6.25943V5.46266C24.8571 5.37613 24.8547 5.29011 24.8502 5.20467C24.8492 5.18527 24.8471 5.16611 24.8458 5.14679C24.8415 5.08009 24.8365 5.01347 24.8296 4.94753C24.8275 4.92736 24.8243 4.90736 24.8219 4.88719C24.8142 4.82201 24.8058 4.75709 24.7954 4.69276C24.7922 4.67285 24.7882 4.65318 24.7848 4.63327C24.7737 4.56911 24.7619 4.5052 24.7483 4.44189C24.7439 4.42138 24.7388 4.40104 24.7342 4.38053C24.72 4.31875 24.7051 4.25721 24.6886 4.19628C24.6826 4.17407 24.6761 4.15212 24.6698 4.13C24.6532 4.07186 24.6358 4.01406 24.6171 3.95685C24.6091 3.93218 24.6006 3.90778 24.5922 3.88328C24.5738 3.82989 24.5546 3.77683 24.5344 3.72428C24.5238 3.69665 24.5129 3.66911 24.5018 3.64165C24.4824 3.59385 24.4622 3.54656 24.4413 3.49952C24.4276 3.46841 24.4137 3.43739 24.3992 3.40654C24.3798 3.3651 24.3595 3.32425 24.339 3.2834C24.3213 3.24839 24.3037 3.21331 24.2852 3.17873C24.267 3.14474 24.2479 3.11126 24.2289 3.07778C24.2065 3.03803 24.1843 2.99829 24.1607 2.95921C24.1464 2.93548 24.1311 2.91235 24.1164 2.88878C23.9689 2.65334 23.801 2.42993 23.6135 2.22118C23.6055 2.21237 23.5979 2.20321 23.5899 2.1944C23.55 2.15058 23.5086 2.10786 23.4669 2.0654C23.4507 2.04879 23.4346 2.03201 23.4182 2.01574C23.38 1.97794 23.3408 1.94098 23.3013 1.90429C23.2795 1.88403 23.2577 1.86394 23.2355 1.84411C23.2171 1.82758 23.1995 1.81021 23.1808 1.79394C23.1743 1.78784 23.1676 1.7819 23.1608 1.77605C23.1388 1.75724 23.116 1.73961 23.0938 1.72122C23.0893 1.71749 23.0847 1.71385 23.0802 1.71012C23.0277 1.66706 22.9744 1.62511 22.9204 1.58443C22.9094 1.57621 22.8984 1.56798 22.8874 1.55985C22.8401 1.52484 22.7921 1.49077 22.7436 1.45755C22.7258 1.44526 22.708 1.43306 22.6899 1.42102C22.6488 1.39365 22.6072 1.36712 22.5654 1.3411C22.5398 1.32517 22.5144 1.30915 22.4885 1.29364C22.4554 1.2738 22.4218 1.2549 22.3883 1.23592C22.3536 1.21626 22.3191 1.19651 22.2839 1.17778C22.2626 1.16642 22.241 1.15574 22.2195 1.14473C21.9236 0.991999 21.6103 0.868852 21.2831 0.779098C21.2804 0.778336 21.2777 0.777488 21.2749 0.77681C21.2149 0.760453 21.1543 0.745621 21.0935 0.731552C21.0802 0.728416 21.0669 0.72528 21.0535 0.722314C20.9992 0.710279 20.9447 0.699261 20.8897 0.68909C20.8681 0.685022 20.8465 0.681208 20.8248 0.677479C20.7758 0.669088 20.7267 0.661206 20.6773 0.654256C20.6473 0.650019 20.6171 0.646459 20.5869 0.64273C20.5441 0.63756 20.5013 0.632305 20.4582 0.628322C20.4162 0.624338 20.374 0.621626 20.3319 0.61866C20.2988 0.616456 20.2659 0.613575 20.2326 0.611964C20.1554 0.608405 20.0781 0.606201 20.0006 0.606201C19.229 0.606201 18.4606 0.791896 17.7788 1.1432C17.4667 1.30398 17.3441 1.68732 17.5049 1.99938C17.6658 2.31144 18.0489 2.43417 18.3612 2.2733C18.8708 2.01065 19.4225 1.8775 20.0006 1.8775C20.0578 1.8775 20.1146 1.8792 20.1711 1.88183C20.1953 1.88301 20.2194 1.88505 20.2435 1.88666C20.2746 1.88878 20.3056 1.8909 20.3366 1.89378C20.3683 1.89674 20.3999 1.90047 20.4314 1.90429C20.4532 1.90691 20.475 1.90963 20.4967 1.91259C20.5335 1.91776 20.5701 1.92344 20.6067 1.92971C20.6214 1.93226 20.6362 1.93488 20.6508 1.93759C20.6924 1.94531 20.7339 1.95344 20.7752 1.9626C20.7819 1.96412 20.7886 1.96573 20.7954 1.96726C21.0888 2.03421 21.3727 2.13812 21.6405 2.27602C21.6509 2.28144 21.6614 2.28661 21.6718 2.29203C21.7041 2.30915 21.7362 2.32712 21.768 2.34517C21.7859 2.35534 21.8039 2.36552 21.8216 2.37602C21.8476 2.39137 21.8734 2.4073 21.8991 2.42332C21.9229 2.43823 21.9466 2.4534 21.97 2.46883C21.9901 2.48205 22.01 2.49544 22.0298 2.50909C22.0593 2.52943 22.0885 2.55019 22.1174 2.57138C22.1313 2.58155 22.1453 2.59172 22.159 2.60215C22.1946 2.62901 22.2296 2.65664 22.2641 2.68478C22.2712 2.69063 22.2785 2.69631 22.2856 2.70224C22.3137 2.72546 22.3409 2.7497 22.3683 2.77377C22.3938 2.79623 22.4189 2.81903 22.4438 2.84217C22.4652 2.86226 22.4866 2.88243 22.5075 2.90302C22.5296 2.92463 22.5511 2.94659 22.5725 2.96862C22.5943 2.99108 22.6161 3.01354 22.6373 3.03651C22.6567 3.05761 22.6755 3.07923 22.6944 3.10075C22.7159 3.12525 22.7376 3.14966 22.7585 3.17474C22.7762 3.1961 22.793 3.21797 22.8103 3.23966C22.8308 3.26551 22.8516 3.29102 22.8714 3.31747C22.8996 3.35501 22.9264 3.39332 22.953 3.43188C22.9727 3.46053 22.9918 3.48969 23.0108 3.51893C23.0315 3.55088 23.0523 3.58275 23.072 3.61529C23.0838 3.63495 23.0949 3.65521 23.1064 3.67513C23.126 3.70911 23.1455 3.7431 23.1639 3.77768C23.1739 3.79641 23.1833 3.81556 23.1931 3.83446C23.2119 3.87133 23.2305 3.90837 23.248 3.94583C23.2562 3.96329 23.264 3.981 23.2719 3.99863C23.2898 4.03855 23.3072 4.07872 23.3236 4.11932C23.3301 4.13551 23.3365 4.1517 23.3428 4.16797C23.3595 4.21077 23.3752 4.25382 23.3902 4.29722C23.3954 4.31222 23.4006 4.32731 23.4056 4.34239C23.4204 4.38748 23.4343 4.43291 23.4473 4.47868C23.4514 4.49291 23.4557 4.50715 23.4596 4.52156C23.4723 4.56834 23.4839 4.61555 23.4947 4.66285C23.4979 4.67683 23.5013 4.69064 23.5044 4.70471C23.5147 4.7526 23.5237 4.80074 23.5321 4.84913C23.5346 4.8632 23.5374 4.8771 23.5396 4.89117C23.5474 4.93948 23.5537 4.98813 23.5596 5.03678C23.5613 5.05136 23.5635 5.06576 23.5652 5.08034C23.5704 5.12941 23.574 5.17874 23.5773 5.22815C23.5782 5.24256 23.5798 5.2568 23.5806 5.27121C23.584 5.33469 23.5858 5.39842 23.5858 5.46233V5.46538C22.9759 5.24493 22.4488 4.82981 22.085 4.26942C21.9775 4.10373 21.7991 3.99744 21.6022 3.98177C21.4061 3.96609 21.2123 4.04287 21.08 4.18958C20.2454 5.11424 19.0541 5.64455 17.8111 5.64455C17.3322 5.64455 16.8647 5.56852 16.4163 5.41817C16.4164 5.40978 16.4166 5.40139 16.4168 5.393C16.418 5.33265 16.4203 5.27239 16.4245 5.21222C16.4248 5.20866 16.4248 5.20501 16.4251 5.20137C16.4301 5.13314 16.4371 5.06526 16.4459 4.99754C16.4465 4.99321 16.4471 4.98889 16.4477 4.98448C16.5043 4.56317 16.6349 4.15356 16.8339 3.77997C16.9988 3.47011 16.8815 3.08516 16.5715 2.92014C16.2617 2.75504 15.8768 2.87251 15.7116 3.18237C15.5785 3.43248 15.4688 3.69462 15.3816 3.96422C15.3771 3.976 15.3723 3.98744 15.3685 3.99965C15.2794 4.28213 15.2172 4.5719 15.1811 4.86591C15.1809 4.86744 15.1807 4.86897 15.1805 4.87041C15.1694 4.96169 15.1611 5.05339 15.1551 5.14535C15.154 5.1606 15.1533 5.17577 15.1524 5.19103C15.1474 5.28121 15.144 5.37155 15.144 5.46224V5.85245V7.49726C15.144 10.1756 17.3226 12.3542 20.0006 12.3542ZM16.4153 6.74151C16.869 6.85686 17.3355 6.91627 17.811 6.91627C19.1628 6.91627 20.4672 6.42979 21.4876 5.56225C22.0535 6.16815 22.78 6.5948 23.5858 6.79228V7.49777C23.5858 9.47464 21.9775 11.083 20.0006 11.083C18.0237 11.083 16.4153 9.47464 16.4153 7.49777V6.74151Z" fill="white"/>
<path d="M35.2162 35.1674H34.1712H33.2883H32.2434C29.8541 35.1674 27.9102 37.1113 27.9102 39.5006V43.3643C27.9102 43.7154 28.1947 44 28.5458 44C28.8969 44 29.1815 43.7154 29.1815 43.3643V39.5006C29.1815 37.8123 30.5551 36.4387 32.2434 36.4387H32.4387L31.458 39.7721C31.3931 39.9926 31.4524 40.2311 31.613 40.3956L33.275 42.0978C33.3946 42.2202 33.5586 42.2893 33.7298 42.2893C33.901 42.2893 34.065 42.2202 34.1845 42.0978L35.8465 40.3956C36.0072 40.2311 36.0664 39.9926 36.0015 39.7721L35.0208 36.4387H35.2162C36.9045 36.4387 38.2781 37.8123 38.2781 39.5006V43.3643C38.2781 43.7154 38.5626 44 38.9137 44C39.2648 44 39.5494 43.7154 39.5494 43.3643V39.5006C39.5494 37.1113 37.6055 35.1674 35.2162 35.1674ZM33.7298 40.7437L32.7826 39.7737L33.7298 36.5545L34.6769 39.7737L33.7298 40.7437Z" fill="white"/>
<path d="M32.0914 24.752C32.6011 24.4894 33.1526 24.3562 33.7308 24.3562C33.788 24.3562 33.8448 24.3579 33.9013 24.3605C33.9257 24.3617 33.9498 24.3638 33.9741 24.3654C34.0051 24.3675 34.036 24.3696 34.0668 24.3724C34.0986 24.3755 34.1302 24.3791 34.1618 24.383C34.1836 24.3856 34.2054 24.3883 34.227 24.3913C34.2638 24.3965 34.3005 24.4022 34.3372 24.4085C34.3519 24.4111 34.3665 24.4137 34.3811 24.4164C34.4228 24.4241 34.4643 24.4323 34.5056 24.4415C34.5124 24.443 34.5193 24.4447 34.5261 24.4462C34.8201 24.5133 35.1045 24.6176 35.3728 24.756C35.3824 24.761 35.3922 24.7658 35.4019 24.7709C35.4349 24.7883 35.4674 24.8066 35.4999 24.825C35.5172 24.8348 35.5345 24.8446 35.5515 24.8547C35.5781 24.8704 35.6045 24.8867 35.6307 24.9031C35.6538 24.9176 35.6768 24.9323 35.6995 24.9473C35.7203 24.9609 35.7409 24.9748 35.7615 24.989C35.79 25.0087 35.8181 25.0287 35.846 25.0491C35.861 25.06 35.8759 25.0709 35.8908 25.0821C35.9248 25.1079 35.9583 25.1343 35.9914 25.1612C36.0001 25.1682 36.0089 25.1752 36.0175 25.1824C36.0453 25.2054 36.0723 25.2294 36.0994 25.2533C36.1244 25.2754 36.1492 25.2977 36.1735 25.3205C36.1955 25.3409 36.2172 25.3615 36.2386 25.3825C36.2601 25.4036 36.2811 25.425 36.3021 25.4467C36.3243 25.4695 36.3466 25.4924 36.3682 25.516C36.3871 25.5366 36.4054 25.5576 36.4238 25.5785C36.4458 25.6035 36.4679 25.6285 36.4892 25.654C36.5062 25.6745 36.5224 25.6956 36.5389 25.7163C36.5601 25.743 36.5817 25.7694 36.6021 25.7968C36.6248 25.8271 36.6463 25.8582 36.6679 25.8892C36.6935 25.9256 36.7182 25.9626 36.7425 26C36.7626 26.0312 36.783 26.0622 36.8021 26.094C36.8142 26.1141 36.8255 26.1347 36.8373 26.155C36.8567 26.1886 36.876 26.2222 36.8943 26.2564C36.9044 26.2754 36.9139 26.2947 36.9237 26.3139C36.9425 26.3506 36.961 26.3873 36.9783 26.4246C36.9866 26.4423 36.9945 26.4601 37.0025 26.4779C37.0203 26.5177 37.0376 26.5577 37.0539 26.598C37.0605 26.6144 37.067 26.6307 37.0733 26.6473C37.0899 26.6899 37.1056 26.7328 37.1205 26.776C37.1257 26.7912 37.1309 26.8064 37.1359 26.8216C37.1507 26.8666 37.1645 26.912 37.1776 26.9577C37.1817 26.9721 37.1859 26.9863 37.1898 27.0006C37.2026 27.0474 37.2141 27.0946 37.225 27.1419C37.2282 27.1559 37.2316 27.1697 37.2346 27.1838C37.245 27.2317 37.2539 27.2798 37.2623 27.3282C37.2648 27.3423 37.2676 27.3562 37.2699 27.3702C37.2777 27.4184 37.2839 27.4668 37.2897 27.5154C37.2915 27.5302 37.2938 27.5447 37.2953 27.5596C37.3006 27.6086 37.3041 27.6578 37.3073 27.707C37.3083 27.7215 37.3099 27.7358 37.3106 27.7503C37.314 27.8137 37.3159 27.8775 37.3159 27.9414V27.9444C36.7059 27.7241 36.1788 27.3089 35.8152 26.7485C35.7076 26.5828 35.5292 26.4765 35.3323 26.4608C35.1363 26.4451 34.9425 26.5219 34.8102 26.6686C33.9756 27.5933 32.7841 28.1236 31.5411 28.1236C31.0623 28.1236 30.5948 28.0476 30.1463 27.8973C30.1464 27.8889 30.1467 27.8805 30.1469 27.8721C30.148 27.8117 30.1503 27.7514 30.1546 27.6912C30.1548 27.6876 30.1549 27.6841 30.1552 27.6806C30.1602 27.6124 30.1672 27.5443 30.176 27.4765C30.1766 27.4723 30.1771 27.468 30.1777 27.4639C30.2342 27.0425 30.3648 26.6328 30.5638 26.259C30.7288 25.9492 30.6115 25.5642 30.3015 25.3992C29.9917 25.2343 29.6066 25.3516 29.4416 25.6615C29.3086 25.9114 29.199 26.1732 29.1118 26.4427C29.1073 26.4546 29.1024 26.4664 29.0985 26.4788C29.0094 26.7614 28.9471 27.0512 28.9111 27.3454C28.9109 27.3467 28.9106 27.3481 28.9105 27.3495C28.8994 27.4408 28.8911 27.5326 28.885 27.6247C28.884 27.6398 28.8833 27.6551 28.8824 27.6703C28.8774 27.7604 28.874 27.8508 28.874 27.9415V28.3317V29.9765C28.874 32.6544 31.0526 34.833 33.7306 34.833C36.4085 34.833 38.5871 32.6544 38.5871 29.9765V28.7382V27.9415C38.5871 27.8549 38.5847 27.7689 38.5802 27.6835C38.5792 27.664 38.5769 27.6447 38.5758 27.6252C38.5714 27.5586 38.5666 27.4922 38.5596 27.4263C38.5574 27.4059 38.5542 27.3856 38.5518 27.3652C38.5441 27.3004 38.5358 27.2357 38.5255 27.1717C38.5222 27.1512 38.5181 27.131 38.5146 27.1105C38.5036 27.0471 38.4919 26.9838 38.4784 26.9212C38.4738 26.8998 38.4685 26.8787 38.4636 26.8575C38.4496 26.7965 38.435 26.7359 38.4188 26.6758C38.4126 26.6527 38.4057 26.6298 38.3991 26.6068C38.3828 26.5496 38.3657 26.4928 38.3473 26.4365C38.339 26.411 38.3301 26.3856 38.3214 26.3603C38.3033 26.3078 38.2845 26.2558 38.2646 26.2041C38.2537 26.1755 38.2424 26.1471 38.2309 26.1188C38.2119 26.0721 38.1922 26.0258 38.1717 25.9798C38.1575 25.9476 38.1432 25.9156 38.1283 25.8837C38.1094 25.8435 38.0896 25.8037 38.0696 25.7641C38.0515 25.728 38.0333 25.6918 38.0143 25.6563C37.9968 25.6236 37.9785 25.5917 37.9603 25.5595C37.9371 25.5184 37.914 25.4773 37.8897 25.4368C37.8765 25.4152 37.8627 25.3941 37.8493 25.3728C37.7009 25.1354 37.5319 24.9102 37.3429 24.6998C37.335 24.6911 37.3275 24.6821 37.3196 24.6734C37.2795 24.6295 37.2381 24.5867 37.1962 24.544C37.18 24.5275 37.1641 24.5108 37.1477 24.4945C37.1094 24.4567 37.0703 24.4197 37.0307 24.383C37.0088 24.3627 36.9869 24.3425 36.9646 24.3226C36.946 24.3059 36.9282 24.2884 36.9093 24.272C36.9032 24.2663 36.8969 24.2606 36.8904 24.2551C36.8687 24.2365 36.8461 24.2191 36.8242 24.2009C36.819 24.1966 36.8138 24.1924 36.8086 24.1882C36.7568 24.1456 36.7042 24.1042 36.6507 24.0639C36.6392 24.0553 36.6277 24.0467 36.6162 24.0381C36.5694 24.0035 36.5219 23.9698 36.474 23.9369C36.4557 23.9244 36.4374 23.9119 36.419 23.8996C36.3784 23.8725 36.3373 23.8463 36.2958 23.8205C36.2699 23.8043 36.244 23.788 36.2177 23.7724C36.185 23.7529 36.1519 23.734 36.1188 23.7154C36.0838 23.6955 36.0488 23.6756 36.0132 23.6566C35.9925 23.6455 35.9713 23.6351 35.9504 23.6243C35.6541 23.4713 35.3404 23.3479 35.0126 23.2581C35.0099 23.2573 35.0072 23.2565 35.0044 23.2558C34.9444 23.2394 34.8839 23.2246 34.823 23.2105C34.8097 23.2074 34.7964 23.2042 34.783 23.2013C34.7288 23.1892 34.6742 23.1782 34.6193 23.1681C34.5977 23.164 34.5761 23.1602 34.5544 23.1564C34.5054 23.1481 34.4562 23.1402 34.4068 23.1332C34.3768 23.129 34.3466 23.1254 34.3165 23.1217C34.2737 23.1165 34.2309 23.1113 34.1877 23.1073C34.1458 23.1033 34.1036 23.1006 34.0614 23.0976C34.0283 23.0954 33.9954 23.0925 33.9622 23.0909C33.8851 23.0872 33.8079 23.0851 33.7304 23.0851C32.9588 23.0851 32.1905 23.2708 31.5086 23.6221C31.1965 23.7829 31.0739 24.1662 31.2347 24.4783C31.3959 24.7902 31.779 24.9129 32.0914 24.752ZM33.7308 33.5616C31.7539 33.5616 30.1456 31.9532 30.1456 29.9763V29.2201C30.5993 29.3354 31.0658 29.3948 31.5412 29.3948C32.893 29.3948 34.1975 28.9084 35.2179 28.0408C35.7837 28.6467 36.5102 29.0733 37.3161 29.2708V29.9763C37.3161 31.9533 35.7077 33.5616 33.7308 33.5616Z" fill="white"/>
</svg>
