<svg width="406" height="275" viewBox="0 0 406 275" fill="none" xmlns="http://www.w3.org/2000/svg">
<path d="M370.335 92.5536H352.084C345.286 92.5536 339.699 87.0811 339.699 80.2173V73.3536C339.699 66.5825 345.193 61.0173 352.084 61.0173H370.335C377.133 61.0173 382.72 66.4898 382.72 73.3536V80.2173C382.72 87.0811 377.133 92.5536 370.335 92.5536Z" fill="#94CCD6"/>
<path d="M355.064 89.0288L361.023 99.6955L367.356 89.0288H355.064Z" fill="#94CCD6"/>
<path d="M237.081 40.0754C243.201 40.0754 248.162 35.1336 248.162 29.0377C248.162 22.9417 243.201 18 237.081 18C230.961 18 226 22.9417 226 29.0377C226 35.1336 230.961 40.0754 237.081 40.0754Z" fill="#ECEFFA"/>
<path d="M18.1583 152.287C22.5297 152.287 26.0734 148.757 26.0734 144.403C26.0734 140.049 22.5297 136.519 18.1583 136.519C13.7869 136.519 10.2432 140.049 10.2432 144.403C10.2432 148.757 13.7869 152.287 18.1583 152.287Z" fill="#ECEFFA"/>
<path d="M400.227 137.284C400.413 139.974 398.364 142.293 395.664 142.385C392.963 142.571 390.635 140.53 390.542 137.84C390.356 135.151 392.405 132.832 395.105 132.739C397.712 132.553 400.04 134.594 400.227 137.284Z" fill="#ECEFFA"/>
<path d="M170.781 0.633057L171.805 3.32291C172.457 4.99248 173.761 6.29103 175.437 6.9403L178.137 7.96059L175.437 8.98088C173.761 9.63016 172.457 10.9287 171.805 12.5983L170.781 15.2881L169.756 12.5983C169.105 10.9287 167.801 9.63016 166.125 8.98088L163.331 8.05335L166.032 7.03306C167.708 6.38378 169.012 5.08523 169.663 3.41567L170.781 0.633057Z" fill="#94CCD6"/>
<path d="M26.0734 53.1333L26.8184 55.0811C27.284 56.2869 28.2152 57.2145 29.4257 57.6782L31.3812 58.4202L29.4257 59.1623C28.2152 59.626 27.284 60.5536 26.8184 61.7594L26.0734 63.7072L25.3285 61.7594C24.8629 60.5536 23.9317 59.626 22.7211 59.1623L20.7656 58.4202L22.7211 57.6782C23.9317 57.2145 24.8629 56.2869 25.3285 55.0811L26.0734 53.1333Z" fill="#94CCD6"/>
<path d="M349.663 15.4753L350.408 17.4232C350.873 18.629 351.805 19.5565 353.015 20.0203L354.971 20.7623L353.015 21.5043C351.805 21.9681 350.873 22.8956 350.408 24.1014L349.663 26.0493L348.918 24.1014C348.452 22.8956 347.521 21.9681 346.311 21.5043L344.355 20.7623L346.311 20.0203C347.521 19.5565 348.452 18.629 348.918 17.4232L349.663 15.4753Z" fill="#94CCD6"/>
<path d="M366.331 255.151C366.331 255.151 402.368 203.394 382.161 164.252C355.25 112.124 315.395 121.029 270.232 103.869C225.162 86.8027 184.656 42.1883 148.432 59.8114C93.5849 86.6172 129.901 119.545 63.228 169.446C15.4579 205.156 56.3372 255.336 56.3372 255.336L366.331 255.151Z" fill="#ECEFFA"/>
<path d="M203 275C315.114 275 406 268.937 406 261.458C406 253.979 315.114 247.916 203 247.916C90.8862 247.916 0 253.979 0 261.458C0 268.937 90.8862 275 203 275Z" fill="#EDF7F9"/>
<path d="M138.282 228.902L139.958 254.502H115.002C115.002 254.502 91.9087 223.986 86.9734 172.786L138.282 228.902Z" fill="#C4CEF2"/>
<path d="M109.043 207.012C109.043 207.012 112.209 231.591 138.934 239.754L138.282 228.994L109.043 207.012Z" fill="#A4B3DD"/>
<path d="M182.234 228.902V254.502H157.278C157.278 254.502 140.424 240.032 138.282 211.464L182.234 228.902Z" fill="#A4B3DD"/>
<path d="M263.155 228.902V254.502H288.111C288.111 254.502 304.966 240.032 307.107 211.464L263.155 228.902Z" fill="#C4CEF2"/>
<path d="M263.155 242.073V235.394L307.48 217.4C307.48 217.4 303.289 228.623 284.479 238.084C276.471 242.073 263.155 242.073 263.155 242.073Z" fill="#A4B3DD"/>
<path d="M244.624 233.075L155.323 234.93C117.423 234.93 86.6941 204.322 86.6941 166.571C86.6941 128.82 117.423 98.2117 155.323 98.2117H266.135C299.472 98.2117 326.476 125.11 326.476 158.316V174.919C326.383 208.032 277.961 233.075 244.624 233.075Z" fill="#C4CEF2"/>
<path d="M97.0303 149.505C97.0303 149.505 63.228 139.209 65.4629 119.545C67.6977 99.8813 89.9532 109.713 83.6211 123.626C77.6615 136.705 58.1064 150.71 58.1064 150.71" stroke="#C4CEF2" stroke-width="6.1868" stroke-miterlimit="10" stroke-linecap="round" stroke-linejoin="round"/>
<path d="M201.045 111.197H148.991C147.315 111.197 145.918 109.806 145.918 108.136C145.918 106.467 147.315 105.075 148.991 105.075H201.045C202.721 105.075 204.117 106.467 204.117 108.136C204.117 109.806 202.721 111.197 201.045 111.197Z" fill="#93A3CD"/>
<path d="M243.786 228.902V254.502H218.83C218.83 254.502 201.976 240.032 199.834 211.464L243.786 228.902Z" fill="#C4CEF2"/>
<path d="M203.093 166.571C203.093 166.571 193.222 222.501 243.786 241.423V220.646L203.093 166.571Z" fill="#A4B3DD"/>
<path d="M316.233 70.0146V113.423C316.233 124.276 307.387 133.087 296.492 133.087C281.779 133.087 272.094 117.505 278.892 104.519C284.852 93.2031 295.84 80.4031 316.233 70.0146Z" fill="#A4B3DD"/>
<path d="M259.244 97.2841C260.641 97.1913 304.221 93.945 324.8 121.771L303.103 132.994L274.702 112.032L259.244 97.2841Z" fill="#95A5D0"/>
<path d="M263.155 235.394C301.315 235.394 332.249 204.581 332.249 166.571C332.249 128.561 301.315 97.7478 263.155 97.7478C224.995 97.7478 194.061 128.561 194.061 166.571C194.061 204.581 224.995 235.394 263.155 235.394Z" fill="#C4CEF2"/>
<path d="M259.43 66.1189V112.588C259.43 124.183 249.932 133.644 238.292 133.644C222.555 133.644 212.219 117.041 219.482 103.128C225.814 90.9769 237.64 77.2493 259.43 66.1189Z" fill="#A4B3DD"/>
<path d="M266.787 150.432C266.787 153.493 264.366 155.904 261.293 155.904C258.22 155.904 255.799 153.493 255.799 150.432C255.799 147.371 258.22 144.959 261.293 144.959C264.366 144.959 266.787 147.371 266.787 150.432Z" fill="#272E77"/>
<path d="M319.306 155.904C322.34 155.904 324.8 153.454 324.8 150.432C324.8 147.41 322.34 144.959 319.306 144.959C316.272 144.959 313.812 147.41 313.812 150.432C313.812 153.454 316.272 155.904 319.306 155.904Z" fill="#272E77"/>
<path d="M297.237 201.725C312.305 201.725 324.521 193.045 324.521 182.339C324.521 171.633 312.305 162.954 297.237 162.954C282.168 162.954 269.953 171.633 269.953 182.339C269.953 193.045 282.168 201.725 297.237 201.725Z" fill="#A4B3DD"/>
<path d="M295.374 180.948C295.374 185.4 293.698 189.017 291.743 189.017C289.694 189.017 288.111 185.4 288.111 180.948C288.111 176.496 289.787 172.878 291.743 172.878C293.791 172.878 295.374 176.496 295.374 180.948Z" fill="#272E77"/>
<path d="M310.739 189.017C312.745 189.017 314.371 185.404 314.371 180.948C314.371 176.491 312.745 172.878 310.739 172.878C308.733 172.878 307.107 176.491 307.107 180.948C307.107 185.404 308.733 189.017 310.739 189.017Z" fill="#272E77"/>
<path d="M77.0097 248.194V255.243C77.0097 255.336 77.0097 255.429 77.0097 255.429C77.0097 255.522 77.0097 255.614 76.9166 255.614C76.9166 255.707 76.8234 255.707 76.8234 255.8C76.7303 255.893 76.6372 256.078 76.5441 256.171L76.451 256.264C76.451 256.264 76.3578 256.264 76.3578 256.356C76.2647 256.356 76.2647 256.449 76.1716 256.449C76.0785 256.449 76.0785 256.449 75.9854 256.542C75.8922 256.542 75.7991 256.542 75.7991 256.542H26.6322C26.539 256.542 26.4459 256.542 26.4459 256.542C26.3528 256.542 26.3528 256.542 26.2597 256.449C26.1666 256.449 26.1666 256.449 26.0734 256.356C26.0734 256.356 26.0734 256.356 25.9803 256.356C25.7941 256.264 25.6078 256.078 25.5147 255.893C25.5147 255.8 25.4216 255.8 25.4216 255.707C25.4216 255.614 25.4216 255.522 25.3285 255.522C25.3285 255.429 25.3285 255.336 25.3285 255.336V248.287C25.3285 248.194 25.3285 248.101 25.3285 248.101C25.4216 247.452 25.9803 247.081 26.6322 247.081H75.706C76.3578 247.081 76.9166 247.545 77.0097 248.101C77.0097 248.009 77.0097 248.101 77.0097 248.194Z" fill="#94CCD6"/>
<path d="M72.4468 246.896H61.5519V256.542H72.4468V246.896Z" fill="#AEE6EB"/>
<path d="M76.9166 248.009H25.3285C25.4216 247.359 25.9803 246.988 26.6322 246.988H75.706C76.3579 246.896 76.8234 247.359 76.9166 248.009Z" fill="#AEE6EB"/>
<path d="M76.9166 255.429C76.9166 255.521 76.9166 255.614 76.8234 255.614C76.8234 255.707 76.7303 255.707 76.7303 255.8C76.6372 255.892 76.5441 256.078 76.451 256.171L76.3578 256.263C76.3578 256.263 76.2647 256.264 76.2647 256.356C76.1716 256.356 76.1716 256.449 76.0785 256.449C75.9854 256.449 75.9854 256.449 75.8923 256.542C75.7991 256.542 75.706 256.542 75.706 256.542H26.6322C26.539 256.542 26.4459 256.542 26.4459 256.542C26.3528 256.542 26.3528 256.542 26.2597 256.449C26.1666 256.449 26.1666 256.449 26.0734 256.356C26.0734 256.356 26.0734 256.356 25.9803 256.356C25.7941 256.264 25.6078 256.078 25.5147 255.892C25.5147 255.8 25.4216 255.8 25.4216 255.707C25.4216 255.614 25.4216 255.521 25.3285 255.521H76.9166V255.429Z" fill="#AEE6EB"/>
<path d="M77.0097 230.849V237.898C77.0097 237.991 77.0097 238.084 77.0097 238.084C77.0097 238.177 77.0097 238.269 76.9166 238.269C76.9166 238.362 76.8234 238.362 76.8234 238.455C76.7303 238.548 76.6372 238.733 76.5441 238.826L76.451 238.919C76.451 238.919 76.3578 238.919 76.3578 239.011C76.2647 239.011 76.2647 239.104 76.1716 239.104C76.0785 239.104 76.0785 239.104 75.9854 239.197C75.8922 239.197 75.7991 239.197 75.7991 239.197H26.6322C26.539 239.197 26.4459 239.197 26.4459 239.197C26.3528 239.197 26.3528 239.197 26.2597 239.104C26.1666 239.104 26.1666 239.104 26.0734 239.011C26.0734 239.011 26.0734 239.011 25.9803 239.011C25.7941 238.919 25.6078 238.733 25.5147 238.548C25.5147 238.455 25.4216 238.455 25.4216 238.362C25.4216 238.269 25.4216 238.177 25.3285 238.177C25.3285 238.084 25.3285 237.991 25.3285 237.991V230.942C25.3285 230.849 25.3285 230.756 25.3285 230.756C25.4216 230.107 25.9803 229.736 26.6322 229.736H75.706C76.3578 229.736 76.9166 230.2 77.0097 230.756V230.849Z" fill="#94CCD6"/>
<path d="M72.4468 229.643H61.5519V239.29H72.4468V229.643Z" fill="#AEE6EB"/>
<path d="M76.9166 230.664H25.3285C25.4216 230.014 25.9803 229.643 26.6322 229.643H75.706C76.3579 229.643 76.8234 230.107 76.9166 230.664Z" fill="#AEE6EB"/>
<path d="M76.9166 238.177C76.9166 238.269 76.9166 238.362 76.8234 238.362C76.8234 238.455 76.7303 238.455 76.7303 238.548C76.6372 238.64 76.5441 238.826 76.451 238.919L76.3578 239.011C76.3578 239.011 76.2647 239.011 76.2647 239.104C76.1716 239.104 76.1716 239.197 76.0785 239.197C75.9854 239.197 75.9854 239.197 75.8923 239.29C75.7991 239.29 75.706 239.29 75.706 239.29H26.6322C26.539 239.29 26.4459 239.29 26.4459 239.29C26.3528 239.29 26.3528 239.29 26.2597 239.197C26.1666 239.197 26.1666 239.197 26.0734 239.104C26.0734 239.104 26.0734 239.104 25.9803 239.104C25.7941 239.011 25.6078 238.826 25.5147 238.64C25.5147 238.548 25.4216 238.548 25.4216 238.455C25.4216 238.362 25.4216 238.269 25.3285 238.269H76.9166V238.177Z" fill="#AEE6EB"/>
<path d="M77.0097 205.064V212.113C77.0097 212.206 77.0097 212.299 77.0097 212.299C77.0097 212.391 77.0097 212.484 76.9166 212.484C76.9166 212.577 76.8234 212.577 76.8234 212.67C76.7303 212.762 76.6372 212.948 76.5441 213.041L76.451 213.133C76.451 213.133 76.3578 213.133 76.3578 213.226C76.2647 213.226 76.2647 213.319 76.1716 213.319C76.0785 213.319 76.0785 213.319 75.9854 213.412C75.8922 213.412 75.7991 213.412 75.7991 213.412H26.6322C26.539 213.412 26.4459 213.412 26.4459 213.412C26.3528 213.412 26.3528 213.412 26.2597 213.319C26.1666 213.319 26.1666 213.319 26.0734 213.226C26.0734 213.226 26.0734 213.226 25.9803 213.226C25.7941 213.133 25.6078 212.948 25.5147 212.762C25.5147 212.67 25.4216 212.67 25.4216 212.577C25.4216 212.484 25.4216 212.391 25.3285 212.391C25.3285 212.299 25.3285 212.206 25.3285 212.206V205.156C25.3285 205.064 25.3285 204.971 25.3285 204.971C25.4216 204.322 25.9803 203.951 26.6322 203.951H75.706C76.3578 203.951 76.9166 204.414 77.0097 204.971C77.0097 204.878 77.0097 204.971 77.0097 205.064Z" fill="#94CCD6"/>
<path d="M72.4468 203.765H61.5519V213.412H72.4468V203.765Z" fill="#AEE6EB"/>
<path d="M76.9166 204.785H25.3285C25.4216 204.136 25.9803 203.765 26.6322 203.765H75.706C76.3579 203.765 76.8234 204.229 76.9166 204.785Z" fill="#AEE6EB"/>
<path d="M76.9166 212.298C76.9166 212.391 76.9166 212.484 76.8234 212.484C76.8234 212.577 76.7303 212.577 76.7303 212.669C76.6372 212.762 76.5441 212.948 76.451 213.04L76.3578 213.133C76.3578 213.133 76.2647 213.133 76.2647 213.226C76.1716 213.226 76.1716 213.319 76.0785 213.319C75.9854 213.319 75.9854 213.319 75.8923 213.411C75.7991 213.411 75.706 213.411 75.706 213.411H26.6322C26.539 213.411 26.4459 213.411 26.4459 213.411C26.3528 213.411 26.3528 213.411 26.2597 213.319C26.1666 213.319 26.1666 213.319 26.0734 213.226C26.0734 213.226 26.0734 213.226 25.9803 213.226C25.7941 213.133 25.6078 212.948 25.5147 212.762C25.5147 212.669 25.4216 212.669 25.4216 212.577C25.4216 212.484 25.4216 212.391 25.3285 212.391H76.9166V212.298Z" fill="#AEE6EB"/>
<path d="M85.0179 239.568V246.617C85.0179 246.71 85.0179 246.803 85.0179 246.803C85.0179 246.896 85.0179 246.988 84.9248 246.988C84.9248 247.081 84.8317 247.081 84.8317 247.174C84.7386 247.267 84.6454 247.452 84.5523 247.545L84.4592 247.638C84.4592 247.638 84.3661 247.638 84.3661 247.73C84.273 247.73 84.273 247.823 84.1798 247.823C84.0867 247.823 84.0867 247.823 83.9936 247.916C83.9005 247.916 83.8074 247.916 83.8074 247.916H34.6404C34.5473 247.916 34.4542 247.916 34.4542 247.916C34.361 247.916 34.361 247.916 34.2679 247.823C34.1748 247.823 34.1748 247.823 34.0817 247.73C34.0817 247.73 34.0817 247.73 33.9886 247.73C33.8023 247.638 33.6161 247.452 33.523 247.267C33.523 247.174 33.4299 247.174 33.4299 247.081C33.4299 246.988 33.4299 246.896 33.3367 246.896C33.3367 246.803 33.3367 246.71 33.3367 246.71V239.661C33.3367 239.568 33.3367 239.475 33.3367 239.475C33.4299 238.826 33.9886 238.455 34.6404 238.455H83.7143C84.3661 238.455 84.9248 238.919 85.0179 239.475V239.568Z" fill="#94CCD6"/>
<path d="M80.4551 238.362H69.5601V248.009H80.4551V238.362Z" fill="#AEE6EB"/>
<path d="M84.9248 239.383H33.3367C33.4299 238.733 33.9886 238.362 34.6404 238.362H83.7143C84.3661 238.362 84.8317 238.733 84.9248 239.383Z" fill="#AEE6EB"/>
<path d="M84.9248 246.896C84.9248 246.988 84.9248 247.081 84.8317 247.081C84.8317 247.174 84.7386 247.174 84.7386 247.267C84.6454 247.359 84.5523 247.545 84.4592 247.638L84.3661 247.73C84.3661 247.73 84.273 247.73 84.273 247.823C84.1798 247.823 84.1798 247.916 84.0867 247.916C83.9936 247.916 83.9936 247.916 83.9005 248.009C83.8074 248.009 83.7143 248.009 83.7143 248.009H34.6404C34.5473 248.009 34.4542 248.009 34.4542 248.009C34.361 248.009 34.361 248.009 34.2679 247.916C34.1748 247.916 34.1748 247.916 34.0817 247.823C34.0817 247.823 34.0817 247.823 33.9886 247.823C33.8023 247.73 33.6161 247.545 33.523 247.359C33.523 247.267 33.4299 247.267 33.4299 247.174C33.4299 247.081 33.4299 246.988 33.3367 246.988H84.9248V246.896Z" fill="#AEE6EB"/>
<path d="M85.0179 222.316V229.365C85.0179 229.458 85.0179 229.551 85.0179 229.551C85.0179 229.643 85.0179 229.736 84.9248 229.736C84.9248 229.829 84.8317 229.829 84.8317 229.922C84.7386 230.014 84.6454 230.2 84.5523 230.293L84.4592 230.385C84.4592 230.385 84.3661 230.385 84.3661 230.478C84.273 230.478 84.273 230.571 84.1798 230.571C84.0867 230.571 84.0867 230.571 83.9936 230.664C83.9005 230.664 83.8074 230.664 83.8074 230.664H34.6404C34.5473 230.664 34.4542 230.664 34.4542 230.664C34.361 230.664 34.361 230.664 34.2679 230.571C34.1748 230.571 34.1748 230.571 34.0817 230.478C34.0817 230.478 34.0817 230.478 33.9886 230.478C33.8023 230.385 33.6161 230.2 33.523 230.014C33.523 229.922 33.4299 229.922 33.4299 229.829C33.4299 229.736 33.4299 229.643 33.3367 229.643C33.3367 229.551 33.3367 229.458 33.3367 229.458V222.409C33.3367 222.316 33.3367 222.223 33.3367 222.223C33.4299 221.574 33.9886 221.203 34.6404 221.203H83.7143C84.3661 221.203 84.9248 221.667 85.0179 222.223C85.0179 222.13 85.0179 222.223 85.0179 222.316Z" fill="#94CCD6"/>
<path d="M80.4551 221.017H69.5601V230.664H80.4551V221.017Z" fill="#AEE6EB"/>
<path d="M84.9248 222.13H33.3367C33.4299 221.481 33.9886 221.11 34.6404 221.11H83.7143C84.3661 221.017 84.8317 221.481 84.9248 222.13Z" fill="#AEE6EB"/>
<path d="M84.9248 229.643C84.9248 229.736 84.9248 229.829 84.8317 229.829C84.8317 229.922 84.7386 229.922 84.7386 230.014C84.6454 230.107 84.5523 230.293 84.4592 230.385L84.3661 230.478C84.3661 230.478 84.273 230.478 84.273 230.571C84.1798 230.571 84.1798 230.664 84.0867 230.664C83.9936 230.664 83.9936 230.664 83.9005 230.756C83.8074 230.756 83.7143 230.756 83.7143 230.756H34.6404C34.5473 230.756 34.4542 230.756 34.4542 230.756C34.361 230.756 34.361 230.756 34.2679 230.664C34.1748 230.664 34.1748 230.664 34.0817 230.571C34.0817 230.571 34.0817 230.571 33.9886 230.571C33.8023 230.478 33.6161 230.293 33.523 230.107C33.523 230.014 33.4299 230.014 33.4299 229.922C33.4299 229.829 33.4299 229.736 33.3367 229.736H84.9248V229.643Z" fill="#AEE6EB"/>
<path d="M85.0179 213.597V220.646C85.0179 220.739 85.0179 220.832 85.0179 220.832C85.0179 220.925 85.0179 221.017 84.9248 221.017C84.9248 221.11 84.8317 221.11 84.8317 221.203C84.7386 221.296 84.6454 221.481 84.5523 221.574L84.4592 221.667C84.4592 221.667 84.3661 221.667 84.3661 221.759C84.273 221.759 84.273 221.852 84.1798 221.852C84.0867 221.852 84.0867 221.852 83.9936 221.945C83.9005 221.945 83.8074 221.945 83.8074 221.945H34.6404C34.5473 221.945 34.4542 221.945 34.4542 221.945C34.361 221.945 34.361 221.945 34.2679 221.852C34.1748 221.852 34.1748 221.852 34.0817 221.759C34.0817 221.759 34.0817 221.759 33.9886 221.759C33.8023 221.667 33.6161 221.481 33.523 221.296C33.523 221.203 33.4299 221.203 33.4299 221.11C33.4299 221.017 33.4299 220.924 33.3367 220.924C33.3367 220.832 33.3367 220.739 33.3367 220.739V213.69C33.3367 213.597 33.3367 213.504 33.3367 213.504C33.4299 212.855 33.9886 212.484 34.6404 212.484H83.7143C84.3661 212.484 84.9248 212.948 85.0179 213.504C85.0179 213.411 85.0179 213.504 85.0179 213.597Z" fill="#94CCD6"/>
<path d="M80.4551 212.298H69.5601V221.945H80.4551V212.298Z" fill="#AEE6EB"/>
<path d="M84.9248 213.412H33.3367C33.4299 212.762 33.9886 212.391 34.6404 212.391H83.7143C84.3661 212.298 84.8317 212.762 84.9248 213.412Z" fill="#AEE6EB"/>
<path d="M84.9248 220.925C84.9248 221.017 84.9248 221.11 84.8317 221.11C84.8317 221.203 84.7386 221.203 84.7386 221.296C84.6454 221.388 84.5523 221.574 84.4592 221.667L84.3661 221.759C84.3661 221.759 84.273 221.759 84.273 221.852C84.1798 221.852 84.1798 221.945 84.0867 221.945C83.9936 221.945 83.9936 221.945 83.9005 222.038C83.8074 222.038 83.7143 222.038 83.7143 222.038H34.6404C34.5473 222.038 34.4542 222.038 34.4542 222.038C34.361 222.038 34.361 222.038 34.2679 221.945C34.1748 221.945 34.1748 221.945 34.0817 221.852C34.0817 221.852 34.0817 221.852 33.9886 221.852C33.8023 221.759 33.6161 221.574 33.523 221.388C33.523 221.296 33.4299 221.296 33.4299 221.203C33.4299 221.11 33.4299 221.017 33.3367 221.017H84.9248V220.925Z" fill="#AEE6EB"/>
<path d="M133.626 178.444H106.528" stroke="#7384F4" stroke-width="2.0811" stroke-miterlimit="10" stroke-linecap="round" stroke-linejoin="round"/>
<path d="M134.557 195.046H107.46" stroke="#7384F4" stroke-width="2.0811" stroke-miterlimit="10" stroke-linecap="round" stroke-linejoin="round"/>
<path d="M135.209 211.557H108.111" stroke="#7384F4" stroke-width="2.0811" stroke-miterlimit="10" stroke-linecap="round" stroke-linejoin="round"/>
<path d="M136.792 228.159H109.694" stroke="#7384F4" stroke-width="2.0811" stroke-miterlimit="10" stroke-linecap="round" stroke-linejoin="round"/>
<path d="M137.723 244.762H110.626" stroke="#7384F4" stroke-width="2.0811" stroke-miterlimit="10" stroke-linecap="round" stroke-linejoin="round"/>
<path d="M132.416 162.026L139.679 260.994" stroke="#7384F4" stroke-width="2.0811" stroke-miterlimit="10" stroke-linecap="round" stroke-linejoin="round"/>
<path d="M105.318 162.026L112.674 260.994" stroke="#7384F4" stroke-width="2.0811" stroke-miterlimit="10" stroke-linecap="round" stroke-linejoin="round"/>
<path d="M116.213 260.994L132.416 162.026H105.132L88.9289 260.994" stroke="#2B36AF" stroke-width="2.0811" stroke-miterlimit="10" stroke-linecap="round" stroke-linejoin="round"/>
<path d="M129.715 178.444H102.431" stroke="#2B36AF" stroke-width="2.0811" stroke-miterlimit="10" stroke-linecap="round"/>
<path d="M126.922 195.046H99.917" stroke="#2B36AF" stroke-width="2.0811" stroke-miterlimit="10" stroke-linecap="round"/>
<path d="M124.128 211.557H97.4027" stroke="#2B36AF" stroke-width="2.0811" stroke-miterlimit="10" stroke-linecap="round"/>
<path d="M121.334 228.159H94.7954" stroke="#2B36AF" stroke-width="2.0811" stroke-miterlimit="10" stroke-linecap="round"/>
<path d="M118.541 244.762H92.095" stroke="#2B36AF" stroke-width="2.0811" stroke-miterlimit="10" stroke-linecap="round"/>
<path d="M131.298 130.026C131.298 130.026 134.464 140.693 135.582 150.803C135.768 153.029 135.023 155.162 133.44 156.646L105.038 182.803L100.383 175.475L118.634 154.884L122.452 132.716L131.298 130.026Z" fill="#FF6340"/>
<path d="M100.848 176.218L96.099 178.165C95.4472 178.536 95.261 179.371 95.6334 180.02L102.804 191.429C103.176 191.986 103.828 192.078 104.387 191.8C104.666 191.615 104.852 191.336 104.945 190.965L104.387 181.968L100.848 176.218Z" fill="#131118"/>
<path d="M126.177 131.417L128.225 156.739C128.318 157.574 128.225 158.409 128.039 159.244L122.359 188.183H113.047L114.723 159.244L111.65 133.365L126.177 131.417Z" fill="#FF6340"/>
<path d="M113.978 188.183L113.14 193.191C113.14 193.933 113.699 194.49 114.444 194.49H127.946C128.598 194.49 129.063 194.026 129.063 193.377C129.063 193.006 128.877 192.728 128.598 192.449L120.683 188.09L113.978 188.183Z" fill="#131118"/>
<path d="M130.46 64.6348C130.46 66.9537 128.598 68.9015 126.177 68.9015C123.849 68.9015 121.893 67.0464 121.893 64.6348C121.893 62.316 123.755 60.3682 126.177 60.3682C128.505 60.3682 130.46 62.316 130.46 64.6348Z" fill="#926150"/>
<path d="M126.177 67.5101L128.505 74.0029L133.254 71.8696L129.529 64.6348L126.177 67.5101Z" fill="#926150"/>
<path d="M124.035 98.6755L130.739 86.8958L125.245 71.035L133.533 67.7886L139.679 86.1538C140.051 87.7306 139.772 89.4002 139.12 90.7915L128.132 111.012L124.035 98.6755Z" fill="#F3E9A7"/>
<path d="M108.018 102.942L88.6496 103.499L87.6252 112.217L108.111 112.959C110.346 113.052 112.395 111.568 113.047 109.528C114.164 106.281 111.65 102.849 108.018 102.942Z" fill="#F3E9A7"/>
<path d="M99.9169 86.6173C98.2408 88.2869 95.5403 88.1942 93.9573 86.5246C92.2812 84.855 92.3743 82.1652 94.0504 80.5884C95.7266 78.9188 98.427 79.0115 100.01 80.6811C101.593 82.2579 101.593 84.9478 99.9169 86.6173Z" fill="#926150"/>
<path d="M93.8642 85.5972L90.7913 91.7189L95.6335 93.6667L98.3339 85.9682L93.8642 85.5972Z" fill="#926150"/>
<path d="M97.9614 90.4202L92.1881 109.156C91.5362 111.197 89.4876 112.496 87.3459 112.217C84.4592 111.754 82.783 108.785 83.9004 106.096L91.5362 88.2869L97.9614 90.4202Z" fill="#F3E9A7"/>
<path d="M115.933 100.994L107.739 102.942L110.253 134.107C110.253 134.107 116.585 139.58 132.881 130.768L126.828 97.0986L120.496 100.623L115.933 100.994Z" fill="#F3E9A7"/>
<path d="M126.361 64.3931C132.425 49.4854 125.208 32.504 110.241 26.4641C95.2749 20.4241 78.2266 27.6128 72.1628 42.5205C66.0991 57.4281 73.3161 74.4095 88.2825 80.4495C103.249 86.4894 120.297 79.3007 126.361 64.3931Z" fill="#80BDC1"/>
<path d="M122.369 64.383C128.426 49.4721 121.201 32.4933 106.231 26.4598C91.2618 20.4263 74.2161 27.6228 68.1588 42.5337C62.1015 57.4446 69.3263 74.4234 84.296 80.4569C99.2657 86.4904 116.311 79.2939 122.369 64.383Z" fill="#AEE6EB"/>
<path d="M117.63 58.4023C120.366 46.0993 112.572 33.916 100.22 31.1903C87.8687 28.4645 75.6374 36.2284 72.9009 48.5315C70.1644 60.8345 77.9589 73.0178 90.3105 75.7435C102.662 78.4693 114.893 70.7053 117.63 58.4023Z" fill="#94CCD6"/>
<path d="M95.6335 30.5942C95.1679 30.5942 94.7954 30.5942 94.3298 30.5942C106.156 31.2435 114.444 41.1681 114.444 53.4116C114.444 65.5624 106.249 75.487 94.3298 76.229C94.7954 76.229 95.1679 76.229 95.6335 76.229C108.111 76.229 118.168 66.0261 118.168 53.4116C118.168 40.8899 108.111 30.5942 95.6335 30.5942Z" fill="#88C5CA"/>
<path d="M114.816 84.113C112.022 85.0405 113.792 89.3999 113.792 89.3999L110.253 91.0695C111.65 94.4086 115.002 96.5419 118.355 95.9854C122.359 95.3361 125.059 91.0695 124.221 86.5246C123.942 84.9477 123.29 83.6492 122.359 82.6289C122.266 82.6289 117.61 83.2782 114.816 84.113Z" fill="#926150"/>
<path d="M113.978 101.829L112.767 94.1304L119.286 93.1101L120.496 100.809C120.776 102.571 120.124 104.148 118.354 104.426L117.796 104.519C115.933 104.89 114.257 103.684 113.978 101.829Z" fill="#926150"/>
<path d="M112.395 93.4812C112.395 93.4812 113.605 101.273 120.403 100.623L119.658 96.1711L112.395 93.4812Z" fill="#805042"/>
<path d="M126.177 88.6579C126.456 89.8637 125.618 90.9767 124.5 91.1623C123.29 91.4405 122.172 90.6057 121.986 89.4927C121.707 88.2869 122.545 87.1739 123.662 86.9883C124.78 86.7101 125.897 87.4521 126.177 88.6579Z" fill="#805042"/>
<path d="M120.217 98.7682L119.938 98.8609C116.492 99.603 113.14 97.3769 112.395 93.8522L110.998 86.803C110.812 85.8754 111.371 85.0406 112.302 84.8551L120.589 83.1856C122.172 82.9073 123.755 83.9276 124.035 85.5044L125.245 91.2551C125.897 94.687 123.662 98.1189 120.217 98.7682Z" fill="#926150"/>
<path d="M113.792 89.3999L114.63 93.4811C114.816 94.2231 115.282 94.8724 115.933 95.0579C116.399 95.2434 116.772 95.5216 117.33 95.2434C119.1 94.5013 117.982 93.4811 121.8 92.739C125.339 92.0898 125.525 93.8521 125.525 93.8521C125.525 93.8521 125.804 97.655 121.055 99.0463C116.399 100.438 113.233 98.026 112.767 93.9448L111.743 89.9564L113.792 89.3999Z" fill="#1F2326"/>
<path d="M114.816 84.113C117.61 83.1855 122.266 82.629 122.359 82.5362C120.683 80.7739 118.261 80.1246 115.654 80.4957C111.65 81.1449 108.763 84.2986 109.508 88.8435C109.601 89.5855 109.881 90.3275 110.16 90.9768L113.699 89.3072C113.792 89.4 112.022 85.0406 114.816 84.113Z" fill="#1F2326"/>
<path d="M112.954 91.4405C113.419 92.7391 112.767 94.1304 111.557 94.5942C110.253 95.0579 108.856 94.4086 108.391 93.2028C107.925 91.9043 108.577 90.513 109.788 90.0492C111.091 89.5855 112.488 90.142 112.954 91.4405Z" fill="#926150"/>
<path d="M233.916 249.585L229.818 244.02L225.628 247.359L229.539 253.11L233.916 249.585Z" fill="#E4BB9E"/>
<path d="M234.102 249.122L237.827 252.553C238.292 253.11 238.199 253.945 237.547 254.409L226.932 262.664C226.466 263.035 225.721 262.942 225.349 262.478C225.162 262.2 225.069 261.829 225.162 261.551L228.794 253.295L234.102 249.122Z" fill="#131118"/>
<path d="M197.04 197.736L207.19 226.026L225.256 250.698L234.009 245.69L218.923 223.614L211.288 197.643L197.04 197.736Z" fill="#FF6340"/>
<path d="M189.405 257.562L191.919 251.162L186.89 249.307L184.097 255.707L189.405 257.562Z" fill="#E4BB9E"/>
<path d="M189.87 257.748L189.032 262.756C188.753 263.406 188.008 263.777 187.356 263.591L174.599 259.232C174.04 259.046 173.667 258.397 173.947 257.84C174.04 257.469 174.319 257.284 174.692 257.098L183.631 255.614L189.87 257.748Z" fill="#131118"/>
<path d="M197.04 197.736L201.045 202.559L192.198 222.501L183.259 251.533L193.502 254.965L203.372 224.913L217.154 197.643L212.405 197.736H197.04Z" fill="#FF6340"/>
<path d="M201.231 165.272C201.231 165.272 200.579 165.365 199.741 165.829C197.599 166.942 196.389 169.168 196.482 171.487L196.389 199.684C196.389 199.684 206.073 202.745 217.154 198.293L217.061 170.188C217.061 169.817 218.085 167.313 217.806 167.128C217.154 166.478 216.223 165.643 214.733 165.365C214.547 165.365 214.361 165.272 214.174 165.272H201.231Z" fill="#F3E9A7"/>
<path d="M196.854 169.261L189.87 187.44L203.466 184.101L196.854 169.261Z" fill="#F3E9A7"/>
<path d="M203.559 161.377L209.425 157.388L210.543 158.13L210.45 165.272C210.45 167.127 208.867 168.611 207.004 168.611C205.049 168.611 203.559 167.035 203.559 165.179V161.377Z" fill="#E1B798"/>
<path d="M203.559 164.345C203.559 164.345 210.915 164.53 209.798 156.739L207.935 158.038L203.559 161.562V164.345Z" fill="#CA8F7E"/>
<path d="M205.142 168.055L208.773 171.672L212.219 165.272H210.356L205.142 168.055Z" fill="white"/>
<path d="M205.142 168.055L201.883 170.93L202.255 165.272H203.559L205.142 168.055Z" fill="white"/>
<path d="M198.251 155.069C198.251 156.182 199.089 157.11 200.206 157.11C201.324 157.11 202.255 156.275 202.255 155.162C202.255 154.049 201.417 153.122 200.3 153.122C199.182 153.029 198.251 153.956 198.251 155.069Z" fill="#CA8F7E"/>
<path d="M199.368 148.113C199.368 148.113 195.457 154.142 201.324 154.513L202.814 151.359L201.51 148.02L199.368 148.113Z" fill="#1F2326"/>
<path d="M204.769 163.139H204.956C208.028 163.232 210.636 160.82 210.729 157.667L210.915 150.432C210.915 149.597 210.263 148.948 209.518 148.948L202.069 148.762C200.672 148.762 199.461 149.875 199.368 151.267L199.182 157.296C199.182 160.449 201.603 163.046 204.769 163.139Z" fill="#E1B798"/>
<path d="M198.344 151.638C197.785 150.988 194.061 148.206 197.32 144.681C198.996 142.919 200.486 143.846 202.255 144.681C203 144.403 204.956 143.475 207.19 143.568C209.425 143.661 211.101 145.052 212.033 146.814C212.033 146.814 214.454 146.907 215.478 149.504C217.434 154.327 210.356 160.449 210.356 160.449V154.42C207.563 154.235 207.47 151.73 207.749 150.154C203.279 151.081 199.368 150.617 199.368 150.617C199.368 150.617 199.648 151.452 198.81 150.71L198.437 150.432C197.878 150.246 198.53 151.916 198.344 151.638Z" fill="#1F2326"/>
<path d="M211.942 157.621C213.055 157.419 213.794 156.357 213.592 155.248C213.389 154.139 212.323 153.404 211.21 153.605C210.096 153.807 209.358 154.869 209.56 155.978C209.763 157.087 210.829 157.822 211.942 157.621Z" fill="#E1B798"/>
<path d="M238.069 208.853C240.583 193.276 229.943 178.618 214.304 176.114C198.665 173.61 183.95 184.208 181.436 199.786C178.922 215.363 189.562 230.021 205.201 232.525C220.84 235.029 235.555 224.431 238.069 208.853Z" fill="#AEE6EB"/>
<path d="M218.509 224.905C229.93 220.11 235.286 207.001 230.472 195.624C225.659 184.248 212.497 178.912 201.076 183.707C189.655 188.503 184.298 201.612 189.112 212.989C193.926 224.365 207.087 229.7 218.509 224.905Z" fill="#94CCD6"/>
<path d="M210.077 181.968C209.612 181.968 209.239 181.968 208.773 181.968C220.413 182.617 228.515 192.356 228.515 204.322C228.515 216.287 220.413 226.026 208.773 226.675C209.146 226.675 209.612 226.675 210.077 226.675C222.276 226.675 232.239 216.658 232.239 204.229C232.239 191.985 222.369 181.968 210.077 181.968Z" fill="#88C5CA"/>
<path d="M209.317 212.48C210.889 212.48 212.229 212.097 213.339 211.332C214.471 210.567 215.303 209.524 215.835 208.203H221C220.353 210.915 219.024 213.059 217.013 214.636C215.003 216.212 212.472 217 209.421 217C206.509 217 204.036 216.2 202.003 214.601C199.992 213.001 198.652 210.857 197.981 208.168H195V205.873H197.635C197.588 205.271 197.565 204.819 197.565 204.517C197.565 203.961 197.577 203.555 197.6 203.3H195V200.971H197.947C198.594 198.212 199.934 196.033 201.968 194.434C204.002 192.811 206.486 192 209.421 192C212.472 192 215.003 192.788 217.013 194.364C219.024 195.941 220.353 198.085 221 200.797H215.835C215.303 199.476 214.471 198.433 213.339 197.668C212.229 196.903 210.889 196.52 209.317 196.52C207.884 196.52 206.625 196.914 205.539 197.702C204.452 198.467 203.655 199.557 203.147 200.971H210.149V203.3H202.627C202.58 203.81 202.557 204.216 202.557 204.517C202.557 204.819 202.58 205.271 202.627 205.873H210.149V208.168H203.181C203.69 209.513 204.487 210.567 205.573 211.332C206.66 212.097 207.908 212.48 209.317 212.48Z" fill="white"/>
<path d="M221.065 194.49L218.272 197.922C217.527 198.849 216.223 198.942 215.292 198.2C214.361 197.458 214.267 196.159 215.012 195.232L217.806 191.8C218.551 190.872 219.855 190.78 220.786 191.522C221.624 192.264 221.81 193.655 221.065 194.49Z" fill="#E1B798"/>
<path d="M217.713 195.232C219.389 196.53 219.296 198.385 217.899 199.962C216.595 201.632 214.547 202.466 212.871 201.075C211.195 199.777 211.008 197.365 212.312 195.695C213.709 194.211 216.037 193.933 217.713 195.232Z" fill="#E1B798"/>
<path d="M222.089 196.159L216.037 192.727L223.207 182.525L212.033 174.084C210.263 172.6 208.96 168.797 212.219 166.293C213.429 165.087 216.595 165.829 217.806 167.035L232.519 179C233.357 179.835 233.636 181.133 233.264 182.246L222.089 196.159Z" fill="#F3E9A7"/>
<path d="M370.894 244.577V251.626C370.894 251.719 370.894 251.812 370.894 251.812C370.894 251.904 370.894 251.997 370.801 251.997C370.801 252.09 370.708 252.09 370.708 252.183C370.615 252.275 370.521 252.461 370.428 252.554L370.335 252.646C370.335 252.646 370.242 252.647 370.242 252.739C370.149 252.739 370.149 252.832 370.056 252.832C369.963 252.832 369.963 252.832 369.87 252.925C369.777 252.925 369.683 252.925 369.683 252.925H320.61C320.516 252.925 320.423 252.925 320.423 252.925C320.33 252.925 320.33 252.925 320.237 252.832C320.144 252.832 320.144 252.832 320.051 252.739C320.051 252.739 320.051 252.739 319.958 252.739C319.772 252.647 319.585 252.461 319.492 252.275C319.492 252.183 319.399 252.183 319.399 252.09C319.399 251.997 319.399 251.904 319.306 251.904C319.306 251.812 319.306 251.719 319.306 251.719V244.67C319.306 244.577 319.306 244.484 319.306 244.484C319.399 243.835 319.958 243.464 320.61 243.464H369.683C370.335 243.464 370.894 243.928 370.987 244.484C370.894 244.484 370.894 244.577 370.894 244.577Z" fill="#94CCD6"/>
<path d="M366.424 243.371H355.529V253.017H366.424V243.371Z" fill="#AEE6EB"/>
<path d="M370.894 244.391H319.306C319.399 243.742 319.958 243.371 320.61 243.371H369.683C370.242 243.371 370.801 243.835 370.894 244.391Z" fill="#AEE6EB"/>
<path d="M370.894 251.904C370.894 251.997 370.894 252.09 370.801 252.09C370.801 252.183 370.708 252.183 370.708 252.275C370.615 252.368 370.521 252.554 370.428 252.646L370.335 252.739C370.335 252.739 370.242 252.739 370.242 252.832C370.149 252.832 370.149 252.925 370.056 252.925C369.963 252.925 369.963 252.925 369.87 253.017C369.777 253.017 369.683 253.017 369.683 253.017H320.61C320.516 253.017 320.423 253.017 320.423 253.017C320.33 253.017 320.33 253.017 320.237 252.925C320.144 252.925 320.144 252.925 320.051 252.832C320.051 252.832 320.051 252.832 319.958 252.832C319.772 252.739 319.585 252.554 319.492 252.368C319.492 252.275 319.399 252.275 319.399 252.183C319.399 252.09 319.399 251.997 319.306 251.997H370.894V251.904Z" fill="#AEE6EB"/>
<path d="M390.356 227.325V234.374C390.356 234.467 390.356 234.559 390.356 234.559C390.356 234.652 390.356 234.745 390.263 234.745C390.263 234.838 390.17 234.838 390.17 234.931C390.077 235.023 389.983 235.209 389.89 235.302L389.797 235.394C389.797 235.394 389.704 235.394 389.704 235.487C389.611 235.487 389.611 235.58 389.518 235.58C389.425 235.58 389.425 235.58 389.332 235.673C389.238 235.673 389.145 235.673 389.145 235.673H340.072C339.978 235.673 339.885 235.673 339.885 235.673C339.792 235.673 339.792 235.673 339.699 235.58C339.606 235.58 339.606 235.58 339.513 235.487C339.513 235.487 339.513 235.487 339.42 235.487C339.233 235.394 339.047 235.209 338.954 235.023C338.954 234.931 338.861 234.931 338.861 234.838C338.861 234.745 338.861 234.652 338.768 234.652C338.768 234.559 338.768 234.467 338.768 234.467V227.417C338.768 227.325 338.768 227.232 338.768 227.232C338.861 226.583 339.42 226.212 340.072 226.212H389.145C389.797 226.212 390.356 226.675 390.449 227.232C390.263 227.139 390.356 227.232 390.356 227.325Z" fill="#94CCD6"/>
<path d="M385.793 226.026H374.898V235.672H385.793V226.026Z" fill="#AEE6EB"/>
<path d="M390.263 227.139H338.675C338.768 226.49 339.327 226.119 339.978 226.119H389.052C389.704 226.026 390.17 226.49 390.263 227.139Z" fill="#AEE6EB"/>
<path d="M390.263 234.652C390.263 234.745 390.263 234.838 390.17 234.838C390.17 234.93 390.077 234.93 390.077 235.023C389.983 235.116 389.89 235.301 389.797 235.394L389.704 235.487C389.704 235.487 389.611 235.487 389.611 235.58C389.518 235.58 389.518 235.672 389.425 235.672C389.332 235.672 389.332 235.672 389.238 235.765C389.145 235.765 389.052 235.765 389.052 235.765H339.978C339.885 235.765 339.792 235.765 339.792 235.765C339.699 235.765 339.699 235.765 339.606 235.672C339.513 235.672 339.513 235.672 339.42 235.58C339.42 235.58 339.42 235.58 339.327 235.58C339.14 235.487 338.954 235.301 338.861 235.116C338.861 235.023 338.768 235.023 338.768 234.93C338.768 234.838 338.768 234.745 338.675 234.745H390.263V234.652Z" fill="#AEE6EB"/>
<path d="M378.902 236.044V243.093C378.902 243.186 378.902 243.278 378.902 243.278C378.902 243.371 378.902 243.464 378.809 243.464C378.809 243.557 378.716 243.557 378.716 243.65C378.623 243.742 378.53 243.928 378.437 244.021L378.343 244.113C378.343 244.113 378.25 244.113 378.25 244.206C378.157 244.206 378.157 244.299 378.064 244.299C377.971 244.299 377.971 244.299 377.878 244.392C377.785 244.392 377.692 244.392 377.692 244.392H328.618C328.525 244.392 328.432 244.392 328.432 244.392C328.338 244.392 328.338 244.392 328.245 244.299C328.152 244.299 328.152 244.299 328.059 244.206C328.059 244.206 328.059 244.206 327.966 244.206C327.78 244.113 327.593 243.928 327.5 243.742C327.5 243.65 327.407 243.65 327.407 243.557C327.407 243.464 327.407 243.371 327.314 243.371C327.314 243.279 327.314 243.186 327.314 243.186V236.136C327.314 236.044 327.314 235.951 327.314 235.951C327.407 235.302 327.966 234.931 328.618 234.931H377.692C378.343 234.931 378.902 235.394 378.995 235.951C378.902 235.858 378.902 235.951 378.902 236.044Z" fill="#94CCD6"/>
<path d="M374.432 234.745H363.538V244.391H374.432V234.745Z" fill="#AEE6EB"/>
<path d="M378.902 235.858H327.314C327.407 235.209 327.966 234.838 328.618 234.838H377.692C378.25 234.745 378.809 235.209 378.902 235.858Z" fill="#AEE6EB"/>
<path d="M378.902 243.371C378.902 243.464 378.902 243.557 378.809 243.557C378.809 243.649 378.716 243.649 378.716 243.742C378.623 243.835 378.53 244.02 378.437 244.113L378.343 244.206C378.343 244.206 378.25 244.206 378.25 244.299C378.157 244.299 378.157 244.391 378.064 244.391C377.971 244.391 377.971 244.391 377.878 244.484C377.785 244.484 377.692 244.484 377.692 244.484H328.618C328.525 244.484 328.432 244.484 328.432 244.484C328.338 244.484 328.338 244.484 328.245 244.391C328.152 244.391 328.152 244.391 328.059 244.299C328.059 244.299 328.059 244.299 327.966 244.299C327.78 244.206 327.593 244.02 327.5 243.835C327.5 243.742 327.407 243.742 327.407 243.649C327.407 243.557 327.407 243.464 327.314 243.464H378.902V243.371Z" fill="#AEE6EB"/>
<path d="M378.902 218.235V225.284C378.902 225.377 378.902 225.47 378.902 225.47C378.902 225.562 378.902 225.655 378.809 225.655C378.809 225.748 378.716 225.748 378.716 225.841C378.623 225.933 378.53 226.119 378.437 226.212L378.343 226.304C378.343 226.304 378.25 226.304 378.25 226.397C378.157 226.397 378.157 226.49 378.064 226.49C377.971 226.49 377.971 226.49 377.878 226.583C377.785 226.583 377.692 226.583 377.692 226.583H328.618C328.525 226.583 328.432 226.583 328.432 226.583C328.338 226.583 328.338 226.583 328.245 226.49C328.152 226.49 328.152 226.49 328.059 226.397C328.059 226.397 328.059 226.397 327.966 226.397C327.78 226.304 327.593 226.119 327.5 225.933C327.5 225.841 327.407 225.841 327.407 225.748C327.407 225.655 327.407 225.562 327.314 225.562C327.314 225.47 327.314 225.377 327.314 225.377V218.328C327.314 218.235 327.314 218.142 327.314 218.142C327.407 217.493 327.966 217.122 328.618 217.122H377.692C378.343 217.122 378.902 217.586 378.995 218.142C378.902 218.049 378.902 218.142 378.902 218.235Z" fill="#94CCD6"/>
<path d="M374.432 216.936H363.538V226.583H374.432V216.936Z" fill="#AEE6EB"/>
<path d="M378.902 217.957H327.314C327.407 217.307 327.966 216.936 328.618 216.936H377.692C378.25 216.936 378.809 217.4 378.902 217.957Z" fill="#AEE6EB"/>
<path d="M378.902 225.47C378.902 225.562 378.902 225.655 378.809 225.655C378.809 225.748 378.716 225.748 378.716 225.841C378.623 225.933 378.53 226.119 378.437 226.212L378.343 226.305C378.343 226.305 378.25 226.305 378.25 226.397C378.157 226.397 378.157 226.49 378.064 226.49C377.971 226.49 377.971 226.49 377.878 226.583C377.785 226.583 377.692 226.583 377.692 226.583H328.618C328.525 226.583 328.432 226.583 328.432 226.583C328.338 226.583 328.338 226.583 328.245 226.49C328.152 226.49 328.152 226.49 328.059 226.397C328.059 226.397 328.059 226.397 327.966 226.397C327.78 226.305 327.593 226.119 327.5 225.933C327.5 225.841 327.407 225.841 327.407 225.748C327.407 225.655 327.407 225.562 327.314 225.562H378.902V225.47Z" fill="#AEE6EB"/>
<path d="M357.392 210.165C356.181 210.165 354.971 209.423 354.505 208.31L345.938 187.255C345.193 185.678 345.472 183.174 347.055 182.432L346.869 181.783C348.452 181.041 352.177 182.246 354.226 186.699L360.465 202.559L357.392 210.165Z" fill="#E7DA95"/>
<path d="M376.667 212.391L378.064 221.388L383.093 220.275L381.696 211.371L376.667 212.391Z" fill="#E1B798"/>
<path d="M376.667 219.905L376.016 224.913C376.016 225.655 376.667 226.212 377.412 226.212L390.915 225.748C391.566 225.748 392.032 225.191 392.032 224.635C392.032 224.264 391.846 223.986 391.566 223.8L383.465 219.719L376.667 219.905Z" fill="#131118"/>
<path d="M354.877 205.62L372.291 191.058L380.392 196.345L362.513 216.844C358.509 221.018 349.942 222.038 346.776 217.215C346.31 216.565 346.776 215.638 346.31 214.71L354.877 205.62Z" fill="#FF6340"/>
<path d="M371.453 196.252L375.55 216.565L384.396 214.988L380.206 193.284C380.113 192.264 379.647 191.336 378.809 190.687C377.878 189.945 376.015 189.667 374.619 189.945C374.246 190.038 373.874 190.13 373.501 190.316L372.291 191.058L371.453 196.252Z" fill="#FF6340"/>
<path d="M372.849 234.838L374.898 244.02L380.485 242.444L378.53 233.354L372.849 234.838Z" fill="#E1B798"/>
<path d="M374.06 241.887L372.943 246.803C372.849 247.545 373.408 248.194 374.153 248.194L387.655 249.029C388.307 249.029 388.773 248.565 388.866 248.009C388.866 247.638 388.773 247.359 388.493 247.081L380.858 242.258L374.06 241.887Z" fill="#131118"/>
<path d="M352.549 208.959L372.756 210.629C375.177 210.536 377.226 212.206 377.692 214.525C377.785 215.081 377.971 215.73 378.064 216.565C378.623 221.296 381.23 238.177 381.23 238.177L372.198 239.475L368.193 221.388L349.29 222.038C345.472 222.316 341.841 220.368 340.071 217.029C339.42 215.73 339.047 214.339 339.233 212.67L352.549 208.959Z" fill="#FF6340"/>
<path d="M336.44 192.078L337.371 215.359C354.505 214.988 356.274 205.156 356.274 205.156L353.946 187.441C353.853 186.606 353.481 185.585 352.922 184.658C351.432 182.061 348.359 180.67 345.379 181.133L344.541 181.041C336.347 181.69 335.974 186.327 336.44 192.078Z" fill="#F3E9A7"/>
<path d="M336.719 199.777L340.537 194.119L338.675 204.322L336.905 203.209L336.719 199.777Z" fill="#E7DA95"/>
<path d="M344.448 211C343.517 212.67 344.262 214.246 345.938 215.174C347.614 216.101 349.663 216.101 350.594 214.339C351.525 212.67 350.873 210.536 349.197 209.609C347.521 208.681 345.379 209.33 344.448 211Z" fill="#E1B798"/>
<path d="M341.282 211.557L344.914 213.504C345.845 213.968 347.055 213.69 347.521 212.762C347.987 211.835 347.707 210.629 346.776 210.165L343.144 208.217C342.213 207.754 341.003 208.032 340.537 208.959C339.978 209.887 340.351 211.093 341.282 211.557Z" fill="#E1B798"/>
<path d="M341.003 213.319L344.914 208.31L335.136 202.188L343.331 189.945C344.355 188.09 344.541 183.638 340.816 182.617V182.896C339.327 182.339 338.488 182.432 335.788 185.957L325.917 202.374C325.452 203.394 325.731 204.6 326.476 205.435L341.003 213.319Z" fill="#F3E9A7"/>
<path d="M355.902 171.487C354.691 170.096 355.064 167.962 355.064 167.962C355.25 166.664 355.157 165.736 354.784 164.994C353.481 160.635 347.987 160.449 343.424 161.099C338.023 161.841 336.905 166.942 336.905 166.942L339.792 168.797C339.792 168.797 343.238 170.188 346.869 170.745L346.683 176.588H357.112C357.578 174.641 357.112 172.786 355.902 171.487Z" fill="#1F2326"/>
<path d="M342.306 181.875V174.548H348.452V181.875C348.452 183.545 347.055 184.936 345.379 184.936C343.61 184.936 342.306 183.545 342.306 181.875Z" fill="#E1B798"/>
<path d="M342.027 173.064C342.027 173.064 342.679 180.391 348.452 179.927V176.217L342.027 173.064Z" fill="#CA8F7E"/>
<path d="M354.319 171.58C354.319 172.693 353.481 173.527 352.363 173.527C351.246 173.527 350.408 172.693 350.408 171.58C350.408 170.467 351.246 169.632 352.363 169.632C353.387 169.632 354.319 170.467 354.319 171.58Z" fill="#CA8F7E"/>
<path d="M347.335 178.536H347.149C343.889 178.536 341.282 176.032 341.282 172.786L341.189 166.2C341.189 165.365 341.841 164.716 342.679 164.716L350.315 164.623C351.805 164.623 353.015 165.829 353.015 167.313L353.108 172.693C353.108 175.846 350.501 178.444 347.335 178.536Z" fill="#E1B798"/>
<path d="M344.355 167.406C344.355 167.406 344.448 170.745 342.213 171.116C339.978 171.487 341.189 167.406 341.189 167.406H344.355Z" fill="#1F2326"/>
<path d="M343.051 161.284C343.051 161.284 338.488 161.099 336.16 167.684C333.833 174.27 336.812 177.516 336.999 177.609H343.238C343.61 175.754 343.051 173.991 342.306 172.507C341.561 170.838 342.12 168.983 342.12 168.983C342.12 168.89 342.12 168.797 342.12 168.705C344.355 168.519 349.942 167.777 350.687 163.881L350.78 162.397L343.051 161.284Z" fill="#1F2326"/>
<path d="M343.144 171.487C343.144 172.6 342.306 173.435 341.189 173.435C340.071 173.435 339.233 172.6 339.233 171.487C339.233 170.374 340.071 169.539 341.189 169.539C342.213 169.539 343.144 170.374 343.144 171.487Z" fill="#E1B798"/>
</svg>
