<svg width="94" height="150" viewBox="0 0 94 150" fill="none" xmlns="http://www.w3.org/2000/svg">
<path d="M48.4 0.399995C62 0.399995 72.9333 4 81.2 11.2C89.4667 18.4 93.6 28.6 93.6 41.8C93.6 55.1333 89.3333 65.3333 80.8 72.4C72.4 79.4667 61.0667 83.1333 46.8 83.4V103.6H20.2V65H31.6C42.4 65 50.8 63.4 56.8 60.2C62.8 56.8667 65.8 50.8 65.8 42C65.8 36.1333 64.1333 31.6 60.8 28.4C57.4667 25.0667 53 23.4 47.4 23.4C41.2667 23.4 36.4 25.2 32.8 28.8C29.2 32.2667 27.4 36.8 27.4 42.4H0.8C0.533334 34.4 2.26667 27.2667 6 21C9.73333 14.6 15.2 9.6 22.4 5.99999C29.7333 2.26666 38.4 0.399995 48.4 0.399995ZM49 120.6V150H18.6V120.6H49Z" fill="#FF6340"/>
</svg>
