<svg width="100" height="100" viewBox="0 0 100 100" fill="none" xmlns="http://www.w3.org/2000/svg">
<circle cx="50" cy="50" r="50" fill="white"/>
<path d="M49.6979 81.3848C32.2194 81.3848 18 67.1678 18 49.6924C18 32.2169 32.2197 18 49.6979 18C67.1761 18 81.3958 32.2169 81.3958 49.6924C81.3958 67.1678 67.1764 81.3848 49.6979 81.3848ZM49.6979 19.2936C32.9333 19.2936 19.2938 32.9303 19.2938 49.6924C19.2938 66.4544 32.9329 80.0912 49.6979 80.0912C66.4629 80.0912 80.102 66.4544 80.102 49.6924C80.102 32.9303 66.4629 19.2936 49.6979 19.2936ZM49.6979 74.5279C36.0012 74.5279 24.8581 63.3867 24.8581 49.6924C24.8581 35.998 36.0012 24.8569 49.6979 24.8569C63.3946 24.8569 74.5381 35.998 74.5381 49.6924C74.5381 63.3867 63.3946 74.5279 49.6979 74.5279ZM49.6979 26.1504C36.7147 26.1504 26.1519 36.7111 26.1519 49.6924C26.1519 62.6733 36.7147 73.2343 49.6979 73.2343C62.6811 73.2343 73.244 62.6733 73.244 49.6924C73.2443 36.7111 62.6811 26.1504 49.6979 26.1504ZM49.6979 67.0938C40.1012 67.0938 32.2935 59.2874 32.2935 49.6924C32.2935 40.0974 40.1012 32.291 49.6979 32.291C59.2946 32.291 67.1023 40.0974 67.1023 49.6924C67.1023 59.2874 59.2949 67.0938 49.6979 67.0938ZM49.6979 33.5846C40.8144 33.5846 33.5873 40.8104 33.5873 49.6924C33.5873 58.5743 40.8144 65.8002 49.6979 65.8002C58.5811 65.8002 65.8085 58.5743 65.8085 49.6924C65.8085 40.8104 58.5814 33.5846 49.6979 33.5846ZM55.8311 58.2144C55.7283 58.2144 55.6248 58.1898 55.53 58.1403L49.6979 55.0746L43.8658 58.14C43.6481 58.2545 43.3839 58.2354 43.1846 58.0909C42.9854 57.946 42.8858 57.7009 42.9275 57.4583L44.0411 50.9653L39.323 46.3669C39.1467 46.1952 39.0833 45.9381 39.1593 45.704C39.2353 45.4699 39.4378 45.2994 39.6814 45.2639L46.2018 44.3166L49.118 38.4089C49.227 38.188 49.4518 38.0483 49.6979 38.0483C49.9441 38.0483 50.1692 38.188 50.2778 38.4089L53.1941 44.3166L59.7141 45.2639C59.958 45.2991 60.1605 45.4699 60.2365 45.704C60.3125 45.9381 60.2491 46.1952 60.0728 46.3669L55.3547 50.9653L56.4683 57.4583C56.5097 57.7009 56.4098 57.946 56.2109 58.0909C56.0986 58.1727 55.965 58.2144 55.8311 58.2144ZM41.1647 46.3556L45.1877 50.2768C45.3401 50.4252 45.41 50.6396 45.3737 50.8492L44.4241 56.3856L49.3971 53.7716C49.5857 53.6727 49.8105 53.6727 49.999 53.7716L54.9721 56.3856L54.0221 50.8492C53.9865 50.6396 54.0557 50.4252 54.2081 50.2768L58.2311 46.3556L52.6717 45.5478C52.4608 45.5174 52.2787 45.3851 52.1843 45.194L49.6979 40.1569L47.2116 45.194C47.1171 45.3848 46.9353 45.5174 46.7244 45.5478L41.1647 46.3556Z" stroke="#B39956"/>
</svg>
