<svg width="214" height="53" viewBox="0 0 214 53" fill="none" xmlns="http://www.w3.org/2000/svg">
<path d="M32.2739 30.6298C32.7028 30.627 32.9573 30.191 32.9545 29.7568C32.9482 28.8014 32.4297 28.2258 30.1987 28.1246L29.97 28.1261C28.0257 28.1388 24.801 29.1154 24.801 29.1154C17.4763 24.0389 8.19686 21.7546 8.16613 17.0647C8.13768 12.7221 19.224 2.74805 39.4676 2.61542C47.1877 2.56485 51.2278 3.8412 51.3209 4.9697L51.3215 5.05655C51.3325 6.73567 48.9391 8.02522 48.9446 8.86478C48.9453 8.98058 48.9745 9.06725 49.0322 9.15372C49.1188 9.26896 49.2621 9.32593 49.4051 9.32499C50.4916 9.31787 52.8778 6.92821 52.8649 4.95958C52.8541 3.30942 50.266 1.06815 39.5437 1.13839C19.5574 1.26933 6.49595 10.9089 6.53635 17.0754C6.56821 21.939 13.1868 23.9802 23.1752 29.734C23.1752 29.734 0.237841 37.7012 0.297017 46.7337C0.314087 49.3392 2.55285 50.6274 6.2985 50.6028C17.8785 50.527 29.3718 41.5635 29.3327 35.5998C29.312 32.4442 26.5527 30.2619 26.5239 30.2332C26.5239 30.2332 28.3213 29.6134 29.7795 29.6039C32.8675 29.5836 31.1874 30.6369 32.2739 30.6298ZM6.40263 49.0388C5.03018 49.0478 1.93704 48.2863 1.92623 46.6362C1.87332 38.559 24.6408 30.8535 24.6408 30.8535C24.6694 30.8533 27.5418 32.8322 27.5613 35.814C27.5962 41.1409 16.6388 48.9717 6.40263 49.0388Z" fill="#7D7D7D"/>
<path d="M37.5663 35.3721C40.2254 35.3547 46.0287 30.8002 46.0259 30.366C46.023 29.9317 45.935 29.5849 45.5919 29.5871C44.8227 30.0264 40.3015 33.8777 37.6424 33.8951C36.613 33.9018 36.1769 32.8045 36.1731 32.2255C36.1663 31.1833 36.4767 30.5443 36.4767 30.5443C37.5876 29.9001 43.4987 24.3317 43.4987 24.3317L44.2987 24.2396C46.1 24.2278 45.5897 24.897 46.133 24.8934C46.8192 24.8889 47.7599 24.4485 47.7559 23.8405C47.7503 22.972 46.8061 22.8914 45.2621 22.9015L44.7189 22.905C45.9703 21.8835 50.3343 15.862 50.3209 13.8065C50.3155 12.9959 49.795 12.1018 48.9658 12.1072C46.2495 12.125 42.1118 17.7687 38.7159 23.176C37.3446 23.3587 36.5162 23.4799 34.8881 23.7511C35.401 23.4872 36.3429 23.2205 36.3389 22.6125C36.3372 22.352 36.1645 22.1794 35.9066 22.0942C35.3919 22.0976 31.9705 23.5965 31.975 24.2913C31.9773 24.6388 31.9807 25.1599 32.667 25.1554C34.0394 25.1464 35.5813 24.8178 37.7246 24.63C35.3477 28.4383 34.6755 30.5851 34.6892 32.6695C34.6971 33.8854 35.622 35.3849 37.5663 35.3721ZM43.1175 22.8866L40.3451 23.0784C43.5715 17.9908 47.145 13.5088 48.4888 13.5C48.8034 13.498 49.0342 13.8149 49.0372 14.2781C49.0433 15.2045 44.6531 21.6026 43.1175 22.8866ZM36.9781 28.5145L39.3256 24.5906L41.7549 24.401C41.7549 24.401 37.4634 28.3955 36.9781 28.5145Z" fill="#7D7D7D"/>
<path d="M55.8599 30.012L55.8593 29.9252C55.8574 29.6357 55.7425 29.5496 55.5709 29.5507C55.3136 29.5524 50.1652 33.6972 46.7055 33.7199C44.9899 33.7312 44.7589 33.3852 44.7565 33.0089C44.7548 32.7483 45.0939 32.1381 46.1512 32.0444C47.8653 31.8015 50.5178 30.7708 50.507 29.1207C50.5017 28.31 49.7563 28.0254 49.1845 28.0292C47.183 28.0423 43.1971 30.674 43.2123 32.9901C43.2195 34.0902 44.2272 35.1548 46.1429 35.1422C50.2603 35.1153 55.5503 30.7668 55.5789 30.7666C55.6923 30.6211 55.8625 30.4173 55.8599 30.012ZM48.6787 29.3932C48.8503 29.3921 48.9365 29.4494 48.9374 29.5942C48.9399 29.9705 46.5722 30.8256 45.9147 30.8589C45.9124 30.5115 48.2498 29.396 48.6787 29.3932Z" fill="#7D7D7D"/>
<path d="M54.9792 35.258C57.0379 35.2446 61.0444 31.3967 61.0444 31.3967C61.0444 31.3967 61.9062 31.999 63.1071 31.9912C66.3667 31.9698 68.9309 30.5633 68.9298 30.3896C68.9275 30.0422 68.752 29.4354 68.4946 29.4371C66.5308 30.8396 65.159 30.9355 63.1861 30.9484C62.3283 30.954 61.8113 30.61 61.8113 30.61C61.8113 30.61 62.3232 30.1724 62.318 29.3907C62.3135 28.6959 61.7102 28.2656 61.2813 28.2684C60.3949 28.2742 59.9132 28.9432 59.9172 29.5512C59.9212 30.1591 60.2673 30.6201 60.2673 30.6201C60.2673 30.6201 56.9419 33.6818 55.8268 33.6891C55.5694 33.6908 55.4825 33.5177 55.4814 33.344C55.4757 32.4754 56.067 31.0819 56.2357 30.6465C56.922 30.642 57.5997 29.3348 57.5957 28.7268C57.5923 28.2057 57.0765 28.0354 56.6476 28.0382C55.9613 28.0427 54.1004 32.0502 54.1146 34.2215C54.1186 34.8294 54.3788 35.262 54.9792 35.258Z" fill="#7D7D7D"/>
<path d="M78.7912 29.8618L78.7907 29.775C78.7888 29.4855 78.6738 29.3994 78.5023 29.4005C78.2449 29.4022 73.0966 33.547 69.6369 33.5697C67.9213 33.5809 67.6903 33.235 67.6878 32.8587C67.6861 32.5981 68.0252 31.9879 69.0826 31.8941C70.7966 31.6513 73.4491 30.6206 73.4383 28.9704C73.433 28.1598 72.6877 27.8752 72.1158 27.8789C70.1144 27.892 66.1284 30.5238 66.1436 32.8398C66.1508 33.9399 67.1586 35.0045 69.0743 34.992C73.1917 34.965 78.4816 30.6166 78.5102 30.6164C78.6237 30.4709 78.7939 30.2671 78.7912 29.8618ZM71.6101 29.243C71.7817 29.2418 71.8678 29.2992 71.8688 29.4439C71.8712 29.8203 69.5035 30.6754 68.8461 30.7087C68.8438 30.3613 71.1812 29.2458 71.6101 29.243Z" fill="#7D7D7D"/>
<path d="M77.2181 34.1569C77.9901 34.1519 82.1979 30.4764 83.3988 30.4686L83.4564 30.5261C83.4585 30.8445 83.093 31.8023 83.0987 32.6708C83.1018 33.134 83.4494 33.8266 84.4502 33.8201C85.794 33.8112 91.1846 31.7204 92.8598 29.9144C92.8581 29.6538 92.3981 29.2805 92.3981 29.2805C91.8017 29.8924 86.6151 32.5609 84.8137 32.5728C84.5278 32.5746 84.4693 32.3723 84.4685 32.2565C84.4651 31.7354 84.9426 30.4295 84.9375 29.6478C84.9349 29.2425 84.733 28.9833 84.1612 28.987C82.6171 28.9971 78.578 32.2372 78.2349 32.2395C78.0348 32.2408 77.9484 32.1545 77.9477 32.0387C77.9443 31.5176 79.3364 30.1478 79.3335 29.7135C79.3307 29.2792 78.987 29.1946 78.8155 29.1958C78.1292 29.2003 76.262 32.2524 76.2683 33.2078C76.2723 33.8157 76.7034 34.1603 77.2181 34.1569Z" fill="#7D7D7D"/>
<path d="M165.667 4.77065C165.669 5.11806 164.845 5.8762 164.848 6.3973C164.85 6.71576 165.223 6.88703 165.395 6.8859C165.766 6.88347 167.046 5.83282 167.039 4.73271C167.025 2.59039 162.193 2.59309 159.391 2.61145L159.076 2.61351C153.558 2.64966 147.673 3.52781 142.506 4.80658C139.851 5.46091 139.337 5.60903 139.34 6.10119C139.343 6.4486 139.803 6.82195 140.46 6.81764L140.918 6.81465C138.745 11.2585 110.804 49.8313 108.545 49.8172C108.517 49.7884 108.516 49.7305 108.516 49.6437C108.51 48.7752 115.895 28.1711 120.025 17.0267C120.756 15.0242 121.717 13.4256 121.71 12.2965C121.704 11.3991 121.186 10.8813 119.728 10.8909C117.498 10.9055 107.986 12.5022 107.996 14.0366C108.001 14.7314 109.692 15.3283 110.349 15.324C110.435 15.3235 110.521 15.3229 110.578 15.2936C110.749 15.1766 110.862 15.0311 110.861 14.8574C110.857 14.2495 110.142 14.1673 110.141 14.0226C110.14 13.9647 110.397 13.8472 111.31 13.6096C113.365 13.0171 118.535 12.2015 119.937 12.1923C120.194 12.1907 120.337 12.1897 120.339 12.4503C120.339 12.4792 107.518 45.7707 107.144 49.7685L107.09 50.3478C107.093 50.7242 107.208 50.8682 107.496 51.1848C107.784 51.4724 107.928 51.5873 108.099 51.5861C111.731 51.5624 139.122 12.0377 139.972 10.8451C141.276 9.04158 142.293 7.18201 142.289 6.603C142.288 6.4293 142.372 6.25504 142.429 6.19676C142.629 6.1086 151.308 3.99618 158.999 3.94579C160.028 3.93904 165.662 4.07584 165.667 4.77065Z" fill="#7D7D7D"/>
<path d="M141.695 29.4497L141.695 29.3628C141.693 29.0733 141.578 28.9872 141.406 28.9884C141.149 28.99 136.001 33.1349 132.541 33.1576C130.825 33.1688 130.594 32.8229 130.592 32.4465C130.59 32.186 130.929 31.5758 131.987 31.482C133.701 31.2392 136.353 30.2085 136.342 28.5583C136.337 27.7477 135.592 27.4631 135.02 27.4668C133.018 27.4799 129.032 30.1117 129.048 32.4277C129.055 33.5278 130.063 34.5924 131.978 34.5799C136.096 34.5529 141.386 30.2045 141.414 30.2043C141.528 30.0588 141.698 29.855 141.695 29.4497ZM134.514 28.8309C134.686 28.8297 134.772 28.8871 134.773 29.0318C134.775 29.4082 132.407 30.2633 131.75 30.2965C131.748 29.9491 134.085 28.8337 134.514 28.8309Z" fill="#7D7D7D"/>
<path d="M152.014 28.861C151.871 28.8619 150.532 29.6524 148.073 29.6685C147.358 29.6732 147.072 29.6461 146.443 29.5634C145.756 29.481 145.355 29.4257 145.069 29.4276C143.811 29.4358 141.593 31.2743 141.507 31.2459C141.507 31.217 142.553 29.473 142.55 29.0388C142.55 28.9809 142.521 28.9232 142.521 28.8942C142.405 28.6344 142.232 28.4908 142.003 28.4923C141.861 28.4932 141.689 28.5522 141.547 28.7269C141.178 29.1057 140.277 31.254 139.599 32.4454C139.345 32.9103 139.232 33.1137 139.233 33.2874C139.233 33.4032 139.32 33.4895 139.435 33.6335C139.608 33.8351 139.809 33.9785 140.324 33.9751C140.838 33.9718 143.963 30.8245 145.193 30.8165C145.193 30.8165 147.367 31.0628 148.397 31.056C150.227 31.044 152.678 29.9278 152.675 29.4067C152.673 29.0304 152.414 28.8583 152.014 28.861Z" fill="#7D7D7D"/>
<path d="M163.68 28.8135C161.885 29.8675 160.173 30.313 157.174 30.8538C157.174 30.8538 157.398 30.1285 157.395 29.7522C157.39 28.8837 156.898 28.1052 155.926 28.1115C155.068 28.1172 153.647 29.3135 152.992 29.8389L153.219 29.49C161.84 22.9194 165.394 15.5135 165.374 12.3868C165.368 11.6052 164.852 11.348 164.423 11.3508C162.536 11.3632 152.771 26.6557 150.516 31.5054C150.175 31.855 148.896 33.0794 148.902 33.9479C148.905 34.3821 149.335 34.6399 149.507 34.6388C150.365 34.6331 150.789 33.9355 151.976 31.8432C152.459 31.4058 154.82 29.4216 155.677 29.416C155.935 29.4143 156.022 29.7033 156.025 30.0217C156.028 30.5428 155.718 31.2976 155.718 31.2976C154.435 31.8271 150.924 32.6897 150.941 35.2952C150.944 35.7295 151.148 36.452 151.835 36.4475C153.293 36.4379 155.31 34.3981 156.669 32.3915C158.21 31.9182 162.578 30.9052 163.944 29.854L164.03 29.8535C164.2 29.6786 164.256 29.5046 164.255 29.3598C164.253 29.0413 163.966 28.8116 163.68 28.8135ZM163.664 13.3534L163.693 13.3533C163.807 13.3525 163.866 13.5837 163.867 13.8153C163.885 16.4498 159.832 21.9193 154.12 27.3127C158.678 20.3924 162.949 13.3581 163.664 13.3534ZM152.482 34.8509C152.478 34.3298 153.588 33.5119 154.672 33.1284C153.735 34.0899 152.854 34.8484 152.482 34.8509Z" fill="#7D7D7D"/>
<path d="M160.998 34.0423C161.369 34.0399 161.826 33.9211 162.225 33.6869C162.994 33.3055 164.584 31.5869 164.979 30.7737C165.12 30.4253 165.205 30.28 165.434 30.2785C165.548 30.2778 166.724 30.8491 168.754 30.8358C170.384 30.8251 172.292 29.5967 172.291 29.423C172.289 29.1335 172.258 28.7573 171.629 28.7614C171.314 28.7635 170.119 29.6109 168.861 29.6191C166.973 29.6315 165.482 28.9464 165.194 28.6878C165.022 28.5441 164.735 28.4013 164.563 28.4024C163.534 28.4091 160.096 31.6742 160.105 33.0349C160.107 33.4691 160.254 34.0472 160.998 34.0423ZM161.617 32.5328C161.616 32.417 162.041 31.8641 162.666 31.2521C163.036 30.8733 163.292 30.6689 163.406 30.6682L163.435 30.668C163.436 30.8706 162.528 31.9768 161.617 32.5328Z" fill="#7D7D7D"/>
<path d="M183.899 29.289C183.897 28.9416 183.637 28.6827 183.294 28.685C183.209 28.6855 176.374 32.9862 172.857 33.0092L172.686 33.0104C171.828 33.016 171.054 32.7605 171.047 31.7183C171.037 30.155 174.2 28.3971 175.143 28.391L175.229 28.3904C175.486 28.3887 175.489 28.7361 176.003 28.7328C176.261 28.7311 176.688 28.5546 176.686 28.2072C176.683 27.686 176.422 27.1666 175.307 27.1739C173.191 27.1878 169.604 29.6143 169.618 31.7566C169.628 33.2331 170.092 34.3302 172.351 34.3154L172.694 34.3131C176.297 34.2895 180.684 31.742 182.363 30.6019L183.901 29.5496L183.899 29.289Z" fill="#7D7D7D"/>
<path d="M198.22 28.5872C198.105 28.588 197.706 28.7932 197.023 29.203C193.719 31.1934 191.381 32.1931 190.008 32.202L189.922 32.1158C189.917 31.392 190.368 30.3178 190.362 29.5072C190.358 28.8414 190.069 28.38 189.04 28.3868C188.525 28.3902 186.219 29.9107 182.121 32.9486C184.613 29.1975 184.245 29.75 184.585 29.2845C193.801 21.9573 196.756 14.7 196.74 12.1813C196.735 11.4865 196.418 11.1412 195.789 11.1453C194.303 11.1551 189.911 17.3216 182.614 29.6448C180.689 32.5526 180.353 33.655 180.358 34.4656C180.361 34.8709 180.677 35.0715 181.134 35.0685C181.478 35.0662 182.162 34.8301 184.637 32.9031C187.112 30.9182 188.535 29.9535 188.878 29.9512C188.627 30.8214 188.432 31.6333 188.436 32.2413C188.442 33.1388 188.817 33.6864 189.761 33.6802C190.619 33.6746 193.441 32.3533 198.227 29.7163C198.512 29.4828 198.653 29.2503 198.652 29.0186C198.65 28.7291 198.506 28.5853 198.22 28.5872ZM195.03 13.1479C195.145 13.1472 195.203 13.2916 195.205 13.5811C195.229 17.3157 188.299 24.4832 185.514 27.1071C192.195 16.8434 194.345 13.2972 195.03 13.1479Z" fill="#7D7D7D"/>
<path d="M200.602 34.304C203.261 34.2866 209.064 29.7321 209.062 29.2979C209.059 28.8636 208.971 28.5168 208.628 28.519C207.858 28.9583 203.337 32.8096 200.678 32.827C199.649 32.8337 199.213 31.7364 199.209 31.1574C199.202 30.1152 199.512 29.4762 199.512 29.4762C200.623 28.832 206.534 23.2635 206.534 23.2635L207.334 23.1714C209.136 23.1596 208.625 23.8289 209.169 23.8253C209.855 23.8208 210.796 23.3804 210.792 22.7724C210.786 21.9039 209.842 21.8232 208.298 21.8334L207.755 21.8369C209.006 20.8154 213.37 14.7938 213.357 12.7384C213.351 11.9278 212.831 11.0337 212.001 11.0391C209.285 11.0569 205.147 16.7006 201.752 22.1079C200.38 22.2906 199.552 22.4118 197.924 22.683C198.437 22.4191 199.379 22.1524 199.375 21.5444C199.373 21.2838 199.2 21.1113 198.942 21.0261C198.428 21.0295 195.006 22.5284 195.011 23.2232C195.013 23.5706 195.016 24.0917 195.703 24.0872C197.075 24.0783 198.617 23.7497 200.76 23.5619C198.383 27.3702 197.711 29.517 197.725 31.6014C197.733 32.8173 198.658 34.3167 200.602 34.304ZM206.153 21.8185L203.381 22.0103C206.607 16.9227 210.181 12.4407 211.524 12.4319C211.839 12.4298 212.07 12.7468 212.073 13.21C212.079 14.1364 207.689 20.5345 206.153 21.8185ZM200.014 27.4463L202.361 23.5225L204.791 23.3329C204.791 23.3329 200.499 27.3274 200.014 27.4463Z" fill="#7D7D7D"/>
</svg>
