<svg width="31" height="31" viewBox="0 0 31 31" fill="none" xmlns="http://www.w3.org/2000/svg">
<path d="M20.6667 27.125V24.5417C20.6667 23.1714 20.1224 21.8572 19.1535 20.8883C18.1845 19.9193 16.8704 19.375 15.5001 19.375H6.45841C5.08813 19.375 3.77397 19.9193 2.80503 20.8883C1.83609 21.8572 1.29175 23.1714 1.29175 24.5417V27.125" stroke="#FF6340" stroke-width="2" stroke-linecap="round" stroke-linejoin="round"/>
<path d="M10.9792 14.2083C13.8326 14.2083 16.1458 11.8951 16.1458 9.04167C16.1458 6.1882 13.8326 3.875 10.9792 3.875C8.12569 3.875 5.8125 6.1882 5.8125 9.04167C5.8125 11.8951 8.12569 14.2083 10.9792 14.2083Z" stroke="#FF6340" stroke-width="2" stroke-linecap="round" stroke-linejoin="round"/>
<path d="M21.9583 14.2083L24.5416 16.7917L29.7083 11.625" stroke="#FF6340" stroke-width="2" stroke-linecap="round" stroke-linejoin="round"/>
</svg>
