<svg width="94" height="82" viewBox="0 0 94 82" fill="none" xmlns="http://www.w3.org/2000/svg">
<path d="M23.1197 82C16.0216 82 10.343 79.4691 6.08414 74.4074C2.02805 69.1432 0 62.3605 0 54.0593C0 42.721 3.04207 32.4963 9.12621 23.3852C15.4132 14.0716 24.945 6.27654 37.7217 0L41.068 4.85925C34.9838 8.5037 29.4067 13.6667 24.3366 20.3481C19.4693 26.8272 17.0356 33.4074 17.0356 40.0889C17.0356 41.9111 17.5426 43.4296 18.5566 44.6444C19.5707 45.6568 21.0917 46.163 23.1197 46.163C28.1899 46.163 32.4488 47.9852 35.8964 51.6296C39.5469 55.0716 41.3722 59.3235 41.3722 64.3852C41.3722 69.4469 39.5469 73.6988 35.8964 77.1407C32.4488 80.3802 28.1899 82 23.1197 82ZM75.7476 82C68.6494 82 62.9709 79.4691 58.712 74.4074C54.6559 69.1432 52.6278 62.3605 52.6278 54.0593C52.6278 42.721 55.6699 32.4963 61.754 23.3852C68.041 14.0716 77.5728 6.27654 90.3495 0L93.6958 4.85925C87.6117 8.5037 82.0345 13.6667 76.9644 20.3481C72.0971 26.8272 69.6634 33.4074 69.6634 40.0889C69.6634 41.9111 70.1705 43.4296 71.1845 44.6444C72.1985 45.6568 73.7195 46.163 75.7476 46.163C80.8177 46.163 85.0766 47.9852 88.5243 51.6296C92.1748 55.0716 94 59.3235 94 64.3852C94 69.4469 92.1748 73.6988 88.5243 77.1407C85.0766 80.3802 80.8177 82 75.7476 82Z" fill="black"/>
</svg>
